<svg width="20" height="20" viewBox="0 0 20 20" fill="none" xmlns="http://www.w3.org/2000/svg">
<path d="M16.0514 4.10004L12.0657 0.114414C11.9925 0.0411719 11.8931 0 11.7895 0L1.42688 3.90625e-05C1.21114 3.90625e-05 1.03625 0.174922 1.03625 0.390664V17.9274C1.03625 18.1432 1.21114 18.318 1.42688 18.318H12.5228C13.0406 18.2988 13.0402 17.5558 12.5228 17.5368H1.8175V0.781289L11.3989 0.78125V4.37625C11.3989 4.59199 11.5738 4.76687 11.7895 4.76687H15.3845V13.2466C15.4038 13.7643 16.1468 13.7639 16.1658 13.2466V4.37625C16.1658 4.27266 16.1246 4.17328 16.0514 4.10004ZM12.1802 1.33371L14.8321 3.98566H12.1802V1.33371Z" fill="#1E2F85"/>
<path d="M9.39815 4.76686C9.6139 4.76686 9.78878 4.59197 9.78878 4.37623V2.37549H10.0956C10.6134 2.35627 10.613 1.61326 10.0956 1.59424H8.70065C8.18292 1.61346 8.18331 2.35646 8.70065 2.37549H9.00753V4.37623C9.00753 4.59197 9.18241 4.76686 9.39815 4.76686Z" fill="#1E2F85"/>
<path d="M7.50502 4.76682C7.72077 4.76682 7.89565 4.59193 7.89565 4.37619V2.78193C7.83573 1.20799 5.57948 1.2092 5.52014 2.78193V4.37619C5.53936 4.89393 6.28237 4.89354 6.30139 4.37619V3.96963H7.1144V4.37619C7.1144 4.59193 7.28928 4.76682 7.50502 4.76682ZM6.30139 3.18842V2.78193C6.3219 2.24326 7.09409 2.24369 7.1144 2.78193V3.18838H6.30139V3.18842Z" fill="#1E2F85"/>
<path d="M3.54725 4.49979C3.6633 4.85295 4.17248 4.8528 4.28842 4.49979L5.08557 2.10838C5.15381 1.90373 5.04319 1.68252 4.8385 1.61428C4.63393 1.54604 4.4126 1.65662 4.3444 1.86135L3.91784 3.141L3.49127 1.86131C3.42303 1.65666 3.20182 1.54608 2.99717 1.61428C2.79252 1.68252 2.6819 1.90373 2.75014 2.10838L3.54725 4.49979Z" fill="#1E2F85"/>
<path d="M14.0813 6.52649H3.1207C2.60296 6.54571 2.60335 7.28872 3.1207 7.30774H14.0813C14.599 7.28852 14.5986 6.54551 14.0813 6.52649Z" fill="#1E2F85"/>
<path d="M14.0813 8.22034H3.1207C2.60296 8.23956 2.60335 8.98256 3.1207 9.00159H14.0813C14.599 8.98237 14.5986 8.2394 14.0813 8.22034Z" fill="#1E2F85"/>
<path d="M3.1207 10.6956H8.60097C9.11871 10.6763 9.11831 9.93333 8.60097 9.91431H3.1207C2.60296 9.93353 2.60335 10.6765 3.1207 10.6956Z" fill="#1E2F85"/>
<path d="M12.6625 11.6082H3.1207C2.60296 11.6274 2.60335 12.3704 3.1207 12.3894H12.6625C13.1803 12.3702 13.1799 11.6272 12.6625 11.6082Z" fill="#1E2F85"/>
<path d="M11.3569 13.6926C11.3569 13.4769 11.182 13.302 10.9663 13.302H3.1207C2.60296 13.3212 2.60335 14.0642 3.1207 14.0833H10.9663C11.182 14.0833 11.3569 13.9084 11.3569 13.6926Z" fill="#1E2F85"/>
<path d="M3.1207 14.996C2.60296 15.0152 2.60335 15.7582 3.1207 15.7772H10.2971C10.8148 15.758 10.8144 15.015 10.2971 14.996H3.1207Z" fill="#1E2F85"/>
<path fill-rule="evenodd" clip-rule="evenodd" d="M15.3766 20C17.3523 20 18.9637 18.3886 18.9637 16.4129C18.7802 11.6613 11.9723 11.6626 11.7896 16.413C11.7896 18.3886 13.4009 20 15.3766 20Z" fill="#1E2F85"/>
<path d="M14.9282 17.7003C14.8246 17.7003 14.7252 17.6591 14.652 17.5859L13.7553 16.6891C13.6027 16.5366 13.6027 16.2892 13.7553 16.1367C13.9079 15.9841 14.1552 15.9842 14.3077 16.1367L14.9282 16.7572L16.4456 15.2399C16.5981 15.0873 16.8455 15.0874 16.998 15.2399C17.1506 15.3924 17.1506 15.6398 16.998 15.7923L15.2044 17.5859C15.1311 17.6591 15.0318 17.7003 14.9282 17.7003Z" fill="white"/>
</svg>
