<svg width="20" height="20" viewBox="0 0 20 20" fill="none" xmlns="http://www.w3.org/2000/svg">
<g clip-path="url(#clip0_4956_7350)">
<path fill-rule="evenodd" clip-rule="evenodd" d="M3.0155 6.82489H16.9846C16.9973 6.55957 17.0069 6.29596 17.0139 6.03497C15.0423 5.48424 13.4899 3.92782 12.9449 1.95386H7.05521C6.51018 3.92782 4.95778 5.48424 2.98621 6.03497C2.9932 6.29592 3.00277 6.55953 3.0155 6.82489Z" fill="#1E2F85"/>
<path fill-rule="evenodd" clip-rule="evenodd" d="M15.8926 12.7228H4.10754C4.32663 13.2753 4.58691 13.8033 4.89587 14.2964C6.10263 16.2225 7.87907 17.3451 10.0001 17.9844C12.1211 17.3451 13.8975 16.2225 15.1043 14.2964C15.4133 13.8033 15.6735 13.2754 15.8926 12.7228Z" fill="#1E2F85"/>
<path d="M8.04705 8.01611H6.67999C6.1623 8.03533 6.16269 8.77823 6.67999 8.79729H6.97293V11.1408C6.99215 11.6585 7.73505 11.6581 7.75411 11.1408V8.79729H8.04705C8.56474 8.77807 8.56435 8.03517 8.04705 8.01611Z" fill="#1E2F85"/>
<path d="M9.97072 8.01611C9.32461 8.01611 8.79895 8.54177 8.79895 9.18788V11.1408C8.81817 11.6585 9.56107 11.6581 9.58013 11.1408V10.5549H10.3613V11.1408C10.3805 11.6585 11.1234 11.6581 11.1425 11.1408V9.18788C11.1425 8.54177 10.6168 8.01611 9.97072 8.01611ZM10.3613 9.77373H9.58013V9.18788C9.59985 8.67031 10.3418 8.6707 10.3613 9.18788V9.77373Z" fill="#1E2F85"/>
<path d="M13.4947 8.05734C13.3017 7.96083 13.0672 8.03902 12.9707 8.23205L12.6365 8.90039L12.3023 8.23205C12.2058 8.03906 11.9711 7.96083 11.7783 8.05734C11.5853 8.15382 11.5071 8.38844 11.6036 8.58135L12.1998 9.77374L11.6036 10.9661C11.5071 11.159 11.5853 11.3937 11.7783 11.4901C11.9671 11.5857 12.2055 11.5103 12.3023 11.3154L12.6365 10.6471L12.9707 11.3154C13.0675 11.5103 13.3059 11.5857 13.4947 11.4901C13.6876 11.3937 13.7658 11.159 13.6694 10.9661L13.0732 9.77374L13.6694 8.58135C13.7658 8.3884 13.6876 8.15382 13.4947 8.05734Z" fill="#1E2F85"/>
<path d="M18.5557 9.77366L19.9566 7.02142C20.0924 6.77347 19.891 6.4451 19.6085 6.45366H18.9532C18.9736 5.89996 18.9835 5.31845 18.9835 4.6878C18.9835 4.58422 18.9424 4.48489 18.8691 4.41162C18.7959 4.33838 18.6965 4.29721 18.593 4.29721C16.4392 4.29721 14.6871 2.54507 14.6871 0.391322C14.6871 0.175638 14.5122 0.000732422 14.2965 0.000732422H5.70351C5.48782 0.000732422 5.31292 0.175638 5.31292 0.391322C5.31292 2.54507 3.56078 4.29721 1.40707 4.29721C1.19138 4.29721 1.01648 4.47212 1.01648 4.6878C1.01648 5.3188 1.02644 5.90031 1.04675 6.45366H0.391497C0.108944 6.4451 -0.0924043 6.77351 0.0434035 7.02142L1.44433 9.77366L0.0434035 12.5259C-0.0924043 12.7739 0.108983 13.1022 0.391497 13.0937H2.15868C3.46887 16.6861 6.00329 18.9418 9.8989 19.9857C9.96511 20.0034 10.0348 20.0034 10.1011 19.9857C13.9964 18.9419 16.5306 16.6862 17.8408 13.0937H19.6085C19.891 13.1022 20.0924 12.7738 19.9566 12.5259L18.5557 9.77366ZM1.79891 5.06218C4.07194 4.87325 5.88951 3.0551 6.07801 0.781911H13.9221C14.1105 3.0551 15.9281 4.87325 18.2012 5.06218C18.1979 5.55178 18.1881 6.01182 18.1715 6.45366H1.82847C1.81191 6.01213 1.80215 5.55206 1.79891 5.06218ZM9.99999 19.2037C6.52449 18.2461 4.22716 16.2441 2.9938 13.0937H17.0056C15.7724 16.2442 13.4752 18.2462 9.99999 19.2037ZM1.02863 12.3125L2.2307 9.95083C2.28734 9.83952 2.28734 9.70777 2.2307 9.59649L1.02863 7.23483H18.9714L17.7694 9.59649C17.7127 9.70785 17.7127 9.83952 17.7694 9.95083L18.9714 12.3125H1.02863Z" fill="#1E2F85"/>
</g>
<defs>
<clipPath id="clip0_4956_7350">
<rect width="20" height="20" fill="white"/>
</clipPath>
</defs>
</svg>
