<svg width="20" height="20" viewBox="0 0 20 20" fill="none" xmlns="http://www.w3.org/2000/svg">
<path fill-rule="evenodd" clip-rule="evenodd" d="M4.28612 10.6395L14.0963 8.01092C14.5114 7.8997 14.9419 8.14834 15.0531 8.56334L16.2664 13.0911C16.3775 13.5061 16.1289 13.9367 15.7139 14.0479L5.90373 16.6766C5.48873 16.7878 5.05811 16.5392 4.9469 16.1242L3.7337 11.5963C3.62249 11.1813 3.87108 10.7508 4.28612 10.6395Z" fill="#1E2F85"/>
<path d="M18.0887 4.02066L14.1825 0.114414C14.1092 0.0411719 14.0099 0 13.9062 0H2.1875C1.97176 0 1.79688 0.174922 1.79688 0.390625V19.6094C1.79688 19.8251 1.97176 20 2.1875 20H17.8125C18.0282 20 18.2031 19.8251 18.2031 19.6094V4.29688C18.2031 4.19328 18.162 4.09395 18.0887 4.02066ZM14.2969 1.33367L16.8694 3.90625H14.2969V1.33367ZM2.57812 19.2188V0.78125H13.5156V4.29688C13.5156 4.51258 13.6905 4.6875 13.9062 4.6875H17.4219V19.2188H2.57812Z" fill="#1E2F85"/>
<path d="M4.04294 2.34375V4.68746C4.06216 5.20519 4.80517 5.2048 4.82419 4.68746V2.34375H5.11716C5.63489 2.32453 5.6345 1.58152 5.11716 1.5625H3.74997C3.23224 1.58172 3.23263 2.32473 3.74997 2.34375H4.04294Z" fill="#1E2F85"/>
<path d="M6.25977 5.07807C6.47551 5.07807 6.65039 4.90315 6.65039 4.68744V4.10147H7.43164V4.68744C7.45086 5.20518 8.19387 5.20479 8.21289 4.68744V2.73436C8.15379 1.18139 5.92766 1.18256 5.86914 2.73436V4.68744C5.86914 4.90315 6.04402 5.07807 6.25977 5.07807ZM6.65039 2.73436C6.67008 2.21666 7.41215 2.21705 7.43164 2.73436V3.32022H6.65039V2.73436Z" fill="#1E2F85"/>
<path d="M8.89265 5.03686C9.08148 5.13244 9.31988 5.05705 9.41675 4.86213L9.75097 4.19373L10.0852 4.86213C10.1821 5.05705 10.4204 5.1324 10.6093 5.03686C10.8023 4.94037 10.8805 4.70572 10.784 4.51279L10.1877 3.32029L10.7839 2.12779C10.8804 1.93486 10.8022 1.70021 10.6092 1.60373C10.4162 1.50721 10.1816 1.58541 10.0851 1.77846L9.75093 2.44686L9.41675 1.77846C9.32027 1.58549 9.08566 1.50729 8.89265 1.60373C8.69968 1.70021 8.62148 1.93486 8.71797 2.12779L9.31422 3.32029L8.71797 4.51283C8.62148 4.70576 8.69968 4.94041 8.89265 5.03686Z" fill="#1E2F85"/>
<path d="M15.8593 6.25H4.1406C3.62286 6.26922 3.62325 7.01223 4.1406 7.03125H15.8593C16.3771 7.01203 16.3767 6.26902 15.8593 6.25Z" fill="#1E2F85"/>
<path d="M6.25974 7.8125H4.1406C3.62286 7.83172 3.62325 8.57473 4.1406 8.59375H6.25974C6.77747 8.57453 6.77708 7.83152 6.25974 7.8125Z" fill="#1E2F85"/>
<path d="M9.62858 10.7772C9.35701 10.6204 9.04135 10.5785 8.73983 10.6593C8.4383 10.7401 8.18588 10.9342 8.02904 11.2058C7.87225 11.4774 7.83037 11.793 7.91115 12.0945L8.51776 14.3584C8.67049 14.8551 9.38928 14.658 9.27236 14.1562L9.07018 13.4016L9.82479 13.1994L10.027 13.954C10.0829 14.1624 10.297 14.2861 10.5055 14.2302C10.7138 14.1744 10.8375 13.9602 10.7817 13.7518L10.1751 11.4879C10.0943 11.1865 9.90022 10.934 9.62858 10.7772ZM8.86799 12.647L8.6658 11.8924C8.63901 11.7924 8.65319 11.6874 8.70565 11.5965C8.75811 11.5056 8.84205 11.4408 8.94201 11.414C9.04205 11.3872 9.14709 11.4014 9.23795 11.4539C9.32885 11.5063 9.39365 11.5903 9.42041 11.6903L9.6226 12.4448L8.86799 12.647Z" fill="white"/>
<path d="M10.8151 10.1034C10.6067 10.1592 10.4831 10.3734 10.5389 10.5818L11.3477 13.6003C11.4028 13.8104 11.6233 13.9326 11.8261 13.8765C12.0345 13.8206 12.1582 13.6065 12.1023 13.3981L11.2935 10.3796C11.2378 10.1712 11.0235 10.0475 10.8151 10.1034Z" fill="white"/>
<path d="M7.53384 12.1957C7.45306 11.8942 7.25895 11.6418 6.98735 11.485C6.71575 11.3282 6.40009 11.2863 6.0986 11.3671L5.34399 11.5693C5.14024 11.6196 5.00946 11.8461 5.06778 12.0477L5.87661 15.0662C5.93169 15.2764 6.15227 15.3985 6.35505 15.3424C6.56341 15.2866 6.68708 15.0724 6.63126 14.864L6.32794 13.7321L6.70528 13.631C7.32938 13.4637 7.7011 12.8198 7.53384 12.1957ZM6.50302 12.8764L6.12571 12.9774L5.92352 12.2228L6.30087 12.1217C6.40075 12.0949 6.50587 12.1091 6.59677 12.1616C6.68767 12.2141 6.75243 12.298 6.77923 12.398C6.83497 12.606 6.71106 12.8206 6.50302 12.8764Z" fill="white"/>
<path d="M12.8503 13.4836C12.9402 13.5355 13.0471 13.5494 13.1468 13.5226L13.9014 13.3204C14.2029 13.2396 14.4553 13.0456 14.6121 12.774C14.7689 12.5023 14.8108 12.1867 14.73 11.8852L14.3256 10.3759C14.2448 10.0744 14.0507 9.82196 13.7791 9.66516C13.5075 9.50833 13.1918 9.46649 12.8904 9.54727L12.1357 9.74946C11.932 9.79977 11.8012 10.0263 11.8595 10.2279L12.6684 13.2464C12.6952 13.3465 12.7606 13.4318 12.8503 13.4836ZM13.0926 10.3019C13.1925 10.275 13.2977 10.2892 13.3885 10.3417C13.4794 10.3942 13.5442 10.4781 13.571 10.5781L13.9754 12.0874C14.0022 12.1873 13.988 12.2924 13.9355 12.3833C13.8831 12.4742 13.7991 12.539 13.6992 12.5658L13.3219 12.6669L12.7153 10.403L13.0926 10.3019Z" fill="white"/>
<path d="M15.8593 17.5781H4.1406C3.62286 17.5973 3.62325 18.3404 4.1406 18.3594H15.8593C16.3771 18.3402 16.3767 17.5971 15.8593 17.5781Z" fill="#1E2F85"/>
<path d="M15.8593 16.0156H13.7402C13.2225 16.0348 13.2229 16.7779 13.7402 16.7969H15.8593C16.3771 16.7777 16.3767 16.0346 15.8593 16.0156Z" fill="#1E2F85"/>
</svg>
