<svg width="20" height="20" viewBox="0 0 20 20" fill="none" xmlns="http://www.w3.org/2000/svg">
<g clip-path="url(#clip0_4956_7385)">
<path d="M16.131 7.58108L8.38589 1.12678C8.24104 1.00608 8.03061 1.00608 7.88569 1.12678L0.140573 7.58108C-0.0250522 7.71909 -0.0475522 7.96522 0.0902993 8.13096L1.23229 9.50413C1.29858 9.58381 1.39385 9.63389 1.49706 9.64331C1.59995 9.65295 1.70299 9.62081 1.78268 9.55444L2.1653 9.23561V16.9788H0.390612C-0.127123 16.998 -0.126732 17.741 0.390612 17.7601H13.5291C14.0468 17.7408 14.0464 16.9979 13.5291 16.9788H10.5192V10.1953C10.5192 9.9796 10.3443 9.80467 10.1286 9.80467H6.14296C5.92725 9.80467 5.75233 9.9796 5.75233 10.1953V16.9788H2.94655V8.58456L8.13581 4.26022L13.3251 8.58463V12.4186C13.3443 12.9364 14.0873 12.936 14.1063 12.4186V9.23569L14.4889 9.55448C14.5684 9.62088 14.672 9.65292 14.7745 9.64334C14.8777 9.63393 14.973 9.58385 15.0392 9.50417L16.1812 8.131C16.3191 7.96522 16.2966 7.71909 16.131 7.58108ZM6.53358 14.173H6.94007C7.4578 14.1538 7.45741 13.4108 6.94007 13.3917H6.53358V10.5859H9.73796V16.9788H6.53358V14.173ZM14.6886 8.70393L8.38589 3.45163C8.241 3.33092 8.03057 3.33092 7.88569 3.45163L1.58296 8.70393L0.940495 7.93147L8.13581 1.93542L15.3311 7.93147L14.6886 8.70393Z" fill="#1E2F85"/>
<path fill-rule="evenodd" clip-rule="evenodd" d="M16.0144 18.9636C18.2096 18.9636 20.0001 17.1732 20.0001 14.978C19.7962 9.69849 12.2319 9.69994 12.0288 14.9781C12.0288 17.1733 13.8192 18.9636 16.0144 18.9636Z" fill="#1E2F85"/>
<path fill-rule="evenodd" clip-rule="evenodd" d="M8.13581 8.46177C8.6846 8.46177 9.13222 8.01416 9.13222 7.46537C9.08124 6.14548 7.19015 6.14584 7.1394 7.46537C7.1394 8.01416 7.58702 8.46177 8.13581 8.46177Z" fill="#1E2F85"/>
<path d="M17.2061 12.9138C17.0192 12.806 16.7803 12.87 16.6725 13.0568L14.6797 16.5085C14.4367 16.9638 15.081 17.3388 15.3562 16.8991L17.3491 13.4474C17.4569 13.2606 17.3929 13.0217 17.2061 12.9138Z" fill="white"/>
<path d="M15.0182 13.6428C15.5359 13.6236 15.5355 12.8806 15.0182 12.8616H15.0179C14.5001 12.8809 14.5009 13.6238 15.0182 13.6428Z" fill="white"/>
<path d="M17.0108 16.3131H17.0105C16.7948 16.3131 16.62 16.488 16.62 16.7037C16.6392 17.2212 17.3823 17.2213 17.4014 16.7037C17.4014 16.488 17.2265 16.3131 17.0108 16.3131Z" fill="white"/>
</g>
<defs>
<clipPath id="clip0_4956_7385">
<rect width="20" height="20" fill="white"/>
</clipPath>
</defs>
</svg>
