<svg width="32" height="32" viewBox="0 0 32 32" fill="none" xmlns="http://www.w3.org/2000/svg">
<g clip-path="url(#clip0_5619_7640)">
<path d="M7.42979 10.5142C7.04779 7.99816 8.82179 5.73816 11.5318 4.91016C12.0127 4.76313 12.5316 4.80498 12.9827 5.0272C13.4338 5.24942 13.7833 5.63528 13.9598 6.10616L14.8298 8.42616C14.9698 8.79939 14.9952 9.20595 14.9025 9.59367C14.8099 9.9814 14.6035 10.3326 14.3098 10.6022L11.7218 12.9722C11.5942 13.0892 11.4992 13.2374 11.4459 13.4021C11.3926 13.5668 11.3829 13.7426 11.4178 13.9122L11.4418 14.0162L11.5038 14.2762C11.8256 15.5395 12.316 16.7537 12.9618 17.8862C13.6652 19.0896 14.5382 20.1855 15.5538 21.1402L15.6338 21.2122C15.763 21.3268 15.9197 21.4061 16.0886 21.4422C16.2576 21.4783 16.433 21.47 16.5978 21.4182L19.9438 20.3642C20.324 20.2448 20.7313 20.2417 21.1133 20.3554C21.4953 20.4691 21.8347 20.6943 22.0878 21.0022L23.6718 22.9242C24.3318 23.7242 24.2518 24.9002 23.4938 25.6062C21.4198 27.5402 18.5678 27.9362 16.5838 26.3422C14.1518 24.3805 12.1017 21.988 10.5358 19.2842C8.95717 16.5824 7.90471 13.607 7.42979 10.5142ZM13.5158 14.0442L15.6598 12.0762C16.2475 11.5372 16.6607 10.835 16.8463 10.0595C17.032 9.28406 16.9817 8.47081 16.7018 7.72416L15.8338 5.40416C15.4785 4.45666 14.7753 3.68028 13.8674 3.23324C12.9596 2.7862 11.9155 2.70213 10.9478 2.99816C7.58179 4.02816 4.87979 7.04616 5.45179 10.8162C5.85179 13.4482 6.77379 16.7962 8.80779 20.2922C10.4972 23.2076 12.7087 25.7872 15.3318 27.9022C18.3078 30.2922 22.2798 29.4762 24.8598 27.0722C25.598 26.3848 26.0461 25.4416 26.1126 24.4351C26.1792 23.4287 25.8591 22.4347 25.2178 21.6562L23.6338 19.7322C23.1271 19.1171 22.4482 18.6675 21.6842 18.4408C20.9202 18.2142 20.1059 18.2209 19.3458 18.4602L16.5678 19.3342C15.8505 18.5946 15.2223 17.7737 14.6958 16.8882C14.1872 15.9929 13.7909 15.0384 13.5158 14.0462V14.0442Z" fill="#FB8500"/>
</g>
<defs>
<clipPath id="clip0_5619_7640">
<rect width="32" height="32" fill="white"/>
</clipPath>
</defs>
</svg>
