<svg width="32" height="32" viewBox="0 0 32 32" fill="none" xmlns="http://www.w3.org/2000/svg">
<g clip-path="url(#clip0_5517_16103)">
<path d="M7.42881 10.5142C7.04681 7.99816 8.82081 5.73816 11.5308 4.91016C12.0117 4.76313 12.5306 4.80498 12.9817 5.0272C13.4329 5.24942 13.7823 5.63528 13.9588 6.10616L14.8288 8.42616C14.9689 8.79939 14.9942 9.20595 14.9015 9.59367C14.8089 9.9814 14.6025 10.3326 14.3088 10.6022L11.7208 12.9722C11.5932 13.0892 11.4982 13.2374 11.4449 13.4021C11.3916 13.5668 11.382 13.7426 11.4168 13.9122L11.4408 14.0162L11.5028 14.2762C11.8247 15.5395 12.3151 16.7537 12.9608 17.8862C13.6642 19.0896 14.5372 20.1855 15.5528 21.1402L15.6328 21.2122C15.762 21.3268 15.9187 21.4061 16.0877 21.4422C16.2566 21.4783 16.432 21.47 16.5968 21.4182L19.9428 20.3642C20.3231 20.2448 20.7303 20.2417 21.1123 20.3554C21.4944 20.4691 21.8337 20.6943 22.0868 21.0022L23.6708 22.9242C24.3308 23.7242 24.2508 24.9002 23.4928 25.6062C21.4188 27.5402 18.5668 27.9362 16.5828 26.3422C14.1509 24.3805 12.1007 21.988 10.5348 19.2842C8.95619 16.5824 7.90373 13.607 7.42881 10.5142ZM13.5148 14.0442L15.6588 12.0762C16.2465 11.5372 16.6597 10.835 16.8453 10.0595C17.031 9.28406 16.9807 8.47081 16.7008 7.72416L15.8328 5.40416C15.4775 4.45666 14.7743 3.68028 13.8664 3.23324C12.9586 2.7862 11.9145 2.70213 10.9468 2.99816C7.58081 4.02816 4.87881 7.04616 5.45081 10.8162C5.85081 13.4482 6.77281 16.7962 8.80681 20.2922C10.4962 23.2076 12.7077 25.7872 15.3308 27.9022C18.3068 30.2922 22.2788 29.4762 24.8588 27.0722C25.597 26.3848 26.0451 25.4416 26.1117 24.4351C26.1782 23.4287 25.8581 22.4347 25.2168 21.6562L23.6328 19.7322C23.1261 19.1171 22.4472 18.6675 21.6832 18.4408C20.9192 18.2142 20.1049 18.2209 19.3448 18.4602L16.5668 19.3342C15.8496 18.5946 15.2213 17.7737 14.6948 16.8882C14.1863 15.9929 13.7899 15.0384 13.5148 14.0462V14.0442Z" fill="#6A26DD"/>
</g>
<defs>
<clipPath id="clip0_5517_16103">
<rect width="32" height="32" fill="white"/>
</clipPath>
</defs>
</svg>
