<svg width="34" height="30" viewBox="0 0 34 30" fill="none" xmlns="http://www.w3.org/2000/svg">
<path d="M30.5617 17.8774L30.4308 17.8178C29.9749 17.6099 29.6175 17.2841 29.3384 16.8215C29.0681 16.3744 28.9488 15.9155 28.9743 15.4182L28.9814 15.2797L28.8883 15.1763C28.6958 14.9637 28.4769 14.8222 28.1987 14.7306C28.0678 14.6884 27.4776 14.5422 26.0218 14.1918L25.9048 14.1639C25.9021 14.0419 25.8994 13.9216 25.8966 13.798C25.8671 12.5352 25.9269 11.4564 24.624 10.8961L18.3059 8.58007L18.0332 8.48034C18.0332 8.48034 11.7233 6.16805 11.7148 6.16502C11.5468 6.09899 11.3819 6.06934 11.2214 6.06934C10.3691 6.06934 9.62245 6.9049 9.00536 7.60738C8.30939 8.39847 7.66204 9.14475 6.99735 9.89945C6.83755 10.0794 6.67776 10.26 6.51966 10.4399C6.31974 10.6659 6.11983 10.891 5.91413 11.1218C5.72033 11.1218 5.53198 11.1309 5.34668 11.1447C4.53579 11.2064 3.71946 11.455 3.17309 12.0965C3.16085 12.1113 3.14793 12.1275 3.13535 12.143C3.05613 12.2411 2.98202 12.3462 2.91572 12.4611C2.90654 12.4759 2.896 12.4873 2.88716 12.5025C2.79502 12.6629 2.7192 12.8529 2.64644 13.0554C2.63352 13.0881 2.62196 13.1208 2.60972 13.1538C2.6087 13.1568 2.60802 13.1598 2.60632 13.1622C2.48494 13.4897 2.37444 13.8323 2.25681 14.1767C2.25681 14.1767 0.311017 19.5394 0.315437 19.5408L3.08775 20.5569L2.6087 21.8793C2.28129 22.7806 2.74266 23.7772 3.65316 24.1108C3.84832 24.1822 4.04824 24.2162 4.24476 24.2162C4.95024 24.2162 5.61221 23.7786 5.86857 23.0737L6.34796 21.752L18.871 26.3419L18.3919 27.6629C18.0652 28.5645 18.5269 29.5618 19.4364 29.895C19.6316 29.9668 19.8315 30.0005 20.028 30.0005C20.7335 30.0005 21.3961 29.5628 21.6518 28.8573L22.1312 27.5359C22.1312 27.5359 24.9039 28.5521 24.909 28.5534L26.8534 23.1906C26.9846 22.851 27.1186 22.5171 27.2355 22.188C27.2369 22.1849 27.2376 22.1819 27.2393 22.1795C27.2508 22.1465 27.2627 22.1135 27.2743 22.0805C27.3477 21.8787 27.4113 21.6836 27.4433 21.501C27.4467 21.4841 27.4457 21.4686 27.448 21.4515C27.4712 21.3201 27.482 21.1917 27.4834 21.065C27.4834 21.0724 27.4814 21.0802 27.4814 21.0872L27.9519 20.8009C27.9148 20.9555 27.8771 21.1122 27.8411 21.2614L27.7792 21.5087C27.6272 22.1186 27.5419 22.4663 27.5269 22.5555C27.4769 22.8524 27.5109 23.1091 27.6309 23.3396C27.7693 23.6077 27.9947 23.7951 28.2841 23.8813C28.3864 23.9116 28.4871 23.9271 28.5877 23.9271C28.7591 23.9271 28.9311 23.8823 29.1137 23.7893L29.148 23.7681C29.5281 23.5316 29.6311 23.1081 29.7019 22.8167C29.7872 22.4669 29.9157 21.9504 30.051 21.4043C30.4124 19.9505 30.6515 18.9842 30.6804 18.81C30.7276 18.531 30.7052 18.2766 30.6107 18.0101L30.5617 17.8774ZM26.8034 21.0249L26.8031 21.0573C26.8017 21.1556 26.7935 21.2469 26.7779 21.3359L26.7752 21.35L26.7735 21.3639C26.7711 21.3797 26.7697 21.3949 26.7684 21.4103C26.7412 21.5502 26.6824 21.72 26.63 21.8649L26.6116 21.9164L26.6045 21.9366L26.6028 21.9403L26.594 21.9656C26.51 22.2021 26.4168 22.4407 26.3182 22.693L26.2132 22.9642L24.5006 27.6872C23.6809 27.3866 22.3668 26.9052 22.3668 26.9052L21.7235 26.6693L21.4913 27.3095L21.0119 28.6312C20.8606 29.048 20.4656 29.328 20.028 29.328C19.9073 29.328 19.7876 29.3068 19.672 29.2643C19.1182 29.0611 18.8309 28.4456 19.0315 27.8924L19.5105 26.5713L19.7387 25.9429L19.1066 25.7111L6.58324 21.1203L5.93963 20.8844L5.70741 21.5242L5.22802 22.8456C5.07672 23.2621 4.68131 23.5424 4.24408 23.5424C4.12304 23.5424 4.0037 23.5208 3.8881 23.4787C3.33391 23.2755 3.04661 22.6603 3.24789 22.1071L3.72694 20.7847L3.9544 20.1567L3.32269 19.9249L1.18004 19.1395C1.55608 18.0981 2.33467 15.9509 2.89974 14.393C2.93578 14.2875 2.97148 14.1821 3.00683 14.0769C3.07993 13.8593 3.14929 13.6527 3.22239 13.4523L3.22851 13.4428L3.25061 13.3761L3.25911 13.3532L3.27815 13.3024L3.28257 13.2919L3.28631 13.2815C3.33459 13.1474 3.39817 12.9792 3.46379 12.8596C3.47399 12.8451 3.48419 12.8303 3.49405 12.8142L3.50017 12.8051L3.50561 12.7956C3.55117 12.7171 3.60319 12.6416 3.66608 12.5642L3.6926 12.5311C4.04586 12.1164 4.61977 11.8758 5.39836 11.8165C5.58637 11.8024 5.75501 11.7953 5.91413 11.7953H6.22046L6.42344 11.5679C6.62982 11.3361 6.83075 11.1103 7.03237 10.8822C7.18979 10.7033 7.34891 10.5234 7.50972 10.3422C7.85686 9.94797 8.19957 9.55579 8.54705 9.15856C8.8646 8.79536 9.1859 8.42778 9.51841 8.04942C10.0026 7.49788 10.6656 6.74284 11.2214 6.74284C11.3017 6.74284 11.3816 6.75868 11.4798 6.79708C11.5244 6.81326 17.798 9.11274 17.798 9.11274L18.0703 9.21213L24.3694 11.5211C25.1459 11.862 25.1891 12.4048 25.2122 13.5901L25.217 13.8138C25.2282 14.2963 25.2384 14.7656 25.2486 15.2289C25.2602 15.7787 25.2717 16.3208 25.2857 16.87L25.2996 17.3848L25.305 17.5917C25.3132 17.8949 25.3217 18.1981 25.3322 18.5101L25.3424 18.8063L25.5696 18.999C25.6947 19.1051 25.8198 19.2197 25.9606 19.3578C26.1142 19.5041 26.2506 19.6573 26.3645 19.8127L26.3767 19.8292L26.3815 19.8349L26.4002 19.8592C26.4444 19.9225 26.4858 19.9875 26.5266 20.0586C26.564 20.1223 26.5994 20.1944 26.6249 20.2473C26.6399 20.2796 26.6545 20.3113 26.6664 20.3393C26.6854 20.3858 26.7028 20.4336 26.7167 20.4771C26.7361 20.5381 26.7524 20.6007 26.7653 20.6617C26.7711 20.6883 26.7765 20.7163 26.7803 20.7443L26.7816 20.7544L26.7833 20.7645C26.7959 20.8443 26.8031 20.9269 26.8037 21.0047L26.8034 21.0249ZM30.0085 18.7015C29.9813 18.8632 29.6536 20.184 29.3901 21.2453C29.2541 21.7924 29.1256 22.3099 29.0372 22.6718C28.9875 22.8766 28.9307 23.1088 28.7873 23.1984L28.7795 23.2048C28.6523 23.2691 28.57 23.2654 28.4792 23.2385C28.3694 23.2055 28.2895 23.1391 28.2355 23.0343C28.1828 22.9326 28.1715 22.8234 28.1974 22.6687C28.212 22.5835 28.3715 21.9454 28.4395 21.6728L28.502 21.4211C28.6067 20.9892 28.7244 20.4973 28.7995 20.1674L28.977 19.3868L27.3862 20.3558C27.379 20.3295 27.3736 20.3026 27.3654 20.2763C27.3447 20.2129 27.3219 20.1499 27.2971 20.0886C27.2794 20.0462 27.2607 20.0047 27.2406 19.9626C27.2015 19.8807 27.1607 19.7995 27.1145 19.7207C27.0666 19.6375 27.0145 19.5556 26.9591 19.4761C26.9448 19.4562 26.9292 19.4363 26.9146 19.4171C26.7714 19.2224 26.6082 19.0404 26.4311 18.8723C26.2978 18.7416 26.1591 18.6129 26.0119 18.4879C26.0014 18.1776 25.9929 17.8757 25.9847 17.5742C25.9782 17.335 25.9725 17.0927 25.9653 16.8515C25.9487 16.1894 25.9351 15.5328 25.9204 14.862C26.5382 15.0105 27.838 15.3239 27.9862 15.3717C28.1073 15.4115 28.2038 15.4637 28.2912 15.5385C28.2902 16.1089 28.4459 16.6567 28.7553 17.1682C29.0732 17.6944 29.4928 18.095 30.0041 18.3609C30.0279 18.4714 30.0289 18.5806 30.0085 18.7015Z" fill="#0B5D6A"/>
<path d="M7.19372 14.6032C6.9683 14.5206 6.73336 14.4785 6.49469 14.4785C5.64164 14.4785 4.87257 15.0189 4.58052 15.8232C4.19564 16.8801 4.74065 18.0546 5.79532 18.441C6.02073 18.5236 6.25635 18.5657 6.49469 18.5657C7.34773 18.5657 8.1168 18.0253 8.4092 17.2204C8.79271 16.1628 8.2477 14.989 7.19372 14.6032ZM7.76899 16.9923C7.57383 17.5303 7.0618 17.8915 6.49469 17.8915C6.33693 17.8915 6.18121 17.8636 6.03127 17.8086C5.32579 17.5499 4.96165 16.7618 5.22039 16.0513C5.41554 15.5135 5.92758 15.1524 6.49469 15.1524C6.65244 15.1524 6.80816 15.1803 6.95776 15.2352C7.66325 15.4933 8.02704 16.2817 7.76899 16.9923Z" fill="#0B5D6A"/>
<path d="M19.4074 19.2795L10.4611 16.0009C10.3927 15.9757 10.3227 15.9639 10.2537 15.9639C10.0065 15.9639 9.77395 16.1165 9.68487 16.3635L8.83556 18.704C8.72098 19.0194 8.8835 19.3695 9.19698 19.484L18.1433 22.7626C18.2113 22.7875 18.2813 22.7993 18.35 22.7993C18.5975 22.7993 18.83 22.646 18.9195 22.3994L19.7691 20.0581C19.883 19.7431 19.7208 19.3944 19.4074 19.2795ZM18.3048 22.1036L9.49617 18.8752L10.2999 16.6603L19.1085 19.8887L18.3048 22.1036Z" fill="#0B5D6A"/>
<path d="M22.8083 20.3249C22.5829 20.2423 22.348 20.2002 22.1096 20.2002C21.2566 20.2002 20.4875 20.7406 20.1954 21.5448C19.8113 22.6018 20.3559 23.7759 21.4096 24.1624C21.6353 24.2453 21.8706 24.2874 22.1093 24.2874C22.963 24.2874 23.7324 23.7466 24.0245 22.9417C24.4076 21.8851 23.862 20.7106 22.8083 20.3249ZM23.3843 22.7143C23.1894 23.2524 22.6767 23.6139 22.1093 23.6139C21.9515 23.6139 21.7955 23.5859 21.6459 23.531C20.9407 23.2722 20.5769 22.4838 20.8353 21.7733C21.0305 21.2352 21.5425 20.874 22.1096 20.874C22.267 20.874 22.4228 20.902 22.5724 20.9566C23.2778 21.2153 23.642 22.0034 23.3843 22.7143Z" fill="#0B5D6A"/>
<path d="M23.0903 12.3967C20.0977 11.3 12.6202 8.46513 12.1867 8.37147C12.1516 8.36406 12.1156 8.36035 12.0785 8.36035C11.0824 8.36035 9.16344 10.9048 8.25293 11.8899L23.7295 17.6863C23.6703 15.8265 23.9212 12.7009 23.0903 12.3967ZM23.0128 16.7055L9.41027 11.5958C9.42217 11.5817 9.43407 11.5678 9.44631 11.5537C10.0165 10.8873 11.5203 9.13089 12.0639 9.03689C12.5488 9.18345 15.7692 10.3876 18.3705 11.3603C20.0915 12.0038 21.7184 12.612 22.8067 13.0112C23.1576 13.4169 22.9543 15.3737 23.0128 16.7055Z" fill="#0B5D6A"/>
<path d="M3.30871 5.39076L6.3112 6.8092C6.4931 6.89545 6.71953 6.80987 6.80351 6.62962C6.89157 6.44128 6.81133 6.21689 6.62536 6.12862L3.6232 4.71052C3.57322 4.68693 3.52018 4.6748 3.46578 4.6748C3.32299 4.6748 3.19107 4.75937 3.13055 4.88976C3.04249 5.0781 3.12239 5.30282 3.30871 5.39076Z" fill="#0B5D6A"/>
<path d="M9.23819 3.58315C9.31775 3.76677 9.54317 3.85707 9.72608 3.77722C9.91546 3.69467 10.0018 3.47264 9.91886 3.28228L8.5956 0.2254C8.53644 0.0886097 8.40282 0 8.25595 0C8.20495 0 8.15531 0.0104442 8.10805 0.0309964C7.91901 0.113542 7.83265 0.335573 7.91493 0.525933L9.23819 3.58315Z" fill="#0B5D6A"/>
<path d="M7.48275 4.93066C7.62078 5.07418 7.86456 5.07722 8.00532 4.93874C8.15423 4.7942 8.15798 4.55499 8.01348 4.4054L5.70287 2.0136C5.63284 1.94048 5.53798 1.90039 5.43734 1.90039C5.34044 1.90039 5.24932 1.93745 5.1803 2.00551C5.03138 2.15039 5.02832 2.3896 5.17214 2.53818L7.48275 4.93066Z" fill="#0B5D6A"/>
<path d="M3.08675 25.7669C2.96503 25.7744 2.87629 25.7774 2.78993 25.7774C2.15754 25.7774 1.66217 25.6086 1.31945 25.276C0.721404 24.6955 0.741463 23.7848 0.742823 23.7464C0.750643 23.5389 0.591866 23.3637 0.388549 23.3542H0.387529C0.172312 23.3542 0.00979471 23.5119 0.000614849 23.7124C-0.00108512 23.7626 -0.0361047 24.992 0.795862 25.8091C1.34257 26.3454 2.1113 26.5846 3.10715 26.5169C3.31182 26.5031 3.46618 26.3239 3.4519 26.1167C3.43898 25.9202 3.27816 25.7669 3.08675 25.7669Z" fill="#0B5D6A"/>
<path d="M33.9856 15.0673C33.9553 14.7937 33.8802 14.4962 33.7048 14.2021C33.7007 14.1974 33.7007 14.1934 33.7037 14.19C33.6898 14.1664 33.6755 14.1432 33.6612 14.1202C33.4743 13.8339 33.2539 13.6196 33.0248 13.4659C32.8007 13.3174 32.5512 13.2015 32.3043 13.1509C32.1405 13.1179 31.9664 13.0967 31.7862 13.0967C31.4248 13.0967 31.0368 13.1816 30.6482 13.4272C30.0617 13.7971 29.7918 14.2857 29.6694 14.7853C29.55 15.2759 29.5585 15.848 29.9179 16.4426C30.279 17.0397 30.7713 17.3203 31.2684 17.4416C31.4469 17.4854 31.6308 17.5114 31.8209 17.5114C32.1656 17.5114 32.5291 17.4254 32.9156 17.2034C33.5144 16.8608 33.7911 16.3345 33.9319 15.8547C34.0026 15.6098 34.0131 15.3348 33.9856 15.0673ZM31.8001 16.8517C30.9379 16.8517 30.2382 16.1586 30.2382 15.3038C30.2382 14.4491 30.9379 13.756 31.8001 13.756C32.6627 13.756 33.3621 14.4491 33.3621 15.3038C33.3621 16.1586 32.6627 16.8517 31.8001 16.8517Z" fill="#0B5D6A"/>
</svg>
