<svg width="34" height="32" viewBox="0 0 34 32" fill="none" xmlns="http://www.w3.org/2000/svg">
<path d="M3.14971 11.3256H14.2407C14.5423 11.3256 14.7433 11.5601 14.7433 11.8282C14.7433 12.0962 14.5088 12.3308 14.2407 12.3308H3.14971C2.44605 12.3643 2.47956 11.3591 3.14971 11.3256ZM3.14971 16.4857H11.9287C12.5989 16.4857 12.5989 15.4805 11.9287 15.447H3.14971C2.47956 15.4805 2.47956 16.4857 3.14971 16.4857ZM3.14971 20.6072H8.07533C8.74548 20.6072 8.74548 19.6019 8.07533 19.5684H3.14971C2.47956 19.6019 2.47956 20.6072 3.14971 20.6072ZM11.8952 23.7234H3.14971C2.47956 23.7234 2.47956 24.7286 3.14971 24.7621H11.9287C12.5989 24.7286 12.5989 23.7234 11.8952 23.7234ZM30.2909 31.9998C29.4867 31.9998 28.716 31.6647 28.1799 31.0951L24.2595 26.9401C23.5223 26.1359 21.914 24.427 21.1768 23.6229V27.0741C21.1768 27.7108 20.6407 28.2469 20.004 28.2469H19.3339V28.8165C20.5402 29.0511 21.4449 30.0898 21.4449 31.3631C21.4449 31.6647 21.2103 31.8657 20.9423 31.8657H4.05442C3.75285 31.8657 3.55181 31.6312 3.55181 31.3631C3.5183 30.1568 4.45651 29.0176 5.66278 28.8165V28.2469H1.17277C0.536122 28.2469 0 27.7108 0 27.0741V4.8586C0 4.72457 0.0670152 4.59054 0.167538 4.49002L4.45651 0.167538C4.55703 0.0670152 4.69106 0.0335076 4.82509 0H19.9705C20.6072 0 21.1433 0.536122 21.1433 1.17277V12.7999L23.5558 14.7769C25.2312 16.1842 23.5223 18.8648 21.5454 17.9266L21.1098 18.4627L21.7799 18.9988C22.249 19.3674 22.3496 20.004 22.1485 20.5067C24.9632 22.3161 29.3527 24.9967 32.1338 26.8731C34.2113 28.582 32.9715 32.0333 30.2909 31.9998ZM20.3056 13.4701C20.1716 13.3695 17.692 11.225 17.558 11.2921C16.6533 11.024 16.0166 12.2303 16.8208 12.7999L21.7799 16.8878C22.1485 17.2229 22.7182 17.1894 23.0197 16.8208C23.3213 16.4522 23.2543 15.9161 22.9192 15.6145C22.8857 15.581 20.3056 13.4701 20.3056 13.4701ZM20.7077 17.3234L16.5528 13.8721C16.0166 14.5088 13.336 17.759 12.7329 18.4627L16.9213 21.914C17.3904 21.3443 20.1716 17.9936 20.7077 17.3234ZM16.6868 23.0867L11.6606 18.9318C10.7894 18.2281 9.7172 19.5014 10.5549 20.2386L15.6145 24.427C16.0836 24.8626 16.9213 24.5276 16.9884 23.8909C17.0554 23.5558 16.9213 23.2543 16.6868 23.0867ZM1.7759 4.32248H4.18845C4.25547 4.32248 4.32248 4.25547 4.32248 4.18845V1.7759L1.7759 4.32248ZM18.7978 29.8218H6.1654C5.49525 29.7883 4.8586 30.2574 4.65756 30.8605H20.3056C20.1046 30.2574 19.5014 29.7883 18.7978 29.8218ZM18.2616 27.8783C18.1276 27.4092 17.7255 27.0741 17.2564 27.0741H7.70675C7.13712 27.0741 6.66801 27.5768 6.66801 28.1464V28.783H18.2951C18.2951 28.6155 18.3287 28.0459 18.2616 27.8783ZM20.1381 22.8187C19.7695 22.9862 19.3339 22.9527 18.9653 22.7852C18.7978 22.7182 18.2616 22.2155 18.0941 22.115L17.6585 22.6511C18.9318 24.4606 16.6868 26.5715 14.9444 25.1977L9.88474 21.0093C8.20936 19.6019 9.91825 16.9548 11.8952 17.8596C12.2973 17.3569 15.447 13.5706 15.7821 13.1685C14.8104 11.8617 15.9161 9.95176 17.5245 10.1863C17.8596 10.2198 18.1946 10.3538 18.4962 10.5884L20.1046 11.9287V1.20627C20.1046 1.13926 20.0375 1.07224 19.9705 1.07224H5.32771V4.22196C5.32771 4.8586 4.79159 5.39472 4.15494 5.39472H1.03874V27.0741C1.03874 27.1412 1.10575 27.2082 1.17277 27.2082H5.86383C6.19891 26.5045 6.93607 26.0354 7.74026 26.0354H17.2564C18.0271 26.0354 18.7978 26.5045 19.1328 27.2082H20.004C20.0711 27.2082 20.1381 27.1412 20.1381 27.0741V22.8187ZM21.1433 20.1716C21.2438 20.0711 21.2103 19.9035 21.1098 19.803L20.4396 19.2669L18.7307 21.3108L19.4009 21.847C19.5014 21.9475 19.669 21.914 19.7695 21.8134C20.004 21.5789 20.9422 20.4396 21.1433 20.1716ZM23.3548 24.4605L24.3935 23.1873L21.5119 21.3778C21.3778 21.5119 21.1433 21.8134 21.0093 21.981L23.3548 24.4605ZM24.5946 25.7673L25.9349 24.159L25.2647 23.7234L24.0585 25.1977L24.5946 25.7673ZM31.2626 27.5432L26.8396 24.7286L25.2982 26.538L28.8836 30.3914C29.6207 31.1956 30.9945 31.1621 31.6982 30.2909C32.4354 29.4532 32.2343 28.1129 31.2626 27.5432ZM11.1245 6.09838C11.3256 0.904705 18.7643 0.904705 18.9653 6.09838C18.9653 8.27638 17.1894 10.0188 15.0449 10.0188C12.9004 10.0188 11.1245 8.27638 11.1245 6.09838ZM12.1633 6.09838C12.2973 9.91825 17.7925 9.91825 17.9601 6.09838C17.9601 4.49002 16.6533 3.21673 15.0784 3.21673C13.5036 3.21673 12.1633 4.52353 12.1633 6.09838ZM14.1737 7.43869C14.3748 7.63973 14.7098 7.63973 14.9109 7.43869L16.8208 5.52875C17.2899 5.02614 16.5863 4.32248 16.0836 4.79159L14.5423 6.33294L14.0397 5.83032C13.5371 5.36122 12.8334 6.06488 13.3025 6.56749C13.336 6.56749 14.1737 7.43869 14.1737 7.43869Z" fill="#ADC9A6"/>
</svg>
