<svg width="23" height="32" viewBox="0 0 23 32" fill="none" xmlns="http://www.w3.org/2000/svg">
<path d="M21.8665 3.20025H21.3726L21.2739 0.513874C21.2712 0.439323 21.2529 0.366172 21.2201 0.299147C21.1874 0.232123 21.1409 0.172716 21.0838 0.124765C21.0266 0.0768145 20.9601 0.0413864 20.8884 0.0207701C20.8167 0.000153844 20.7414 -0.00519196 20.6676 0.00507799L0.45973 2.81625C0.332303 2.83401 0.215589 2.89723 0.131103 2.99426C0.0466178 3.09129 5.56113e-05 3.21559 0 3.34425V31.4667C0 31.6081 0.0561899 31.7438 0.156208 31.8438C0.256227 31.9438 0.391881 32 0.533329 32H21.8665C22.0079 32 22.1436 31.9438 22.2436 31.8438C22.3436 31.7438 22.3998 31.6081 22.3998 31.4667V3.73358C22.3998 3.59213 22.3436 3.45648 22.2436 3.35646C22.1436 3.25644 22.0079 3.20025 21.8665 3.20025ZM20.3054 3.20025H5.43995L20.2292 1.1432L20.3054 3.20025ZM1.06666 30.9333V4.26691H21.3331V30.9333H1.06666Z" fill="#ADC9A6"/>
<path d="M11.2 6.39998C9.60087 6.397 8.04965 6.94566 6.80802 7.95341C5.56639 8.96117 4.71033 10.3663 4.38427 11.9319C4.05821 13.4974 4.28209 15.1275 5.01816 16.5471C5.75422 17.9668 6.95741 19.0891 8.42477 19.7248C9.89212 20.3605 11.5338 20.4706 13.0729 20.0366C14.612 19.6026 15.9544 18.6511 16.8734 17.3424C17.7925 16.0338 18.2321 14.4482 18.1181 12.8532C18.004 11.2581 17.3433 9.75119 16.2474 8.58663C15.6022 7.89395 14.8208 7.34214 13.9522 6.96585C13.0836 6.58955 12.1466 6.3969 11.2 6.39998ZM14.9536 8.83143L14.8842 8.86343C14.6635 8.96376 14.4378 9.05277 14.208 9.13009L14.192 9.13489C14.1754 9.09329 14.1557 9.05756 14.1386 9.01703C14.0976 8.91996 14.0544 8.82823 14.0112 8.7365C13.9546 8.61703 13.8976 8.50023 13.8368 8.38877C13.7904 8.3029 13.7424 8.2213 13.6933 8.14024C13.6613 8.0869 13.6325 8.02877 13.6 7.98024C14.0881 8.20043 14.5436 8.48685 14.9536 8.83143ZM12.8619 17.8447C12.8085 17.9423 12.7515 18.0383 12.6939 18.1263C12.6635 18.1732 12.632 18.2153 12.6005 18.2591C12.5472 18.3337 12.4939 18.4057 12.4405 18.4724C12.4059 18.514 12.3707 18.5529 12.3339 18.5913C12.2795 18.6504 12.2243 18.7055 12.1685 18.7567C12.1323 18.7897 12.0955 18.8223 12.0587 18.8521C12.003 18.8962 11.945 18.9372 11.8848 18.9748C11.8485 18.9977 11.8128 19.0223 11.7781 19.042C11.7637 19.0495 11.7493 19.0532 11.7349 19.0601V17.0927C11.8416 17.098 11.9509 17.0991 12.0587 17.1082C12.1413 17.1151 12.224 17.1226 12.3061 17.1316C12.5856 17.162 12.8629 17.1999 13.1328 17.2532L13.1531 17.258C13.0837 17.4212 13.0107 17.5748 12.9344 17.7199C12.9093 17.7631 12.8853 17.8015 12.8619 17.8436V17.8447ZM10.5152 18.9753C10.455 18.9377 10.397 18.8968 10.3413 18.8527C10.3045 18.8228 10.2677 18.7903 10.2315 18.7572C10.1757 18.7064 10.1205 18.6513 10.0661 18.5919C10.0309 18.5535 9.99574 18.5145 9.95948 18.4729C9.90615 18.4063 9.85281 18.3343 9.79948 18.2596C9.76801 18.2159 9.73655 18.1732 9.70615 18.1268C9.64855 18.0383 9.59308 17.9428 9.53815 17.8452C9.51468 17.8036 9.49015 17.7647 9.46775 17.7215C9.39148 17.5764 9.31788 17.4228 9.24908 17.2596L9.26935 17.2548C9.53975 17.2015 9.81708 17.1636 10.096 17.1332C10.1781 17.1242 10.2608 17.1167 10.3435 17.1098C10.4501 17.1007 10.5568 17.0996 10.6672 17.0943V19.0612C10.6528 19.0543 10.6384 19.0505 10.624 19.0431C10.5872 19.0217 10.5509 18.9972 10.5147 18.9743L10.5152 18.9753ZM9.53815 8.8229C9.59148 8.7253 9.64855 8.6293 9.70615 8.5413C9.73655 8.49437 9.76801 8.45223 9.79948 8.4085C9.85281 8.33383 9.90615 8.26183 9.95948 8.19517C9.99414 8.15357 10.0293 8.11464 10.0661 8.07624C10.1205 8.01721 10.1757 7.9621 10.2315 7.91091C10.2677 7.87784 10.3045 7.84531 10.3413 7.81544C10.397 7.77136 10.455 7.73041 10.5152 7.69277C10.5515 7.66984 10.5872 7.64531 10.6219 7.62557C10.6363 7.61811 10.6507 7.61437 10.6651 7.60744V9.57436C10.5584 9.56902 10.4491 9.56796 10.3413 9.55889C10.2587 9.55196 10.176 9.54449 10.0939 9.53542C9.81441 9.50502 9.53708 9.46716 9.26722 9.41382L9.24695 9.40903C9.31628 9.24583 9.38935 9.09223 9.46562 8.94716C9.49068 8.90343 9.51468 8.86503 9.53815 8.8229ZM11.8848 7.69224C11.945 7.72988 12.003 7.77083 12.0587 7.81491C12.0955 7.84477 12.1323 7.87731 12.1685 7.91037C12.2243 7.96122 12.2795 8.01633 12.3339 8.0757C12.3691 8.1141 12.4043 8.15304 12.4405 8.19464C12.4939 8.2613 12.5472 8.3333 12.6005 8.40797C12.632 8.4517 12.6635 8.49437 12.6939 8.54077C12.7515 8.6293 12.8069 8.72476 12.8619 8.82236C12.8853 8.86396 12.9099 8.9029 12.9323 8.9461C13.0085 9.09116 13.0821 9.24476 13.1509 9.40796L13.1307 9.41276C12.8603 9.46609 12.5829 9.50396 12.304 9.53436C12.2219 9.54342 12.1392 9.55089 12.0565 9.55782C11.9499 9.56689 11.8432 9.56796 11.7328 9.57329V7.60691C11.7472 7.61384 11.7616 7.61757 11.776 7.62504C11.8128 7.64477 11.8485 7.66931 11.8848 7.69224ZM12.48 16.0778C12.3888 16.0671 12.2976 16.0602 12.2059 16.0516C12.0491 16.0378 11.8923 16.026 11.7349 16.0186V13.8666H13.849C13.8453 13.9477 13.8453 14.0298 13.84 14.1103C13.8357 14.1807 13.8309 14.2511 13.8256 14.3236C13.8042 14.5855 13.7776 14.8452 13.7392 15.0986V15.1119C13.7013 15.3604 13.6533 15.6015 13.6 15.8383C13.585 15.9034 13.5696 15.9679 13.5536 16.0319C13.5376 16.0959 13.5141 16.17 13.4949 16.2399C13.4741 16.2356 13.4522 16.234 13.432 16.2298C13.1173 16.1643 12.8 16.1137 12.48 16.0778ZM9.92001 16.0778C9.60002 16.1133 9.28375 16.1633 8.97122 16.2276C8.95042 16.2319 8.92855 16.233 8.90829 16.2378C8.88909 16.1679 8.86722 16.1012 8.84962 16.0298C8.83202 15.9583 8.81816 15.9012 8.80322 15.8362C8.74989 15.5994 8.70136 15.3562 8.66402 15.1098V15.0964C8.62616 14.8431 8.59896 14.5834 8.57762 14.3215C8.57176 14.2517 8.56749 14.1813 8.56322 14.1082C8.55789 14.0277 8.55789 13.9482 8.55416 13.8645H10.6667V16.0164C10.5067 16.0239 10.3525 16.0356 10.1957 16.0495C10.104 16.0596 10.0123 16.0671 9.92001 16.0778ZM9.95681 10.5941C10.0187 10.601 10.08 10.6058 10.1419 10.6117C10.3152 10.6282 10.4896 10.6415 10.6651 10.6495V12.7999H8.55256C8.55629 12.7189 8.55629 12.6367 8.56162 12.5562C8.56589 12.4858 8.57069 12.4154 8.57602 12.3429C8.59736 12.081 8.62402 11.8213 8.66242 11.5679V11.5546C8.70029 11.3066 8.74829 11.065 8.80162 10.8282C8.81656 10.7631 8.83202 10.6986 8.84802 10.6341C8.86402 10.5695 8.88749 10.4959 8.90669 10.4261C8.92482 10.4298 8.94349 10.4309 8.96002 10.4346C9.29015 10.5066 9.62188 10.5567 9.95788 10.5941H9.95681ZM12.4405 10.5941C12.7771 10.5567 13.1088 10.5055 13.4346 10.4378C13.4528 10.4341 13.4714 10.433 13.488 10.4293C13.5072 10.4991 13.529 10.5658 13.5466 10.6373C13.5642 10.7087 13.5781 10.7658 13.593 10.8314C13.6464 11.0682 13.6949 11.3114 13.7322 11.5578V11.5711C13.7701 11.8245 13.7973 12.0837 13.8186 12.3461C13.8245 12.4159 13.8288 12.4863 13.833 12.5594C13.8384 12.6399 13.8384 12.7194 13.8421 12.8031H11.7333V10.6501C11.9088 10.6421 12.0832 10.6282 12.2565 10.6122C12.32 10.6058 12.3803 10.601 12.4421 10.5941H12.4405ZM8.70722 8.14077C8.65816 8.2213 8.61069 8.30077 8.56376 8.3893C8.50349 8.50077 8.44589 8.61757 8.38936 8.73703C8.34616 8.8293 8.30296 8.92103 8.26189 9.01756C8.24483 9.0581 8.22509 9.09383 8.20856 9.13543L8.19256 9.13063C7.96293 9.05328 7.7374 8.96427 7.51683 8.86396L7.4475 8.83196C7.85715 8.48668 8.31246 8.19953 8.80056 7.97864C8.76696 8.02877 8.73762 8.08797 8.70616 8.14077H8.70722ZM6.65551 9.63409C6.66884 9.64102 6.68431 9.64689 6.69764 9.65382C6.84751 9.73222 7.00377 9.80529 7.16377 9.87462C7.1931 9.88742 7.21977 9.90182 7.24964 9.91462C7.44163 9.99569 7.64057 10.0698 7.8459 10.1386L7.87256 10.1488C7.85283 10.2218 7.83736 10.2986 7.81923 10.3728C7.8011 10.4469 7.78403 10.5167 7.7659 10.5898C7.71257 10.8341 7.65923 11.0831 7.6219 11.3365C7.61817 11.3615 7.61283 11.385 7.6091 11.4101C7.56697 11.6885 7.5371 11.9733 7.51363 12.2634C7.50777 12.3386 7.5035 12.4138 7.4987 12.4895C7.4923 12.5935 7.48217 12.6959 7.4779 12.801H5.35792C5.46378 11.6393 5.91539 10.536 6.65444 9.63356L6.65551 9.63409ZM7.47737 13.8666C7.48163 13.9733 7.49123 14.0741 7.49817 14.1781C7.50297 14.2538 7.50723 14.329 7.5131 14.4042C7.53657 14.6916 7.56643 14.9764 7.60857 15.2575C7.6123 15.2826 7.61763 15.3066 7.62137 15.3311C7.66137 15.586 7.71043 15.8346 7.76536 16.0778C7.7819 16.1508 7.7995 16.2228 7.8187 16.2948C7.8379 16.3668 7.8523 16.4458 7.87203 16.5188L7.84536 16.529C7.64003 16.5978 7.4411 16.6719 7.2491 16.753C7.21977 16.7652 7.19257 16.7802 7.16324 16.793C7.00324 16.8628 6.84751 16.9359 6.69711 17.0138C6.68377 17.0207 6.66831 17.0266 6.65497 17.0335C5.91588 16.1312 5.4641 15.0281 5.35792 13.8666H7.47737ZM7.44643 17.8351L7.51577 17.8031C7.73633 17.7028 7.96187 17.6138 8.19149 17.5364L8.20749 17.5316C8.22403 17.5732 8.24376 17.609 8.26083 17.6495C8.30189 17.7466 8.34509 17.8383 8.38829 17.93C8.44483 18.0495 8.50189 18.1663 8.56269 18.2777C8.60909 18.3636 8.65709 18.4452 8.70616 18.5263C8.73816 18.5796 8.76696 18.6377 8.79949 18.6863C8.31151 18.466 7.85621 18.1796 7.44643 17.8351ZM13.6938 18.5284C13.7429 18.4479 13.7904 18.3684 13.8373 18.2799C13.8976 18.1684 13.9552 18.0516 14.0117 17.9322C14.0549 17.8399 14.0981 17.7482 14.1392 17.6516C14.1562 17.6111 14.176 17.5754 14.1925 17.5338L14.2085 17.5386C14.4383 17.6159 14.664 17.7049 14.8848 17.8052L14.9541 17.8372C14.5445 18.1825 14.0891 18.4696 13.601 18.6905C13.633 18.6377 13.6624 18.5785 13.6938 18.5257V18.5284ZM15.7456 17.0351C15.7322 17.0282 15.7168 17.0223 15.7034 17.0154C15.5536 16.937 15.3973 16.8639 15.2373 16.7946C15.208 16.7818 15.1813 16.7674 15.1514 16.7546C14.9594 16.6735 14.7605 16.5994 14.5552 16.5306L14.5285 16.5204C14.5482 16.4479 14.5632 16.3711 14.5818 16.297C14.6005 16.2228 14.6176 16.1519 14.6352 16.0783C14.6885 15.834 14.7418 15.5855 14.7792 15.3316C14.7829 15.3066 14.7888 15.2826 14.7925 15.258C14.8341 14.9796 14.8645 14.6954 14.888 14.4079C14.8944 14.3322 14.8981 14.2564 14.9029 14.1802C14.9093 14.0767 14.9194 13.9743 14.9237 13.8698H17.0432C16.9361 15.0301 16.4842 16.1317 15.7456 17.033V17.0351ZM14.9226 12.7999C14.9184 12.6933 14.9088 12.593 14.9018 12.4895C14.897 12.4133 14.8928 12.3375 14.8869 12.2618C14.8634 11.9743 14.8336 11.6901 14.7914 11.4117C14.7877 11.3866 14.7824 11.3626 14.7781 11.3381C14.7381 11.0837 14.689 10.8351 14.6341 10.5914C14.6176 10.5178 14.6 10.4453 14.5808 10.3728C14.5616 10.3002 14.5472 10.2224 14.5274 10.1493L14.5541 10.1392C14.7594 10.0704 14.9584 9.99622 15.1504 9.91515C15.1797 9.90289 15.2069 9.88795 15.2362 9.87515C15.3962 9.80529 15.552 9.73222 15.7024 9.65436C15.7157 9.64742 15.7312 9.64156 15.7445 9.63462C16.4835 10.5364 16.9355 11.6389 17.0421 12.7999H14.9226Z" fill="#ADC9A6"/>
<path d="M14.9333 26.1331H7.46668C7.32523 26.1331 7.18958 26.1893 7.08956 26.2893C6.98954 26.3893 6.93335 26.525 6.93335 26.6664C6.93335 26.8079 6.98954 26.9435 7.08956 27.0436C7.18958 27.1436 7.32523 27.1998 7.46668 27.1998H14.9333C15.0747 27.1998 15.2104 27.1436 15.3104 27.0436C15.4104 26.9435 15.4666 26.8079 15.4666 26.6664C15.4666 26.525 15.4104 26.3893 15.3104 26.2893C15.2104 26.1893 15.0747 26.1331 14.9333 26.1331Z" fill="#ADC9A6"/>
<path d="M13.3332 28.2664H9.06653C8.92508 28.2664 8.78943 28.3226 8.68941 28.4226C8.58939 28.5226 8.5332 28.6583 8.5332 28.7997C8.5332 28.9412 8.58939 29.0768 8.68941 29.1769C8.78943 29.2769 8.92508 29.3331 9.06653 29.3331H13.3332C13.4746 29.3331 13.6103 29.2769 13.7103 29.1769C13.8103 29.0768 13.8665 28.9412 13.8665 28.7997C13.8665 28.6583 13.8103 28.5226 13.7103 28.4226C13.6103 28.3226 13.4746 28.2664 13.3332 28.2664Z" fill="#ADC9A6"/>
<path d="M17.5998 21.8665H4.79993C4.65848 21.8665 4.52283 21.9227 4.42281 22.0227C4.32279 22.1227 4.2666 22.2584 4.2666 22.3998V24.5331C4.2666 24.6746 4.32279 24.8102 4.42281 24.9102C4.52283 25.0103 4.65848 25.0664 4.79993 25.0664H17.5998C17.7413 25.0664 17.8769 25.0103 17.9769 24.9102C18.077 24.8102 18.1331 24.6746 18.1331 24.5331V22.3998C18.1331 22.2584 18.077 22.1227 17.9769 22.0227C17.8769 21.9227 17.7413 21.8665 17.5998 21.8665ZM17.0665 23.9998H5.33326V22.9331H17.0665V23.9998Z" fill="#ADC9A6"/>
</svg>
