<svg width="26" height="32" viewBox="0 0 26 32" fill="none" xmlns="http://www.w3.org/2000/svg">
<path d="M1.9997 0H20.9844C22.1346 0 23.1809 0.470291 23.938 1.22748L23.9681 1.26012C24.7073 2.01517 25.1655 3.04766 25.1655 4.18151V27.8185C25.1655 28.9678 24.6948 30.0128 23.938 30.7704C23.1809 31.5297 22.135 32 20.9844 32H1.9997C1.45039 32 0.950891 31.7749 0.588831 31.4133C0.225053 31.0491 0 30.5496 0 30.0003V2.00013C0 1.45125 0.225053 0.95089 0.586683 0.588831C0.95089 0.225053 1.45039 0 1.9997 0ZM14.7882 22.0285C14.4871 22.0285 14.2427 21.7842 14.2427 21.4831C14.2427 21.182 14.4871 20.9376 14.7882 20.9376H22.2806C22.5817 20.9376 22.8261 21.182 22.8261 21.4831C22.8261 21.7842 22.5817 22.0285 22.2806 22.0285H14.7882ZM14.7882 27.8455C14.4871 27.8455 14.2427 27.6012 14.2427 27.3001C14.2427 26.999 14.4871 26.7546 14.7882 26.7546H22.2806C22.5817 26.7546 22.8261 26.999 22.8261 27.3001C22.8261 27.6012 22.5817 27.8455 22.2806 27.8455H14.7882ZM14.7882 24.937C14.4871 24.937 14.2427 24.6927 14.2427 24.3916C14.2427 24.0905 14.4871 23.8461 14.7882 23.8461H22.2806C22.5817 23.8461 22.8261 24.0905 22.8261 24.3916C22.8261 24.6927 22.5817 24.937 22.2806 24.937H14.7882ZM6.39553 24.9212C5.51035 25.2012 4.74629 25.7587 4.20642 26.4901L4.18624 26.5158C3.76748 27.0926 3.48703 27.779 3.39426 28.5254H12.0279C11.9334 27.7674 11.6456 27.0716 11.2166 26.4892C10.6758 25.7587 9.91177 25.2012 9.02659 24.9212C8.61728 25.0749 8.17405 25.1591 7.71106 25.1591C7.24807 25.1591 6.80484 25.0749 6.39553 24.9212ZM10.1849 24.2254C10.9387 24.6111 11.5906 25.1672 12.0893 25.8424C12.7567 26.7495 13.1523 27.8662 13.1523 29.0709C13.1523 29.372 12.9079 29.6163 12.6068 29.6163H2.81531C2.51423 29.6163 2.26985 29.372 2.26985 29.0709C2.26985 27.8803 2.65597 26.7757 3.30922 25.8768L3.33284 25.8424C3.83148 25.1672 4.48344 24.6111 5.2372 24.2254C5.17707 24.1725 5.11952 24.1184 5.06326 24.0622C4.38595 23.3849 3.96634 22.4481 3.96634 21.4144C3.96634 20.3806 4.38595 19.4434 5.06326 18.7661C5.74056 18.0888 6.67728 17.6692 7.71106 17.6692C8.74484 17.6692 9.68156 18.0888 10.3589 18.7661C11.0362 19.4434 11.4558 20.3806 11.4558 21.4144C11.4558 22.4481 11.0362 23.3849 10.3589 24.0622C10.3026 24.1184 10.245 24.1725 10.1849 24.2254ZM9.5875 19.5375C9.10776 19.0578 8.44377 18.7601 7.71106 18.7601C6.97835 18.7601 6.31436 19.0578 5.83462 19.5375C5.35488 20.0172 5.05724 20.6817 5.05724 21.4144C5.05724 22.1471 5.35488 22.8111 5.83462 23.2908C6.31436 23.7705 6.97835 24.0682 7.71106 24.0682C8.44377 24.0682 9.10776 23.7705 9.5875 23.2908C10.0672 22.8111 10.3649 22.1471 10.3649 21.4144C10.3649 20.6817 10.0672 20.0172 9.5875 19.5375ZM11.421 16.0707C10.9657 15.4187 10.5869 14.7659 10.2833 14.1117C9.80139 14.3042 9.31907 14.5571 8.83718 14.8707C9.57505 15.4616 10.4564 15.8817 11.421 16.0707ZM9.87182 13.0921C9.60253 12.3057 9.44276 11.5176 9.39251 10.7282H6.60727C6.7228 12.0098 7.24206 13.1763 8.03618 14.0976C8.64821 13.6775 9.2598 13.3425 9.87182 13.0921ZM9.39251 9.63732C9.44276 8.85307 9.60124 8.07011 9.8671 7.28887C9.25336 7.03719 8.63919 6.70047 8.02545 6.27828C7.2369 7.19825 6.72237 8.36002 6.60727 9.63732H9.39251ZM10.2764 6.26883C10.5809 5.60957 10.9627 4.95159 11.4214 4.2949C10.4508 4.48473 9.56431 4.90821 8.82387 5.50391C9.3079 5.82002 9.79237 6.0747 10.2764 6.26883ZM13.7445 4.2949C14.2032 4.95159 14.5846 5.61 14.8891 6.26883C15.3736 6.0747 15.8576 5.82002 16.3417 5.50391C15.6012 4.90821 14.7148 4.48516 13.7445 4.2949ZM15.2993 7.28887C15.5651 8.06968 15.7236 8.85307 15.7734 9.63732H18.5583C18.4436 8.35959 17.9286 7.19782 17.1405 6.27828C16.5268 6.70047 15.913 7.03719 15.2993 7.28887ZM15.7734 10.7282C15.7232 11.5176 15.563 12.3057 15.2937 13.0921C15.9057 13.3425 16.5173 13.6775 17.1293 14.0976C17.9235 13.1763 18.4427 12.0098 18.5583 10.7282H15.7734ZM14.8823 14.1117C14.579 14.7659 14.1998 15.4187 13.7445 16.0707C14.7096 15.8817 15.5918 15.4621 16.3296 14.8715C15.8473 14.5576 15.3646 14.3046 14.8823 14.1117ZM10.486 10.7282C10.5354 11.4004 10.6758 12.0742 10.9078 12.7498C12.0244 12.4672 13.1411 12.4677 14.2578 12.7498C14.4897 12.0742 14.6306 11.4004 14.68 10.7282H10.486ZM11.3351 13.7875C11.6598 14.4639 12.076 15.1421 12.5828 15.8211C13.0896 15.1421 13.5062 14.4639 13.8309 13.7875C12.9989 13.6075 12.167 13.6075 11.3351 13.7875ZM14.68 9.63732C14.631 8.97032 14.4923 8.30204 14.2638 7.63203C13.1432 7.91593 12.0227 7.91593 10.9017 7.63203C10.6733 8.30204 10.535 8.97032 10.486 9.63732H14.68ZM13.8382 6.59353C13.5122 5.91193 13.0934 5.22904 12.5828 4.54443C12.0717 5.22904 11.6533 5.91236 11.3274 6.59396C12.164 6.77606 13.0011 6.77606 13.8382 6.59353ZM12.5828 3.0919C14.5382 3.0919 16.3107 3.88602 17.5945 5.16891L17.5979 5.17235C18.8799 6.45609 19.6736 8.22774 19.6736 10.1828C19.6736 12.1404 18.8795 13.9138 17.5966 15.1966L17.5644 15.2267C16.2832 16.492 14.5232 17.2737 12.5828 17.2737C10.6264 17.2737 8.8535 16.4791 7.57019 15.1954C6.28601 13.9138 5.49189 12.1404 5.49189 10.1828C5.49189 8.22731 6.28601 6.4548 7.5689 5.17106L7.57233 5.16762C8.85608 3.88559 10.6277 3.0919 12.5828 3.0919ZM20.9844 1.0909H1.9997C1.74931 1.0909 1.52168 1.19312 1.35719 1.35719C1.19312 1.52168 1.0909 1.74974 1.0909 2.00013V30.0003C1.0909 30.2507 1.19312 30.4783 1.35719 30.6428C1.52168 30.8069 1.74931 30.9091 1.9997 30.9091H20.9844C21.834 30.9091 22.6071 30.5608 23.1667 30.0012C23.7272 29.442 24.0746 28.6684 24.0746 27.8185V4.18151C24.0746 3.34487 23.7379 2.58209 23.1937 2.02376L23.1667 1.99885C22.6071 1.43922 21.8335 1.0909 20.9844 1.0909Z" fill="#ADC9A6"/>
</svg>
