<svg width="12" height="12" viewBox="0 0 12 12" fill="none" xmlns="http://www.w3.org/2000/svg">
<path d="M11.2248 0.265694C11.2954 0.23529 11.3735 0.226771 11.449 0.241239C11.5245 0.255707 11.5939 0.292496 11.6483 0.346846C11.7026 0.401196 11.7394 0.470606 11.7539 0.546095C11.7683 0.621583 11.7598 0.699676 11.7294 0.77027L7.12142 11.5223C7.09075 11.5939 7.03903 11.6544 6.97313 11.6959C6.90722 11.7375 6.83026 11.758 6.75244 11.7547C6.67462 11.7515 6.59963 11.7246 6.53741 11.6778C6.4752 11.6309 6.42871 11.5662 6.40411 11.4923L4.92878 7.06633L0.5028 5.59177C0.428655 5.56732 0.363725 5.52085 0.316665 5.45856C0.269606 5.39626 0.242653 5.3211 0.239399 5.2431C0.236145 5.16509 0.256745 5.08795 0.298454 5.02195C0.340162 4.95595 0.400997 4.90423 0.472848 4.87369L11.2248 0.265694Z" fill="white"/>
</svg>
