<svg width="50" height="50" viewBox="0 0 50 50" fill="none" xmlns="http://www.w3.org/2000/svg">
<g clip-path="url(#clip0_4956_7159)">
<path d="M23.2972 24.6465C19.1443 21.9888 16.665 17.4584 16.665 12.5278V8.53457L24.9997 5.20068L33.3344 8.53457V12.5278C33.3344 17.4583 30.8552 21.9887 26.7022 24.6465L24.9997 25.7361L23.2972 24.6465Z" fill="#E7EEFB"/>
<path d="M28.6347 14.4918H25.9766V11.8337C25.9766 11.2944 25.5394 10.8572 25 10.8572C24.4607 10.8572 24.0235 11.2944 24.0235 11.8337V14.4918H21.3654C20.826 14.4918 20.3888 14.9291 20.3888 15.4684C20.3888 16.0078 20.826 16.445 21.3654 16.445H24.0235V19.1031C24.0235 19.6424 24.4607 20.0796 25 20.0796C25.5394 20.0796 25.9766 19.6424 25.9766 19.1031V16.445H28.6347C29.174 16.445 29.6113 16.0078 29.6113 15.4684C29.6113 14.9291 29.174 14.4918 28.6347 14.4918Z" fill="#1E2F85"/>
<path d="M38.2334 12.5277V5.879C38.2334 5.47969 37.9902 5.12061 37.6195 4.97236L25.3627 0.0696289C25.1299 -0.0235352 24.8701 -0.0235352 24.6373 0.0696289L12.3805 4.97236C12.0098 5.12061 11.7666 5.47969 11.7666 5.879V12.5277C11.7666 19.1078 15.1264 25.233 20.6568 28.7725L24.4736 31.2152C24.7946 31.4207 25.2056 31.4206 25.5265 31.2152L29.3433 28.7725C34.8855 25.2256 38.2334 19.0939 38.2334 12.5277ZM25 29.2334L21.7097 27.1274C16.7065 23.9255 13.7197 18.4678 13.7197 12.5277V6.54023L25 2.02813L36.2803 6.54023V12.5277C36.2803 18.4677 33.2934 23.9255 28.2903 27.1274L25 29.2334Z" fill="#1E2F85"/>
<path d="M46.0818 11.7664C43.9277 11.7664 42.1741 13.5136 42.1637 15.6652L41.8001 25.4414C40.5502 24.8018 38.9915 24.9699 37.8978 25.9643C37.8838 25.9769 37.8702 25.99 37.857 26.0035L27.7204 36.3497C27.5412 36.5327 27.441 36.7787 27.4414 37.0348C27.4414 37.0517 27.4554 49.0068 27.4554 49.0232C27.4554 49.5625 27.8926 49.9998 28.4319 49.9998H41.179C41.7184 49.9998 42.1556 49.5625 42.1556 49.0232C42.1556 48.0357 42.1556 43.0122 42.1556 42.0255L49.7704 32.983C49.9188 32.8069 50 32.584 50 32.354V15.6846C50 13.5241 48.2423 11.7664 46.0818 11.7664ZM40.2024 48.0466H29.4085V46.0776H40.2024V48.0466ZM48.0469 31.9974L40.432 41.04C40.2838 41.2161 40.2024 41.4389 40.2024 41.6691V44.1245H29.4068L29.3952 37.4311L39.23 27.3929C39.8269 26.8677 40.7279 26.8948 41.2921 27.4589C41.8648 28.0317 41.8451 28.9488 41.2473 29.5467L36.6306 34.1634C36.2492 34.5448 36.2492 35.1631 36.6307 35.5446C37.012 35.9259 37.6304 35.9258 38.0117 35.5445L42.6284 30.9278C43.4094 30.1468 43.7523 29.1204 43.6545 28.1325L44.1161 15.7208C44.1165 15.7087 44.1168 15.6966 44.1168 15.6845C44.1168 14.6009 44.9983 13.7194 46.0818 13.7194C47.1653 13.7194 48.0469 14.601 48.0469 15.6846V31.9974Z" fill="#1E2F85"/>
<path d="M12.143 26.0035C12.1298 25.99 12.1162 25.9769 12.1023 25.9643C11.0086 24.97 9.4499 24.8018 8.2 25.4414L7.83643 15.6652C7.82598 13.5135 6.07236 11.7664 3.91826 11.7664C1.75771 11.7663 0 13.524 0 15.6845V32.3539C0 32.5839 0.08125 32.8068 0.22959 32.9829L7.84443 42.0254V49.0231C7.84443 49.5625 8.28164 49.9997 8.821 49.9997H21.5681C22.1074 49.9997 22.5446 49.5625 22.5446 49.0231V45.1026L22.5586 37.0348C22.559 36.7787 22.4589 36.5326 22.2796 36.3497L12.143 26.0035ZM1.95312 31.9973V15.6845C1.95312 14.6009 2.83467 13.7194 3.91826 13.7194C5.00186 13.7194 5.8834 14.6009 5.8834 15.6845C5.8834 15.6966 5.88359 15.7087 5.88408 15.7208L6.3457 28.1324C6.24795 29.1204 6.59082 30.1468 7.37178 30.9278L11.9885 35.5445C12.3699 35.9259 12.9883 35.9259 13.3695 35.5446C13.7509 35.1631 13.7509 34.5449 13.3696 34.1634L8.75293 29.5466C8.15508 28.9488 8.13535 28.0317 8.70811 27.459C9.27227 26.8949 10.1733 26.8678 10.7702 27.3929L20.605 37.4311L20.5934 44.1245H9.79756V41.6691C9.79756 41.4389 9.71621 41.2161 9.56797 41.04L1.95312 31.9973ZM20.5915 48.0465H9.79756V46.0775H20.5915V48.0465Z" fill="#1E2F85"/>
</g>
<defs>
<clipPath id="clip0_4956_7159">
<rect width="50" height="50" fill="white" transform="translate(0 -0.000244141)"/>
</clipPath>
</defs>
</svg>
