<svg width="50" height="50" viewBox="0 0 50 50" fill="none" xmlns="http://www.w3.org/2000/svg">
<g clip-path="url(#clip0_4956_7173)">
<path d="M23.7682 44.3326C19.3455 42.6066 15.5922 39.6223 12.9141 35.7023C10.2358 31.7822 8.82031 27.2008 8.82031 22.4533V9.80122L24.9993 5.01343L41.1783 9.80122V22.4533C41.1783 27.2007 39.7628 31.7823 37.0846 35.7023C34.4064 39.6223 30.6531 42.6066 26.2304 44.3326L24.9993 44.8129L23.7682 44.3326Z" fill="#E7EEFB"/>
<path d="M45.3692 5.78166L25.268 0.0373291C25.0926 -0.0127686 24.9067 -0.0127686 24.7313 0.0373291L4.63008 5.78166C4.21084 5.90149 3.92188 6.28469 3.92188 6.72063V22.4532C3.92188 34.1302 11.067 44.6343 21.9877 48.896L24.6446 49.9329C24.8729 50.022 25.1264 50.022 25.3547 49.9329L28.0116 48.896C38.8896 44.651 46.0774 34.1761 46.0774 22.4532V6.72073C46.0775 6.28469 45.7885 5.90149 45.3692 5.78166ZM44.1244 22.4532C44.1244 33.4233 37.5211 43.0884 27.3017 47.0765L24.9997 47.9748L22.6978 47.0765C12.4783 43.0884 5.875 33.4233 5.875 22.4532V7.45725L24.9997 1.99192L44.1244 7.45725V22.4532Z" fill="#1E2F85"/>
<path d="M28.4355 20.5876C28.4355 21.1342 28.8826 21.5642 29.4121 21.5642C29.943 21.5642 30.3887 21.1338 30.3887 20.5876C30.3887 20.0389 29.9413 19.6106 29.4126 19.6106C28.8691 19.6106 28.4355 20.0542 28.4355 20.5876Z" fill="#1E2F85"/>
<path d="M25.4905 19.6106C24.947 19.6106 24.5137 20.0542 24.5137 20.5876C24.5137 21.1271 24.9544 21.5642 25.4902 21.5642C26.0193 21.5642 26.4668 21.1348 26.4668 20.5876C26.4668 20.0512 26.0302 19.6106 25.4905 19.6106Z" fill="#1E2F85"/>
<path d="M21.5684 19.6106C21.0387 19.6103 20.5918 20.04 20.5918 20.5876C20.5918 21.1449 21.0485 21.5642 21.5684 21.5642C22.0859 21.5642 22.5449 21.1472 22.5449 20.5876C22.5449 20.0614 22.1182 19.6108 21.5684 19.6106Z" fill="#1E2F85"/>
<path d="M24.5097 11.7661H19.6069C18.8142 11.7661 18.3512 12.6646 18.8123 13.3103L20.5109 15.6883H18.2494L16.5583 12.306C16.3929 11.9751 16.0547 11.7661 15.6849 11.7661H12.7432C12.2038 11.7661 11.7666 12.2033 11.7666 12.7427V21.5676C11.7666 23.7281 13.5243 25.4858 15.6849 25.4858H22.6121L18.8124 30.8055C18.3517 31.4505 18.8136 32.3496 19.607 32.3496H24.5098C24.7463 32.3496 24.9748 32.2638 25.1528 32.108L32.7211 25.4858H37.2569C37.7963 25.4858 38.2335 25.0486 38.2335 24.5093V22.5155C38.2335 18.7811 35.198 15.6884 31.4063 15.6884H29.3593L25.1529 12.0078C24.9748 11.8521 24.7463 11.7661 24.5097 11.7661ZM35.3174 19.6105H33.3347C32.7953 19.6105 32.3581 20.0478 32.3581 20.5871C32.3581 21.1265 32.7953 21.5637 33.3347 21.5637H36.1863C36.3283 22.278 36.2642 22.7128 36.2803 23.5327H32.3541C32.1176 23.5327 31.8891 23.6186 31.711 23.7743L24.1428 30.3966H21.5046L25.3044 25.077C25.517 24.7793 25.5455 24.3877 25.378 24.0625C25.2106 23.7372 24.8756 23.5328 24.5097 23.5328H15.6848C14.6012 23.5328 13.7196 22.6513 13.7196 21.5677V13.7193H15.0812L16.7723 17.1017C16.9377 17.4325 17.2759 17.6415 17.6457 17.6415H31.4061C33.0062 17.6415 34.4282 18.4164 35.3174 19.6105ZM22.911 15.6884L21.5046 13.7193H24.1428L26.3931 15.6884H22.911Z" fill="#1E2F85"/>
</g>
<defs>
<clipPath id="clip0_4956_7173">
<rect width="50" height="50" fill="white" transform="translate(0 -0.000244141)"/>
</clipPath>
</defs>
</svg>
