<svg width="50" height="50" viewBox="0 0 50 50" fill="none" xmlns="http://www.w3.org/2000/svg">
<g clip-path="url(#clip0_4956_7188)">
<path d="M20.5881 37.2566H29.413V49.0232H20.5881V37.2566Z" fill="#E7EEFB"/>
<path d="M24.0612 19.2517C20.9655 17.2703 19.1172 13.893 19.1172 10.2175V7.554L25.0005 5.20068L30.8838 7.554V10.2175C30.8838 13.8931 29.0354 17.2703 25.9396 19.2517L25.0005 19.8528L24.0612 19.2517Z" fill="#E7EEFB"/>
<path d="M19.1167 27.4551H15.1945C14.6552 27.4551 14.218 27.8923 14.218 28.4316V33.3344C14.218 33.8737 14.6552 34.3109 15.1945 34.3109H19.1167C19.656 34.3109 20.0933 33.8737 20.0933 33.3344V28.4316C20.0933 27.8923 19.656 27.4551 19.1167 27.4551ZM18.1401 32.3578H16.1711V29.4082H18.1401V32.3578Z" fill="#1E2F85"/>
<path d="M26.9611 27.4551H23.0389C22.4995 27.4551 22.0623 27.8923 22.0623 28.4316V33.3344C22.0623 33.8737 22.4995 34.3109 23.0389 34.3109H26.9611C27.5004 34.3109 27.9377 33.8737 27.9377 33.3344V28.4316C27.9377 27.8923 27.5005 27.4551 26.9611 27.4551ZM25.9846 32.3578H24.0154V29.4082H25.9846V32.3578Z" fill="#1E2F85"/>
<path d="M34.805 27.4551H30.8828C30.3436 27.4551 29.9062 27.8923 29.9062 28.4316V33.3344C29.9062 33.8737 30.3436 34.3109 30.8828 34.3109H34.805C35.3443 34.3109 35.7815 33.8737 35.7815 33.3344V28.4316C35.7815 27.8923 35.3443 27.4551 34.805 27.4551ZM33.8284 32.3578H31.8594V29.4082H33.8284V32.3578Z" fill="#1E2F85"/>
<path d="M49.0234 27.4551H39.7042V22.5443H41.1791C41.7184 22.5443 42.1557 22.1071 42.1557 21.5678V15.6845C42.1557 15.1451 41.7184 14.7079 41.1791 14.7079H35.1284C35.5563 13.2729 35.782 11.7635 35.782 10.2175V4.89844C35.782 4.49912 35.539 4.14004 35.1682 3.9917L25.3627 0.0696289C25.1298 -0.0235352 24.8701 -0.0235352 24.6373 0.0696289L14.8318 3.9918C14.4611 4.14014 14.218 4.49922 14.218 4.89854V10.2176C14.218 11.7637 14.4437 13.273 14.8717 14.708H8.821C8.28164 14.708 7.84443 15.1452 7.84443 15.6846V21.5679C7.84443 22.1072 8.28164 22.5444 8.821 22.5444H10.2958V27.4552H0.976562C0.437207 27.4552 0 27.8924 0 28.4317V32.3539C0 32.8933 0.437207 33.3305 0.976562 33.3305H1.96104V49.0231C1.96104 49.5625 2.39824 49.9997 2.9376 49.9997H47.0623C47.6016 49.9997 48.0389 49.5625 48.0389 49.0231V33.3304H49.0234C49.5627 33.3304 50 32.8932 50 32.3538V28.4316C50 27.8923 49.5628 27.4551 49.0234 27.4551ZM40.2025 16.6611V20.5913H31.8478C32.8964 19.4136 33.7548 18.0888 34.3995 16.6611H40.2025ZM16.1711 5.55967L25 2.02813L33.8289 5.55967V10.2175C33.8289 11.9607 33.5022 13.651 32.8894 15.2168C32.8713 15.25 32.8544 15.2842 32.8399 15.3199C31.98 17.4568 30.5821 19.3556 28.7973 20.8109C28.7892 20.8176 28.7817 20.8248 28.7738 20.8316C28.3779 21.1521 27.9627 21.4538 27.5271 21.7327L25 23.35L22.4729 21.7326C20.1229 20.2286 18.2352 17.9918 17.16 15.3199C17.1457 15.2844 17.1288 15.2504 17.1107 15.2172C16.4978 13.6513 16.1711 11.9607 16.1711 10.2175V5.55967ZM9.79756 16.6611H15.6005C16.2452 18.0887 17.1036 19.4136 18.1522 20.5913H9.79756V16.6611ZM1.95312 29.4082H10.2958V31.3772C9.49609 31.3772 3.22773 31.3772 1.95312 31.3772V29.4082ZM3.91426 33.3304H10.2958V48.0466H3.91426V33.3304ZM12.2489 22.5443H20.2409C20.6188 22.8379 21.0118 23.1164 21.4201 23.3777L24.4736 25.3319C24.7939 25.5369 25.2048 25.5377 25.5265 25.3319L28.58 23.3777C28.9884 23.1164 29.3813 22.8379 29.7592 22.5443H37.7512V48.0466H12.2489C12.2489 45.1863 12.2489 25.2351 12.2489 22.5443ZM46.0857 48.0466H39.7042V33.3304H46.0857V48.0466ZM48.0469 31.3772C47.2205 31.3772 40.8507 31.3772 39.7042 31.3772V29.4082H48.0469V31.3772Z" fill="#1E2F85"/>
<path d="M23.8191 14.4139C24.2003 14.7951 24.8189 14.7953 25.2003 14.4139L28.1419 11.4722C28.5232 11.0909 28.5232 10.4725 28.1419 10.0912C27.7604 9.70983 27.1423 9.70983 26.7607 10.0913L24.5097 12.3423L23.7294 11.5621C23.3479 11.1807 22.7297 11.1808 22.3483 11.5621C21.967 11.9434 21.9669 12.5618 22.3483 12.9431L23.8191 14.4139Z" fill="#1E2F85"/>
</g>
<defs>
<clipPath id="clip0_4956_7188">
<rect width="50" height="50" fill="white" transform="translate(0 -0.000244141)"/>
</clipPath>
</defs>
</svg>
