<svg width="50" height="50" viewBox="0 0 50 50" fill="none" xmlns="http://www.w3.org/2000/svg">
<g clip-path="url(#clip0_4956_7204)">
<path d="M23.2972 24.6465C19.1443 21.9888 16.665 17.4584 16.665 12.5278V8.53457L24.9997 5.20068L33.3344 8.53457V12.5278C33.3344 17.4584 30.8551 21.9887 26.7022 24.6465L24.9997 25.7361L23.2972 24.6465Z" fill="#E7EEFB"/>
<path d="M20.6568 28.7726L24.4736 31.2153C24.7952 31.4211 25.2063 31.4203 25.5265 31.2153L29.3433 28.7726C34.8855 25.2255 38.2334 19.094 38.2334 12.5277V5.879C38.2334 5.47969 37.9903 5.12061 37.6195 4.97227L25.3627 0.0696289C25.1298 -0.0235352 24.8701 -0.0235352 24.6373 0.0696289L12.3805 4.97236C12.0098 5.1207 11.7666 5.47979 11.7666 5.8791V12.5278C11.7666 19.1079 15.1264 25.233 20.6568 28.7726ZM13.7197 6.54023L25.0001 2.02813L36.2803 6.54023V12.5277C36.2803 18.4677 33.2934 23.9256 28.2904 27.1274L25.0001 29.2333L21.7097 27.1274C16.7066 23.9255 13.7197 18.4677 13.7197 12.5277V6.54023Z" fill="#1E2F85"/>
<path d="M23.3282 17.8459C23.7095 18.2273 24.3279 18.2274 24.7094 17.8459L29.1219 13.4334C29.5032 13.0521 29.5032 12.4337 29.1219 12.0524C28.7404 11.671 28.1222 11.671 27.7407 12.0524L24.0188 15.7742L22.258 14.0134C21.8766 13.6321 21.2583 13.6321 20.8768 14.0134C20.4955 14.3948 20.4955 15.0131 20.8768 15.3946L23.3282 17.8459Z" fill="#1E2F85"/>
<path d="M42.5478 37.9035C43.5117 37.0083 44.1165 35.7312 44.1165 34.315C44.1165 31.6138 41.9189 29.4163 39.2178 29.4163C36.5166 29.4163 34.319 31.6138 34.319 34.315C34.319 35.7312 34.9237 37.0083 35.8877 37.9035C33.5605 38.8492 31.7271 40.7639 30.8909 43.1445C30.1334 42.1332 29.1201 41.3247 27.9488 40.8126C28.5516 40.1234 28.918 39.2225 28.918 38.2371C28.918 36.0765 27.1603 34.3189 24.9998 34.3189C22.8393 34.3189 21.0815 36.0766 21.0815 38.2371C21.0815 39.2224 21.448 40.1233 22.0508 40.8126C20.8794 41.3247 19.8662 42.1331 19.1088 43.1445C18.2726 40.7639 16.4392 38.8491 14.112 37.9035C15.076 37.0083 15.6807 35.7312 15.6807 34.315C15.6807 31.6138 13.4831 29.4163 10.7819 29.4163C8.08076 29.4163 5.8832 31.6138 5.8832 34.315C5.8832 35.7312 6.48789 37.0083 7.45186 37.9035C4.23516 39.2106 1.96094 42.3693 1.96094 46.0497V49.0232C1.96094 49.5625 2.39814 49.9998 2.9375 49.9998H47.0622C47.6015 49.9998 48.0388 49.5625 48.0388 49.0232V46.0497C48.0386 42.3693 45.7645 39.2105 42.5478 37.9035ZM39.2177 31.3694C40.8419 31.3694 42.1633 32.6908 42.1633 34.315C42.1633 35.9392 40.8419 37.2606 39.2177 37.2606C37.5935 37.2606 36.2721 35.9392 36.2721 34.315C36.2721 32.6908 37.5935 31.3694 39.2177 31.3694ZM24.9998 36.2721C26.0833 36.2721 26.9648 37.1537 26.9648 38.2372C26.9648 39.3208 26.0834 40.2022 24.9998 40.2022C23.9162 40.2022 23.0347 39.3207 23.0347 38.2372C23.0347 37.1537 23.9162 36.2721 24.9998 36.2721ZM10.7818 31.3694C12.4061 31.3694 13.7274 32.6908 13.7274 34.315C13.7274 35.9392 12.4061 37.2606 10.7818 37.2606C9.15762 37.2606 7.83623 35.9392 7.83623 34.315C7.83623 32.6908 9.15762 31.3694 10.7818 31.3694ZM3.91396 46.0497C3.91396 42.2803 6.98057 39.2137 10.7499 39.2137H10.8138C14.5831 39.2137 17.6497 42.2803 17.6497 46.0497V48.0466H3.91396V46.0497ZM19.6028 47.5265C19.6028 44.5649 22.0122 42.1554 24.9738 42.1554H25.0256C27.9873 42.1554 30.3968 44.5649 30.3968 47.5265V48.0466H19.6028V47.5265ZM46.0854 48.0466H32.3499C32.3499 47.5722 32.3499 46.5297 32.3499 46.0497C32.3499 42.2803 35.4164 39.2137 39.1858 39.2137H39.2495C43.0189 39.2137 46.0854 42.2803 46.0854 46.0497V48.0466Z" fill="#1E2F85"/>
</g>
<defs>
<clipPath id="clip0_4956_7204">
<rect width="50" height="50" fill="white" transform="translate(0 -0.000244141)"/>
</clipPath>
</defs>
</svg>
