<svg width="20" height="26" viewBox="0 0 20 26" fill="none" xmlns="http://www.w3.org/2000/svg">
<path fill-rule="evenodd" clip-rule="evenodd" d="M9.9993 25.2505L10.9608 24.1671C12.0519 22.9175 13.0332 21.732 13.9064 20.6044L14.6271 19.6535C17.6366 15.5987 19.1422 12.3804 19.1422 10.0017C19.1422 4.9244 15.0492 0.808594 9.9993 0.808594C4.9494 0.808594 0.856445 4.9244 0.856445 10.0017C0.856445 12.3804 2.36197 15.5987 5.37149 19.6535L6.09226 20.6044C7.33787 22.2004 8.64108 23.7491 9.9993 25.2505Z" stroke="#6A26DD" stroke-width="1.5" stroke-linecap="round" stroke-linejoin="round"/>
<path d="M9.99898 13.7597C12.1029 13.7597 13.8085 12.0541 13.8085 9.95015C13.8085 7.84621 12.1029 6.14062 9.99898 6.14062C7.89504 6.14062 6.18945 7.84621 6.18945 9.95015C6.18945 12.0541 7.89504 13.7597 9.99898 13.7597Z" stroke="#6A26DD" stroke-width="1.5" stroke-linecap="round" stroke-linejoin="round"/>
</svg>
