<svg width="22" height="30" viewBox="0 0 22 30" fill="none" xmlns="http://www.w3.org/2000/svg">
<path d="M8.35352 10.998H10.4606V13.1051C10.4606 13.3125 10.6283 13.4801 10.8356 13.4801C11.043 13.4801 11.2106 13.3125 11.2106 13.1051V10.998H13.3178C13.5251 10.998 13.6928 10.8304 13.6928 10.623C13.6928 10.4156 13.5251 10.248 13.3178 10.248H11.2106V8.14124C11.2106 7.93386 11.043 7.76624 10.8356 7.76624C10.6283 7.76624 10.4606 7.93386 10.4606 8.14124V10.248H8.35352C8.14614 10.248 7.97852 10.4156 7.97852 10.623C7.97852 10.8304 8.14652 10.998 8.35352 10.998Z" fill="#0B5D6A"/>
<path d="M5.81445 16.6882C5.81445 16.8956 5.98208 17.0632 6.18945 17.0632H15.6072C15.8146 17.0632 15.9822 16.8956 15.9822 16.6882C15.9822 16.4809 15.8146 16.3132 15.6072 16.3132H6.18945C5.98208 16.3132 5.81445 16.4809 5.81445 16.6882Z" fill="#0B5D6A"/>
<path d="M15.6072 22.6318H6.18945C5.98208 22.6318 5.81445 22.7995 5.81445 23.0068C5.81445 23.2142 5.98208 23.3818 6.18945 23.3818H15.6072C15.8146 23.3818 15.9822 23.2142 15.9822 23.0068C15.9822 22.7995 15.8146 22.6318 15.6072 22.6318Z" fill="#0B5D6A"/>
<path d="M15.6072 18.4435H6.18945C5.98208 18.4435 5.81445 18.6111 5.81445 18.8185C5.81445 19.0259 5.98208 19.1935 6.18945 19.1935H15.6072C15.8146 19.1935 15.9822 19.0259 15.9822 18.8185C15.9822 18.6111 15.8146 18.4435 15.6072 18.4435Z" fill="#0B5D6A"/>
<path d="M15.6072 20.5737H6.18945C5.98208 20.5737 5.81445 20.7414 5.81445 20.9487C5.81445 21.1561 5.98208 21.3237 6.18945 21.3237H15.6072C15.8146 21.3237 15.9822 21.1561 15.9822 20.9487C15.9822 20.7414 15.8146 20.5737 15.6072 20.5737Z" fill="#0B5D6A"/>
<path d="M0.375 30H21.2962C21.5036 30 21.6712 29.8324 21.6712 29.625V3.86137C21.6712 3.654 21.5036 3.48637 21.2962 3.48637H15.534V2.72587C15.534 2.5185 15.3664 2.35087 15.159 2.35087H13.005V2.16938C13.005 0.973125 12.0319 0 10.836 0C9.63975 0 8.66662 0.973125 8.66662 2.16938V2.35087H6.51262C6.30525 2.35087 6.13762 2.5185 6.13762 2.72587V3.48637H0.375C0.167625 3.48637 0 3.654 0 3.86137V29.6246C0 29.832 0.167625 30 0.375 30ZM6.88725 3.10087H9.04125C9.24862 3.10087 9.41625 2.93325 9.41625 2.72587V2.16938C9.41625 1.38675 10.053 0.75 10.8356 0.75C11.6182 0.75 12.2546 1.38675 12.2546 2.16938V2.72587C12.2546 2.93325 12.4222 3.10087 12.6296 3.10087H14.7836V4.94963H6.88725V3.10087ZM6.51225 5.69963H15.159C15.3664 5.69963 15.534 5.532 15.534 5.32463V4.23675H18.0202V26.0062H3.65137V4.23637H6.13725V5.32425C6.13725 5.532 6.30525 5.69963 6.51225 5.69963ZM0.75 4.23637H2.90137V26.3809C2.90137 26.5882 3.069 26.7559 3.27637 26.7559H18.3952C18.6026 26.7559 18.7702 26.5882 18.7702 26.3809V4.23637H20.9212V29.2496H0.75V4.23637Z" fill="#0B5D6A"/>
<path d="M10.8355 2.56085C11.0979 2.56085 11.3106 2.34813 11.3106 2.08572C11.3106 1.82332 11.0979 1.6106 10.8355 1.6106C10.5731 1.6106 10.3604 1.82332 10.3604 2.08572C10.3604 2.34813 10.5731 2.56085 10.8355 2.56085Z" fill="#0B5D6A"/>
</svg>
