<svg width="48" height="49" viewBox="0 0 48 49" fill="none" xmlns="http://www.w3.org/2000/svg">
<g clip-path="url(#clip0_4956_7528)">
<path fill-rule="evenodd" clip-rule="evenodd" d="M24.046 34.1692C29.2048 34.1692 33.4122 29.9617 33.4122 24.803C32.9332 12.396 15.157 12.3995 14.6798 24.8031C14.6798 29.9617 18.8873 34.1692 24.046 34.1692Z" fill="#B2F0FB"/>
<path d="M40.9901 7.85868C22.5982 -9.96159 -6.7925 8.70332 1.46364 32.9215C2.29311 35.2302 3.46745 37.3869 4.95836 39.3411L1.07944 42.9798C0.435322 43.5841 0.072568 44.4133 0.0581441 45.3149C0.0434391 46.2383 0.407785 47.1408 1.05799 47.7909C1.70772 48.4409 2.61166 48.8055 3.53385 48.7906C4.43563 48.7762 5.26501 48.4136 5.86923 47.7695L9.5081 43.8903C18.6986 51.1086 32.8611 50.2053 40.99 41.768C50.2915 32.8435 50.2921 16.7832 40.9901 7.85868ZM40.4548 39.597C38.4358 37.6977 36.14 36.1856 33.6088 35.0867C36.1509 32.7211 37.8178 29.4269 38.0636 25.75H46.12C45.8976 31.0614 43.7919 35.8945 40.4548 39.597ZM11.8699 24.803C11.8699 18.0891 17.3321 12.6269 24.046 12.6269C40.177 13.2391 40.1727 36.3694 24.0458 36.9791C17.3321 36.9791 11.8699 31.5169 11.8699 24.803ZM10.0269 23.8768H1.95059C2.17313 18.5654 4.27884 13.7324 7.61584 10.0298C9.63473 11.929 11.9303 13.441 14.4611 14.5399C11.9267 16.9084 10.2672 20.2021 10.0269 23.8768ZM31.9431 13.1886C30.9781 8.83052 30.0387 5.82892 27.8487 3.03826C32.1728 3.79327 36.069 5.80916 39.1433 8.6919C37.0497 10.6543 34.6344 12.1664 31.9512 13.1941C31.9484 13.1923 31.9457 13.1904 31.9431 13.1886ZM29.7492 11.9638C26.2969 10.3594 21.7674 10.3639 18.3188 11.9746C21.3532 -0.130052 26.7117 -0.137544 29.7492 11.9638ZM19.0776 4.67903C17.8496 6.77856 16.8314 9.71825 16.1261 13.1965C13.4405 12.1689 11.0231 10.656 8.92767 8.6918C12.0019 5.80916 15.8982 3.79318 20.2222 3.03817C19.8413 3.48821 19.4575 4.02949 19.0776 4.67903ZM24.046 38.8523C26.0775 38.8523 28.0098 38.4189 29.7551 37.6396C26.7172 49.7764 21.3451 49.7603 18.313 37.6288C20.0646 38.4148 22.0052 38.8523 24.046 38.8523ZM28.9948 44.9451C30.2221 42.8457 31.2397 39.9071 31.9447 36.4303C34.6303 37.458 37.0477 38.9708 39.1431 40.935C36.0688 43.8177 32.1726 45.8336 27.8486 46.5886C28.23 46.138 28.6143 45.5958 28.9948 44.9451ZM38.0651 23.8768C37.8246 20.1989 36.1624 16.9025 33.6241 14.5335C36.1494 13.435 38.4401 11.9252 40.4549 10.0298C43.7919 13.7324 45.8976 18.5653 46.1202 23.8767H38.0651V23.8768ZM1.95106 25.75H10.0283C10.2401 28.9162 11.5053 31.7985 13.4758 34.0485L12.14 35.3843L11.3471 34.5914C10.9895 34.2339 10.4127 34.2246 10.0439 34.5706L6.33257 38.052C3.67556 34.4997 2.141 30.1891 1.95106 25.75ZM4.50298 46.4879C4.24887 46.7587 3.89408 46.9113 3.50398 46.9176C3.08465 46.9247 2.6761 46.7599 2.38265 46.4664C2.08911 46.1729 1.92455 45.764 1.9312 45.3449C1.93748 44.955 2.09015 44.6002 2.36111 44.346L10.664 36.5574L12.2915 38.185L4.50298 46.4879ZM14.2785 38.805C14.6244 38.4362 14.6152 37.8594 14.2577 37.5019L13.4648 36.709L14.8006 35.3732C15.2191 35.7397 15.6595 36.0818 16.1194 36.3973C17.0835 40.7699 18.0231 43.7824 20.2182 46.5838C16.8149 45.985 13.5747 44.594 10.7971 42.5164L14.2785 38.805Z" fill="#243D31"/>
<path d="M26.8558 19.9362C26.408 19.6776 25.8351 19.8311 25.5764 20.279L20.8932 28.3904C20.6346 28.8384 20.7881 29.4112 21.2361 29.6698C21.6761 29.9262 22.2554 29.7791 22.5155 29.327L27.1986 21.2156C27.4573 20.7676 27.3038 20.1948 26.8558 19.9362Z" fill="#243D31"/>
<path d="M21.7051 21.684C22.9465 21.6379 22.9455 19.8563 21.7051 19.8107H21.7044C20.4629 19.8569 20.4647 21.6385 21.7051 21.684Z" fill="#243D31"/>
<path d="M26.3876 27.9219H26.3869C25.8696 27.9219 25.4506 28.3413 25.4506 28.8586C25.4965 30.0995 27.2784 30.0994 27.3241 28.8586C27.3242 28.3413 26.9049 27.9219 26.3876 27.9219Z" fill="#243D31"/>
</g>
<defs>
<clipPath id="clip0_4956_7528">
<rect width="48" height="48" fill="white" transform="translate(0 0.791016)"/>
</clipPath>
</defs>
</svg>
