<svg width="32" height="32" viewBox="0 0 32 32" fill="none" xmlns="http://www.w3.org/2000/svg">
<path fill-rule="evenodd" clip-rule="evenodd" d="M15.1371 23.4743C15.0686 23.4866 14.9983 23.4852 14.9304 23.4702C14.8624 23.4551 14.7981 23.4268 14.7411 23.3868C14.6841 23.3468 14.6356 23.296 14.5984 23.2372C14.5611 23.1783 14.5359 23.1127 14.5242 23.0441C14.5112 22.9756 14.5123 22.9052 14.5274 22.8371C14.5424 22.7691 14.5711 22.7047 14.6116 22.648L15.1602 21.8641C15.2 21.8069 15.2507 21.7582 15.3095 21.7209C15.3683 21.6836 15.434 21.6584 15.5026 21.6468C15.606 21.6283 15.7126 21.6409 15.8089 21.683C15.9051 21.7252 15.9866 21.795 16.0431 21.8835C16.0996 21.9721 16.1285 22.0755 16.1262 22.1805C16.1238 22.2856 16.0903 22.3875 16.0299 22.4735L15.4813 23.2557C15.3999 23.3709 15.2761 23.4491 15.1371 23.4733V23.4743ZM13.4436 22.7352C13.5123 22.7233 13.5779 22.6981 13.6367 22.6608C13.6956 22.6235 13.7464 22.5749 13.7864 22.5179L14.756 21.1334C14.8362 21.0181 14.8676 20.8757 14.8434 20.7373C14.8193 20.5989 14.7415 20.4756 14.6269 20.3942C14.5115 20.3141 14.369 20.2828 14.2306 20.3071C14.0922 20.3314 13.969 20.4094 13.8877 20.524L12.9174 21.9085C12.8373 22.0241 12.806 22.1666 12.8305 22.3051C12.8549 22.4436 12.9331 22.5669 13.0479 22.648C13.105 22.6881 13.1695 22.7164 13.2376 22.7314C13.3057 22.7463 13.3761 22.7476 13.4447 22.7352H13.4436ZM11.7488 21.996C11.6804 22.0084 11.6102 22.0071 11.5424 21.9923C11.4745 21.9774 11.4103 21.9491 11.3534 21.9092C11.2383 21.8283 11.1598 21.7051 11.1351 21.5666C11.1104 21.4281 11.1415 21.2854 11.2215 21.1697L11.3719 20.9564L12.6113 19.1864C12.693 19.0736 12.8158 18.9975 12.9532 18.9744C13.0905 18.9512 13.2315 18.9831 13.3456 19.0629C13.4597 19.1428 13.5379 19.2643 13.5632 19.4013C13.5885 19.5383 13.559 19.6797 13.481 19.7951L13.2719 20.0952L12.0926 21.7787C12.0526 21.836 12.0016 21.8847 11.9425 21.9221C11.8835 21.9594 11.8176 21.9843 11.7488 21.996ZM10.018 20.6556C10.1335 20.7358 10.276 20.7671 10.4145 20.7427C10.553 20.7183 10.6763 20.6402 10.7575 20.5254L11.8476 18.9699C11.9152 18.8543 11.9368 18.7175 11.9081 18.5866C11.8794 18.4558 11.8026 18.3406 11.6929 18.2638C11.5831 18.187 11.4485 18.1544 11.3158 18.1723C11.1831 18.1902 11.062 18.2574 10.9765 18.3605L9.88783 19.916C9.80836 20.0318 9.77748 20.1741 9.80181 20.3124C9.82615 20.4507 9.90375 20.5739 10.018 20.6556ZM8.52466 17.0713C9.00394 17.4201 9.55575 17.7973 10.1737 18.1994L10.3625 17.9307C10.4991 17.7344 10.688 17.5805 10.9078 17.4863C11.1275 17.3921 11.3693 17.3615 11.6056 17.3979C11.8419 17.4342 12.0632 17.5362 12.2445 17.6921C12.4257 17.848 12.5596 18.0516 12.6309 18.2798C12.8283 18.2115 13.0395 18.1927 13.2459 18.225C13.4524 18.2573 13.6477 18.3398 13.8149 18.4651C13.982 18.5905 14.1159 18.7549 14.2047 18.944C14.2935 19.1331 14.3346 19.3411 14.3243 19.5498C14.6248 19.5498 14.9156 19.6559 15.1454 19.8494C15.3753 20.0428 15.5295 20.3112 15.5808 20.6072C15.5964 20.7003 15.6022 20.7948 15.5979 20.8892C15.8156 20.8892 16.0297 20.9449 16.2198 21.051C16.41 21.1571 16.5698 21.31 16.6842 21.4953C16.7986 21.6805 16.8637 21.8919 16.8734 22.1094C16.8831 22.3269 16.837 22.5433 16.7396 22.738L16.9031 22.8518C16.9603 22.8916 17.0247 22.9199 17.0928 22.9348C17.1608 22.9498 17.2312 22.9512 17.2998 22.939C17.3684 22.9268 17.4339 22.9012 17.4926 22.8636C17.5513 22.8261 17.6021 22.7774 17.6419 22.7202C17.6818 22.6631 17.71 22.5986 17.725 22.5306C17.74 22.4625 17.7414 22.3922 17.7292 22.3236C17.717 22.255 17.6914 22.1894 17.6538 22.1307C17.6163 22.072 17.5675 22.0213 17.5104 21.9814C17.4292 21.9241 17.3741 21.8369 17.3572 21.739C17.3403 21.6411 17.363 21.5405 17.4203 21.4593C17.4775 21.3781 17.5647 21.323 17.6627 21.3061C17.7606 21.2892 17.8612 21.3119 17.9424 21.3691L17.9513 21.3759L17.9598 21.3816L18.2442 21.5811C18.3013 21.6224 18.366 21.6519 18.4346 21.668C18.5031 21.684 18.5742 21.6863 18.6437 21.6746C18.7131 21.6629 18.7796 21.6376 18.8391 21.5999C18.8987 21.5623 18.9501 21.5132 18.9905 21.4555C19.0309 21.3978 19.0594 21.3327 19.0744 21.2638C19.0893 21.195 19.0904 21.1239 19.0776 21.0546C19.0648 20.9854 19.0384 20.9194 18.9998 20.8604C18.9612 20.8015 18.9113 20.7508 18.8529 20.7114L18.3751 20.3736C18.2936 20.3166 18.2381 20.2296 18.2208 20.1317C18.2035 20.0337 18.2258 19.933 18.2828 19.8515C18.3398 19.77 18.4269 19.7145 18.5248 19.6972C18.6227 19.6799 18.7235 19.7022 18.8049 19.7592L19.2835 20.0942L19.5679 20.2929C19.625 20.3343 19.6898 20.3639 19.7584 20.38C19.8271 20.396 19.8982 20.3983 19.9678 20.3866C20.0373 20.3748 20.1038 20.3494 20.1633 20.3117C20.2229 20.274 20.2744 20.2248 20.3147 20.167C20.3551 20.1092 20.3835 20.0439 20.3984 19.975C20.4133 19.9061 20.4142 19.8349 20.4013 19.7656C20.3883 19.6963 20.3617 19.6302 20.3229 19.5713C20.2842 19.5124 20.2341 19.4619 20.1756 19.4225L19.1068 18.6759C19.0275 18.618 18.9741 18.5313 18.958 18.4344C18.942 18.3375 18.9646 18.2382 19.021 18.1579C19.0775 18.0775 19.1632 18.0225 19.2597 18.0047C19.3563 17.9869 19.456 18.0076 19.5374 18.0626L20.9283 19.0364C21.0436 19.1148 21.1852 19.1448 21.3224 19.1197C21.4596 19.0946 21.5815 19.0166 21.6617 18.9024C21.7418 18.7883 21.7739 18.6472 21.7509 18.5096C21.7279 18.372 21.6517 18.249 21.5387 18.1671C21.2781 17.9843 20.9528 17.7696 20.609 17.542C19.4915 16.8025 18.1273 15.8987 17.4052 15.1094C16.8476 15.3166 16.2454 15.3739 15.6587 15.2758C15.4511 15.7177 14.9896 16.0935 14.2618 16.4214C13.7316 16.6837 12.9839 16.5234 11.9781 15.9321C11.9326 15.9054 11.8933 15.8695 11.8627 15.8266C11.8321 15.7837 11.8108 15.7349 11.8003 15.6832C11.7897 15.6315 11.7902 15.578 11.8018 15.5264C11.8135 15.4749 11.836 15.4264 11.8679 15.3842C12.3573 14.8481 12.8743 14.3378 13.4166 13.8554C12.683 13.6856 11.9669 13.4476 11.2777 13.1443L8.52537 17.0713H8.52466ZM7.48468 17.2491C7.45444 17.2919 7.40861 17.3211 7.35704 17.3305C7.33139 17.3351 7.30509 17.3346 7.27964 17.329C7.25419 17.3233 7.23011 17.3127 7.20878 17.2978L5.02963 15.7714C4.98699 15.7412 4.95779 15.6955 4.94821 15.6441C4.93911 15.5923 4.95087 15.539 4.98092 15.4959L8.6203 10.2981C8.63859 10.272 8.66291 10.2507 8.6912 10.2361C8.7195 10.2214 8.75092 10.2138 8.78279 10.2139C8.82343 10.2139 8.86311 10.2263 8.89656 10.2494L11.0754 11.7758C11.1181 11.8063 11.1475 11.8521 11.1571 11.9038C11.1653 11.9556 11.1534 12.0086 11.1241 12.052L7.4854 17.248L7.48468 17.2491ZM14.7162 13.6602C15.6488 13.348 16.2706 13.1269 16.613 12.9846C17.2742 12.8946 17.9456 12.9113 18.6016 13.0341H18.6115C19.3195 13.1193 20.0317 13.1656 20.7448 13.1727L23.5287 17.147C23.1918 17.4961 22.7851 17.7703 22.3352 17.9516C22.2432 17.7932 22.1182 17.6566 21.9686 17.5509C21.6991 17.3632 21.3709 17.146 21.0228 16.9152C19.8997 16.1721 18.3623 15.1542 17.8005 14.4139C17.7445 14.3402 17.6631 14.2899 17.5721 14.2726C17.4811 14.2553 17.3869 14.2724 17.3077 14.3204C16.8839 14.5775 16.2649 14.633 15.4696 14.4858C15.4206 14.4766 15.3702 14.4774 15.3215 14.4881C15.2728 14.4987 15.2268 14.519 15.1861 14.5477C15.1453 14.5765 15.1108 14.6131 15.0844 14.6554C15.0581 14.6976 15.0404 14.7448 15.0326 14.794C14.9782 15.119 14.6059 15.4454 13.9482 15.7391C13.9428 15.7412 13.9376 15.7437 13.9325 15.7465C13.8234 15.8016 13.5098 15.8703 12.7745 15.5104C13.0742 15.2132 13.6428 14.666 14.7162 13.6616V13.6602ZM20.8436 11.9038C20.8482 11.8781 20.8578 11.8536 20.8718 11.8316C20.8858 11.8097 20.9041 11.7907 20.9254 11.7758L23.1046 10.2494C23.1478 10.2195 23.2011 10.2079 23.2529 10.217C23.3047 10.2261 23.3508 10.2552 23.3812 10.2981L27.0188 15.4948C27.0338 15.516 27.0445 15.5399 27.0503 15.5653C27.056 15.5906 27.0568 15.6168 27.0524 15.6424C27.048 15.668 27.0386 15.6925 27.0247 15.7144C27.0108 15.7364 26.9927 15.7554 26.9715 15.7704L24.7923 17.2967C24.7492 17.3269 24.6958 17.3387 24.644 17.3296C24.5921 17.3205 24.546 17.2911 24.5157 17.248L20.8767 12.0538C20.8473 12.0104 20.8355 11.9574 20.8436 11.9056V11.9038ZM16.0957 23.6873L16.3236 23.3609L16.4726 23.4676C16.7509 23.6621 17.0951 23.7381 17.4295 23.6792C17.7639 23.6202 18.0613 23.4309 18.2563 23.1529C18.4065 22.9397 18.4871 22.6852 18.4871 22.4244C18.507 22.4244 18.5269 22.4262 18.5472 22.4262C18.7535 22.4267 18.9569 22.3774 19.14 22.2823C19.3231 22.1873 19.4805 22.0494 19.5989 21.8804C19.751 21.6636 19.8311 21.4043 19.8278 21.1395C19.8424 21.1395 19.8566 21.1395 19.8709 21.1395C20.2073 21.1395 20.5303 21.007 20.7698 20.7707C21.0094 20.5345 21.1463 20.2134 21.1508 19.8769C21.1768 19.8769 21.2024 19.8801 21.228 19.8801C21.3039 19.88 21.3797 19.8733 21.4545 19.8602C21.6203 19.8318 21.7787 19.7707 21.9207 19.6804C22.0626 19.5901 22.1851 19.4725 22.2811 19.3344C22.4153 19.144 22.4937 18.9201 22.5076 18.6876C23.0545 18.4861 23.5525 18.171 23.9689 17.7632C24.1106 17.9224 24.3019 18.0292 24.5118 18.0661C24.5673 18.0757 24.6234 18.0806 24.6796 18.0807C24.8735 18.0805 25.0625 18.0207 25.2211 17.9093L27.4003 16.3833C27.6059 16.2388 27.7458 16.0187 27.7893 15.7712C27.8328 15.5238 27.7764 15.2691 27.6325 15.0632L23.9959 9.86827C23.8513 9.66259 23.6311 9.52256 23.3835 9.47885C23.1359 9.43514 22.881 9.4913 22.6747 9.63503L20.4956 11.1614C20.3015 11.2974 20.1654 11.501 20.114 11.7323C20.0626 11.9636 20.0997 12.2058 20.2179 12.4111C19.7678 12.393 19.2608 12.3525 18.7018 12.2895C17.9468 12.1465 17.1725 12.136 16.4139 12.2586C16.3924 12.2638 16.3714 12.2707 16.351 12.2792C16.031 12.4158 15.375 12.6501 14.4008 12.975C14.3494 12.9917 14.3024 13.0196 14.2632 13.0568C14.2003 13.1144 14.1402 13.1713 14.0811 13.2264C13.2695 13.0753 12.4765 12.8368 11.716 12.5153L11.7388 12.483C11.8826 12.2768 11.9387 12.022 11.8949 11.7744C11.8511 11.5269 11.711 11.3068 11.5052 11.1625L9.32642 9.6361C9.12022 9.4924 8.86549 9.43626 8.61799 9.47998C8.3705 9.52369 8.15041 9.6637 8.00592 9.86934L4.36725 15.0649C4.22322 15.2709 4.16681 15.5256 4.21041 15.7731C4.254 16.0206 4.39404 16.2407 4.59978 16.3851L6.77928 17.9111C6.93797 18.0226 7.12719 18.0824 7.32113 18.0825C7.37703 18.0823 7.43281 18.0775 7.48788 18.0679C7.73274 18.0254 7.95089 17.8879 8.0948 17.6853C8.57728 18.0355 9.12838 18.4135 9.74454 18.8138L9.27415 19.4847C9.13967 19.6765 9.06038 19.9015 9.04493 20.1352C9.02948 20.3689 9.07845 20.6024 9.18651 20.8102C9.29458 21.018 9.45759 21.1922 9.6578 21.3137C9.858 21.4353 10.0877 21.4996 10.3219 21.4996C10.3404 21.4996 10.3593 21.4996 10.3778 21.4996C10.3834 21.8343 10.5201 22.1534 10.7585 22.3883C10.9969 22.6232 11.318 22.7552 11.6528 22.7558C11.7287 22.7556 11.8045 22.749 11.8792 22.7359C11.9726 22.7187 12.0638 22.6919 12.1516 22.6559C12.2109 22.8181 12.3025 22.9665 12.4208 23.0923C12.5392 23.2181 12.6818 23.3185 12.8401 23.3876C12.9983 23.4566 13.169 23.4929 13.3417 23.4941C13.5143 23.4953 13.6855 23.4615 13.8447 23.3947C13.9341 23.6408 14.0973 23.8535 14.3118 24.0036C14.5264 24.1537 14.7821 24.2341 15.044 24.2338C15.2502 24.2341 15.4535 24.1847 15.6365 24.0897C15.8196 23.9948 15.9771 23.8571 16.0957 23.6884V23.6873ZM17.4297 28.8733C20.3527 28.5479 23.078 27.2377 25.1577 25.158C27.2373 23.0784 28.5475 20.3531 28.873 17.43H31.2196C30.8798 20.972 29.3177 24.2853 26.8015 26.8011C24.2852 29.317 20.9717 30.8786 17.4297 31.2178V28.8712V28.8733ZM17.0557 32C16.9606 31.9997 16.869 31.9637 16.7993 31.899C16.7617 31.864 16.7318 31.8216 16.7113 31.7745C16.6908 31.7274 16.6802 31.6766 16.6802 31.6252V28.532C16.6804 28.438 16.7158 28.3475 16.7794 28.2783C16.8431 28.2091 16.9303 28.1663 17.024 28.1583C19.9 27.9271 22.5998 26.6798 24.6402 24.6398C26.6805 22.5999 27.9283 19.9003 28.1601 17.0244C28.1678 16.9305 28.2106 16.843 28.2799 16.7791C28.3492 16.7153 28.4399 16.6799 28.5341 16.6798H31.6274C31.6786 16.6802 31.7291 16.691 31.776 16.7115C31.8229 16.7321 31.8651 16.762 31.8999 16.7995C31.9348 16.8369 31.9617 16.8811 31.9789 16.9293C31.9961 16.9775 32.0033 17.0287 32 17.0798C31.7384 20.9507 30.0825 24.5956 27.3392 27.339C24.5959 30.0824 20.9511 31.7383 17.0802 32H17.0557ZM28.873 14.5707C28.5474 11.648 27.2371 8.923 25.1574 6.84372C23.0777 4.76444 20.3525 3.45462 17.4297 3.12959V0.782982C20.9718 1.12208 24.2853 2.6836 26.8016 5.19948C29.3179 7.71537 30.8799 11.0287 31.2196 14.5707H28.873ZM31.9989 14.9206C32.0024 14.9718 31.9953 15.0232 31.9781 15.0715C31.9609 15.1199 31.9339 15.1642 31.8989 15.2017C31.8638 15.2392 31.8215 15.2691 31.7744 15.2895C31.7273 15.31 31.6766 15.3206 31.6252 15.3206H28.532C28.4379 15.3206 28.3472 15.2853 28.2779 15.2216C28.2086 15.158 28.1658 15.0705 28.158 14.9768C27.9267 12.1008 26.6795 9.40099 24.6395 7.36061C22.5995 5.32023 19.8999 4.07248 17.024 3.84069C16.9303 3.83268 16.8431 3.78987 16.7794 3.7207C16.7158 3.65152 16.6804 3.56101 16.6802 3.46701V0.373748C16.6805 0.322533 16.6912 0.271916 16.7118 0.225005C16.7323 0.178094 16.7622 0.135879 16.7997 0.100952C16.8372 0.066024 16.8814 0.0391214 16.9296 0.0218954C16.9778 0.00466942 17.0291 -0.00251635 17.0802 0.000779277C20.9512 0.261852 24.5963 1.91758 27.3398 4.66103C30.0832 7.40447 31.7389 11.0496 32 14.9206H31.9989ZM14.5714 0.782982V3.12959C11.6489 3.45492 8.92399 4.76487 6.84461 6.84413C4.76522 8.92338 3.4551 11.6482 3.12959 14.5707H0.782982C1.12251 11.0289 2.68431 7.7157 5.20031 5.19983C7.71631 2.68396 11.0296 1.12233 14.5714 0.782982ZM0.376236 15.3206C0.324811 15.3206 0.273922 15.3101 0.226718 15.2897C0.179513 15.2693 0.136998 15.2395 0.101803 15.202C0.0666083 15.1645 0.0394831 15.1202 0.0221062 15.0718C0.00472919 15.0234 -0.00252979 14.9719 0.000778543 14.9206C0.262303 11.0497 1.91822 7.40478 4.66165 4.66141C7.40509 1.91804 11.05 0.262211 14.9209 0.000779277C14.9722 -0.00252531 15.0235 0.00470356 15.0718 0.0220195C15.1201 0.0393354 15.1644 0.0663708 15.2018 0.101456C15.2393 0.136541 15.2691 0.178932 15.2896 0.226009C15.31 0.273087 15.3205 0.323852 15.3206 0.37517V3.46843C15.3206 3.5625 15.2853 3.65315 15.2216 3.72238C15.1579 3.7916 15.0705 3.83434 14.9768 3.84211C12.1006 4.07309 9.40053 5.32034 7.36008 7.36053C5.31963 9.40072 4.07203 12.1006 3.84068 14.9768C3.83292 15.0705 3.79018 15.1579 3.72095 15.2216C3.65173 15.2853 3.56108 15.3206 3.467 15.3206H0.376236ZM3.12959 17.43H0.782982C1.12264 20.9718 2.68449 24.2849 5.20046 26.8008C7.71644 29.3166 11.0296 30.8783 14.5714 31.2178V28.8712C11.649 28.5456 8.92422 27.2356 6.84489 25.1564C4.76555 23.0772 3.45535 20.3525 3.12959 17.43ZM0.000778543 17.0798C0.262514 20.9507 1.91849 24.5955 4.66187 27.3389C7.40525 30.0823 11.0501 31.7383 14.9209 32H14.9451C14.9944 32.0001 15.0432 31.9905 15.0888 31.9717C15.1343 31.9529 15.1757 31.9253 15.2106 31.8905C15.2454 31.8557 15.2731 31.8143 15.292 31.7688C15.3109 31.7233 15.3206 31.6745 15.3206 31.6252V28.532C15.3206 28.4379 15.2853 28.3473 15.2216 28.278C15.1579 28.2088 15.0705 28.1661 14.9768 28.1583C12.1007 27.9273 9.4008 26.6801 7.36037 24.6401C5.31995 22.6001 4.07226 19.9004 3.84068 17.0244C3.83301 16.9305 3.79032 16.843 3.72109 16.7792C3.65186 16.7153 3.56116 16.6799 3.467 16.6798H0.373747C0.322578 16.6803 0.272034 16.6911 0.225195 16.7117C0.178356 16.7323 0.136203 16.7623 0.101306 16.7997C0.0664092 16.8371 0.039499 16.8812 0.0222159 16.9294C0.00493286 16.9776 -0.00236113 17.0288 0.000778543 17.0798Z" fill="#00C3B7"/>
</svg>
