<svg width="48" height="49" viewBox="0 0 48 49" fill="none" xmlns="http://www.w3.org/2000/svg">
<g clip-path="url(#clip0_5599_15158)">
<path d="M31.9686 25.1256C32.4864 25.1256 32.9061 24.7059 32.9061 24.1881V3.50048C32.9061 1.94967 31.6444 0.687988 30.0936 0.687988H5.71874C4.16793 0.687988 2.90625 1.94967 2.90625 3.50048V45.8755C2.90625 47.4263 4.16793 48.688 5.71874 48.688H30.0936C31.6444 48.688 32.9061 47.4263 32.9061 45.8755V39.1881C32.86 37.9455 31.0768 37.9464 31.0311 39.1881V43.063H4.78124V6.31297H11.5044C11.8913 7.40431 12.934 8.18796 14.1562 8.18796H21.6562C22.8784 8.18796 23.9211 7.40431 24.308 6.31297H31.0311V24.1881C31.0311 24.7059 31.4509 25.1256 31.9686 25.1256ZM31.0311 44.938V45.8755C31.0311 46.3924 30.6106 46.813 30.0936 46.813H5.71874C5.2018 46.813 4.78124 46.3924 4.78124 45.8755V44.938H31.0311ZM23.5312 4.43797C23.0134 4.43797 22.5937 4.85769 22.5937 5.37547C22.5937 5.89241 22.1731 6.31297 21.6562 6.31297H14.1562C13.6393 6.31297 13.2187 5.89241 13.2187 5.37547C13.2187 4.85769 12.799 4.43797 12.2812 4.43797H4.78124V3.50048C4.78124 2.98354 5.2018 2.56298 5.71874 2.56298H30.0936C30.6106 2.56298 31.0311 2.98354 31.0311 3.50048V4.43797H23.5312Z" fill="#FB8500"/>
<path d="M10.3559 10.063C9.83811 10.063 9.41839 10.4827 9.41839 11.0005V11.436C8.90848 11.6925 8.48464 12.1257 8.24961 12.6931C7.99827 13.2999 7.99883 13.9697 8.2513 14.5792C8.50377 15.1887 8.97692 15.6628 9.58367 15.9141L10.4105 16.2566C10.706 16.379 10.8522 16.7322 10.7298 17.0278C10.6074 17.3234 10.254 17.4696 9.95877 17.3472L9.54542 17.1759C9.06702 16.9778 8.51867 17.2049 8.32049 17.6832C8.1223 18.1616 8.34945 18.71 8.82777 18.9081L9.2413 19.0794C9.29998 19.1037 9.35905 19.1255 9.41839 19.145V19.438C9.46452 20.6805 11.2477 20.6796 11.2934 19.438V19.0023C11.8033 18.7458 12.2271 18.3126 12.4622 17.7452C12.9823 16.4894 12.3839 15.0445 11.128 14.5243L10.3013 14.1819C10.0091 14.0683 9.85555 13.6977 9.98202 13.4107C10.1044 13.1151 10.4577 12.969 10.7531 13.0912L11.1665 13.2625C11.6449 13.4608 12.1932 13.2336 12.3914 12.7552C12.5896 12.2769 12.3625 11.7285 11.8841 11.5303L11.4706 11.3589C11.4119 11.3346 11.3528 11.3128 11.2935 11.2933V11.0005C11.2934 10.4827 10.8737 10.063 10.3559 10.063Z" fill="#FB8500"/>
<path d="M16.8619 22.782H7.59368C6.35112 22.8281 6.35205 24.6113 7.59368 24.657H16.8619C18.1045 24.6109 18.1035 22.8276 16.8619 22.782Z" fill="#FB8500"/>
<path d="M16.8619 26.7661H7.59368C6.35112 26.8122 6.35205 28.5955 7.59368 28.6411H16.8619C18.1045 28.5951 18.1035 26.8118 16.8619 26.7661Z" fill="#FB8500"/>
<path d="M7.59361 32.6255H15.104C16.3466 32.5794 16.3456 30.7961 15.104 30.7505H7.59361C6.35114 30.7966 6.35208 32.5798 7.59361 32.6255Z" fill="#FB8500"/>
<path d="M16.8619 34.7349H7.59368C6.35112 34.781 6.35205 36.5642 7.59368 36.6099H16.8619C18.1045 36.5637 18.1035 34.7805 16.8619 34.7349Z" fill="#FB8500"/>
<path d="M16.8619 38.7192H7.59368C6.35112 38.7654 6.35205 40.5486 7.59368 40.5942H16.8619C18.1045 40.5481 18.1035 38.7649 16.8619 38.7192Z" fill="#FB8500"/>
<path d="M28.2185 10.2974H15.5961C14.3536 10.3435 14.3545 12.1267 15.5961 12.1724H28.2185C29.4611 12.1262 29.4602 10.343 28.2185 10.2974Z" fill="#FB8500"/>
<path d="M28.2185 14.2817H15.5961C14.3536 14.3279 14.3545 16.1111 15.5961 16.1567H28.2185C29.4611 16.1106 29.4602 14.3273 28.2185 14.2817Z" fill="#FB8500"/>
<path d="M29.156 19.2034C29.156 18.6856 28.7363 18.2659 28.2185 18.2659H15.5961C14.3536 18.312 14.3545 20.0952 15.5961 20.1409H28.2185C28.7363 20.1409 29.156 19.7212 29.156 19.2034Z" fill="#FB8500"/>
<path fill-rule="evenodd" clip-rule="evenodd" d="M22.5937 23.7195H43.2188C44.25 23.7195 45.0937 24.5641 45.0937 25.5945V37.7819C45.0937 38.8119 44.2488 39.6569 43.2188 39.6569C35.0126 39.6569 30.8 39.6569 22.5937 39.6569C21.5636 39.6569 20.7187 38.8132 20.7187 37.7819V33.5632L18.8438 31.6882L20.7187 29.8132V25.5945C20.7187 24.5632 21.5626 23.7195 22.5937 23.7195Z" fill="#E2C4FF"/>
<path d="M32.5488 27.4695C30.998 27.4695 29.7363 28.7312 29.7363 30.282V34.9695C29.7825 36.212 31.5657 36.2111 31.6113 34.9695V33.5631H33.4863V34.9695C33.5325 36.212 35.3157 36.2111 35.3613 34.9695V30.282C35.3613 28.7312 34.0996 27.4695 32.5488 27.4695ZM33.4863 31.6881H31.6113V30.282C31.6586 29.0397 33.4395 29.0405 33.4863 30.282V31.6881Z" fill="#FB8500"/>
<path d="M41.5317 34.5502L40.1007 31.6882L41.5317 28.8263C41.7632 28.3631 41.5755 27.8 41.1124 27.5684C40.6491 27.3369 40.0861 27.5246 39.8546 27.9877L39.0525 29.5918L38.2505 27.9877C38.019 27.5246 37.456 27.3369 36.9927 27.5684C36.5295 27.8 36.3418 28.3631 36.5734 28.8263L38.0043 31.6882L36.5733 34.5502C36.3417 35.0133 36.5294 35.5765 36.9926 35.808C37.4457 36.0375 38.0179 35.8565 38.2504 35.3888L39.0525 33.7845L39.8547 35.3888C40.0871 35.8566 40.6592 36.0375 41.1125 35.808C41.5755 35.5765 41.7632 35.0133 41.5317 34.5502Z" fill="#FB8500"/>
<path d="M27.9316 27.4695H24.6503C23.4078 27.5156 23.4087 29.2988 24.6503 29.3445H25.3534V34.9695C25.3996 36.212 27.1828 36.2111 27.2284 34.9695V29.3445H27.9316C29.1741 29.2984 29.1732 27.5151 27.9316 27.4695Z" fill="#FB8500"/>
</g>
<defs>
<clipPath id="clip0_5599_15158">
<rect width="48" height="48" fill="white" transform="translate(0 0.687988)"/>
</clipPath>
</defs>
</svg>
