<svg width="29" height="32" viewBox="0 0 29 32" fill="none" xmlns="http://www.w3.org/2000/svg">
<path fill-rule="evenodd" clip-rule="evenodd" d="M2.29724 29.1726H6.76409V28.5799C6.76353 28.455 6.71369 28.3354 6.6254 28.247C6.53712 28.1587 6.41752 28.1087 6.29262 28.1081H2.76871C2.64381 28.1087 2.52422 28.1587 2.43593 28.247C2.34765 28.3354 2.2978 28.455 2.29724 28.5799V29.1726ZM1.29813 30.5383V31.2672H7.7632V30.5383C7.76236 30.3708 7.69546 30.2103 7.57703 30.0918C7.4586 29.9733 7.2982 29.9064 7.13067 29.9054H1.93067C1.76314 29.9064 1.60274 29.9733 1.48431 30.0918C1.36587 30.2103 1.29897 30.3708 1.29813 30.5383ZM6.35449 24.6354L6.34347 24.629C6.33244 24.6229 6.32142 24.6172 6.30969 24.6119L4.10738 23.5758C4.08897 23.5691 4.07113 23.5609 4.05404 23.5513C3.92431 23.4982 3.7795 23.495 3.64757 23.5424C3.51564 23.5898 3.40597 23.6844 3.33973 23.808C3.33265 23.8264 3.32409 23.8443 3.31413 23.8613L2.98951 24.5515C2.97818 24.576 2.97703 24.604 2.98631 24.6293C2.9906 24.6416 2.99727 24.6528 3.00593 24.6625C3.0146 24.6721 3.02509 24.6799 3.0368 24.6855L6.07573 26.1148C6.09083 26.1204 6.10556 26.1269 6.11982 26.1344C6.14076 26.1402 6.16296 26.1394 6.18347 26.1323C6.20323 26.1253 6.22028 26.1122 6.23218 26.0949C6.23847 26.0799 6.24572 26.0653 6.25387 26.0512L6.57849 25.3611C6.63792 25.2339 6.6479 25.0891 6.60649 24.955C6.56509 24.8209 6.47526 24.7069 6.35449 24.6354ZM6.47502 18.342L6.4864 18.3488C6.49742 18.3548 6.50844 18.3605 6.51982 18.3659L8.752 19.4155C8.88706 19.4787 9.04164 19.4859 9.18199 19.4355C9.32235 19.3852 9.43708 19.2813 9.50116 19.1467L9.82684 18.4548C9.83216 18.44 9.83845 18.4256 9.84569 18.4117C9.85147 18.3908 9.85073 18.3686 9.84355 18.3481C9.83633 18.3283 9.82317 18.3111 9.80587 18.299C9.79093 18.2929 9.77644 18.2858 9.76249 18.2777L6.72462 16.8487C6.71247 16.8429 6.69928 16.8397 6.68584 16.8391C6.6724 16.8386 6.65898 16.8408 6.6464 16.8455C6.63418 16.8497 6.62292 16.8563 6.61327 16.8649C6.60363 16.8735 6.59579 16.884 6.59022 16.8956L6.25102 17.6164C6.19184 17.7436 6.18199 17.8882 6.22337 18.0223C6.26476 18.1564 6.35443 18.2703 6.47502 18.342ZM7.64836 22.8007L14.9234 26.7488C14.9472 26.7616 14.9479 26.763 14.9525 26.7648C15.0284 26.7991 15.1104 26.8178 15.1936 26.82C15.2768 26.8221 15.3596 26.8076 15.4372 26.7772C15.606 26.7148 15.7464 26.5933 15.8325 26.4352C15.8393 26.4224 15.8453 26.4107 15.8507 26.3996L16.2137 25.6277C16.2172 25.6199 16.2226 25.6071 16.2297 25.5893C16.2968 25.4214 16.3008 25.2348 16.2407 25.0642C16.1895 24.9109 16.081 24.7835 15.9378 24.7086L15.9221 24.7015C15.9111 24.6962 15.9008 24.6919 15.8916 24.6884L8.21156 21.6011L7.64658 22.8014L7.64836 22.8007ZM8.5248 20.9376L16.166 24.0089C16.1913 24.0192 16.2148 24.0295 16.2372 24.0395L16.2592 24.0508C16.5771 24.2097 16.8198 24.4872 16.9348 24.8235C17.0528 25.1606 17.045 25.5291 16.9127 25.861C16.9042 25.8816 16.8932 25.9068 16.8789 25.9367L16.5159 26.7083C16.5035 26.7349 16.491 26.7602 16.4782 26.7836C16.3065 27.0979 16.0269 27.3394 15.691 27.4635C15.5229 27.5272 15.3438 27.5567 15.1642 27.5502C14.9845 27.5437 14.808 27.5012 14.645 27.4254C14.6094 27.408 14.5845 27.3966 14.576 27.392L7.33511 23.4667L6.9856 24.2101C7.17238 24.3985 7.29693 24.6396 7.34244 24.901C7.38796 25.1623 7.35227 25.4314 7.24018 25.6718L6.90133 26.3925C6.80743 26.5915 6.63859 26.7451 6.43172 26.82C6.22485 26.8948 5.99677 26.8847 5.79733 26.7918L2.72782 25.3468C2.52877 25.2529 2.37502 25.0839 2.3002 24.8769C2.22538 24.6699 2.23556 24.4417 2.32853 24.2421L2.66773 23.5214C2.74 23.3676 2.84193 23.2296 2.96769 23.1153C3.09345 23.001 3.24054 22.9127 3.40053 22.8555C3.57865 22.7916 3.76853 22.7674 3.95698 22.7844L5.84498 18.7701C5.65816 18.5817 5.53361 18.3405 5.48809 18.0791C5.44257 17.8177 5.47828 17.5486 5.5904 17.3081L5.92924 16.5877C6.023 16.3885 6.19196 16.2346 6.39905 16.1597C6.60614 16.0848 6.83447 16.0952 7.03396 16.1884L10.1045 17.6327C10.3027 17.7269 10.4556 17.8956 10.53 18.1021C10.6044 18.3085 10.5942 18.536 10.5017 18.7349L10.1628 19.4556C10.0495 19.6961 9.86514 19.896 9.63457 20.0283C9.40401 20.1607 9.13839 20.219 8.8736 20.1956L8.52338 20.938L8.5248 20.9376ZM7.69173 20.9941L6.85227 22.7751L6.84729 22.7844C6.8389 22.7998 6.83165 22.8159 6.8256 22.8324L6.35733 23.8279L4.65067 23.0247L6.47289 19.1492L8.17956 19.9524L7.7056 20.9604C7.6995 20.9718 7.69415 20.9837 7.6896 20.9959L7.69173 20.9941ZM1.14133 4.04907H2.96604C3.0922 4.0486 3.21306 3.9983 3.3023 3.90913C3.39154 3.81996 3.44193 3.69913 3.44249 3.57298V1.26187L1.14133 4.04907ZM12.8281 21.8048C12.779 21.8063 12.7301 21.798 12.6843 21.7803C12.6385 21.7625 12.5968 21.7358 12.5615 21.7016C12.5263 21.6674 12.4982 21.6265 12.4791 21.5813C12.46 21.5361 12.4501 21.4875 12.4501 21.4384C12.4501 21.3893 12.46 21.3407 12.4791 21.2955C12.4982 21.2503 12.5263 21.2094 12.5615 21.1752C12.5968 21.141 12.6385 21.1143 12.6843 21.0965C12.7301 21.0788 12.779 21.0705 12.8281 21.072H19.6231C19.6722 21.0705 19.7211 21.0788 19.7669 21.0965C19.8126 21.1143 19.8544 21.141 19.8897 21.1752C19.9249 21.2094 19.953 21.2503 19.9721 21.2955C19.9912 21.3407 20.0011 21.3893 20.0011 21.4384C20.0011 21.4875 19.9912 21.5361 19.9721 21.5813C19.953 21.6265 19.9249 21.6674 19.8897 21.7016C19.8544 21.7358 19.8126 21.7625 19.7669 21.7803C19.7211 21.798 19.6722 21.8063 19.6231 21.8048H12.8281ZM18.0772 24.9721C17.982 24.9691 17.8916 24.9292 17.8254 24.8608C17.7591 24.7924 17.722 24.7009 17.722 24.6057C17.722 24.5104 17.7591 24.4189 17.8254 24.3505C17.8916 24.2822 17.982 24.2423 18.0772 24.2393H19.6231C19.6722 24.2378 19.7211 24.2461 19.7669 24.2638C19.8126 24.2816 19.8544 24.3083 19.8897 24.3425C19.9249 24.3767 19.953 24.4176 19.9721 24.4628C19.9912 24.508 20.0011 24.5566 20.0011 24.6057C20.0011 24.6548 19.9912 24.7034 19.9721 24.7486C19.953 24.7938 19.9249 24.8347 19.8897 24.8689C19.8544 24.9031 19.8126 24.9298 19.7669 24.9475C19.7211 24.9653 19.6722 24.9736 19.6231 24.9721H18.0772ZM3.42222 15.4702C3.37315 15.4718 3.32426 15.4634 3.27847 15.4457C3.23268 15.428 3.19092 15.4012 3.15566 15.367C3.12041 15.3329 3.09238 15.292 3.07324 15.2467C3.05409 15.2015 3.04423 15.1529 3.04423 15.1038C3.04423 15.0547 3.05409 15.0061 3.07324 14.9609C3.09238 14.9157 3.12041 14.8748 3.15566 14.8406C3.19092 14.8064 3.23268 14.7797 3.27847 14.762C3.32426 14.7442 3.37315 14.7359 3.42222 14.7374H17.8112C17.9064 14.7404 17.9967 14.7803 18.063 14.8487C18.1293 14.9171 18.1664 15.0086 18.1664 15.1038C18.1664 15.1991 18.1293 15.2906 18.063 15.359C17.9967 15.4274 17.9064 15.4673 17.8112 15.4702H3.42222ZM12.0789 18.6375H19.6231C19.6722 18.639 19.7211 18.6307 19.7669 18.613C19.8126 18.5952 19.8544 18.5685 19.8897 18.5343C19.9249 18.5002 19.953 18.4592 19.9721 18.414C19.9912 18.3688 20.0011 18.3202 20.0011 18.2711C20.0011 18.222 19.9912 18.1734 19.9721 18.1282C19.953 18.083 19.9249 18.0421 19.8897 18.0079C19.8544 17.9737 19.8126 17.947 19.7669 17.9293C19.7211 17.9115 19.6722 17.9032 19.6231 17.9047H12.0789C11.9837 17.9077 11.8934 17.9476 11.8271 18.016C11.7608 18.0844 11.7238 18.1759 11.7238 18.2711C11.7238 18.3664 11.7608 18.4579 11.8271 18.5263C11.8934 18.5946 11.9837 18.6345 12.0789 18.6375ZM8.44515 9.13564C8.39608 9.13717 8.34719 9.12883 8.3014 9.1111C8.25561 9.09338 8.21385 9.06663 8.1786 9.03246C8.14334 8.99828 8.11531 8.95738 8.09617 8.91216C8.07703 8.86695 8.06716 8.81834 8.06716 8.76924C8.06716 8.72014 8.07703 8.67154 8.09617 8.62633C8.11531 8.58111 8.14334 8.5402 8.1786 8.50603C8.21385 8.47186 8.25561 8.44511 8.3014 8.42739C8.34719 8.40966 8.39608 8.40132 8.44515 8.40284H17.3497C17.4449 8.40581 17.5352 8.44571 17.6015 8.5141C17.6678 8.58249 17.7049 8.674 17.7049 8.76924C17.7049 8.86449 17.6678 8.956 17.6015 9.02439C17.5352 9.09278 17.4449 9.13268 17.3497 9.13564H8.44515ZM7.91182 12.3029C7.86274 12.3045 7.81386 12.2961 7.76807 12.2784C7.72228 12.2607 7.68052 12.2339 7.64526 12.1997C7.61001 12.1656 7.58198 12.1247 7.56284 12.0794C7.54369 12.0342 7.53383 11.9856 7.53383 11.9365C7.53383 11.8874 7.54369 11.8388 7.56284 11.7936C7.58198 11.7484 7.61001 11.7075 7.64526 11.6733C7.68052 11.6391 7.72228 11.6124 7.76807 11.5947C7.81386 11.5769 7.86274 11.5686 7.91182 11.5701H17.3497C17.4449 11.5731 17.5352 11.613 17.6015 11.6814C17.6678 11.7498 17.7049 11.8413 17.7049 11.9365C17.7049 12.0318 17.6678 12.1233 17.6015 12.1917C17.5352 12.2601 17.4449 12.3 17.3497 12.3029H7.91182ZM3.42187 12.3029C3.37279 12.3045 3.32391 12.2961 3.27812 12.2784C3.23233 12.2607 3.19057 12.2339 3.15531 12.1997C3.12005 12.1656 3.09202 12.1247 3.07288 12.0794C3.05374 12.0342 3.04387 11.9856 3.04387 11.9365C3.04387 11.8874 3.05374 11.8388 3.07288 11.7936C3.09202 11.7484 3.12005 11.7075 3.15531 11.6733C3.19057 11.6391 3.23233 11.6124 3.27812 11.5947C3.32391 11.5769 3.37279 11.5686 3.42187 11.5701H6.34311C6.39219 11.5686 6.44107 11.5769 6.48686 11.5947C6.53265 11.6124 6.57441 11.6391 6.60967 11.6733C6.64492 11.7075 6.67296 11.7484 6.6921 11.7936C6.71124 11.8388 6.7211 11.8874 6.7211 11.9365C6.7211 11.9856 6.71124 12.0342 6.6921 12.0794C6.67296 12.1247 6.64492 12.1656 6.60967 12.1997C6.57441 12.2339 6.53265 12.2607 6.48686 12.2784C6.44107 12.2961 6.39219 12.3045 6.34311 12.3029H3.42187ZM20.6891 16.1422C19.8679 15.0755 19.4209 13.7679 19.4172 12.4217V9.48907L22.746 8.52907C22.7703 8.52499 22.7941 8.51831 22.8171 8.50916L23.8411 8.21404L25.205 8.60693C25.228 8.61599 25.2518 8.62278 25.2761 8.6272L28.2649 9.48836V12.4199C28.2606 13.7672 27.8123 15.0754 26.9895 16.1422C26.499 16.7819 25.885 17.3166 25.184 17.7145C25.1678 17.7223 25.1521 17.7311 25.1371 17.7408C24.7269 17.9689 24.2913 18.1479 23.8393 18.2741C23.504 18.1806 23.1774 18.0582 22.8633 17.9083C22.8472 17.8989 22.8305 17.8908 22.8132 17.8841C21.9801 17.4752 21.2531 16.8792 20.6891 16.1422ZM25.7056 7.9936L28.7278 8.86436C28.804 8.8862 28.8711 8.93226 28.9188 8.99557C28.9665 9.05888 28.9923 9.13601 28.9924 9.21529V12.4206C28.9877 13.9285 28.4865 15.3929 27.5662 16.5874C27.0547 17.2544 26.4231 17.8199 25.7038 18.2549V30.0629C25.703 30.3833 25.5753 30.6903 25.3488 30.9168C25.1223 31.1433 24.8153 31.271 24.4949 31.2718H8.49493V31.6331C8.49512 31.7301 8.45677 31.8233 8.3883 31.8921C8.31983 31.9609 8.22684 31.9997 8.12978 32H0.931555C0.883433 32 0.835781 31.9905 0.791326 31.9721C0.746871 31.9537 0.706483 31.9267 0.672472 31.8926C0.63846 31.8586 0.611492 31.8182 0.593108 31.7737C0.574725 31.7292 0.565287 31.6815 0.565333 31.6334V30.5383C0.566158 30.2402 0.664143 29.9505 0.844438 29.7131C1.02473 29.4757 1.27751 29.3036 1.56444 29.2228V28.9611H1.20889C0.888474 28.9604 0.58137 28.8328 0.354802 28.6063C0.128234 28.3797 0.000657649 28.0726 0 27.7522V4.40604C0 4.3968 0 4.38756 0 4.37867C0.00831857 4.29599 0.0445623 4.21861 0.102756 4.15929L3.42578 0.1344C3.45989 0.0925202 3.50288 0.0587394 3.55164 0.0354969C3.6004 0.0122543 3.65372 0.00013015 3.70773 0H21.8368C22.1572 0.000844656 22.4642 0.128481 22.6907 0.355008C22.9172 0.581536 23.0448 0.888531 23.0457 1.20889V2.31111H24.496C24.8164 2.31196 25.1234 2.43959 25.3499 2.66612C25.5764 2.89265 25.704 3.19964 25.7049 3.52L25.7056 7.9936ZM23.046 7.68427L23.739 7.48444C23.8061 7.46469 23.8775 7.46469 23.9445 7.48444L24.9728 7.78098V3.52C24.972 3.3939 24.9215 3.2732 24.8323 3.18403C24.7432 3.09486 24.6225 3.04439 24.4964 3.04356H23.046V7.68427ZM22.3129 18.4469V27.7518C22.3122 27.8779 22.2619 27.9987 22.1727 28.0879C22.0836 28.1771 21.9629 28.2275 21.8368 28.2283H7.44427C7.36842 27.9818 7.21575 27.766 7.00855 27.6125C6.80136 27.459 6.5505 27.3757 6.29262 27.3749H2.76871C2.51084 27.3757 2.25998 27.459 2.05278 27.6125C1.84558 27.766 1.69291 27.9818 1.61707 28.2283H1.20853C1.08243 28.2274 0.961732 28.177 0.872563 28.0878C0.783393 27.9986 0.732927 27.8779 0.732089 27.7518V4.78293H2.96604C3.28646 4.78228 3.59356 4.6547 3.82013 4.42813C4.0467 4.20156 4.17428 3.89446 4.17493 3.57404V0.7328H21.8368C21.9629 0.733361 22.0837 0.783701 22.1728 0.872863C22.262 0.962026 22.3123 1.0828 22.3129 1.20889V7.89547L18.9845 8.85547C18.9003 8.87101 18.8241 8.91559 18.7693 8.98145C18.7144 9.04732 18.6844 9.13031 18.6844 9.216V12.4213C18.6891 13.9292 19.1903 15.3936 20.1106 16.5881C20.702 17.3595 21.4533 17.9931 22.3129 18.4469ZM23.7412 19.0016C23.8036 19.0192 23.8696 19.0199 23.9324 19.0037C24.2891 18.9102 24.6375 18.7879 24.9742 18.6379V30.0629C24.9734 30.189 24.9229 30.3097 24.8337 30.3989C24.7446 30.4881 24.6239 30.5385 24.4978 30.5394H8.49778C8.49695 30.2413 8.39897 29.9516 8.21867 29.7142C8.03838 29.4768 7.78561 29.3046 7.49867 29.2238V28.9621H21.8368C22.1572 28.9613 22.4642 28.8337 22.6907 28.6071C22.9172 28.3806 23.0448 28.0736 23.0457 27.7532V18.7783C23.2734 18.8651 23.5055 18.9396 23.7412 19.0016ZM21.7536 11.157C21.2707 11.6397 20.9701 12.275 20.9031 12.9545C20.8361 13.634 21.0068 14.3157 21.3861 14.8835C21.7654 15.4512 22.3299 15.8699 22.9833 16.0681C23.6367 16.2663 24.3386 16.2318 24.9694 15.9705C25.6002 15.7092 26.1209 15.2372 26.4428 14.635C26.7646 14.0328 26.8676 13.3376 26.7343 12.668C26.601 11.9983 26.2396 11.3956 25.7117 10.9625C25.1838 10.5294 24.5221 10.2928 23.8393 10.293C23.4519 10.2925 23.0682 10.3687 22.7103 10.5169C22.3523 10.6652 22.0272 10.8827 21.7536 11.157ZM22.272 11.675C21.9091 12.0376 21.6832 12.5149 21.6328 13.0254C21.5824 13.5359 21.7105 14.0481 21.9954 14.4748C22.2803 14.9014 22.7043 15.216 23.1952 15.365C23.6861 15.514 24.2135 15.4882 24.6875 15.292C25.1615 15.0957 25.5527 14.7412 25.7946 14.2888C26.0365 13.8364 26.114 13.3141 26.014 12.811C25.9139 12.3078 25.6425 11.8549 25.246 11.5295C24.8494 11.204 24.3523 11.0261 23.8393 11.0261C23.5482 11.0257 23.2599 11.0828 22.9909 11.1942C22.7219 11.3055 22.4776 11.4689 22.272 11.675ZM22.4871 13.5772L23.4062 14.3001C23.444 14.3298 23.4872 14.3518 23.5335 14.3647C23.5798 14.3777 23.6281 14.3815 23.6759 14.3758C23.7236 14.37 23.7697 14.355 23.8116 14.3314C23.8535 14.3079 23.8903 14.2764 23.92 14.2386L23.9221 14.2357L25.2416 12.7118C25.3019 12.6382 25.3311 12.5439 25.3229 12.449C25.3148 12.3542 25.2699 12.2662 25.198 12.2039C25.126 12.1416 25.0325 12.1099 24.9375 12.1154C24.8425 12.121 24.7533 12.1634 24.6891 12.2336L23.5847 13.5111L22.9394 13.0037C22.9016 12.974 22.8583 12.9521 22.8121 12.9391C22.7658 12.9261 22.7175 12.9224 22.6697 12.9281C22.622 12.9338 22.5759 12.9488 22.534 12.9724C22.4921 12.9959 22.4553 13.0275 22.4256 13.0652C22.3959 13.103 22.3739 13.1463 22.361 13.1925C22.348 13.2388 22.3442 13.2872 22.3499 13.3349C22.3557 13.3826 22.3707 13.4287 22.3942 13.4706C22.4178 13.5125 22.4493 13.5493 22.4871 13.579V13.5772ZM3.42222 18.6375H4.35556C4.45076 18.6345 4.54106 18.5946 4.60735 18.5263C4.67365 18.4579 4.71072 18.3664 4.71072 18.2711C4.71072 18.1759 4.67365 18.0844 4.60735 18.016C4.54106 17.9476 4.45076 17.9077 4.35556 17.9047H3.42222C3.37315 17.9032 3.32426 17.9115 3.27847 17.9293C3.23268 17.947 3.19092 17.9737 3.15566 18.0079C3.12041 18.0421 3.09238 18.083 3.07324 18.1282C3.05409 18.1734 3.04423 18.222 3.04423 18.2711C3.04423 18.3202 3.05409 18.3688 3.07324 18.414C3.09238 18.4592 3.12041 18.5002 3.15566 18.5343C3.19092 18.5685 3.23268 18.5952 3.27847 18.613C3.32426 18.6307 3.37315 18.639 3.42222 18.6375Z" fill="#00C3B7"/>
</svg>
