<svg width="48" height="49" viewBox="0 0 48 49" fill="none" xmlns="http://www.w3.org/2000/svg">
<path fill-rule="evenodd" clip-rule="evenodd" d="M41.1128 34.8254H13.564V40.5646C13.564 41.6153 14.4262 42.4776 15.4771 42.4776H37.4779L44.1738 46.3039V42.4776H46.0868C47.1383 42.4776 47.9999 41.6167 47.9999 40.5646V13.781C47.9999 12.7288 47.1389 11.868 46.0868 11.868H43.0259V32.9123C43.026 33.9634 42.1639 34.8254 41.1128 34.8254Z" fill="#E2C4FF"/>
<path fill-rule="evenodd" clip-rule="evenodd" d="M13.744 14.3664H20.3077C20.3077 10.7414 17.369 7.80267 13.744 7.80267V14.3664Z" fill="#E2C4FF"/>
<path d="M41.1128 3.2782H2.85056C1.27875 3.2782 0 4.55695 0 6.12876V32.9122C0 34.4841 1.27875 35.7629 2.85056 35.7629H3.82622V38.6515C3.82622 38.9856 4.00406 39.2946 4.29309 39.4623C4.58212 39.63 4.93866 39.6312 5.22872 39.4654L11.7084 35.7628H41.1128C42.6847 35.7628 43.9633 34.4839 43.9633 32.9121V6.12876C43.9634 4.55695 42.6847 3.2782 41.1128 3.2782ZM42.0884 32.9122C42.0884 33.4411 41.6416 33.8879 41.1128 33.8879H11.4596C11.2965 33.8879 11.1362 33.9304 10.9945 34.0113L5.70122 37.0361V34.8254C5.70122 34.3077 5.28141 33.8879 4.76372 33.8879H2.85056C2.31262 33.8879 1.875 33.4501 1.875 32.9122V6.12876C1.875 5.59082 2.31262 5.1532 2.85056 5.1532H41.1128C41.6508 5.1532 42.0884 5.59082 42.0884 6.12876V32.9122Z" fill="#243D31"/>
<path d="M30.8897 24.3223C29.3179 24.3223 28.0391 25.6012 28.0391 27.1729V30.999C28.0852 32.2416 29.8684 32.2406 29.9141 30.999V30.0234H31.8653V30.999C31.9115 32.2416 33.6946 32.2406 33.7403 30.999V27.1729C33.7403 25.6012 32.4616 24.3223 30.8897 24.3223ZM31.8653 28.1484H29.9141V27.173C29.9632 25.8802 31.8167 25.8812 31.8653 27.173V28.1484Z" fill="#243D31"/>
<path d="M39.6722 24.4502C39.2249 24.1892 38.6508 24.3404 38.39 24.7876L37.5258 26.269L36.6616 24.7876C36.4009 24.3406 35.8271 24.1894 35.3794 24.4502C34.9321 24.711 34.7811 25.2851 35.042 25.7324L36.4403 28.1296L35.042 30.5268C34.7811 30.974 34.9321 31.5482 35.3794 31.809C35.8189 32.0676 36.3992 31.9229 36.6616 31.4716L37.5258 29.9901L38.39 31.4716C38.6524 31.9229 39.2326 32.0674 39.6722 31.809C40.1195 31.5482 40.2705 30.974 40.0096 30.5268L38.6112 28.1296L40.0096 25.7324C40.2705 25.2851 40.1194 24.711 39.6722 24.4502Z" fill="#243D31"/>
<path d="M26.1787 24.3223H22.8307C21.5882 24.3685 21.5891 26.1516 22.8307 26.1973H23.5671V30.9991C23.6133 32.2417 25.3964 32.2407 25.4421 30.9991V26.1973H26.1786C27.4213 26.1512 27.4204 24.3681 26.1787 24.3223Z" fill="#243D31"/>
<path d="M20.0685 27.192H17.1192L14.6189 22.8613C16.1771 21.6378 17.1799 19.7375 17.1799 17.6073C17.1799 17.0896 16.7601 16.6698 16.2424 16.6698H11.4405V11.868C11.4405 11.3504 11.0207 10.9305 10.503 10.9305C6.82133 10.9305 3.82621 13.9257 3.82621 17.6073C3.75299 22.2566 8.72849 25.6023 12.9966 23.8012L15.7661 28.5982C15.9335 28.8883 16.2431 29.0669 16.578 29.0669H20.0685C21.3111 29.0208 21.3101 27.2377 20.0685 27.192ZM5.70121 17.6073C5.70121 15.2804 7.36508 13.3348 9.56549 12.8975V17.219L6.51111 20.2735C5.9998 19.5103 5.70121 18.593 5.70121 17.6073ZM7.83702 21.5993L10.8914 18.5448H15.213C14.6149 21.8273 10.6116 23.5226 7.83702 21.5993Z" fill="#243D31"/>
<path d="M26.1788 12.8055H38.2433C39.4858 12.7594 39.4849 10.9763 38.2433 10.9305H26.1788C24.9362 10.9767 24.9371 12.7598 26.1788 12.8055Z" fill="#243D31"/>
<path d="M26.1788 17.11H38.2433C39.4858 17.0639 39.4849 15.2808 38.2433 15.235H26.1788C24.9362 15.2812 24.9371 17.0643 26.1788 17.11Z" fill="#243D31"/>
<path d="M26.1788 21.4145H32.211C33.4536 21.3684 33.4526 19.5852 32.211 19.5395H26.1788C24.9362 19.5856 24.9371 21.3687 26.1788 21.4145Z" fill="#243D31"/>
</svg>
