<svg width="31" height="32" viewBox="0 0 31 32" fill="none" xmlns="http://www.w3.org/2000/svg">
<path fill-rule="evenodd" clip-rule="evenodd" d="M17.4923 26.0012C18.6742 21.0169 18.8832 20.9071 21.4202 19.5915C22.2024 19.1858 23.2236 18.6564 24.5904 17.7948L24.6081 17.7824L24.6181 17.7781C24.824 17.6483 25.0534 17.5604 25.2933 17.5194C25.5333 17.4785 25.7789 17.4853 26.0162 17.5395C26.1542 17.5707 26.2883 17.6175 26.4158 17.6789L26.9243 14.0117C26.9926 13.5039 27.1974 13.0241 27.5167 12.6234C27.836 12.2227 28.2579 11.9161 28.7376 11.7361C28.9959 11.6394 29.2701 11.5926 29.5458 11.5981C29.8179 11.6014 30.0841 11.6781 30.3163 11.82C30.7622 12.1044 31.0246 12.626 30.9158 13.4122C30.8529 13.8655 30.7985 14.5315 30.7363 15.2967C30.5005 18.1842 30.1542 22.4271 28.5702 23.4035L23.9457 26.2522C23.9163 26.2701 23.8934 26.297 23.8807 26.329L23.8739 26.3454C23.8675 26.3736 23.8684 26.403 23.8764 26.4307L23.9578 26.7301L24.0926 26.7454C24.3579 26.776 24.6003 26.9103 24.7668 27.119C24.9334 27.3277 25.0106 27.5939 24.9815 27.8594L24.6156 31.1035C24.5852 31.3689 24.451 31.6114 24.2422 31.778C24.0334 31.9446 23.7671 32.0217 23.5016 31.9924L16.6215 31.2184C16.3561 31.1878 16.1137 31.0535 15.9471 30.8447C15.7805 30.6358 15.7034 30.3696 15.7326 30.1041L16.0985 26.8603C16.1288 26.5948 16.2631 26.3522 16.472 26.1856C16.6809 26.019 16.9472 25.942 17.2128 25.9713L17.4937 26.003L17.4923 26.0012ZM17.7863 26.8901C17.7774 26.8901 17.7682 26.8901 17.7593 26.8873L17.1193 26.8162C17.0984 26.8138 17.0773 26.8155 17.0571 26.8213C17.0369 26.8271 17.018 26.8368 17.0016 26.8499C16.9855 26.8627 16.972 26.8784 16.962 26.8964C16.952 26.9143 16.9456 26.9341 16.9433 26.9545L16.5774 30.1983C16.5752 30.2193 16.5773 30.2405 16.5834 30.2607C16.5895 30.2809 16.5995 30.2997 16.613 30.316C16.6256 30.3321 16.6413 30.3456 16.6592 30.3556C16.6771 30.3656 16.6968 30.3719 16.7171 30.3743L23.5713 31.1473C23.5845 31.1473 23.5973 31.1494 23.6097 31.1512C23.6475 31.1521 23.6843 31.1395 23.7135 31.1156C23.7426 31.0928 23.7627 31.0605 23.7701 31.0242C23.771 31.0108 23.7727 30.9974 23.7751 30.9841L24.1377 27.7673C24.1399 27.7463 24.1378 27.7251 24.1317 27.7049C24.1256 27.6847 24.1156 27.6659 24.1022 27.6496C24.0895 27.6336 24.0737 27.6202 24.0558 27.6103C24.038 27.6003 24.0183 27.594 23.998 27.5916L23.5887 27.5454C23.5786 27.5448 23.5685 27.5436 23.5585 27.5419L17.7863 26.8901ZM22.7965 23.3868C22.7499 23.4203 22.697 23.444 22.6409 23.4565C22.5849 23.4689 22.5268 23.4699 22.4704 23.4593C22.414 23.4487 22.3603 23.4268 22.3125 23.3948C22.2648 23.3629 22.2241 23.3216 22.1928 23.2734C22.1615 23.2253 22.1403 23.1713 22.1305 23.1147C22.1206 23.0581 22.1224 23.0001 22.1356 22.9442C22.1488 22.8884 22.1733 22.8357 22.2074 22.7896C22.2416 22.7434 22.2847 22.7046 22.3343 22.6756L26.1388 20.2016C26.3652 20.0546 26.5251 19.8249 26.5844 19.5616C26.6428 19.3076 26.599 19.0408 26.4624 18.8189C26.4553 18.8082 26.4489 18.7972 26.4428 18.7861C26.4315 18.7694 26.4201 18.7534 26.4073 18.7374C26.4016 18.7309 26.3962 18.724 26.3913 18.7168C26.2372 18.5267 26.0194 18.3988 25.7783 18.357C25.5372 18.3152 25.2891 18.3621 25.08 18.4892C25.0677 18.4976 25.055 18.5052 25.0419 18.512C23.6414 19.3945 22.6038 19.9325 21.8088 20.3449C19.6132 21.4827 19.4144 21.5869 18.3431 26.0951L23.0483 26.6256C23.0018 26.4382 23.0105 26.2414 23.0732 26.0588C23.0773 26.0436 23.0823 26.0287 23.0881 26.014C23.1693 25.8122 23.3138 25.6421 23.4998 25.5294L28.1254 22.6796C29.3421 21.9304 29.6674 17.9428 29.889 15.2291C29.9515 14.4621 30.0059 13.7937 30.0749 13.2955C30.1311 12.8923 30.0347 12.6481 29.8616 12.5382C29.7592 12.478 29.6426 12.4462 29.5238 12.4461C29.3545 12.4442 29.1864 12.4741 29.0281 12.5343C28.6934 12.6607 28.3993 12.8755 28.1771 13.1559C27.9548 13.4363 27.8128 13.7718 27.7662 14.1265L27.1789 18.3605C27.3073 18.5649 27.3942 18.7925 27.4346 19.0304C27.475 19.2684 27.4681 19.512 27.4142 19.7472C27.3058 20.2264 27.0145 20.6442 26.6025 20.9117L22.798 23.3857L22.7965 23.3868ZM22.9341 29.0971L22.8986 29.0932C22.8405 29.0817 22.7806 29.0824 22.7228 29.0953C22.665 29.1082 22.6105 29.133 22.5628 29.1682C22.5151 29.2033 22.4752 29.248 22.4457 29.2993C22.4162 29.3507 22.3977 29.4077 22.3915 29.4666C22.3852 29.5255 22.3913 29.5851 22.4093 29.6415C22.4273 29.6979 22.4569 29.75 22.4961 29.7944C22.5354 29.8388 22.5834 29.8745 22.6372 29.8993C22.691 29.9241 22.7494 29.9374 22.8086 29.9384L22.8442 29.9423C22.9507 29.9441 23.0541 29.9059 23.1339 29.8353C23.2138 29.7647 23.2643 29.6668 23.2756 29.5608C23.2869 29.4548 23.2581 29.3485 23.1949 29.2627C23.1317 29.1769 23.0387 29.1178 22.9341 29.0971ZM13.1807 26.8869C13.1715 26.8869 13.1622 26.8894 13.1526 26.8901L7.37971 27.5408C7.36971 27.5425 7.35962 27.5437 7.34949 27.5444L6.94024 27.5906C6.91992 27.5929 6.90026 27.5993 6.88238 27.6092C6.8645 27.6191 6.84876 27.6325 6.83606 27.6485C6.82266 27.6648 6.81262 27.6836 6.80652 27.7038C6.80042 27.724 6.79837 27.7452 6.8005 27.7662L7.16637 31.0104C7.16867 31.0308 7.17501 31.0505 7.18502 31.0684C7.19503 31.0862 7.20852 31.102 7.22469 31.1146C7.24097 31.128 7.25976 31.138 7.27996 31.1441C7.30017 31.1503 7.32138 31.1523 7.34238 31.1501L14.2254 30.3729C14.2457 30.3705 14.2654 30.3642 14.2833 30.3542C14.3012 30.3441 14.3169 30.3307 14.3295 30.3145C14.343 30.2983 14.353 30.2795 14.3591 30.2593C14.3652 30.2391 14.3673 30.2179 14.3651 30.1969L13.9974 26.9516C13.9951 26.9312 13.9887 26.9115 13.9787 26.8935C13.9687 26.8756 13.9553 26.8598 13.9391 26.8471C13.9227 26.834 13.9039 26.8242 13.8837 26.8185C13.8635 26.8127 13.8423 26.8109 13.8214 26.8133L13.1814 26.8844L13.1807 26.8869ZM4.52383 17.6786C4.65135 17.6171 4.78542 17.5704 4.92348 17.5392C5.16078 17.485 5.40643 17.4783 5.64634 17.5193C5.88626 17.5603 6.11572 17.6482 6.32156 17.7781L6.3308 17.7842L6.34858 17.7966C7.71536 18.6581 8.73618 19.1876 9.51878 19.5933C12.0557 20.9089 12.2648 21.0184 13.4467 26.0026L13.7276 25.971C13.9931 25.9416 14.2595 26.0187 14.4684 26.1853C14.6772 26.3519 14.8115 26.5945 14.8419 26.8599L15.2078 30.1037C15.237 30.3692 15.1599 30.6355 14.9933 30.8443C14.8267 31.0531 14.5842 31.1875 14.3189 31.218L7.43696 31.9939C7.17141 32.0233 6.90503 31.9462 6.69617 31.7796C6.48731 31.613 6.35299 31.3704 6.32262 31.105L5.95675 27.8608C5.92765 27.5954 6.00482 27.3292 6.17138 27.1204C6.33794 26.9117 6.58036 26.7774 6.84566 26.7468L6.98041 26.7315L7.06184 26.4322C7.07142 26.3987 7.06992 26.363 7.05757 26.3305C7.04482 26.2985 7.02197 26.2715 6.9925 26.2537L2.36841 23.4028C0.785092 22.4271 0.438063 18.1842 0.202325 15.2967C0.140102 14.5322 0.0857009 13.8662 0.0245441 13.4122C-0.084258 12.626 0.178147 12.103 0.624022 11.82C0.856236 11.6781 1.12241 11.6014 1.39453 11.5981C1.67022 11.5926 1.94446 11.6394 2.20272 11.7361C2.6824 11.9161 3.10433 12.2228 3.42363 12.6235C3.74294 13.0241 3.94768 13.5039 4.01609 14.0117L4.52383 17.6786ZM8.60747 22.6746C8.65703 22.7036 8.7002 22.7423 8.73435 22.7885C8.76851 22.8347 8.79294 22.8873 8.80617 22.9432C8.8194 22.9991 8.82115 23.057 8.81133 23.1136C8.8015 23.1702 8.7803 23.2242 8.749 23.2724C8.7177 23.3205 8.67696 23.3618 8.62924 23.3938C8.58152 23.4257 8.52782 23.4476 8.47138 23.4582C8.41493 23.4688 8.35693 23.4679 8.30087 23.4554C8.24481 23.4429 8.19187 23.4192 8.14524 23.3857L4.34072 20.9117C3.9287 20.6442 3.63743 20.2264 3.52897 19.7472C3.47512 19.512 3.4682 19.2684 3.50859 19.0304C3.54898 18.7925 3.63589 18.5649 3.76435 18.3605L3.17696 14.1293C3.13036 13.7746 2.98837 13.4392 2.76615 13.1588C2.54392 12.8784 2.24978 12.6635 1.91507 12.5371C1.75682 12.477 1.5887 12.4471 1.41942 12.449C1.30063 12.4491 1.18403 12.4809 1.08163 12.541C0.908473 12.6509 0.812115 12.8966 0.868294 13.2984C0.937273 13.7962 0.991674 14.465 1.05425 15.2319C1.27577 17.9456 1.60111 21.9332 2.81784 22.6824L7.4398 25.5294C7.62273 25.6397 7.76531 25.8059 7.8465 26.0035C7.92769 26.2011 7.94317 26.4196 7.89065 26.6267L12.5958 26.0983C11.5231 21.589 11.3257 21.4859 9.13014 20.3471C8.33511 19.9346 7.29758 19.3966 5.89701 18.5141C5.88391 18.5073 5.8712 18.4997 5.85897 18.4914C5.64987 18.3638 5.40153 18.3164 5.16014 18.3581C4.91874 18.3998 4.70071 18.5278 4.54659 18.7182C4.54125 18.7253 4.53592 18.7325 4.52988 18.7392C4.51814 18.7549 4.50677 18.7712 4.49432 18.7876C4.48828 18.7986 4.48188 18.8096 4.47476 18.8203C4.33815 19.0422 4.29434 19.309 4.35281 19.563C4.41211 19.8264 4.57215 20.0562 4.79868 20.2031L8.6032 22.6771L8.60747 22.6746ZM8.09546 29.9419C7.9889 29.9437 7.88554 29.9055 7.8057 29.8349C7.72587 29.7643 7.67534 29.6664 7.66406 29.5605C7.65278 29.4545 7.68157 29.3481 7.74475 29.2623C7.80794 29.1765 7.90096 29.1174 8.0055 29.0967L8.04106 29.0928C8.09917 29.0813 8.15904 29.0821 8.21686 29.095C8.27468 29.1079 8.32918 29.1327 8.37688 29.1678C8.42459 29.2029 8.46445 29.2476 8.49394 29.299C8.52343 29.3504 8.5419 29.4073 8.54817 29.4662C8.55444 29.5251 8.54838 29.5847 8.53036 29.6411C8.51235 29.6976 8.48278 29.7496 8.44353 29.794C8.40429 29.8384 8.35624 29.8741 8.30243 29.8989C8.24863 29.9237 8.19025 29.937 8.13101 29.938L8.09546 29.9419ZM15.4698 4.64116C14.1106 4.64123 12.7935 5.11259 11.7429 5.97492C10.6922 6.83724 9.97312 8.03718 9.70803 9.37028C9.44293 10.7034 9.64827 12.0871 10.2891 13.2858C10.9298 14.4845 11.9664 15.4239 13.2222 15.944C14.4779 16.4641 15.8752 16.5326 17.1758 16.138C18.4765 15.7434 19.6001 14.91 20.3552 13.7798C21.1102 12.6497 21.4501 11.2927 21.3168 9.94002C21.1835 8.58737 20.5854 7.32278 19.6242 6.36172C19.0792 5.81545 18.4316 5.38224 17.7187 5.08698C17.0057 4.79171 16.2415 4.6402 15.4698 4.64116ZM12.7188 13.6867C12.4299 13.7789 12.1483 13.8927 11.8765 14.0273L11.9174 14.0689C12.3492 14.5005 12.8559 14.8499 13.4129 15.1C13.2955 14.9278 13.1886 14.7486 13.0929 14.5635C12.9471 14.2802 12.822 13.9869 12.7185 13.6856L12.7188 13.6867ZM17.3963 13.4705C16.1244 13.2178 14.8152 13.2178 13.5434 13.4705C13.6294 13.7119 13.7314 13.9473 13.8485 14.1752C14.2858 15.0186 14.8611 15.5402 15.4698 15.5402C16.0785 15.5402 16.6538 15.0186 17.0912 14.1752C17.2083 13.9473 17.3102 13.7119 17.3963 13.4705ZM19.0631 14.0273C18.7913 13.8927 18.5098 13.7789 18.2208 13.6867C18.1173 13.9879 17.9922 14.2813 17.8464 14.5646C17.7507 14.7497 17.6438 14.9289 17.5264 15.1011C18.0833 14.851 18.5901 14.5016 19.0219 14.07L19.0628 14.0284L19.0631 14.0273ZM18.4566 12.8714C18.8563 12.9975 19.2435 13.1605 19.6132 13.3581C20.1043 12.6442 20.4014 11.8148 20.4751 10.9513L18.7143 10.9478C18.6905 11.5958 18.6041 12.2399 18.4566 12.8714ZM13.3034 12.6534C14.7319 12.3562 16.2063 12.3562 17.6348 12.6534C17.7631 12.0928 17.8389 11.5214 17.8613 10.9467L13.0765 10.9375C13.0985 11.5154 13.1745 12.0896 13.3034 12.6534ZM11.325 13.3585C11.6951 13.1605 12.0828 12.9974 12.4831 12.8714C12.3349 12.2359 12.2487 11.5875 12.2257 10.9353L10.4639 10.9318C10.5343 11.8022 10.8317 12.6389 11.3265 13.3585H11.325ZM18.2208 7.34628C18.1173 7.04502 17.9922 6.75163 17.8464 6.46839C17.7507 6.28325 17.6438 6.10407 17.5264 5.93185C18.0833 6.18194 18.5901 6.53135 19.0219 6.96298L19.0628 7.00458C18.791 7.13916 18.5094 7.25303 18.2205 7.34521L18.2208 7.34628ZM13.5434 7.56246C13.6294 7.32109 13.7314 7.08567 13.8485 6.85773C14.2858 6.01434 14.8611 5.49273 15.4698 5.49273C16.0785 5.49273 16.6538 6.01434 17.0912 6.85773C17.2083 7.08564 17.3103 7.32106 17.3963 7.56246C16.7621 7.69022 16.1167 7.75348 15.4698 7.75126C14.8229 7.75325 14.1775 7.69046 13.5434 7.56246ZM11.8765 7.00458L11.9174 6.96298C12.3492 6.53135 12.8559 6.18194 13.4129 5.93185C13.2955 6.10407 13.1886 6.28325 13.0929 6.46839C12.9471 6.75163 12.822 7.04502 12.7185 7.34628C12.4295 7.25409 12.148 7.14023 11.8762 7.00565L11.8765 7.00458ZM12.481 8.16123C12.3337 8.79267 12.2476 9.43685 12.2239 10.0848L10.4631 10.0813C10.5368 9.21792 10.8335 8.38854 11.3243 7.67446C11.6945 7.87293 12.0824 8.03625 12.4831 8.16229L12.481 8.16123ZM17.6341 8.37954C17.7632 8.94329 17.8392 9.51791 17.861 10.0958L13.0762 10.0866C13.0986 9.51191 13.1744 8.94055 13.3027 8.3799C14.7312 8.67714 16.2056 8.67678 17.6341 8.37954ZM19.6125 7.67446C20.1072 8.39405 20.4046 9.23077 20.4751 10.1012L18.7133 10.0976C18.6902 9.44547 18.604 8.79709 18.4558 8.16158C18.8557 8.03548 19.2429 7.8724 19.6125 7.67446ZM25.1344 11.7314V9.30151H23.556C23.4581 9.30106 23.3633 9.26692 23.2875 9.20483C23.2118 9.14274 23.1597 9.05648 23.14 8.96053C22.9412 7.98261 22.5569 7.05181 22.0079 6.21843C21.9458 6.13638 21.9155 6.03467 21.9225 5.93202C21.9295 5.82938 21.9733 5.73272 22.046 5.65984L23.1628 4.54302L21.4433 2.82352L20.3265 3.94034C20.257 4.0094 20.1659 4.05246 20.0685 4.0623C19.971 4.07214 19.8732 4.04816 19.7913 3.99439C18.9628 3.44391 18.0366 3.05698 17.0627 2.85446C16.9586 2.84267 16.8625 2.793 16.7927 2.7149C16.7229 2.6368 16.6842 2.53575 16.6841 2.43098V0.85335H14.2549V2.43169C14.2544 2.52964 14.2203 2.62444 14.1582 2.7002C14.0961 2.77595 14.0098 2.82803 13.9139 2.8477C12.936 3.04656 12.0052 3.43085 11.1718 3.97981C11.0897 4.04188 10.988 4.07221 10.8854 4.06522C10.7827 4.05823 10.6861 4.01439 10.6132 3.94177L9.49637 2.82352L7.7783 4.5416L8.89512 5.65842C8.96368 5.72779 9.0064 5.81856 9.01617 5.91561C9.02594 6.01266 9.00217 6.11012 8.94881 6.19176C8.3972 7.02144 8.00965 7.94911 7.8071 8.92462C7.79531 9.02872 7.74564 9.12484 7.66754 9.19468C7.58945 9.26451 7.48839 9.30317 7.38362 9.30329H5.80528V11.7332H7.38362C7.48169 11.7332 7.57674 11.7675 7.65258 11.8297C7.72843 11.8919 7.78039 11.9784 7.79963 12.0745C7.99859 13.0523 8.38287 13.983 8.93174 14.8163C8.99381 14.8983 9.02414 15.0001 9.01715 15.1027C9.01016 15.2053 8.96632 15.302 8.8937 15.3749L7.77687 16.4917L9.49637 18.2094L10.6132 17.0926C10.6826 17.0235 10.7737 16.9805 10.8712 16.9706C10.9686 16.9608 11.0665 16.9848 11.1483 17.0386C11.5676 17.317 12.0128 17.5543 12.4778 17.7472C12.9294 17.9349 13.3979 18.0793 13.8769 18.1785C13.981 18.1903 14.0771 18.2399 14.147 18.318C14.2168 18.3961 14.2555 18.4972 14.2556 18.602V20.1803H16.6855V18.6027C16.6856 18.5046 16.7196 18.4095 16.7818 18.3337C16.8441 18.2578 16.9306 18.2059 17.0268 18.1867C18.0046 17.9877 18.9353 17.6034 19.7686 17.0546C19.8506 16.9925 19.9523 16.9622 20.055 16.9691C20.1576 16.9761 20.2543 17.02 20.3272 17.0926L21.4433 18.2094L23.1614 16.4913L22.0477 15.3745C21.9787 15.305 21.9357 15.2139 21.926 15.1165C21.9162 15.019 21.9402 14.9212 21.994 14.8394C22.5445 14.0109 22.9315 13.0847 23.134 12.1108C23.1458 12.0067 23.1954 11.9106 23.2735 11.8408C23.3516 11.7709 23.4527 11.7323 23.5575 11.7321L25.1344 11.7314ZM25.9859 8.87591C25.9859 8.76274 25.941 8.65422 25.861 8.5742C25.781 8.49418 25.6724 8.44923 25.5593 8.44923H23.8967C23.6876 7.59242 23.348 6.77287 22.8897 6.01932L24.067 4.84205C24.1465 4.76209 24.1912 4.65387 24.1912 4.54107C24.1912 4.42826 24.1465 4.32004 24.067 4.24008L21.7455 1.92004C21.6655 1.84046 21.5573 1.79579 21.4445 1.79579C21.3317 1.79579 21.2235 1.84046 21.1435 1.92004L19.9663 3.0973C19.2128 2.63882 18.3932 2.29918 17.5364 2.09035V0.426675C17.5364 0.313514 17.4914 0.204987 17.4114 0.12497C17.3314 0.0449531 17.2228 0 17.1097 0H13.8293C13.7161 0 13.6076 0.0449531 13.5276 0.12497C13.4475 0.204987 13.4026 0.313514 13.4026 0.426675V2.09071C12.5456 2.29937 11.726 2.63901 10.9727 3.09766L9.79611 1.92004C9.71616 1.84046 9.60794 1.79579 9.49513 1.79579C9.38232 1.79579 9.2741 1.84046 9.19415 1.92004L6.87375 4.24044C6.79417 4.3204 6.74949 4.42861 6.74949 4.54142C6.74949 4.65423 6.79417 4.76245 6.87375 4.84241L8.05101 6.01967C7.59212 6.77315 7.25212 7.59287 7.04299 8.44994H5.37967C5.26651 8.44994 5.15798 8.4949 5.07797 8.57491C4.99795 8.65493 4.953 8.76346 4.953 8.87662V12.1577C4.953 12.2709 4.99795 12.3794 5.07797 12.4595C5.15798 12.5395 5.26651 12.5844 5.37967 12.5844H7.04299C7.25207 13.4412 7.59169 14.2608 8.04995 15.0143L6.87268 16.1916C6.7931 16.2716 6.74843 16.3798 6.74843 16.4926C6.74843 16.6054 6.7931 16.7136 6.87268 16.7936L9.19308 19.114C9.27304 19.1935 9.38126 19.2382 9.49406 19.2382C9.60687 19.2382 9.71509 19.1935 9.79505 19.114L10.9723 17.9367C11.7257 18.3952 12.5453 18.7348 13.4022 18.9437V20.608C13.4022 20.7212 13.4472 20.8297 13.5272 20.9097C13.6072 20.9898 13.7157 21.0347 13.8289 21.0347H17.11C17.2232 21.0347 17.3317 20.9898 17.4117 20.9097C17.4918 20.8297 17.5367 20.7212 17.5367 20.608V18.9422C18.3935 18.7332 19.2131 18.3935 19.9666 17.9353L21.1439 19.1125C21.2238 19.1921 21.3321 19.2368 21.4449 19.2368C21.5577 19.2368 21.6659 19.1921 21.7459 19.1125L24.0663 16.7922C24.1458 16.7122 24.1905 16.604 24.1905 16.4912C24.1905 16.3784 24.1458 16.2701 24.0663 16.1902L22.889 15.0129C23.3477 14.2595 23.6876 13.4399 23.8967 12.583H25.561C25.6742 12.583 25.7827 12.538 25.8627 12.458C25.9428 12.378 25.9877 12.2695 25.9877 12.1563L25.9859 8.87591Z" fill="#00C3B7"/>
</svg>
