<svg width="32" height="31" viewBox="0 0 32 31" fill="none" xmlns="http://www.w3.org/2000/svg">
<g clip-path="url(#clip0_4956_6688)">
<path d="M30.1708 15.9808C29.1234 14.4931 27.6957 13.3486 26.0276 12.6559V9.79073H23.9574V9.10958C23.9574 8.35777 23.4325 7.72669 22.7301 7.56237L22.3898 6.25504C22.9061 5.74003 23.0155 4.91659 22.6082 4.27661L21.8766 3.12737C21.6493 2.77032 21.2954 2.52287 20.8801 2.43065C20.5801 2.36399 20.2749 2.38482 19.9939 2.4869L18.6584 1.36424C18.5487 0.594146 17.8852 0 17.0853 0H15.723C14.9231 0 14.2596 0.594147 14.1499 1.3643L12.8144 2.4869C12.5334 2.38476 12.2283 2.36399 11.9282 2.43065C11.513 2.52287 11.1591 2.77032 10.9318 3.12737L10.2002 4.27661C9.79282 4.91659 9.90229 5.74003 10.4186 6.25504L10.0783 7.56237C9.37583 7.72669 8.85095 8.35777 8.85095 9.10958V9.79073H6.78079V12.656C5.24956 13.2927 3.90857 14.3201 2.88811 15.6417L3.60699 16.1968C4.5893 14.9245 5.89923 13.9537 7.39522 13.3892L7.689 13.2784V10.6989H13.1917V13.7811C13.1917 14.0974 12.9406 14.3673 12.6319 14.3966C11.9276 14.1783 11.1891 14.0647 10.4404 14.0647C6.36042 14.0647 3.04118 17.3839 3.04118 21.4639C3.04118 25.5438 6.36036 28.8631 10.4403 28.8631C10.7791 28.8631 11.0547 29.1387 11.0547 29.4774C11.0547 29.8162 10.7791 30.0917 10.4403 30.0917C5.68284 30.0918 1.81238 26.2213 1.81238 21.4639C1.81238 19.8569 2.25734 18.2889 3.09912 16.9294L2.32697 16.4513C1.39618 17.9545 0.904175 19.6878 0.904175 21.4639C0.904175 26.7221 5.18205 31 10.4403 31C12.6152 31 14.7192 30.2573 16.4075 28.9017C18.0414 30.2137 20.1145 31 22.368 31C24.7319 31 26.9998 30.1284 28.7537 28.5459L28.1454 27.8716C26.9192 28.978 25.4152 29.6998 23.8081 29.9709C23.8613 29.816 23.8906 29.6501 23.8906 29.4774C23.8906 29.211 23.8217 28.9605 23.7009 28.7425C27.1469 28.1131 29.7672 25.0888 29.7672 21.4639C29.7672 18.5501 28.0745 16.0244 25.6206 14.8186C25.873 14.5461 26.0276 14.1814 26.0276 13.7812V13.6485C27.3873 14.2846 28.5539 15.2621 29.4282 16.5037C30.4538 17.9604 30.996 19.6756 30.996 21.4639C30.996 23.6027 30.2075 25.6544 28.7758 27.2412L29.4501 27.8496C31.0326 26.0956 31.9042 23.8278 31.9042 21.4639C31.9042 19.4874 31.3048 17.5914 30.1708 15.9808ZM23.0492 9.10958V9.79073H21.6869V9.10958C21.6869 8.73401 21.9925 8.42843 22.368 8.42843C22.7437 8.42843 23.0492 8.73395 23.0492 9.10958ZM20.6833 3.31718C20.8618 3.35684 21.0135 3.46255 21.1105 3.61501L21.8421 4.76425C22.0438 5.08109 21.9501 5.50292 21.6332 5.70467C21.4808 5.80166 21.2986 5.83333 21.1201 5.79367C20.9416 5.75401 20.7899 5.6483 20.6928 5.49584L19.9612 4.3466C19.8642 4.19414 19.8326 4.01196 19.8722 3.83346C19.9119 3.65497 20.0177 3.50324 20.1701 3.40619C20.3225 3.30919 20.5048 3.27758 20.6833 3.31718ZM15.723 0.908203H17.0853C17.4609 0.908203 17.7665 1.21378 17.7665 1.58936C17.7665 1.96493 17.4609 2.27051 17.0853 2.27051H15.723C15.3475 2.27051 15.0419 1.96493 15.0419 1.58936C15.0419 1.21378 15.3475 0.908203 15.723 0.908203ZM10.9663 4.76431L11.6979 3.61507C11.7949 3.46262 11.9467 3.3569 12.1251 3.31724C12.1754 3.30604 12.2259 3.30059 12.276 3.30059C12.4038 3.30059 12.5288 3.33656 12.6383 3.40625C12.7907 3.5033 12.8965 3.65503 12.9361 3.83353C12.9758 4.01202 12.9442 4.19426 12.8471 4.34666L12.1155 5.49584C11.9139 5.81268 11.492 5.90641 11.1752 5.70473C10.8583 5.50298 10.7647 5.08109 10.9663 4.76431ZM9.75916 9.10958C9.75916 8.73401 10.0647 8.42843 10.4403 8.42843C10.8159 8.42843 11.1215 8.73395 11.1215 9.10958V9.79073H9.75916V9.10958ZM12.0297 9.79073V9.10958C12.0297 8.43055 11.6015 7.8499 11.0011 7.62273L11.2437 6.69061C11.3415 6.70908 11.4401 6.71901 11.5384 6.71901C12.0642 6.71901 12.5792 6.4589 12.8817 5.98354L13.6133 4.83437C13.9733 4.26898 13.9296 3.56046 13.5587 3.04781L14.3478 2.38452C14.6231 2.8589 15.1363 3.17883 15.7231 3.17883H17.0854C17.6722 3.17883 18.1854 2.85884 18.4607 2.38446L19.2496 3.04763C19.124 3.22128 19.0337 3.42054 18.9857 3.63663C18.8934 4.05192 18.9679 4.47732 19.1951 4.83437L19.9267 5.98361C20.154 6.34065 20.5079 6.58811 20.9232 6.68038C21.0395 6.70617 21.1565 6.71895 21.2726 6.71895C21.3711 6.71895 21.4687 6.7089 21.5647 6.69073L21.8073 7.62279C21.2069 7.84996 20.7787 8.43067 20.7787 9.10964V9.79079H18.7085V12.6559C17.8738 13.0026 17.0993 13.4624 16.4025 14.0216C15.7006 13.4582 14.9286 13.0003 14.0999 12.6559V9.79073H12.0297ZM14.8882 15.5505C14.5125 15.2678 14.1123 15.0228 13.6935 14.8178C13.9456 14.5454 14.0998 14.181 14.0998 13.7811V13.6485C14.6714 13.9164 15.2103 14.247 15.7117 14.635C15.4191 14.9207 15.1443 15.2265 14.8882 15.5505ZM3.94932 21.4639C3.94932 17.8847 6.86114 14.9729 10.4403 14.9729C11.8584 14.9729 13.2336 15.4385 14.357 16.2892C13.3581 17.8311 12.8319 19.6122 12.8319 21.4639C12.8319 23.3691 13.3939 25.1454 14.3603 26.6363C13.2364 27.4884 11.8599 27.9549 10.4403 27.9549C6.86114 27.9549 3.94932 25.043 3.94932 21.4639ZM11.8805 29.9703C11.9336 29.8156 11.9629 29.6499 11.9629 29.4774C11.9629 29.2108 11.8938 28.9601 11.7729 28.7419C12.9009 28.5354 13.9698 28.069 14.8908 27.3755C15.1463 27.6979 15.4222 28.0032 15.7165 28.29C14.5921 29.1596 13.2737 29.7346 11.8805 29.9703ZM22.9824 29.4774C22.9824 29.8162 22.7068 30.0917 22.368 30.0917C17.6106 30.0918 13.7401 26.2213 13.7401 21.4639C13.7401 19.6756 14.2822 17.9604 15.3079 16.5037C16.3112 15.0788 17.6995 14.0018 19.323 13.3893L19.6167 13.2784V10.699H25.1194V13.7812C25.1194 14.0969 24.8692 14.3664 24.5613 14.3965C23.868 14.1809 23.1314 14.0647 22.3681 14.0647C18.2882 14.0647 14.9689 17.384 14.9689 21.4639C14.9689 25.5439 18.2881 28.8631 22.368 28.8631C22.7068 28.8631 22.9824 29.1387 22.9824 29.4774ZM17.7601 26.0307C17.4521 25.7201 17.1754 25.3785 16.9348 25.0111C17.5272 23.9277 17.8395 22.7076 17.8395 21.4639C17.8395 20.2205 17.5271 19.0005 16.9346 17.9169C17.1752 17.5496 17.4519 17.2079 17.7599 16.8972C18.6165 18.2653 19.0682 19.8329 19.0682 21.4639C19.0682 23.0949 18.6166 24.6627 17.7601 26.0307ZM16.405 18.9009C16.7508 19.7061 16.9313 20.5782 16.9313 21.4639C16.9313 22.3498 16.7509 23.222 16.4051 24.0272C16.0655 23.2404 15.8771 22.3738 15.8771 21.4639C15.8771 20.554 16.0655 19.6875 16.405 18.9009ZM28.859 21.4639C28.859 25.043 25.9472 27.9549 22.368 27.9549C20.8983 27.9549 19.5414 27.4636 18.4522 26.6371C19.4505 25.0955 19.9764 23.3162 19.9764 21.4639C19.9764 19.6116 19.4505 17.8324 18.4519 16.2909C19.5412 15.4642 20.8983 14.9729 22.368 14.9729C25.9472 14.9728 28.859 17.8847 28.859 21.4639Z" fill="#FB8500"/>
<path d="M22.8221 11.6055H23.7303V12.5137H22.8221V11.6055Z" fill="#FB8500"/>
<path d="M21.0057 11.6055H21.9139V12.5137H21.0057V11.6055Z" fill="#FB8500"/>
<path d="M10.8944 11.6055H11.8026V12.5137H10.8944V11.6055Z" fill="#FB8500"/>
<path d="M9.078 11.6055H9.98621V12.5137H9.078V11.6055Z" fill="#FB8500"/>
</g>
<defs>
<clipPath id="clip0_4956_6688">
<rect width="31" height="31" fill="white" transform="translate(0.904297)"/>
</clipPath>
</defs>
</svg>
