<svg width="48" height="49" viewBox="0 0 48 49" fill="none" xmlns="http://www.w3.org/2000/svg">
<g clip-path="url(#clip0_4956_7446)">
<path fill-rule="evenodd" clip-rule="evenodd" d="M14.6227 21.8037H33.3773C34.4088 21.8037 35.2528 22.6488 35.2528 23.6814V34.9476C35.2528 35.9803 34.4087 36.8253 33.3773 36.8253H14.6227C13.5913 36.8253 12.7473 35.9804 12.7473 34.9476V23.6814C12.7473 22.6486 13.5912 21.8037 14.6227 21.8037Z" fill="#FFF69B"/>
<path d="M47.0683 43.8667L47.0682 41.0502C47.0682 40.5316 46.6483 40.1113 46.1305 40.1113H45.1832L44.7338 18.5177H46.1304C46.6482 18.5177 47.0681 18.0974 47.0681 17.5789V13.8234C48.311 13.7773 48.31 11.9915 47.0681 11.9457H46.3209L24.3658 2.63168C24.1319 2.53244 23.868 2.53244 23.6341 2.63168L1.67892 11.9458H0.93183C-0.311038 11.992 -0.3101 13.7778 0.93183 13.8235H0.931924V17.579C0.931924 18.0975 1.35184 18.5178 1.86965 18.5178H3.26622L2.81686 40.1114H1.86965C1.35184 40.1114 0.931924 40.5317 0.931924 41.0502V43.8668H0.93183C-0.311038 43.913 -0.3101 45.6988 0.93183 45.7445H47.0683C48.3111 45.6982 48.3101 43.9124 47.0683 43.8667ZM43.3072 40.1114H39.5763L40.0256 18.5178H42.858L43.3072 40.1114ZM10.2997 40.1114L9.85031 18.5178H38.1497L37.7003 40.1114H10.2997ZM24 4.51577L41.514 11.9458H33.4854L24.3658 8.07702C24.1319 7.97778 23.868 7.97778 23.6341 8.07702L14.5147 11.9458H6.48601L24 4.51577ZM28.6783 11.9458H19.3218L24 9.9612L28.6783 11.9458ZM2.80739 13.8235H45.1927V16.6401H2.80739V13.8235ZM5.14215 18.5177H7.97447L8.42383 40.1113H4.69279L5.14215 18.5177ZM2.80739 41.9891H45.1927V43.8668H2.80739V41.9891Z" fill="#243D31"/>
<path d="M23.8769 25.5592C22.3257 25.5592 21.0637 26.8212 21.0637 28.3724V32.1233C21.1098 33.3662 22.8935 33.3653 22.9392 32.1233V31.1855H24.8146V32.1233C24.8607 33.3662 26.6444 33.3653 26.6901 32.1233V28.3724C26.6901 26.8212 25.4281 25.5592 23.8769 25.5592ZM24.8146 29.31H22.9392V28.3724C22.9864 27.1298 24.7677 27.1307 24.8146 28.3724V29.31Z" fill="#243D31"/>
<path d="M31.468 29.3101L32.8334 26.9694C33.4219 25.8752 31.8754 24.9742 31.2135 26.0245L30.3825 27.4492L29.5515 26.0245C29.2907 25.5772 28.7168 25.4259 28.2689 25.687C27.8215 25.948 27.6705 26.5221 27.9314 26.9694L29.2969 29.3101L27.9314 31.6508C27.6705 32.0982 27.8215 32.6723 28.2689 32.9332C28.7085 33.1917 29.289 33.0471 29.5515 32.5957L30.3825 31.171L31.2135 32.5957C31.476 33.0472 32.0563 33.1917 32.496 32.9332C32.9434 32.6722 33.0945 32.0981 32.8335 31.6508L31.468 29.3101Z" fill="#243D31"/>
<path d="M19.2586 25.5592H15.9766C14.7337 25.6053 14.7347 27.389 15.9766 27.4347H16.6798V32.1233C16.7259 33.3662 18.5096 33.3653 18.5553 32.1233V27.4347H19.2586C20.5014 27.3885 20.5005 25.6049 19.2586 25.5592Z" fill="#243D31"/>
</g>
<defs>
<clipPath id="clip0_4956_7446">
<rect width="48" height="48.0574" fill="white" transform="translate(0 0.12207)"/>
</clipPath>
</defs>
</svg>
