<svg width="33" height="32" viewBox="0 0 33 32" fill="none" xmlns="http://www.w3.org/2000/svg">
<path d="M30.2662 12.8C29.6915 12.8333 29.1492 13.0769 28.7428 13.4844C28.3363 13.892 28.0941 14.4349 28.0624 15.0096L27.2219 21.8006C26.9605 21.7131 26.68 21.6995 26.4113 21.7612C26.1427 21.823 25.8963 21.9576 25.6992 22.1504L21.0155 25.1702C20.9406 25.2185 20.879 25.2848 20.8363 25.3631C20.7936 25.4413 20.7713 25.529 20.7712 25.6182V31.4667C20.7712 31.6082 20.8274 31.7438 20.9274 31.8438C21.0275 31.9439 21.1631 32 21.3046 32H26.8331C26.9746 32 27.1102 31.9439 27.2102 31.8438C27.3102 31.7438 27.3664 31.6082 27.3664 31.4667V30.7835L30.6795 28.5563C31.2635 28.1234 31.7341 27.5557 32.0514 26.9017C32.3687 26.2477 32.5233 25.5267 32.5019 24.8L32.4928 15.376C32.4912 13.9558 31.4923 12.8 30.2662 12.8ZM30.0848 27.671L26.5355 30.0566C26.4629 30.1054 26.4035 30.1713 26.3624 30.2485C26.3213 30.3257 26.2998 30.4118 26.2998 30.4993V30.9334H21.8352V25.9088L26.3184 23.0192C26.3502 22.9988 26.3797 22.975 26.4064 22.9483C26.4727 22.8691 26.5647 22.8159 26.6663 22.7978C26.768 22.7798 26.8727 22.7981 26.9622 22.8496C27.0323 22.891 27.0941 22.9453 27.144 23.0097C27.2837 23.206 27.3598 23.4404 27.362 23.6813C27.3642 23.9222 27.2924 24.158 27.1563 24.3568L23.7611 26.7344L24.3734 27.6086L27.8267 25.1894C27.8615 25.1652 27.8932 25.1369 27.9211 25.1051C28.198 24.7686 28.3707 24.3586 28.418 23.9254C28.4654 23.4922 28.3854 23.0546 28.1878 22.6662L29.1222 15.1403C29.1298 14.8265 29.2492 14.5258 29.459 14.2922C29.6687 14.0587 29.955 13.9078 30.2662 13.8667C30.9062 13.8667 31.4251 14.544 31.4262 15.3771L31.4352 24.8C31.4571 25.3518 31.3458 25.9008 31.1108 26.4005C30.8757 26.9002 30.5238 27.336 30.0848 27.671Z" fill="#FB8500"/>
<path d="M2.32435 28.5563L5.63742 30.7835V31.4667C5.63742 31.6082 5.69361 31.7438 5.79363 31.8438C5.89365 31.9439 6.0293 32 6.17075 32H11.702C11.8434 32 11.9791 31.9439 12.0791 31.8438C12.1791 31.7438 12.2353 31.6082 12.2353 31.4667V25.6182C12.2353 25.529 12.2129 25.4413 12.1702 25.3631C12.1275 25.2848 12.0659 25.2185 11.991 25.1702L7.30728 22.1504C7.11027 21.9576 6.86385 21.823 6.59519 21.7612C6.32653 21.6995 6.04604 21.7131 5.78462 21.8006L4.94142 15.0096C4.90974 14.4349 4.66756 13.892 4.26109 13.4844C3.85462 13.0769 3.31233 12.8333 2.73768 12.8C1.51102 12.8 0.512617 13.9558 0.511017 15.376L0.50195 24.8C0.480578 25.5267 0.635126 26.2477 0.952433 26.9017C1.26974 27.5557 1.74041 28.1234 2.32435 28.5563ZM1.57768 15.3771C1.57875 14.544 2.09875 13.8667 2.73768 13.8667C3.04915 13.9076 3.33575 14.0585 3.54573 14.2921C3.75571 14.5258 3.87524 14.8268 3.88275 15.1408L4.81715 22.6667C4.61954 23.0551 4.53951 23.4927 4.58688 23.9259C4.63424 24.3591 4.80694 24.7691 5.08382 25.1057C5.11176 25.1375 5.14346 25.1657 5.17822 25.1899L8.63155 27.6091L9.24382 26.735L5.84755 24.3574C5.71154 24.1586 5.63975 23.9228 5.64185 23.6819C5.64394 23.4411 5.71983 23.2066 5.85928 23.0102C5.90934 22.9459 5.97103 22.8916 6.04115 22.8502C6.13062 22.7986 6.23541 22.7801 6.33714 22.798C6.43886 22.816 6.53101 22.8692 6.59742 22.9483C6.62416 22.975 6.65365 22.9988 6.68542 23.0192L11.1686 25.9088V30.9334H6.70408V30.4993C6.7041 30.4118 6.6826 30.3257 6.6415 30.2485C6.60039 30.1713 6.54093 30.1054 6.46835 30.0566L2.91902 27.671C2.48002 27.336 2.12812 26.9002 1.89308 26.4005C1.65803 25.9008 1.54674 25.3518 1.56862 24.8L1.57768 15.3771Z" fill="#FB8500"/>
<path d="M8.50196 9.06663C8.5013 9.82711 8.72889 10.5703 9.15529 11.2C8.72889 11.8297 8.5013 12.5728 8.50196 13.3333C8.49278 14.1289 8.73998 14.9064 9.20699 15.5506C9.674 16.1948 10.336 16.6716 11.095 16.9104C11.1729 17.8171 11.5849 18.6626 12.251 19.2828C12.9171 19.903 13.7898 20.2536 14.6998 20.2666C15.3356 20.2637 15.9585 20.0878 16.502 19.7578C17.0454 20.0878 17.6683 20.2637 18.3041 20.2666C19.2141 20.2536 20.0868 19.903 20.7529 19.2828C21.419 18.6626 21.831 17.8171 21.9089 16.9104C22.6679 16.6716 23.3299 16.1948 23.7969 15.5506C24.2639 14.9064 24.5111 14.1289 24.502 13.3333C24.5026 12.5728 24.275 11.8297 23.8486 11.2C24.275 10.5703 24.5026 9.82711 24.502 9.06663C24.5111 8.271 24.2639 7.49354 23.7969 6.84932C23.3299 6.20509 22.6679 5.72832 21.9089 5.48957C21.831 4.58281 21.419 3.73732 20.7529 3.11715C20.0868 2.49698 19.2141 2.14635 18.3041 2.1333C17.6683 2.13625 17.0454 2.31213 16.502 2.6421C15.9585 2.31213 15.3356 2.13625 14.6998 2.1333C13.7898 2.14635 12.9171 2.49698 12.251 3.11715C11.5849 3.73732 11.1729 4.58281 11.095 5.48957C10.336 5.72832 9.674 6.20509 9.20699 6.84932C8.73998 7.49354 8.49278 8.271 8.50196 9.06663ZM17.0353 12.8C17.0353 12.5171 17.1477 12.2458 17.3477 12.0457C17.5477 11.8457 17.8191 11.7333 18.102 11.7333C18.3849 11.7333 18.6562 11.8457 18.8562 12.0457C19.0562 12.2458 19.1686 12.5171 19.1686 12.8H20.2353C20.2353 12.2342 20.0105 11.6916 19.6104 11.2915C19.2104 10.8914 18.6678 10.6666 18.102 10.6666C17.7264 10.6688 17.3581 10.7712 17.0353 10.9632V3.55463C17.4179 3.32277 17.8567 3.20011 18.3041 3.19997C18.9142 3.21106 19.5008 3.43728 19.9604 3.83871C20.42 4.24015 20.7231 4.79101 20.8161 5.3941C20.3108 5.51728 19.868 5.82078 19.5708 6.24754C19.2736 6.6743 19.1425 7.19492 19.2022 7.71154C19.2618 8.22815 19.5082 8.70518 19.8949 9.05293C20.2815 9.40069 20.7819 9.59522 21.302 9.59997V8.5333C21.034 8.52282 20.7798 8.41177 20.59 8.22228C20.4002 8.03279 20.2888 7.77876 20.2779 7.51079C20.267 7.24282 20.3574 6.98058 20.5312 6.7763C20.705 6.57202 20.9493 6.44071 21.2156 6.4085C21.2427 6.42174 21.2711 6.43228 21.3004 6.43997C21.909 6.55542 22.4571 6.88243 22.8478 7.36314C23.2386 7.84385 23.4466 8.44727 23.4353 9.06663C23.4368 9.72152 23.202 10.355 22.774 10.8506C22.6899 10.9476 22.6436 11.0716 22.6436 11.2C22.6436 11.3283 22.6899 11.4523 22.774 11.5493C23.202 12.045 23.4368 12.6784 23.4353 13.3333C23.444 13.9181 23.2572 14.489 22.9047 14.9556C22.5522 15.4222 22.054 15.7578 21.4892 15.9093C21.2398 15.5224 20.8718 15.2268 20.4403 15.0665C20.0089 14.9063 19.5371 14.8901 19.0957 15.0204C18.6542 15.1507 18.2669 15.4205 17.9916 15.7894C17.7163 16.1583 17.5679 16.6064 17.5686 17.0666H18.6353C18.6353 16.7837 18.7477 16.5124 18.9477 16.3124C19.1477 16.1123 19.4191 16 19.702 16C19.9849 16 20.2562 16.1123 20.4562 16.3124C20.6562 16.5124 20.7686 16.7837 20.7686 17.0666H20.8086C20.7029 17.6577 20.395 18.1936 19.9378 18.5827C19.4805 18.9719 18.9023 19.1901 18.302 19.2C17.8553 19.1994 17.4173 19.0768 17.0353 18.8453V12.8ZM12.1436 5.86663C12.13 5.17433 12.3914 4.50488 12.8706 4.00501C13.3498 3.50514 14.0076 3.21565 14.6998 3.19997C15.1472 3.20011 15.586 3.32277 15.9686 3.55463V6.9333C15.9686 7.2162 15.8562 7.48751 15.6562 7.68755C15.4562 7.88759 15.1849 7.99997 14.902 7.99997C14.6191 7.99997 14.3477 7.88759 14.1477 7.68755C13.9477 7.48751 13.8353 7.2162 13.8353 6.9333H12.7686C12.7686 7.4991 12.9934 8.04172 13.3935 8.44179C13.7935 8.84187 14.3362 9.06663 14.902 9.06663C15.2776 9.06442 15.6458 8.96206 15.9686 8.7701V18.8453C15.586 19.0772 15.1472 19.1998 14.6998 19.2C14.0897 19.1889 13.5031 18.9627 13.0435 18.5612C12.5839 18.1598 12.2809 17.6089 12.1878 17.0058C12.6931 16.8827 13.1359 16.5792 13.4331 16.1524C13.7303 15.7256 13.8614 15.205 13.8017 14.6884C13.7421 14.1718 13.4957 13.6948 13.1091 13.347C12.7224 12.9992 12.222 12.8047 11.702 12.8V13.8666C11.9699 13.8771 12.2241 13.9882 12.4139 14.1777C12.6037 14.3671 12.7152 14.6212 12.7261 14.8891C12.737 15.1571 12.6465 15.4194 12.4727 15.6236C12.299 15.8279 12.0546 15.9592 11.7884 15.9914C11.7607 15.9781 11.7317 15.9676 11.702 15.96C11.0936 15.8442 10.5459 15.517 10.1555 15.0363C9.76506 14.5557 9.5572 13.9524 9.56862 13.3333C9.56711 12.6784 9.80193 12.045 10.23 11.5493C10.314 11.4523 10.3603 11.3283 10.3603 11.2C10.3603 11.0716 10.314 10.9476 10.23 10.8506C9.80193 10.355 9.56711 9.72152 9.56862 9.06663C9.5572 8.4475 9.76506 7.84426 10.1555 7.36359C10.5459 6.88291 11.0936 6.55576 11.702 6.43997C11.8291 6.40753 11.9416 6.33343 12.0217 6.2295C12.1017 6.12557 12.1446 5.99781 12.1436 5.86663Z" fill="#FB8500"/>
<path d="M10.2528 1.90344C9.64476 2.3133 9.07817 2.78147 8.56104 3.30131L9.3173 4.05331C9.78525 3.58288 10.2981 3.15936 10.8485 2.78878L10.2528 1.90344Z" fill="#FB8500"/>
<path d="M10.2922 20.5226C10.9024 20.9294 11.551 21.2754 12.2288 21.5556L12.6357 20.57C12.0229 20.3167 11.4364 20.0037 10.8848 19.6356L10.2922 20.5226Z" fill="#FB8500"/>
<path d="M18.4893 21.1386L18.6973 22.185C19.4167 22.0411 20.1201 21.8268 20.7975 21.545L20.3879 20.5599C19.7756 20.8147 19.1396 21.0085 18.4893 21.1386Z" fill="#FB8500"/>
<path d="M9.34777 18.3771C8.87791 17.9081 8.45477 17.3946 8.08431 16.8438L7.19897 17.44C7.60829 18.0483 8.07573 18.6154 8.59471 19.1333L9.34777 18.3771Z" fill="#FB8500"/>
<path d="M5.51 9.04016C5.37151 9.75182 5.30185 10.4752 5.302 11.2002V11.2226L6.36867 11.2002C6.36867 10.5437 6.43171 9.88881 6.55694 9.24443L5.51 9.04016Z" fill="#FB8500"/>
<path d="M7.17282 5.00049C6.76647 5.61089 6.42099 6.25968 6.14136 6.93756L7.12802 7.34396C7.38064 6.73056 7.69308 6.14354 8.06082 5.59142L7.17282 5.00049Z" fill="#FB8500"/>
<path d="M7.14406 15.0934C6.88921 14.4813 6.69539 13.8455 6.5654 13.1953L5.51953 13.4044C5.66329 14.1236 5.87767 14.827 6.15953 15.5041L7.14406 15.0934Z" fill="#FB8500"/>
<path d="M14.5362 21.1429L14.3303 22.1893C15.0457 22.3295 15.773 22.4001 16.5021 22.4H16.5133L16.5021 21.3333C15.8422 21.3335 15.1838 21.2697 14.5362 21.1429Z" fill="#FB8500"/>
<path d="M27.7021 11.2V11.1547L26.6354 11.2C26.6354 11.8635 26.5709 12.5255 26.4429 13.1765L27.4893 13.3829C27.6309 12.6639 27.7022 11.9328 27.7021 11.2Z" fill="#FB8500"/>
<path d="M25.8513 7.28476C26.1079 7.89633 26.3033 8.53178 26.4348 9.18183L27.4801 8.96849C27.3346 8.24965 27.1186 7.54688 26.8353 6.87036L25.8513 7.28476Z" fill="#FB8500"/>
<path d="M23.6406 4.00808C24.1116 4.47583 24.536 4.98829 24.9078 5.53822L25.7916 4.94142C25.381 4.33467 24.9123 3.76934 24.3921 3.25342L23.6406 4.00808Z" fill="#FB8500"/>
<path d="M22.7311 20.5094C23.3398 20.1009 23.9072 19.6342 24.4255 19.1158L23.6709 18.3617C23.2018 18.8312 22.6879 19.2537 22.1365 19.623L22.7311 20.5094Z" fill="#FB8500"/>
<path d="M16.5019 1.06667C17.1545 1.06664 17.8056 1.12897 18.4464 1.2528L18.6501 0.205867C17.9422 0.0688694 17.2229 -6.69935e-05 16.5019 4.88528e-08H16.4683L16.5019 1.06667Z" fill="#FB8500"/>
<path d="M12.5963 1.84652C13.2081 1.59089 13.8437 1.39634 14.4939 1.26572L14.2837 0.219849C13.5647 0.364356 12.8617 0.579626 12.1851 0.862515L12.5963 1.84652Z" fill="#FB8500"/>
<path d="M26.853 15.4843L25.8679 15.0763C25.6129 15.6891 25.2983 16.2754 24.9287 16.8267L25.8156 17.4198C26.2237 16.81 26.5711 16.1617 26.853 15.4843Z" fill="#FB8500"/>
<path d="M20.3479 1.82181C20.9616 2.07415 21.5492 2.38604 22.102 2.75301L22.6914 1.86661C22.0807 1.46062 21.4315 1.11584 20.7532 0.83728L20.3479 1.82181Z" fill="#FB8500"/>
</svg>
