<svg width="48" height="49" viewBox="0 0 48 49" fill="none" xmlns="http://www.w3.org/2000/svg">
<g clip-path="url(#clip0_5599_15190)">
<path d="M31.9686 25.1257C32.4864 25.1257 32.9061 24.706 32.9061 24.1882V3.5006C32.9061 1.94979 31.6444 0.68811 30.0936 0.68811H5.71874C4.16793 0.68811 2.90625 1.94979 2.90625 3.5006V45.8756C2.90625 47.4264 4.16793 48.6881 5.71874 48.6881H30.0936C31.6444 48.6881 32.9061 47.4264 32.9061 45.8756V39.1882C32.86 37.9456 31.0768 37.9466 31.0311 39.1882V43.0631H4.78124V6.31309H11.5044C11.8913 7.40443 12.934 8.18808 14.1562 8.18808H21.6562C22.8784 8.18808 23.9211 7.40443 24.308 6.31309H31.0311V24.1882C31.0311 24.706 31.4509 25.1257 31.9686 25.1257ZM31.0311 44.9381V45.8756C31.0311 46.3926 30.6106 46.8131 30.0936 46.8131H5.71874C5.2018 46.8131 4.78124 46.3926 4.78124 45.8756V44.9381H31.0311ZM23.5312 4.4381C23.0134 4.4381 22.5937 4.85781 22.5937 5.37559C22.5937 5.89253 22.1731 6.31309 21.6562 6.31309H14.1562C13.6393 6.31309 13.2187 5.89253 13.2187 5.37559C13.2187 4.85781 12.799 4.4381 12.2812 4.4381H4.78124V3.5006C4.78124 2.98366 5.2018 2.5631 5.71874 2.5631H30.0936C30.6106 2.5631 31.0311 2.98366 31.0311 3.5006V4.4381H23.5312Z" fill="#FB8500"/>
<path d="M10.3559 10.0631C9.83811 10.0631 9.41839 10.4828 9.41839 11.0006V11.4361C8.90848 11.6926 8.48464 12.1258 8.24961 12.6933C7.99827 13.3 7.99883 13.9699 8.2513 14.5793C8.50377 15.1888 8.97692 15.6629 9.58367 15.9142L10.4105 16.2567C10.706 16.3791 10.8522 16.7323 10.7298 17.0279C10.6074 17.3235 10.254 17.4697 9.95877 17.3473L9.54542 17.176C9.06702 16.9779 8.51867 17.205 8.32049 17.6833C8.1223 18.1617 8.34945 18.7101 8.82777 18.9082L9.2413 19.0795C9.29998 19.1038 9.35905 19.1256 9.41839 19.1451V19.4381C9.46452 20.6807 11.2477 20.6797 11.2934 19.4381V19.0025C11.8033 18.746 12.2271 18.3127 12.4622 17.7454C12.9823 16.4895 12.3839 15.0446 11.128 14.5244L10.3013 14.182C10.0091 14.0684 9.85555 13.6978 9.98202 13.4108C10.1044 13.1152 10.4577 12.9691 10.7531 13.0913L11.1665 13.2626C11.6449 13.4609 12.1932 13.2337 12.3914 12.7553C12.5896 12.277 12.3625 11.7286 11.8841 11.5304L11.4706 11.359C11.4119 11.3347 11.3528 11.3129 11.2935 11.2934V11.0006C11.2934 10.4828 10.8737 10.0631 10.3559 10.0631Z" fill="#FB8500"/>
<path d="M16.8619 22.7821H7.59368C6.35112 22.8282 6.35205 24.6114 7.59368 24.6571H16.8619C18.1045 24.611 18.1035 22.8278 16.8619 22.7821Z" fill="#FB8500"/>
<path d="M16.8619 26.7664H7.59368C6.35112 26.8125 6.35205 28.5957 7.59368 28.6414H16.8619C18.1045 28.5953 18.1035 26.812 16.8619 26.7664Z" fill="#FB8500"/>
<path d="M7.59361 32.6257H15.104C16.3466 32.5796 16.3456 30.7964 15.104 30.7507H7.59361C6.35114 30.7969 6.35208 32.5801 7.59361 32.6257Z" fill="#FB8500"/>
<path d="M16.8619 34.7351H7.59368C6.35112 34.7812 6.35205 36.5645 7.59368 36.6101H16.8619C18.1045 36.564 18.1035 34.7808 16.8619 34.7351Z" fill="#FB8500"/>
<path d="M16.8619 38.7195H7.59368C6.35112 38.7656 6.35205 40.5488 7.59368 40.5945H16.8619C18.1045 40.5484 18.1035 38.7651 16.8619 38.7195Z" fill="#FB8500"/>
<path d="M28.2185 10.2975H15.5961C14.3536 10.3436 14.3545 12.1268 15.5961 12.1725H28.2185C29.4611 12.1264 29.4602 10.3431 28.2185 10.2975Z" fill="#FB8500"/>
<path d="M28.2185 14.2819H15.5961C14.3536 14.328 14.3545 16.1112 15.5961 16.1569H28.2185C29.4611 16.1107 29.4602 14.3274 28.2185 14.2819Z" fill="#FB8500"/>
<path d="M29.156 19.2036C29.156 18.6858 28.7363 18.2661 28.2185 18.2661H15.5961C14.3536 18.3122 14.3545 20.0955 15.5961 20.1411H28.2185C28.7363 20.1411 29.156 19.7214 29.156 19.2036Z" fill="#FB8500"/>
<path fill-rule="evenodd" clip-rule="evenodd" d="M22.5937 23.7196H43.2188C44.25 23.7196 45.0937 24.5642 45.0937 25.5946V37.7821C45.0937 38.812 44.2488 39.657 43.2188 39.657C35.0126 39.657 30.8 39.657 22.5937 39.657C21.5636 39.657 20.7187 38.8133 20.7187 37.7821V33.5633L18.8438 31.6883L20.7187 29.8133V25.5946C20.7187 24.5634 21.5626 23.7196 22.5937 23.7196Z" fill="#E2C4FF"/>
<path d="M32.5488 27.4695C30.998 27.4695 29.7363 28.7312 29.7363 30.282V34.9695C29.7825 36.212 31.5657 36.2111 31.6113 34.9695V33.5631H33.4863V34.9695C33.5325 36.212 35.3157 36.2111 35.3613 34.9695V30.282C35.3613 28.7312 34.0996 27.4695 32.5488 27.4695ZM33.4863 31.6881H31.6113V30.282C31.6586 29.0397 33.4395 29.0405 33.4863 30.282V31.6881Z" fill="#FB8500"/>
<path d="M41.5317 34.5502L40.1007 31.6882L41.5317 28.8263C41.7632 28.3631 41.5755 27.8 41.1124 27.5684C40.6491 27.3369 40.0861 27.5246 39.8546 27.9877L39.0525 29.5918L38.2505 27.9877C38.019 27.5246 37.456 27.3369 36.9927 27.5684C36.5295 27.8 36.3418 28.3631 36.5734 28.8263L38.0043 31.6882L36.5733 34.5502C36.3417 35.0133 36.5294 35.5765 36.9926 35.808C37.4457 36.0375 38.0179 35.8565 38.2504 35.3888L39.0525 33.7845L39.8547 35.3888C40.0871 35.8566 40.6592 36.0375 41.1125 35.808C41.5755 35.5765 41.7632 35.0133 41.5317 34.5502Z" fill="#FB8500"/>
<path d="M27.9316 27.4695H24.6503C23.4078 27.5156 23.4087 29.2988 24.6503 29.3445H25.3534V34.9695C25.3996 36.212 27.1828 36.2111 27.2284 34.9695V29.3445H27.9316C29.1741 29.2984 29.1732 27.5151 27.9316 27.4695Z" fill="#FB8500"/>
</g>
<defs>
<clipPath id="clip0_5599_15190">
<rect width="48" height="48" fill="white" transform="translate(0 0.68811)"/>
</clipPath>
</defs>
</svg>
