<svg width="33" height="32" viewBox="0 0 33 32" fill="none" xmlns="http://www.w3.org/2000/svg">
<path d="M31.828 26.6748L25.9121 23.6995L25.9125 17.2079H32.1079V14.0548C32.1079 10.38 29.1183 7.39044 25.4439 7.39044C21.7695 7.39044 18.7795 10.38 18.7795 14.0548V17.2079H24.9754L24.975 23.2287L16.5486 18.9898C16.5366 18.8695 16.5144 18.7488 16.4755 18.6311C16.3364 18.2105 16.0422 17.8691 15.6464 17.67C15.4237 17.558 15.1759 17.4984 14.9278 17.4946L15.3641 16.6273L14.3168 16.1006L14.6429 15.4518C14.7374 15.4687 14.833 15.4799 14.9286 15.4799C15.5534 15.4799 16.116 15.1332 16.396 14.5758C16.5932 14.1842 16.6261 13.7392 16.4886 13.3228C16.351 12.9064 16.0594 12.5683 15.6677 12.3711L12.9435 11.0011C12.7156 10.8864 12.4611 10.8261 12.2073 10.8261C11.5825 10.8261 11.0203 11.1724 10.7391 11.7305C10.3531 12.4986 10.6342 13.4229 11.3553 13.8629L11.0551 14.46L9.70724 13.7823L7.06434 19.0363L8.41184 19.7143L8.076 20.3815C7.88071 20.3024 7.67156 20.259 7.46166 20.259C6.8372 20.259 6.27496 20.6053 5.99384 21.163C5.5879 21.9719 5.91513 22.9611 6.72325 23.3681L9.44786 24.7381C9.67575 24.8524 9.93026 24.9132 10.1836 24.9132C10.8085 24.9132 11.3711 24.5661 11.6515 24.0083C11.8486 23.617 11.8812 23.1725 11.7437 22.7557C11.6571 22.4929 11.503 22.2669 11.3074 22.0825L11.6732 21.3553L12.7212 21.8823L13.1601 21.0094C13.3078 21.2031 13.4952 21.3703 13.7269 21.4865C13.9608 21.6042 14.2111 21.6638 14.4709 21.6638C14.7801 21.6638 15.0736 21.5783 15.3266 21.4265L24.975 26.2787V29.88H20.1221V28.6967H18.8631V26.5905C18.8631 26.0208 18.3998 25.5575 17.8301 25.5575H4.01926V4.09984H21.8553C22.0862 5.88102 23.6099 7.26225 25.4529 7.26225C27.4552 7.26225 29.0842 5.63363 29.0842 3.63131C29.0842 1.62899 27.4552 0 25.4529 0C23.6099 0 22.087 1.38161 21.8553 3.16278H3.08219V25.5575H2.24033C1.6706 25.5575 1.20731 26.0208 1.20731 26.5905V28.6967H0V32H20.1221V30.817H25.9121V26.7498L30.6038 29.1093C30.7991 29.2079 31.0078 29.2548 31.2132 29.2548C31.7121 29.2548 32.1934 28.98 32.4333 28.5047C32.7703 27.8334 32.4989 27.0126 31.828 26.6748ZM31.1709 14.0545V16.2704H29.5648V14.1182H28.6277V16.2704H25.9125V15.0755L27.6906 13.0042V11.2275H28.7094V9.35565C30.1952 10.3913 31.1709 12.1099 31.1709 14.0545ZM23.1155 10.2905V8.82677C23.2932 8.74768 23.4746 8.67647 23.6612 8.615L24.9754 11.9127V13.6369L24.1343 12.6571V10.2905H23.1155ZM27.2251 8.61462C27.4121 8.67609 27.5943 8.74731 27.7723 8.82677V10.2905H26.7536V12.6571L25.9125 13.6369V11.9123L27.2251 8.61462ZM26.3026 8.39872L25.4435 10.5566L24.5837 8.39909C24.8652 8.35637 25.1508 8.3275 25.4439 8.3275C25.7363 8.32713 26.0215 8.35637 26.3026 8.39872ZM22.6496 16.2704V14.1182H21.7125V16.2704H19.7166V14.0545C19.7166 12.1099 20.6926 10.3913 22.1784 9.35565V11.2275H23.1972V13.0042L24.9754 15.0755V16.2704H22.6496ZM25.4529 0.937439C26.9384 0.937439 28.1472 2.14625 28.1472 3.63169C28.1472 5.11712 26.9384 6.32556 25.4529 6.32556C23.9675 6.32556 22.7587 5.11712 22.7587 3.63169C22.7587 2.14588 23.9675 0.937439 25.4529 0.937439ZM2.14438 28.0643H14.4023V27.1273H2.14438V26.5905C2.14438 26.5377 2.18748 26.4946 2.24033 26.4946H17.8301C17.8829 26.4946 17.926 26.5377 17.926 26.5905V28.6967H2.14438V28.0643ZM19.1851 31.0629H0.937065V29.6337H19.1851V31.0629ZM11.5757 12.1511C11.6964 11.9112 11.9382 11.7624 12.207 11.7624C12.3168 11.7624 12.4228 11.7875 12.5222 11.8377L15.246 13.2077C15.4143 13.2924 15.5395 13.4375 15.5984 13.6159C15.6572 13.7947 15.6434 13.9855 15.5583 14.1542C15.3888 14.4915 14.954 14.6384 14.613 14.4671L11.8887 13.0968C11.5416 12.9225 11.4011 12.4982 11.5757 12.1511ZM12.186 14.2955L13.7733 15.0942L13.4791 15.6793L11.8913 14.881L12.186 14.2955ZM10.8141 23.587C10.6443 23.9248 10.2095 24.0721 9.86841 23.9004L7.14455 22.5308C6.79746 22.3557 6.65691 21.9307 6.8312 21.584C6.95189 21.3445 7.19328 21.196 7.46203 21.196C7.57185 21.196 7.67831 21.2211 7.77801 21.2717L10.5022 22.6417C10.6702 22.7261 10.7954 22.8707 10.8542 23.0499C10.9131 23.228 10.8988 23.4184 10.8141 23.587ZM10.5041 21.5933L8.91636 20.795L9.24845 20.1349L10.8358 20.9333L10.5041 21.5933ZM12.3048 20.6233L8.32188 18.6198L10.1229 15.0399L14.1058 17.0426L12.3048 20.6233ZM14.1482 20.6495C13.7928 20.4704 13.6493 20.0367 13.8277 19.6814L14.0496 19.2402L14.2572 18.8271C14.3806 18.5824 14.6276 18.4298 14.9027 18.4298C15.0151 18.4298 15.1238 18.4557 15.225 18.5066C15.3971 18.5932 15.5253 18.7417 15.5856 18.9246C15.646 19.1075 15.6317 19.3028 15.5451 19.4748L15.1156 20.3283C14.9424 20.6746 14.4983 20.8246 14.1482 20.6495ZM31.5959 28.0834C31.4902 28.2937 31.2346 28.3784 31.0247 28.2724L15.9766 20.7035L16.3589 19.9434L31.407 27.5118C31.6166 27.6175 31.7013 27.8739 31.5959 28.0834Z" fill="#00C3B7"/>
</svg>
