<svg width="48" height="49" viewBox="0 0 48 49" fill="none" xmlns="http://www.w3.org/2000/svg">
<path fill-rule="evenodd" clip-rule="evenodd" d="M24.0459 33.7375C29.2046 33.7375 33.4121 29.53 33.4121 24.3713C32.933 11.9643 15.1569 11.9678 14.6797 24.3714C14.6797 29.53 18.8872 33.7375 24.0459 33.7375Z" fill="#B2F0FB"/>
<path d="M40.9902 7.42691C22.5984 -10.3933 -6.79237 8.27156 1.46376 32.4897C2.29323 34.7985 3.46757 36.9551 4.95848 38.9093L1.07956 42.548C0.435444 43.1523 0.0726901 43.9816 0.0582661 44.8832C0.0435612 45.8065 0.407907 46.709 1.05811 47.3591C1.70784 48.0092 2.61178 48.3738 3.53398 48.3588C4.43576 48.3445 5.26513 47.9818 5.86935 47.3377L9.50822 43.4586C18.6987 50.6768 32.8612 49.7736 40.9901 41.3362C50.2916 32.4118 50.2922 16.3514 40.9902 7.42691ZM40.455 39.1653C38.4359 37.2659 36.1401 35.7538 33.6089 34.6549C36.151 32.2894 37.8179 28.9952 38.0638 25.3183H46.1201C45.8978 30.6297 43.792 35.4627 40.455 39.1653ZM11.87 24.3713C11.87 17.6574 17.3322 12.1952 24.0461 12.1952C40.1772 12.8073 40.1728 35.9377 24.0459 36.5473C17.3322 36.5473 11.87 31.0851 11.87 24.3713ZM10.027 23.445H1.95071C2.17325 18.1336 4.27896 13.3007 7.61596 9.598C9.63485 11.4972 11.9304 13.0093 14.4613 14.1081C11.9269 16.4767 10.2674 19.7704 10.027 23.445ZM31.9432 12.7569C30.9782 8.39875 30.0388 5.39716 27.8488 2.6065C32.1729 3.36151 36.0691 5.3774 39.1434 8.26013C37.0499 10.2225 34.6345 11.7346 31.9514 12.7623C31.9486 12.7605 31.9458 12.7586 31.9432 12.7569ZM29.7494 11.532C26.2971 9.9276 21.7675 9.9321 18.3189 11.5428C21.3533 -0.561815 26.7118 -0.569307 29.7494 11.532ZM19.0777 4.24727C17.8497 6.3468 16.8316 9.28648 16.1262 12.7647C13.4406 11.7372 11.0232 10.2242 8.92779 8.26004C12.0021 5.3774 15.8983 3.36141 20.2223 2.6064C19.8414 3.05645 19.4576 3.59772 19.0777 4.24727ZM24.0461 38.4206C26.0776 38.4206 28.0099 37.9871 29.7552 37.2078C26.7173 49.3446 21.3452 49.3286 18.3131 37.1971C20.0647 37.9831 22.0053 38.4206 24.0461 38.4206ZM28.9949 44.5133C30.2223 42.414 31.2398 39.4753 31.9448 35.9986C34.6304 37.0262 37.0478 38.5391 39.1432 40.5033C36.0689 43.3859 32.1727 45.4019 27.8487 46.1569C28.2302 45.7063 28.6145 45.1641 28.9949 44.5133ZM38.0653 23.445C37.8247 19.7671 36.1625 16.4707 33.6242 14.1018C36.1495 13.0033 38.4402 11.4934 40.4551 9.598C43.792 13.3007 45.8978 18.1335 46.1203 23.4449H38.0653V23.445ZM1.95118 25.3183H10.0284C10.2402 28.4844 11.5055 31.3667 13.4759 33.6167L12.1401 34.9525L11.3472 34.1596C10.9896 33.8021 10.4128 33.7928 10.0441 34.1388L6.3327 37.6202C3.67569 34.0679 2.14113 29.7573 1.95118 25.3183ZM4.5031 46.0561C4.24899 46.327 3.8942 46.4796 3.5041 46.4858C3.08477 46.4929 2.67622 46.3281 2.38277 46.0347C2.08924 45.7411 1.92467 45.3323 1.93132 44.9131C1.9376 44.5232 2.09027 44.1684 2.36123 43.9142L10.6641 36.1257L12.2917 37.7532L4.5031 46.0561ZM14.2786 38.3733C14.6245 38.0044 14.6153 37.4277 14.2578 37.0702L13.4649 36.2772L14.8007 34.9414C15.2192 35.3079 15.6596 35.6501 16.1196 35.9655C17.0836 40.3381 18.0232 43.3507 20.2183 46.152C16.815 45.5532 13.5748 44.1623 10.7972 42.0846L14.2786 38.3733Z" fill="#FB8500"/>
<path d="M26.8558 19.5044C26.408 19.2458 25.8351 19.3993 25.5764 19.8472L20.8932 27.9586C20.6346 28.4066 20.7881 28.9794 21.2361 29.2381C21.6761 29.4944 22.2554 29.3474 22.5155 28.8952L27.1986 20.7838C27.4573 20.3358 27.3038 19.763 26.8558 19.5044Z" fill="#FB8500"/>
<path d="M21.705 21.2522C22.9464 21.2061 22.9454 19.4245 21.705 19.3789H21.7043C20.4628 19.4251 20.4646 21.2067 21.705 21.2522Z" fill="#FB8500"/>
<path d="M26.3877 27.4902H26.387C25.8697 27.4902 25.4507 27.9096 25.4507 28.4269C25.4967 29.6678 27.2785 29.6677 27.3242 28.4269C27.3243 27.9096 26.905 27.4902 26.3877 27.4902Z" fill="#FB8500"/>
</svg>
