<svg width="27" height="32" viewBox="0 0 27 32" fill="none" xmlns="http://www.w3.org/2000/svg">
<path d="M2.96837 12.3789H8.75379C8.80504 12.3789 8.85578 12.3688 8.90313 12.3492C8.95048 12.3296 8.9935 12.3008 9.02973 12.2646C9.06597 12.2283 9.09472 12.1853 9.11433 12.138C9.13394 12.0906 9.14403 12.0399 9.14403 11.9886C9.14403 11.9374 9.13394 11.8866 9.11433 11.8393C9.09472 11.7919 9.06597 11.7489 9.02973 11.7127C8.9935 11.6765 8.95048 11.6477 8.90313 11.6281C8.85578 11.6085 8.80504 11.5984 8.75379 11.5984H2.96837C2.86487 11.5984 2.76561 11.6395 2.69242 11.7127C2.61924 11.7859 2.57812 11.8851 2.57812 11.9886C2.57812 12.0921 2.61924 12.1914 2.69242 12.2646C2.76561 12.3378 2.86487 12.3789 2.96837 12.3789Z" fill="#00C3B7"/>
<path d="M13.1647 17.4768H16.8949C16.9984 17.4768 17.0976 17.4357 17.1708 17.3625C17.244 17.2893 17.2851 17.19 17.2851 17.0865C17.2851 16.983 17.244 16.8838 17.1708 16.8106C17.0976 16.7374 16.9984 16.6963 16.8949 16.6963H13.1647C13.0612 16.6963 12.9619 16.7374 12.8887 16.8106C12.8155 16.8838 12.7744 16.983 12.7744 17.0865C12.7744 17.19 12.8155 17.2893 12.8887 17.3625C12.9619 17.4357 13.0612 17.4768 13.1647 17.4768Z" fill="#00C3B7"/>
<path d="M2.96837 15.4177H8.75379C8.85729 15.4177 8.95655 15.3766 9.02973 15.3034C9.10292 15.2302 9.14403 15.1309 9.14403 15.0275C9.14403 14.924 9.10292 14.8247 9.02973 14.7515C8.95655 14.6783 8.85729 14.6372 8.75379 14.6372H2.96837C2.86487 14.6372 2.76561 14.6783 2.69242 14.7515C2.61924 14.8247 2.57812 14.924 2.57812 15.0275C2.57812 15.1309 2.61924 15.2302 2.69242 15.3034C2.76561 15.3766 2.86487 15.4177 2.96837 15.4177Z" fill="#00C3B7"/>
<path d="M2.96837 18.4566H8.75379C8.85729 18.4566 8.95655 18.4155 9.02973 18.3423C9.10292 18.2691 9.14403 18.1699 9.14403 18.0664C9.14403 17.9629 9.10292 17.8636 9.02973 17.7904C8.95655 17.7173 8.85729 17.6761 8.75379 17.6761H2.96837C2.86487 17.6761 2.76561 17.7173 2.69242 17.7904C2.61924 17.8636 2.57812 17.9629 2.57812 18.0664C2.57812 18.1699 2.61924 18.2691 2.69242 18.3423C2.76561 18.4155 2.86487 18.4566 2.96837 18.4566Z" fill="#00C3B7"/>
<path d="M2.96837 21.4959H8.75379C8.85729 21.4959 8.95655 21.4548 9.02973 21.3816C9.10292 21.3085 9.14403 21.2092 9.14403 21.1057C9.14403 21.0022 9.10292 20.9029 9.02973 20.8298C8.95655 20.7566 8.85729 20.7155 8.75379 20.7155H2.96837C2.86487 20.7155 2.76561 20.7566 2.69242 20.8298C2.61924 20.9029 2.57812 21.0022 2.57812 21.1057C2.57812 21.2092 2.61924 21.3085 2.69242 21.3816C2.76561 21.4548 2.86487 21.4959 2.96837 21.4959Z" fill="#00C3B7"/>
<path d="M2.96837 24.5345H8.75379C8.85729 24.5345 8.95655 24.4934 9.02973 24.4202C9.10292 24.347 9.14403 24.2478 9.14403 24.1443C9.14403 24.0408 9.10292 23.9415 9.02973 23.8683C8.95655 23.7951 8.85729 23.754 8.75379 23.754H2.96837C2.86487 23.754 2.76561 23.7951 2.69242 23.8683C2.61924 23.9415 2.57813 24.0408 2.57812 24.1443C2.57813 24.2478 2.61924 24.347 2.69242 24.4202C2.76561 24.4934 2.86487 24.5345 2.96837 24.5345Z" fill="#00C3B7"/>
<path d="M13.1647 14.4991H16.8949C16.9984 14.4991 17.0976 14.458 17.1708 14.3848C17.244 14.3116 17.2851 14.2124 17.2851 14.1089C17.2851 14.0054 17.244 13.9061 17.1708 13.8329C17.0976 13.7597 16.9984 13.7186 16.8949 13.7186H13.1647C13.0612 13.7186 12.9619 13.7597 12.8887 13.8329C12.8155 13.9061 12.7744 14.0054 12.7744 14.1089C12.7744 14.2124 12.8155 14.3116 12.8887 14.3848C12.9619 14.458 13.0612 14.4991 13.1647 14.4991Z" fill="#00C3B7"/>
<path d="M13.1647 11.5216H16.8949C16.9984 11.5216 17.0976 11.4805 17.1708 11.4073C17.244 11.3341 17.2851 11.2348 17.2851 11.1313C17.2851 11.0278 17.244 10.9286 17.1708 10.8554C17.0976 10.7822 16.9984 10.7411 16.8949 10.7411H13.1647C13.0612 10.7411 12.9619 10.7822 12.8887 10.8554C12.8155 10.9286 12.7744 11.0278 12.7744 11.1313C12.7744 11.2348 12.8155 11.3341 12.8887 11.4073C12.9619 11.4805 13.0612 11.5216 13.1647 11.5216Z" fill="#00C3B7"/>
<path d="M2.96837 9.33981H8.75379C8.85729 9.33981 8.95655 9.2987 9.02973 9.22551C9.10292 9.15233 9.14403 9.05307 9.14403 8.94957C9.14403 8.84607 9.10292 8.74681 9.02973 8.67363C8.95655 8.60044 8.85729 8.55933 8.75379 8.55933H2.96837C2.86487 8.55933 2.76561 8.60044 2.69242 8.67363C2.61924 8.74681 2.57812 8.84607 2.57812 8.94957C2.57812 9.05307 2.61924 9.15233 2.69242 9.22551C2.76561 9.2987 2.86487 9.33981 2.96837 9.33981Z" fill="#00C3B7"/>
<path d="M23.1937 23.7905L21.0615 20.9293C21.1495 20.7221 21.1669 20.4916 21.1108 20.2736C21.0547 20.0555 20.9284 19.862 20.7514 19.7229C20.5743 19.5838 20.3564 19.5069 20.1312 19.5041C19.9061 19.5013 19.6863 19.5727 19.5058 19.7072L17.2646 21.3775C17.0829 21.5114 16.9505 21.7017 16.8881 21.9187C16.8258 22.1357 16.8369 22.3672 16.9198 22.5772C17.0026 22.7872 17.1526 22.9639 17.3463 23.0798C17.5401 23.1958 17.7667 23.2444 17.9909 23.2181L18.3681 23.7243L14.0141 26.9688C13.8772 27.071 13.7863 27.2233 13.7616 27.3924C13.737 27.5614 13.7804 27.7334 13.8825 27.8704L14.4899 28.6855C14.5921 28.8223 14.7445 28.9131 14.9135 28.9377C15.0825 28.9624 15.2544 28.919 15.3915 28.8171L19.7454 25.5726L20.1227 26.0785C20.0882 26.1591 20.0642 26.2438 20.0511 26.3305C20.0119 26.5996 20.0811 26.8734 20.2436 27.0915C20.4061 27.3095 20.6486 27.4541 20.9177 27.4934C20.9675 27.5007 21.0178 27.5043 21.0681 27.5044C21.2883 27.5044 21.5025 27.433 21.6786 27.301L23.9199 25.6308C24.1006 25.4964 24.2319 25.3062 24.2937 25.0896C24.3554 24.8731 24.3441 24.6422 24.2614 24.4327C24.1788 24.2232 24.0294 24.0468 23.8364 23.9308C23.6434 23.8147 23.4176 23.7655 23.1938 23.7907L23.1937 23.7905ZM20.6641 25.4989L18.7012 22.8648L20.5201 21.5092L22.4831 24.1433L20.6641 25.4989ZM17.6809 22.3461C17.6422 22.294 17.6257 22.2287 17.635 22.1644C17.6444 22.1001 17.6789 22.0422 17.7309 22.0034L19.9722 20.3331C19.998 20.3132 20.0274 20.2987 20.0589 20.2903C20.0903 20.2819 20.1231 20.2799 20.1553 20.2843C20.1876 20.2887 20.2186 20.2995 20.2466 20.3161C20.2746 20.3326 20.2991 20.3546 20.3185 20.3807C20.338 20.4067 20.352 20.4364 20.3598 20.468C20.3677 20.4996 20.3691 20.5324 20.3641 20.5646C20.3592 20.5967 20.3478 20.6276 20.3308 20.6553C20.3137 20.683 20.2914 20.7071 20.2649 20.726L18.0237 22.3962C17.9716 22.435 17.9062 22.4514 17.842 22.4421C17.7777 22.4327 17.7198 22.3982 17.6809 22.3461ZM15.0344 28.1097L14.5897 27.5131L14.9827 27.2204L15.4273 27.8171L15.0344 28.1097ZM16.0531 27.3505L15.6085 26.7539L18.8345 24.3499L19.2791 24.9466L16.0531 27.3505ZM23.5036 24.662C23.5228 24.6878 23.5367 24.7171 23.5446 24.7483C23.5525 24.7795 23.5542 24.8119 23.5495 24.8437C23.5449 24.8756 23.534 24.9062 23.5175 24.9338C23.5011 24.9614 23.4793 24.9855 23.4535 25.0047L21.2122 26.675C21.1601 26.7124 21.0953 26.7279 21.0318 26.7181C20.9683 26.7082 20.9112 26.6738 20.8729 26.6223C20.8345 26.5708 20.8179 26.5063 20.8266 26.4426C20.8353 26.379 20.8687 26.3213 20.9196 26.2821L23.1609 24.6119C23.213 24.5731 23.2784 24.5566 23.3426 24.566C23.4069 24.5754 23.4648 24.61 23.5037 24.662H23.5036Z" fill="#00C3B7"/>
<path d="M19.2534 17.6757V8.1183C19.2534 8.0148 19.2123 7.91554 19.1391 7.84235C19.0659 7.76917 18.9666 7.72805 18.8631 7.72805H11.7221V5.53417C11.7221 5.43067 11.681 5.33141 11.6078 5.25823C11.5346 5.18504 11.4354 5.14393 11.3319 5.14393H10.1807V2.53164C10.1807 2.42814 10.1396 2.32888 10.0664 2.25569C9.99318 2.18251 9.89392 2.1414 9.79043 2.1414H6.58393V0.390243C6.58393 0.286744 6.54281 0.187484 6.46963 0.1143C6.39644 0.0411148 6.29718 0 6.19368 0C6.09018 0 5.99092 0.0411148 5.91774 0.1143C5.84455 0.187484 5.80344 0.286744 5.80344 0.390243V2.1414H1.9317C1.82821 2.1414 1.72895 2.18251 1.65576 2.25569C1.58258 2.32888 1.54146 2.42814 1.54146 2.53164V5.14393H0.390243C0.286744 5.14393 0.187484 5.18504 0.1143 5.25823C0.0411148 5.33141 0 5.43067 0 5.53417V27.0963C0 27.1998 0.0411148 27.299 0.1143 27.3722C0.187484 27.4454 0.286744 27.4865 0.390243 27.4865H12.3925C12.8707 28.6875 13.665 29.7367 14.6912 30.5229C15.7174 31.3091 16.9371 31.803 18.2212 31.9521C19.5053 32.1013 20.8058 31.9002 21.9849 31.3703C23.1639 30.8403 24.1776 30.0011 24.9185 28.9417C25.6593 27.8824 26.0997 26.6423 26.1929 25.3529C26.2861 24.0636 26.0287 22.773 25.4479 21.6181C24.8672 20.4632 23.9848 19.487 22.8942 18.7929C21.8036 18.0988 20.5455 17.7128 19.2534 17.6757ZM2.32195 2.92188H9.40012V5.14393H2.32195V2.92188ZM10.9416 26.706H0.780487V5.92441H10.9416V26.706ZM11.7221 26.706V8.50854H18.4729V17.6956C17.4247 17.7802 16.408 18.0944 15.4949 18.616C14.5818 19.1376 13.7947 19.8539 13.1895 20.7139C12.5843 21.5739 12.1759 22.5565 11.9931 23.5921C11.8104 24.6277 11.8579 25.6909 12.1322 26.706H11.7221ZM19.0478 31.2195C17.7854 31.2195 16.5512 30.8452 15.5015 30.1438C14.4517 29.4424 13.6335 28.4455 13.1504 27.2791C12.6672 26.1128 12.5408 24.8293 12.7871 23.5911C13.0333 22.3528 13.6413 21.2154 14.534 20.3227C15.4267 19.43 16.564 18.822 17.8023 18.5757C19.0405 18.3294 20.324 18.4558 21.4904 18.9389C22.6567 19.422 23.6537 20.2402 24.3551 21.2899C25.0565 22.3396 25.4309 23.5738 25.4309 24.8363C25.4289 26.5286 24.7558 28.151 23.5592 29.3477C22.3626 30.5444 20.7402 31.2175 19.0478 31.2195Z" fill="#00C3B7"/>
</svg>
