<svg width="48" height="49" viewBox="0 0 48 49" fill="none" xmlns="http://www.w3.org/2000/svg">
<g clip-path="url(#clip0_5599_15295)">
<path fill-rule="evenodd" clip-rule="evenodd" d="M14.6225 22.1791H33.3771C34.4087 22.1791 35.2526 23.0244 35.2526 24.0573V35.3267C35.2526 36.3596 34.4086 37.2049 33.3771 37.2049H14.6225C13.5911 37.2049 12.7471 36.3597 12.7471 35.3267V24.0573C12.7471 23.0242 13.591 22.1791 14.6225 22.1791Z" fill="#FFF69B"/>
<path d="M47.0682 44.2482L47.0682 41.4309C47.0682 40.9122 46.6482 40.4918 46.1304 40.4918H45.1831L44.7338 18.8921H46.1303C46.6481 18.8921 47.0681 18.4716 47.0681 17.953V14.1965C48.3109 14.1503 48.31 12.364 47.0681 12.3183H46.3209L24.3658 3.00157C24.1319 2.90231 23.8679 2.90231 23.6341 3.00157L1.67889 12.3184H0.9318C-0.311069 12.3646 -0.310131 14.1509 0.9318 14.1966H0.931893V17.9531C0.931893 18.4717 1.35181 18.8922 1.86962 18.8922H3.26619L2.81683 40.4919H1.86962C1.35181 40.4919 0.931893 40.9123 0.931893 41.431V44.2483H0.9318C-0.311069 44.2945 -0.310131 46.0808 0.9318 46.1266H47.0682C48.311 46.0803 48.3101 44.294 47.0682 44.2482ZM43.3072 40.4919H39.5762L40.0256 18.8922H42.8579L43.3072 40.4919ZM10.2996 40.4919L9.85028 18.8922H38.1497L37.7003 40.4919H10.2996ZM24 4.88619L41.514 12.3184H33.4854L24.3658 8.44845C24.1319 8.34919 23.8679 8.34919 23.6341 8.44845L14.5146 12.3184H6.48598L24 4.88619ZM28.6782 12.3184H19.3217L24 10.3332L28.6782 12.3184ZM2.80736 14.1966H45.1927V17.0139H2.80736V14.1966ZM5.14212 18.8921H7.97444L8.4238 40.4918H4.69276L5.14212 18.8921ZM2.80736 42.3701H45.1927V44.2483H2.80736V42.3701Z" fill="#FB8500"/>
<path d="M23.8767 25.9355C22.3255 25.9355 21.0635 27.1979 21.0635 28.7495V32.5015C21.1096 33.7447 22.8933 33.7438 22.9389 32.5015V31.5634H24.8144V32.5015C24.8605 33.7447 26.6442 33.7438 26.6899 32.5015V28.7495C26.6899 27.1979 25.4279 25.9355 23.8767 25.9355ZM24.8144 29.6874H22.9389V28.7495C22.9862 27.5066 24.7675 27.5075 24.8144 28.7495V29.6874Z" fill="#FB8500"/>
<path d="M31.4682 29.6875L32.8336 27.3462C33.4221 26.2516 31.8756 25.3504 31.2137 26.401L30.3827 27.8261L29.5516 26.401C29.2909 25.9535 28.717 25.8022 28.2691 26.0634C27.8217 26.3244 27.6707 26.8987 27.9316 27.3462L29.2971 29.6875L27.9316 32.0288C27.6707 32.4764 27.8217 33.0507 28.2691 33.3116C28.7087 33.5702 29.2892 33.4256 29.5516 32.9741L30.3827 31.549L31.2137 32.9741C31.4762 33.4257 32.0565 33.5702 32.4962 33.3116C32.9436 33.0506 33.0947 32.4763 32.8337 32.0288L31.4682 29.6875Z" fill="#FB8500"/>
<path d="M19.2587 25.9355H15.9767C14.7339 25.9817 14.7348 27.7659 15.9767 27.8115H16.6799V32.5015C16.7261 33.7447 18.5097 33.7438 18.5554 32.5015V27.8115H19.2587C20.5016 27.7654 20.5006 25.9812 19.2587 25.9355Z" fill="#FB8500"/>
</g>
<defs>
<clipPath id="clip0_5599_15295">
<rect width="48" height="48.0709" fill="white" transform="translate(0 0.491333)"/>
</clipPath>
</defs>
</svg>
