<svg width="32" height="31" viewBox="0 0 32 31" fill="none" xmlns="http://www.w3.org/2000/svg">
<g clip-path="url(#clip0_4956_6645)">
<path d="M16.0234 8.23438C14.5436 8.23438 13.1345 8.70464 11.9482 9.59426L12.4932 10.3208C13.5209 9.55 14.7417 9.14258 16.0234 9.14258C19.2785 9.14258 21.9267 11.7908 21.9267 15.0459V15.9541H22.8349V15.0459C22.8349 11.29 19.7793 8.23438 16.0234 8.23438Z" fill="#FB8500"/>
<path d="M9.21191 15.0459V24.582H10.1201V15.0459C10.1201 13.4838 10.7295 12.0091 11.8361 10.8934L11.1913 10.2539C9.9148 11.5408 9.21191 13.2427 9.21191 15.0459Z" fill="#FB8500"/>
<path d="M21.9273 16.8633V17.7715C21.9273 21.0266 19.2791 23.6748 16.0239 23.6748C14.428 23.6748 12.9306 23.0425 11.8075 21.8942L11.1582 22.5293C12.4536 23.8537 14.1816 24.583 16.0239 24.583C18.5442 24.583 20.7493 23.207 21.9273 21.167V24.583H22.8355V16.8633H21.9273Z" fill="#FB8500"/>
<path d="M11.0283 17.7705C11.0283 20.5248 13.2692 22.7656 16.0234 22.7656C18.7777 22.7656 21.0186 20.5248 21.0186 17.7705V15.0459C21.0186 13.9057 20.6202 12.7887 19.8969 11.9005L19.1926 12.474C19.7844 13.2007 20.1104 14.1141 20.1104 15.0459V17.7705C20.1104 20.0241 18.277 21.8574 16.0234 21.8574C13.7699 21.8574 11.9365 20.0241 11.9365 17.7705V15.0459C11.9365 12.7923 13.7699 10.959 16.0234 10.959C16.9551 10.959 17.8685 11.2849 18.5954 11.8767L19.1688 11.1724C18.2804 10.4491 17.1634 10.0508 16.0234 10.0508C13.2691 10.0508 11.0283 12.2916 11.0283 15.0459V17.7705Z" fill="#FB8500"/>
<path d="M17.8783 19.0724L18.6197 19.597C19.0009 19.0583 19.2024 18.4267 19.2024 17.7706V15.046C19.2024 13.2932 17.7764 11.8672 16.0237 11.8672C15.3676 11.8672 14.736 12.0687 14.1972 12.45L14.7217 13.1913C15.1063 12.9193 15.5565 12.7755 16.0237 12.7755C17.2757 12.7755 18.2942 13.794 18.2942 15.046V17.7706C18.2942 18.2377 18.1504 18.6879 17.8783 19.0724Z" fill="#FB8500"/>
<path d="M14.1688 13.7433L13.4274 13.2188C13.0462 13.7576 12.8447 14.3892 12.8447 15.0452V17.7698C12.8447 19.5226 14.2707 20.9485 16.0234 20.9485C16.6795 20.9485 17.311 20.747 17.8499 20.3659L17.3254 19.6244C16.9407 19.8965 16.4906 20.0403 16.0234 20.0403C14.7714 20.0403 13.7529 19.0217 13.7529 17.7698V15.0451C13.7529 14.578 13.8967 14.1279 14.1688 13.7433Z" fill="#FB8500"/>
<path d="M16.0237 14.5919C16.2656 14.5919 16.4778 14.8041 16.4778 15.046H17.386C17.386 14.3075 16.7621 13.6837 16.0237 13.6837C15.2853 13.6837 14.6614 14.3075 14.6614 15.046V17.7706C14.6614 18.509 15.2853 19.1329 16.0237 19.1329C16.7621 19.1329 17.386 18.509 17.386 17.7706V15.9542H16.4778V17.7706C16.4778 18.0125 16.2656 18.2247 16.0237 18.2247C15.7818 18.2247 15.5696 18.0125 15.5696 17.7706V15.046C15.5696 14.804 15.7817 14.5919 16.0237 14.5919Z" fill="#FB8500"/>
<path d="M4.21704 7.26569H3.30884V31.0001H25.1057V30.0919H4.21704V7.26569Z" fill="#FB8500"/>
<path d="M29.647 1.81641H28.7385V0H3.30884V1.81641H2.40039V4.54102H3.30884V6.35742H4.21704V4.54102H6.03344V5.44922H12.3909V4.54102H27.8303V30.0918H26.0139V31H28.7385V4.54102H29.647V1.81641H29.647ZM27.8303 1.81641H12.3909V0.908203H27.8303V1.81641ZM4.21704 0.908203H6.03344V1.81641H4.21704V0.908203ZM3.30859 3.63281V2.72461H6.03344V3.63281H3.30859ZM6.94165 4.54102V0.908203H11.4827V4.54102H6.94165ZM28.7388 3.63281H12.3909V2.72461H28.7388V3.63281H28.7388Z" fill="#FB8500"/>
<path d="M21.9268 29.1826H26.9219V26.0039H21.9268V29.1826ZM22.835 26.9121H26.0137V28.2744H22.835V26.9121Z" fill="#FB8500"/>
<path d="M26.0139 5.44928H26.9221V6.35748H26.0139V5.44928Z" fill="#FB8500"/>
<path d="M26.0139 7.26569H26.9221V8.17389H26.0139V7.26569Z" fill="#FB8500"/>
</g>
<defs>
<clipPath id="clip0_4956_6645">
<rect width="31" height="31" fill="white" transform="translate(0.523438)"/>
</clipPath>
</defs>
</svg>
