<svg width="48" height="49" viewBox="0 0 48 49" fill="none" xmlns="http://www.w3.org/2000/svg">
<path fill-rule="evenodd" clip-rule="evenodd" d="M41.1128 34.3937H13.564V40.1329C13.564 41.1836 14.4262 42.0459 15.477 42.0459H37.4778L44.1737 45.8722V42.0459H46.0868C47.1383 42.0459 47.9998 41.185 47.9998 40.1329V13.3493C47.9998 12.2971 47.1388 11.4363 46.0868 11.4363H43.0258V32.4806C43.0259 33.5317 42.1638 34.3937 41.1128 34.3937Z" fill="#E2C4FF"/>
<path fill-rule="evenodd" clip-rule="evenodd" d="M13.7441 13.9347H20.3079C20.3079 10.3097 17.3692 7.37097 13.7441 7.37097V13.9347Z" fill="#E2C4FF"/>
<path d="M41.1128 2.84656H2.85056C1.27875 2.84656 0 4.12531 0 5.69712V32.4806C0 34.0525 1.27875 35.3312 2.85056 35.3312H3.82622V38.2198C3.82622 38.554 4.00406 38.863 4.29309 39.0307C4.58212 39.1984 4.93866 39.1995 5.22872 39.0338L11.7084 35.3311H41.1128C42.6847 35.3311 43.9633 34.0523 43.9633 32.4805V5.69712C43.9634 4.12531 42.6847 2.84656 41.1128 2.84656ZM42.0884 32.4806C42.0884 33.0095 41.6416 33.4562 41.1128 33.4562H11.4596C11.2965 33.4562 11.1362 33.4988 10.9945 33.5797L5.70122 36.6044V34.3937C5.70122 33.876 5.28141 33.4562 4.76372 33.4562H2.85056C2.31262 33.4562 1.875 33.0185 1.875 32.4806V5.69712C1.875 5.15918 2.31262 4.72156 2.85056 4.72156H41.1128C41.6508 4.72156 42.0884 5.15918 42.0884 5.69712V32.4806Z" fill="#FB8500"/>
<path d="M30.8896 23.8907C29.3178 23.8907 28.0391 25.1696 28.0391 26.7413V30.5674C28.0852 31.81 29.8683 31.8091 29.9141 30.5674V29.5918H31.8653V30.5674C31.9114 31.81 33.6945 31.8091 33.7403 30.5674V26.7413C33.7403 25.1696 32.4615 23.8907 30.8896 23.8907ZM31.8653 27.7169H29.9141V26.7414C29.9632 25.4486 31.8166 25.4496 31.8653 26.7414V27.7169Z" fill="#FB8500"/>
<path d="M39.6722 24.0185C39.2249 23.7575 38.6508 23.9087 38.3899 24.3559L37.5258 25.8374L36.6616 24.3559C36.4008 23.9089 35.8271 23.7578 35.3793 24.0185C34.9321 24.2793 34.781 24.8535 35.0419 25.3007L36.4403 27.6979L35.0419 30.0951C34.781 30.5424 34.9321 31.1165 35.3793 31.3773C35.8188 31.636 36.3992 31.4912 36.6616 31.0399L37.5258 29.5585L38.3899 31.0399C38.6523 31.4912 39.2326 31.6358 39.6722 31.3773C40.1194 31.1165 40.2705 30.5424 40.0096 30.0951L38.6112 27.6979L40.0096 25.3007C40.2705 24.8535 40.1193 24.2793 39.6722 24.0185Z" fill="#FB8500"/>
<path d="M26.179 23.8907H22.831C21.5884 23.9369 21.5894 25.72 22.831 25.7657H23.5674V30.5675C23.6135 31.8101 25.3966 31.8092 25.4424 30.5675V25.7657H26.1789C27.4215 25.7196 27.4206 23.9365 26.179 23.8907Z" fill="#FB8500"/>
<path d="M20.0683 26.7604H17.119L14.6187 22.4296C16.1769 21.2062 17.1796 19.3059 17.1796 17.1757C17.1796 16.658 16.7598 16.2382 16.2421 16.2382H11.4403V11.4364C11.4403 10.9187 11.0205 10.4989 10.5028 10.4989C6.82112 10.4989 3.82599 13.494 3.82599 17.1757C3.75278 21.8249 8.72828 25.1707 12.9963 23.3696L15.7659 28.1666C15.9333 28.4566 16.2429 28.6353 16.5778 28.6353H20.0683C21.3108 28.5892 21.3099 26.8061 20.0683 26.7604ZM5.70099 17.1757C5.70099 14.8488 7.36487 12.9031 9.56527 12.4659V16.7874L6.5109 19.8418C5.99959 19.0786 5.70099 18.1614 5.70099 17.1757ZM7.83681 21.1677L10.8912 18.1132H15.2128C14.6146 21.3957 10.6114 23.0909 7.83681 21.1677Z" fill="#FB8500"/>
<path d="M26.1786 12.3739H38.2431C39.4857 12.3278 39.4848 10.5447 38.2431 10.4989H26.1786C24.9361 10.545 24.937 12.3282 26.1786 12.3739Z" fill="#FB8500"/>
<path d="M26.1786 16.6785H38.2431C39.4857 16.6323 39.4848 14.8492 38.2431 14.8035H26.1786C24.9361 14.8496 24.937 16.6327 26.1786 16.6785Z" fill="#FB8500"/>
<path d="M26.1786 20.9829H32.2109C33.4535 20.9368 33.4525 19.1537 32.2109 19.1079H26.1786C24.9361 19.154 24.937 20.9372 26.1786 20.9829Z" fill="#FB8500"/>
</svg>
