<svg width="32" height="33" viewBox="0 0 32 33" fill="none" xmlns="http://www.w3.org/2000/svg">
<g clip-path="url(#clip0_4956_6491)">
<path d="M3.20288 4.55261H2.28882V32.0964H21.4841V31.1823H3.20288V4.55261Z" fill="#FB8500"/>
<path d="M24.6834 21.9824C26.4474 21.9824 27.8826 20.5472 27.8826 18.7831C27.8826 17.0191 26.4474 15.5839 24.6834 15.5839C22.9193 15.5839 21.4841 17.0191 21.4841 18.7831C21.4841 20.5472 22.9193 21.9824 24.6834 21.9824ZM24.6834 16.4979C25.9434 16.4979 26.9685 17.5231 26.9685 18.7831C26.9685 20.0432 25.9434 21.0683 24.6834 21.0683C23.4233 21.0683 22.3982 20.0432 22.3982 18.7831C22.3982 17.5231 23.4233 16.4979 24.6834 16.4979Z" fill="#FB8500"/>
<path d="M28.3721 22.1926C29.2021 21.2957 29.7107 20.0971 29.7107 18.7816C29.7107 16.1636 27.699 14.0077 25.1404 13.7759V0.896362H2.28882V3.63855H3.20288V1.81042H24.2263V13.7759C21.7426 14.0009 19.7749 16.0391 19.6618 18.5531H15.7954L14.6016 19.1289L13.5866 17.5729L11.8487 18.5912C11.8642 17.8532 11.6431 17.2236 11.2015 16.7925C10.7127 16.3154 10.0193 16.1641 9.29962 16.3774C8.54771 16.6003 7.8214 17.1968 7.1991 18.1026C6.50106 19.1187 5.95738 20.4777 5.58316 22.1416L6.47498 22.3421C7.21653 19.0448 8.55447 17.5517 9.55927 17.2538C9.95829 17.1356 10.3145 17.2042 10.563 17.4467C10.9431 17.8177 11.0378 18.5284 10.8164 19.3479L10.525 20.426L13.2969 18.802L14.275 20.3012L16.0043 19.4671H19.7039C19.847 20.5114 20.3113 21.4543 20.9946 22.1926V30.0811L24.2263 28.71V31.1823H22.3981V32.0964H25.1403V28.71L28.372 30.0811L28.3721 22.1926ZM24.6833 14.6682C26.9514 14.6682 28.7966 16.5135 28.7966 18.7816C28.7966 21.0497 26.9514 22.8949 24.6833 22.8949C22.4153 22.8949 20.5701 21.0497 20.5701 18.7816C20.5701 16.5135 22.4153 14.6682 24.6833 14.6682ZM24.6833 27.5231L21.9087 28.7003V22.9711C22.7045 23.4999 23.6584 23.8089 24.6833 23.8089C25.7083 23.8089 26.6622 23.4999 27.458 22.9711V28.7003L24.6833 27.5231Z" fill="#FB8500"/>
<path d="M22.3982 4.55261H23.3123V5.46667H22.3982V4.55261Z" fill="#FB8500"/>
<path d="M22.3982 2.72449H23.3123V3.63855H22.3982V2.72449Z" fill="#FB8500"/>
<path d="M5.48804 10.7206H13.2575V11.6346H5.48804V10.7206Z" fill="#FB8500"/>
<path d="M14.1716 10.7206H21.9411V11.6346H14.1716V10.7206Z" fill="#FB8500"/>
<path d="M5.48804 12.5487H21.941V13.4628H5.48804V12.5487Z" fill="#FB8500"/>
<path d="M5.94507 6.60736V7.52142H10.5153V8.43543H12.5074C12.8297 8.71952 13.2523 8.89246 13.7147 8.89246C14.1771 8.89246 14.5996 8.71952 14.9219 8.43543H16.914V7.52142H21.4843V6.60736H16.914V7.52142L15.485 7.52136C15.5227 7.37523 15.5428 7.2221 15.5428 7.06433C15.5428 6.90656 15.5227 6.75343 15.485 6.6073L16.914 6.60736V5.69324H14.9219C14.5996 5.40915 14.1771 5.23621 13.7147 5.23621C13.2523 5.23621 12.8297 5.40915 12.5074 5.69324H10.5153V6.6073H11.9444C11.9066 6.75343 11.8865 6.90656 11.8865 7.06433C11.8865 7.2221 11.9066 7.37523 11.9444 7.52136L10.5153 7.52142V6.6073L5.94507 6.60736ZM13.7147 6.15027C14.2187 6.15027 14.6287 6.56032 14.6287 7.06433C14.6287 7.56835 14.2187 7.97839 13.7147 7.97839C13.2106 7.97839 12.8006 7.56835 12.8006 7.06433C12.8006 6.56032 13.2106 6.15027 13.7147 6.15027Z" fill="#FB8500"/>
<path d="M5.94507 26.8417H10.9724V27.7557H5.94507V26.8417Z" fill="#FB8500"/>
<path d="M16.4568 26.8417H20.0806V27.7557H16.4568V26.8417Z" fill="#FB8500"/>
<path d="M16.4568 25.0135H20.0806V25.9276H16.4568V25.0135Z" fill="#FB8500"/>
<path d="M5.94507 25.0135H10.9724V25.9276H5.94507V25.0135Z" fill="#FB8500"/>
</g>
<defs>
<clipPath id="clip0_4956_6491">
<rect width="31.2" height="31.2" fill="white" transform="translate(0.400146 0.896362)"/>
</clipPath>
</defs>
</svg>
