<svg width="48" height="49" viewBox="0 0 48 49" fill="none" xmlns="http://www.w3.org/2000/svg">
<path fill-rule="evenodd" clip-rule="evenodd" d="M24.0459 33.7375C29.2046 33.7375 33.4121 29.53 33.4121 24.3713C32.933 11.9643 15.1569 11.9678 14.6797 24.3714C14.6797 29.53 18.8872 33.7375 24.0459 33.7375Z" fill="#B2F0FB"/>
<path d="M40.9902 7.42704C22.5984 -10.3932 -6.79237 8.27168 1.46376 32.4898C2.29323 34.7986 3.46757 36.9553 4.95848 38.9094L1.07956 42.5481C0.435444 43.1524 0.0726901 43.9817 0.0582661 44.8833C0.0435612 45.8066 0.407907 46.7091 1.05811 47.3593C1.70784 48.0093 2.61178 48.3739 3.53398 48.3589C4.43576 48.3446 5.26513 47.9819 5.86935 47.3378L9.50822 43.4587C18.6987 50.677 32.8612 49.7737 40.9901 41.3363C50.2916 32.4119 50.2922 16.3515 40.9902 7.42704ZM40.455 39.1654C38.4359 37.266 36.1401 35.7539 33.6089 34.655C36.151 32.2895 37.8179 28.9953 38.0638 25.3184H46.1201C45.8978 30.6298 43.792 35.4628 40.455 39.1654ZM11.87 24.3714C11.87 17.6575 17.3322 12.1953 24.0461 12.1953C40.1772 12.8075 40.1728 35.9378 24.0459 36.5475C17.3322 36.5475 11.87 31.0853 11.87 24.3714ZM10.027 23.4451H1.95071C2.17325 18.1337 4.27896 13.3008 7.61596 9.59813C9.63485 11.4973 11.9304 13.0094 14.4613 14.1082C11.9269 16.4768 10.2674 19.7705 10.027 23.4451ZM31.9432 12.757C30.9782 8.39888 30.0388 5.39728 27.8488 2.60662C32.1729 3.36163 36.0691 5.37752 39.1434 8.26026C37.0499 10.2227 34.6345 11.7347 31.9514 12.7624C31.9486 12.7606 31.9458 12.7588 31.9432 12.757ZM29.7494 11.5322C26.2971 9.92772 21.7675 9.93222 18.3189 11.5429C21.3533 -0.561693 26.7118 -0.569185 29.7494 11.5322ZM19.0777 4.24739C17.8497 6.34692 16.8316 9.28661 16.1262 12.7648C13.4406 11.7373 11.0232 10.2244 8.92779 8.26016C12.0021 5.37752 15.8983 3.36154 20.2223 2.60652C19.8414 3.05657 19.4576 3.59785 19.0777 4.24739ZM24.0461 38.4207C26.0776 38.4207 28.0099 37.9872 29.7552 37.208C26.7173 49.3447 21.3452 49.3287 18.3131 37.1972C20.0647 37.9832 22.0053 38.4207 24.0461 38.4207ZM28.9949 44.5134C30.2223 42.4141 31.2398 39.4754 31.9448 35.9987C34.6304 37.0264 37.0478 38.5392 39.1432 40.5034C36.0689 43.386 32.1727 45.402 27.8487 46.157C28.2302 45.7064 28.6145 45.1642 28.9949 44.5134ZM38.0653 23.4451C37.8247 19.7672 36.1625 16.4709 33.6242 14.1019C36.1495 13.0034 38.4402 11.4936 40.4551 9.59813C43.792 13.3008 45.8978 18.1337 46.1203 23.4451H38.0653V23.4451ZM1.95118 25.3184H10.0284C10.2402 28.4845 11.5055 31.3668 13.4759 33.6169L12.1401 34.9527L11.3472 34.1597C10.9896 33.8022 10.4128 33.7929 10.0441 34.1389L6.3327 37.6204C3.67569 34.068 2.14113 29.7574 1.95118 25.3184ZM4.5031 46.0562C4.24899 46.3271 3.8942 46.4797 3.5041 46.486C3.08477 46.4931 2.67622 46.3282 2.38277 46.0348C2.08924 45.7412 1.92467 45.3324 1.93132 44.9133C1.9376 44.5234 2.09027 44.1686 2.36123 43.9144L10.6641 36.1258L12.2917 37.7534L4.5031 46.0562ZM14.2786 38.3734C14.6245 38.0046 14.6153 37.4278 14.2578 37.0703L13.4649 36.2773L14.8007 34.9415C15.2192 35.308 15.6596 35.6502 16.1196 35.9656C17.0836 40.3382 18.0232 43.3508 20.2183 46.1521C16.815 45.5534 13.5748 44.1624 10.7972 42.0848L14.2786 38.3734Z" fill="#FB8500"/>
<path d="M26.8558 19.5045C26.408 19.2459 25.8351 19.3994 25.5764 19.8473L20.8932 27.9587C20.6346 28.4067 20.7881 28.9796 21.2361 29.2382C21.6761 29.4945 22.2554 29.3475 22.5155 28.8954L27.1986 20.7839C27.4573 20.336 27.3038 19.7631 26.8558 19.5045Z" fill="#FB8500"/>
<path d="M21.705 21.2524C22.9464 21.2063 22.9454 19.4248 21.705 19.3792H21.7043C20.4628 19.4253 20.4646 21.207 21.705 21.2524Z" fill="#FB8500"/>
<path d="M26.3877 27.4902H26.387C25.8697 27.4902 25.4507 27.9096 25.4507 28.4269C25.4967 29.6678 27.2785 29.6677 27.3242 28.4269C27.3243 27.9096 26.905 27.4902 26.3877 27.4902Z" fill="#FB8500"/>
</svg>
