<svg width="48" height="49" viewBox="0 0 48 49" fill="none" xmlns="http://www.w3.org/2000/svg">
<g clip-path="url(#clip0_5598_14262)">
<path fill-rule="evenodd" clip-rule="evenodd" d="M14.6225 21.7007H33.3771C34.4087 21.7007 35.2526 22.5457 35.2526 23.5784V34.8446C35.2526 35.8772 34.4086 36.7223 33.3771 36.7223H14.6225C13.5911 36.7223 12.7471 35.8773 12.7471 34.8446V23.5784C12.7471 22.5456 13.591 21.7007 14.6225 21.7007Z" fill="#FFF69B"/>
<path d="M47.0682 43.7636L47.0682 40.947C47.0682 40.4285 46.6482 40.0082 46.1304 40.0082H45.1831L44.7338 18.4146H46.1303C46.6481 18.4146 47.0681 17.9942 47.0681 17.4757V13.7203C48.3109 13.6741 48.31 11.8883 47.0681 11.8426H46.3209L24.3658 2.52853C24.1319 2.42929 23.8679 2.42929 23.6341 2.52853L1.67889 11.8427H0.9318C-0.311069 11.8889 -0.310131 13.6747 0.9318 13.7204H0.931893V17.4758C0.931893 17.9943 1.35181 18.4147 1.86962 18.4147H3.26619L2.81683 40.0082H1.86962C1.35181 40.0082 0.931893 40.4286 0.931893 40.9471V43.7637H0.9318C-0.311069 43.8098 -0.310131 45.5956 0.9318 45.6414H47.0682C48.311 45.5951 48.3101 43.8093 47.0682 43.7636ZM43.3072 40.0082H39.5762L40.0256 18.4147H42.8579L43.3072 40.0082ZM10.2996 40.0082L9.85028 18.4147H38.1497L37.7003 40.0082H10.2996ZM24 4.41262L41.514 11.8427H33.4854L24.3658 7.97387C24.1319 7.87463 23.8679 7.87463 23.6341 7.97387L14.5146 11.8427H6.48598L24 4.41262ZM28.6782 11.8427H19.3217L24 9.85805L28.6782 11.8427ZM2.80736 13.7204H45.1927V16.5369H2.80736V13.7204ZM5.14212 18.4146H7.97444L8.4238 40.0082H4.69276L5.14212 18.4146ZM2.80736 41.8859H45.1927V43.7637H2.80736V41.8859Z" fill="#FB8500"/>
<path d="M23.8767 25.4561C22.3255 25.4561 21.0635 26.7181 21.0635 28.2692V32.0202C21.1096 33.263 22.8933 33.2621 22.9389 32.0202V31.0823H24.8144V32.0202C24.8605 33.263 26.6442 33.2621 26.6899 32.0202V28.2692C26.6899 26.7181 25.4279 25.4561 23.8767 25.4561ZM24.8144 29.2069H22.9389V28.2692C22.9862 27.0267 24.7675 27.0276 24.8144 28.2692V29.2069Z" fill="#FB8500"/>
<path d="M31.4682 29.2068L32.8336 26.8662C33.4221 25.7719 31.8756 24.871 31.2137 25.9212L30.3827 27.3459L29.5516 25.9212C29.2909 25.4739 28.717 25.3227 28.2691 25.5837C27.8217 25.8447 27.6707 26.4189 27.9316 26.8662L29.2971 29.2068L27.9316 31.5475C27.6707 31.9949 27.8217 32.5691 28.2691 32.8299C28.7087 33.0885 29.2892 32.9439 29.5516 32.4925L30.3827 31.0678L31.2137 32.4925C31.4762 32.944 32.0565 33.0885 32.4962 32.8299C32.9436 32.569 33.0947 31.9948 32.8337 31.5475L31.4682 29.2068Z" fill="#FB8500"/>
<path d="M19.2587 25.4561H15.9767C14.7339 25.5022 14.7348 27.2858 15.9767 27.3315H16.6799V32.0202C16.7261 33.263 18.5097 33.2621 18.5554 32.0202V27.3315H19.2587C20.5016 27.2854 20.5006 25.5017 19.2587 25.4561Z" fill="#FB8500"/>
</g>
<defs>
<clipPath id="clip0_5598_14262">
<rect width="48" height="48.0574" fill="white" transform="translate(0 0.019043)"/>
</clipPath>
</defs>
</svg>
