<svg width="48" height="49" viewBox="0 0 48 49" fill="none" xmlns="http://www.w3.org/2000/svg">
<g clip-path="url(#clip0_4956_7460)">
<path d="M31.9686 25.2286C32.4864 25.2286 32.9061 24.8089 32.9061 24.2911V3.6035C32.9061 2.0527 31.6444 0.791016 30.0936 0.791016H5.71874C4.16793 0.791016 2.90625 2.0527 2.90625 3.6035V45.9785C2.90625 47.5293 4.16793 48.791 5.71874 48.791H30.0936C31.6444 48.791 32.9061 47.5293 32.9061 45.9785V39.2911C32.86 38.0485 31.0768 38.0495 31.0311 39.2911V43.166H4.78124V6.41599H11.5044C11.8913 7.50733 12.934 8.29099 14.1562 8.29099H21.6562C22.8784 8.29099 23.9211 7.50733 24.308 6.41599H31.0311V24.2911C31.0311 24.8089 31.4509 25.2286 31.9686 25.2286ZM31.0311 45.041V45.9785C31.0311 46.4955 30.6106 46.916 30.0936 46.916H5.71874C5.2018 46.916 4.78124 46.4955 4.78124 45.9785V45.041H31.0311ZM23.5312 4.541C23.0134 4.541 22.5937 4.96072 22.5937 5.4785C22.5937 5.99543 22.1731 6.41599 21.6562 6.41599H14.1562C13.6393 6.41599 13.2187 5.99543 13.2187 5.4785C13.2187 4.96072 12.799 4.541 12.2812 4.541H4.78124V3.6035C4.78124 3.08657 5.2018 2.66601 5.71874 2.66601H30.0936C30.6106 2.66601 31.0311 3.08657 31.0311 3.6035V4.541H23.5312Z" fill="#243D31"/>
<path d="M10.3559 10.166C9.83811 10.166 9.41839 10.5857 9.41839 11.1035V11.539C8.90848 11.7955 8.48464 12.2287 8.24961 12.7962C7.99827 13.4029 7.99883 14.0728 8.2513 14.6822C8.50377 15.2917 8.97692 15.7658 9.58367 16.0171L10.4105 16.3596C10.706 16.482 10.8522 16.8352 10.7298 17.1308C10.6074 17.4264 10.254 17.5726 9.95877 17.4502L9.54542 17.2789C9.06702 17.0808 8.51867 17.3079 8.32049 17.7862C8.1223 18.2646 8.34945 18.813 8.82777 19.0111L9.2413 19.1824C9.29998 19.2067 9.35905 19.2285 9.41839 19.248V19.541C9.46452 20.7836 11.2477 20.7826 11.2934 19.541V19.1054C11.8033 18.8489 12.2271 18.4156 12.4622 17.8483C12.9823 16.5924 12.3839 15.1475 11.128 14.6273L10.3013 14.2849C10.0091 14.1713 9.85555 13.8007 9.98202 13.5137C10.1044 13.2181 10.4577 13.072 10.7531 13.1942L11.1665 13.3655C11.6449 13.5638 12.1932 13.3366 12.3914 12.8582C12.5896 12.3799 12.3625 11.8315 11.8841 11.6333L11.4706 11.4619C11.4119 11.4376 11.3528 11.4158 11.2935 11.3963V11.1035C11.2934 10.5857 10.8737 10.166 10.3559 10.166Z" fill="#243D31"/>
<path d="M16.8619 22.885H7.59368C6.35112 22.9311 6.35205 24.7144 7.59368 24.76H16.8619C18.1045 24.7139 18.1035 22.9307 16.8619 22.885Z" fill="#243D31"/>
<path d="M16.8619 26.8693H7.59368C6.35112 26.9154 6.35205 28.6986 7.59368 28.7443H16.8619C18.1045 28.6982 18.1035 26.9149 16.8619 26.8693Z" fill="#243D31"/>
<path d="M7.59373 32.7286H15.1041C16.3467 32.6825 16.3458 30.8993 15.1041 30.8536H7.59373C6.35126 30.8998 6.3522 32.683 7.59373 32.7286Z" fill="#243D31"/>
<path d="M16.8619 34.838H7.59368C6.35112 34.8841 6.35205 36.6674 7.59368 36.713H16.8619C18.1045 36.6669 18.1035 34.8837 16.8619 34.838Z" fill="#243D31"/>
<path d="M16.8619 38.8224H7.59368C6.35112 38.8685 6.35205 40.6517 7.59368 40.6974H16.8619C18.1045 40.6513 18.1035 38.868 16.8619 38.8224Z" fill="#243D31"/>
<path d="M28.2187 10.4004H15.5962C14.3537 10.4465 14.3546 12.2297 15.5962 12.2754H28.2187C29.4612 12.2293 29.4603 10.446 28.2187 10.4004Z" fill="#243D31"/>
<path d="M28.2187 14.3848H15.5962C14.3537 14.4309 14.3546 16.2141 15.5962 16.2598H28.2187C29.4612 16.2136 29.4603 14.4303 28.2187 14.3848Z" fill="#243D31"/>
<path d="M29.1562 19.3065C29.1562 18.7887 28.7364 18.369 28.2187 18.369H15.5962C14.3537 18.4151 14.3546 20.1984 15.5962 20.244H28.2187C28.7364 20.244 29.1562 19.8243 29.1562 19.3065Z" fill="#243D31"/>
<path fill-rule="evenodd" clip-rule="evenodd" d="M22.5937 23.8225H43.2188C44.25 23.8225 45.0937 24.6671 45.0937 25.6975V37.885C45.0937 38.9149 44.2488 39.7599 43.2188 39.7599C35.0126 39.7599 30.8 39.7599 22.5937 39.7599C21.5636 39.7599 20.7187 38.9162 20.7187 37.885V33.6662L18.8438 31.7912L20.7187 29.9162V25.6975C20.7187 24.6663 21.5626 23.8225 22.5937 23.8225Z" fill="#E2C4FF"/>
<path d="M32.5488 27.5724C30.998 27.5724 29.7363 28.8341 29.7363 30.3849V35.0724C29.7825 36.3149 31.5657 36.314 31.6113 35.0724V33.666H33.4863V35.0724C33.5325 36.3149 35.3157 36.314 35.3613 35.0724V30.3849C35.3613 28.8341 34.0996 27.5724 32.5488 27.5724ZM33.4863 31.791H31.6113V30.3849C31.6586 29.1426 33.4395 29.1435 33.4863 30.3849V31.791Z" fill="#243D31"/>
<path d="M41.5319 34.6531L40.1009 31.7911L41.5318 28.9292C41.7633 28.4661 41.5757 27.9029 41.1125 27.6713C40.6492 27.4398 40.0862 27.6275 39.8547 28.0906L39.0527 29.6947L38.2506 28.0906C38.0192 27.6276 37.4561 27.4398 36.9928 27.6713C36.5297 27.9029 36.342 28.4661 36.5735 28.9292L38.0044 31.7911L36.5734 34.6531C36.3419 35.1162 36.5296 35.6794 36.9927 35.9109C37.4459 36.1404 38.018 35.9594 38.2505 35.4917L39.0527 33.8874L39.8548 35.4917C40.0872 35.9595 40.6593 36.1404 41.1126 35.9109C41.5757 35.6794 41.7633 35.1162 41.5319 34.6531Z" fill="#243D31"/>
<path d="M27.9317 27.5724H24.6504C23.4079 27.6185 23.4088 29.4017 24.6504 29.4474H25.3536V35.0724C25.3997 36.3149 27.1829 36.314 27.2286 35.0724V29.4474H27.9317C29.1743 29.4013 29.1733 27.618 27.9317 27.5724Z" fill="#243D31"/>
</g>
<defs>
<clipPath id="clip0_4956_7460">
<rect width="48" height="48" fill="white" transform="translate(0 0.791016)"/>
</clipPath>
</defs>
</svg>
