<svg width="32" height="31" viewBox="0 0 32 31" fill="none" xmlns="http://www.w3.org/2000/svg">
<g clip-path="url(#clip0_5572_797)">
<path d="M5.96837 11.3789H11.7538C11.805 11.3789 11.8558 11.3688 11.9031 11.3492C11.9505 11.3296 11.9935 11.3008 12.0297 11.2646C12.066 11.2283 12.0947 11.1853 12.1143 11.138C12.1339 11.0906 12.144 11.0399 12.144 10.9886C12.144 10.9374 12.1339 10.8866 12.1143 10.8393C12.0947 10.7919 12.066 10.7489 12.0297 10.7127C11.9935 10.6765 11.9505 10.6477 11.9031 10.6281C11.8558 10.6085 11.805 10.5984 11.7538 10.5984H5.96837C5.86487 10.5984 5.76561 10.6395 5.69242 10.7127C5.61924 10.7859 5.57812 10.8851 5.57812 10.9886C5.57812 11.0921 5.61924 11.1914 5.69242 11.2646C5.76561 11.3378 5.86487 11.3789 5.96837 11.3789Z" fill="#FB8500"/>
<path d="M16.1649 16.4768H19.8951C19.9986 16.4768 20.0979 16.4357 20.1711 16.3625C20.2442 16.2893 20.2853 16.19 20.2853 16.0865C20.2853 15.983 20.2442 15.8838 20.1711 15.8106C20.0979 15.7374 19.9986 15.6963 19.8951 15.6963H16.1649C16.0614 15.6963 15.9621 15.7374 15.889 15.8106C15.8158 15.8838 15.7747 15.983 15.7747 16.0865C15.7747 16.19 15.8158 16.2893 15.889 16.3625C15.9621 16.4357 16.0614 16.4768 16.1649 16.4768Z" fill="#FB8500"/>
<path d="M5.96837 14.4177H11.7538C11.8573 14.4177 11.9565 14.3766 12.0297 14.3034C12.1029 14.2302 12.144 14.1309 12.144 14.0275C12.144 13.924 12.1029 13.8247 12.0297 13.7515C11.9565 13.6783 11.8573 13.6372 11.7538 13.6372H5.96837C5.86487 13.6372 5.76561 13.6783 5.69242 13.7515C5.61924 13.8247 5.57812 13.924 5.57812 14.0275C5.57812 14.1309 5.61924 14.2302 5.69242 14.3034C5.76561 14.3766 5.86487 14.4177 5.96837 14.4177Z" fill="#FB8500"/>
<path d="M5.96837 17.4568H11.7538C11.8573 17.4568 11.9565 17.4156 12.0297 17.3425C12.1029 17.2693 12.144 17.17 12.144 17.0665C12.144 16.963 12.1029 16.8638 12.0297 16.7906C11.9565 16.7174 11.8573 16.6763 11.7538 16.6763H5.96837C5.86487 16.6763 5.76561 16.7174 5.69242 16.7906C5.61924 16.8638 5.57812 16.963 5.57812 17.0665C5.57812 17.17 5.61924 17.2693 5.69242 17.3425C5.76561 17.4156 5.86487 17.4568 5.96837 17.4568Z" fill="#FB8500"/>
<path d="M5.96837 20.4958H11.7538C11.8573 20.4958 11.9565 20.4547 12.0297 20.3815C12.1029 20.3083 12.144 20.2091 12.144 20.1056C12.144 20.0021 12.1029 19.9028 12.0297 19.8296C11.9565 19.7564 11.8573 19.7153 11.7538 19.7153H5.96837C5.86487 19.7153 5.76561 19.7564 5.69242 19.8296C5.61924 19.9028 5.57812 20.0021 5.57812 20.1056C5.57812 20.2091 5.61924 20.3083 5.69242 20.3815C5.76561 20.4547 5.86487 20.4958 5.96837 20.4958Z" fill="#FB8500"/>
<path d="M5.96837 23.5346H11.7538C11.8573 23.5346 11.9565 23.4935 12.0297 23.4203C12.1029 23.3472 12.144 23.2479 12.144 23.1444C12.144 23.0409 12.1029 22.9416 12.0297 22.8684C11.9565 22.7953 11.8573 22.7542 11.7538 22.7542H5.96837C5.86487 22.7542 5.76561 22.7953 5.69242 22.8684C5.61924 22.9416 5.57813 23.0409 5.57812 23.1444C5.57813 23.2479 5.61924 23.3472 5.69242 23.4203C5.76561 23.4935 5.86487 23.5346 5.96837 23.5346Z" fill="#FB8500"/>
<path d="M16.1649 13.4992H19.8951C19.9986 13.4992 20.0979 13.4581 20.1711 13.3849C20.2442 13.3118 20.2853 13.2125 20.2853 13.109C20.2853 13.0055 20.2442 12.9062 20.1711 12.833C20.0979 12.7599 19.9986 12.7188 19.8951 12.7188H16.1649C16.0614 12.7188 15.9621 12.7599 15.889 12.833C15.8158 12.9062 15.7747 13.0055 15.7747 13.109C15.7747 13.2125 15.8158 13.3118 15.889 13.3849C15.9621 13.4581 16.0614 13.4992 16.1649 13.4992Z" fill="#FB8500"/>
<path d="M16.1649 10.5215H19.8951C19.9986 10.5215 20.0979 10.4803 20.1711 10.4072C20.2442 10.334 20.2853 10.2347 20.2853 10.1312C20.2853 10.0277 20.2442 9.92845 20.1711 9.85527C20.0979 9.78208 19.9986 9.74097 19.8951 9.74097H16.1649C16.0614 9.74097 15.9621 9.78208 15.889 9.85527C15.8158 9.92845 15.7747 10.0277 15.7747 10.1312C15.7747 10.2347 15.8158 10.334 15.889 10.4072C15.9621 10.4803 16.0614 10.5215 16.1649 10.5215Z" fill="#FB8500"/>
<path d="M5.96837 8.33981H11.7538C11.8573 8.33981 11.9565 8.2987 12.0297 8.22551C12.1029 8.15233 12.144 8.05307 12.144 7.94957C12.144 7.84607 12.1029 7.74681 12.0297 7.67363C11.9565 7.60044 11.8573 7.55933 11.7538 7.55933H5.96837C5.86487 7.55933 5.76561 7.60044 5.69242 7.67363C5.61924 7.74681 5.57812 7.84607 5.57812 7.94957C5.57812 8.05307 5.61924 8.15233 5.69242 8.22551C5.76561 8.2987 5.86487 8.33981 5.96837 8.33981Z" fill="#FB8500"/>
<path d="M26.1939 22.7906L24.0618 19.9294C24.1498 19.7222 24.1671 19.4917 24.111 19.2737C24.055 19.0556 23.9286 18.8621 23.7516 18.723C23.5745 18.584 23.3566 18.5071 23.1315 18.5042C22.9064 18.5014 22.6866 18.5728 22.5061 18.7074L20.2648 20.3776C20.0831 20.5116 19.9508 20.7018 19.8884 20.9188C19.826 21.1358 19.8371 21.3673 19.92 21.5773C20.0029 21.7873 20.1528 21.964 20.3466 22.08C20.5403 22.1959 20.7669 22.2445 20.9912 22.2183L21.3684 22.7244L17.0144 25.9689C16.8774 26.0711 16.7866 26.2234 16.7619 26.3925C16.7372 26.5616 16.7807 26.7335 16.8827 26.8705L17.4902 27.6856C17.5924 27.8225 17.7447 27.9132 17.9137 27.9379C18.0828 27.9625 18.2547 27.9192 18.3917 27.8173L22.7457 24.5727L23.1229 25.0786C23.0884 25.1592 23.0644 25.2439 23.0514 25.3306C23.0121 25.5998 23.0813 25.8735 23.2438 26.0916C23.4064 26.3097 23.6489 26.4543 23.918 26.4936C23.9678 26.5008 24.018 26.5045 24.0684 26.5045C24.2885 26.5045 24.5027 26.4332 24.6789 26.3011L26.9201 24.6309C27.1008 24.4965 27.2322 24.3063 27.2939 24.0898C27.3557 23.8732 27.3443 23.6423 27.2617 23.4328C27.179 23.2234 27.0296 23.0469 26.8366 22.9309C26.6436 22.8148 26.4178 22.7656 26.194 22.7908L26.1939 22.7906ZM23.6643 24.499L21.7014 21.8649L23.5203 20.5093L25.4833 23.1435L23.6643 24.499ZM20.6812 21.3463C20.6424 21.2942 20.6259 21.2288 20.6353 21.1645C20.6447 21.1003 20.6791 21.0423 20.7312 21.0035L22.9725 19.3333C22.9982 19.3134 23.0277 19.2988 23.0591 19.2904C23.0906 19.282 23.1234 19.28 23.1556 19.2844C23.1878 19.2888 23.2189 19.2996 23.2469 19.3162C23.2749 19.3327 23.2993 19.3547 23.3188 19.3808C23.3382 19.4069 23.3522 19.4366 23.3601 19.4682C23.3679 19.4997 23.3694 19.5326 23.3644 19.5647C23.3594 19.5969 23.3481 19.6277 23.331 19.6554C23.314 19.6831 23.2916 19.7072 23.2652 19.7262L21.0239 21.3963C20.9718 21.4351 20.9065 21.4516 20.8422 21.4422C20.7779 21.4328 20.72 21.3983 20.6812 21.3463ZM18.0346 27.1098L17.5899 26.5132L17.9829 26.2205L18.4275 26.8172L18.0346 27.1098ZM19.0533 26.3507L18.6087 25.754L21.8347 23.35L22.2793 23.9467L19.0533 26.3507ZM26.5038 23.6622C26.523 23.6879 26.537 23.7173 26.5449 23.7484C26.5527 23.7796 26.5544 23.812 26.5498 23.8439C26.5451 23.8757 26.5343 23.9063 26.5178 23.9339C26.5013 23.9615 26.4796 23.9856 26.4538 24.0049L24.2125 25.6751C24.1603 25.7126 24.0955 25.728 24.032 25.7182C23.9685 25.7083 23.9115 25.674 23.8731 25.6224C23.8347 25.5709 23.8181 25.5064 23.8269 25.4428C23.8356 25.3791 23.869 25.3215 23.9198 25.2822L26.1611 23.612C26.2132 23.5732 26.2786 23.5567 26.3429 23.5661C26.4072 23.5755 26.4651 23.6101 26.5039 23.6622H26.5038Z" fill="#FB8500"/>
<path d="M22.2534 16.6757V7.1183C22.2534 7.0148 22.2123 6.91554 22.1391 6.84235C22.0659 6.76917 21.9666 6.72805 21.8631 6.72805H14.7221V4.53417C14.7221 4.43067 14.681 4.33141 14.6078 4.25823C14.5346 4.18504 14.4354 4.14393 14.3319 4.14393H13.1807V1.53164C13.1807 1.42814 13.1396 1.32888 13.0664 1.25569C12.9932 1.18251 12.8939 1.1414 12.7904 1.1414H9.58393V-0.609757C9.58393 -0.713256 9.54281 -0.812516 9.46963 -0.8857C9.39644 -0.958885 9.29718 -1 9.19368 -1C9.09018 -1 8.99092 -0.958885 8.91774 -0.8857C8.84455 -0.812516 8.80344 -0.713256 8.80344 -0.609757V1.1414H4.9317C4.82821 1.1414 4.72895 1.18251 4.65576 1.25569C4.58258 1.32888 4.54146 1.42814 4.54146 1.53164V4.14393H3.39024C3.28674 4.14393 3.18748 4.18504 3.1143 4.25823C3.04111 4.33141 3 4.43067 3 4.53417V26.0963C3 26.1998 3.04111 26.299 3.1143 26.3722C3.18748 26.4454 3.28674 26.4865 3.39024 26.4865H15.3925C15.8707 27.6875 16.665 28.7367 17.6912 29.5229C18.7174 30.3091 19.9371 30.803 21.2212 30.9521C22.5053 31.1013 23.8058 30.9002 24.9849 30.3703C26.1639 29.8403 27.1776 29.0011 27.9185 27.9417C28.6593 26.8824 29.0997 25.6423 29.1929 24.3529C29.2861 23.0636 29.0287 21.773 28.4479 20.6181C27.8672 19.4632 26.9848 18.487 25.8942 17.7929C24.8036 17.0988 23.5455 16.7128 22.2534 16.6757ZM5.32195 1.92188H12.4001V4.14393H5.32195V1.92188ZM13.9416 25.706H3.78049V4.92441H13.9416V25.706ZM14.7221 25.706V7.50854H21.4729V16.6956C20.4247 16.7802 19.408 17.0944 18.4949 17.616C17.5818 18.1376 16.7947 18.8539 16.1895 19.7139C15.5843 20.5739 15.1759 21.5565 14.9931 22.5921C14.8104 23.6277 14.8579 24.6909 15.1322 25.706H14.7221ZM22.0478 30.2195C20.7854 30.2195 19.5512 29.8452 18.5015 29.1438C17.4517 28.4424 16.6335 27.4455 16.1504 26.2791C15.6672 25.1128 15.5408 23.8293 15.7871 22.5911C16.0333 21.3528 16.6413 20.2154 17.534 19.3227C18.4267 18.43 19.564 17.822 20.8023 17.5757C22.0405 17.3294 23.324 17.4558 24.4904 17.9389C25.6567 18.422 26.6537 19.2402 27.3551 20.2899C28.0565 21.3396 28.4309 22.5738 28.4309 23.8363C28.4289 25.5286 27.7558 27.151 26.5592 28.3477C25.3626 29.5444 23.7402 30.2175 22.0478 30.2195Z" fill="#FB8500"/>
</g>
<defs>
<clipPath id="clip0_5572_797">
<rect width="31" height="31" fill="white" transform="translate(0.904297)"/>
</clipPath>
</defs>
</svg>
