<svg width="28" height="35" viewBox="0 0 28 35" fill="none" xmlns="http://www.w3.org/2000/svg">
<path d="M19.112 30.9111C18.6047 30.9111 18.0968 30.7146 17.71 30.3216L13.4864 26.024C13.2663 25.8001 13.2663 25.4373 13.4864 25.2134C13.7065 24.9895 14.063 24.9895 14.2831 25.2134L18.5067 29.5107C18.8407 29.8508 19.3844 29.8497 19.7172 29.5107C20.0507 29.1711 20.0507 28.6186 19.7172 28.2791L15.4936 23.9818C15.2735 23.7578 15.2735 23.3951 15.4936 23.1711C15.7137 22.9472 16.0703 22.9472 16.2904 23.1711L20.514 27.4684C21.2865 28.255 21.2865 29.5348 20.514 30.3213C20.1277 30.7143 19.6199 30.9111 19.112 30.9111Z" fill="#00C3B7"/>
<path d="M17.1052 32.9528C16.5973 32.9528 16.0894 32.7563 15.7031 32.363L11.4795 28.0658C11.2594 27.8418 11.2594 27.479 11.4795 27.2551C11.6996 27.0312 12.0562 27.0312 12.2763 27.2551L16.4999 31.5524C16.8333 31.8914 17.3764 31.8925 17.7099 31.5524C17.8716 31.3878 17.9608 31.1692 17.9608 30.9366C17.9608 30.7043 17.8716 30.4856 17.7099 30.3213L13.4862 26.0238C13.2661 25.7998 13.2661 25.4371 13.4862 25.2131C13.7063 24.9892 14.0629 24.9892 14.283 25.2131L18.5066 29.5104C18.8813 29.8911 19.0877 30.3977 19.0877 30.9366C19.0877 31.4754 18.8813 31.9821 18.5066 32.3633C18.1203 32.7563 17.6125 32.9528 17.1052 32.9528Z" fill="#00C3B7"/>
<path d="M21.1201 28.8687C20.5886 28.8687 20.0895 28.6591 19.7153 28.2781L15.4928 23.9819C15.2727 23.758 15.2727 23.3952 15.4928 23.1713C15.7129 22.9474 16.0695 22.9474 16.2896 23.1713L20.5121 27.4675C20.6711 27.6293 20.8929 27.7222 21.1201 27.7222C21.4233 27.7222 21.6896 27.5702 21.8514 27.3054C22.0577 26.9687 21.9763 26.4894 21.6582 26.1661L16.0497 20.467C16.0304 20.4469 15.993 20.4457 15.9715 20.467L14.4232 22.0351C13.7557 22.715 12.8643 23.0901 11.9146 23.0901C11.1768 23.0845 10.5643 22.6574 10.2892 21.9749C10.0042 21.2667 10.1588 20.4637 10.6837 19.9296L12.9645 17.6057C12.6784 17.4632 12.3774 17.3608 12.0731 17.3031C11.1476 17.1285 10.3613 16.7808 9.73239 16.2685L4.47707 21.6217C4.97448 22.1728 5.33379 22.843 5.52087 23.5674L5.5979 23.8686C5.65513 24.0905 5.73876 24.3134 5.84496 24.5297C5.98472 24.813 5.87192 25.1573 5.59405 25.2992C5.31563 25.4417 4.97724 25.3261 4.83803 25.0437C4.69661 24.7565 4.58547 24.4589 4.50788 24.1594L4.4303 23.8574C4.28284 23.2838 3.99011 22.7551 3.58403 22.3293L3.28305 22.0138C3.06901 21.7894 3.07121 21.4311 3.28856 21.2096L9.30595 15.08C9.51724 14.8656 9.85509 14.8547 10.079 15.0562L10.309 15.2639C10.8092 15.7168 11.4722 16.0236 12.2789 16.1759C12.9617 16.3052 13.6281 16.6025 14.2058 17.0361C14.3467 17.1419 14.4314 17.3084 14.4347 17.4867C14.438 17.6648 14.3593 17.8347 14.2223 17.9458C14.2058 17.959 14.1932 17.9732 14.1805 17.9867L11.4805 20.7402C11.2345 20.9907 11.2428 21.3177 11.3319 21.5402C11.3809 21.6606 11.5328 21.9408 11.8959 21.9436C12.5628 21.9436 13.1714 21.688 13.6275 21.2236L15.177 19.6544C15.6375 19.1884 16.3864 19.1892 16.8459 19.6553L22.4544 25.3549C23.1395 26.0508 23.2886 27.1257 22.8088 27.9109C22.4418 28.5107 21.8106 28.8687 21.1201 28.8687Z" fill="#00C3B7"/>
<path d="M15.0976 34.9999C14.5694 34.9999 14.0709 34.7886 13.6945 34.4051L12.5908 33.2832C12.3707 33.0593 12.3707 32.6962 12.5908 32.4723C12.8109 32.2483 13.1674 32.2486 13.3875 32.472L14.4913 33.5945C14.8363 33.946 15.4355 33.9214 15.7596 33.534C16.0341 33.2009 15.9857 32.6478 15.6484 32.3046L11.4815 28.0653C11.2614 27.8413 11.2614 27.4786 11.4815 27.2546C11.7016 27.0307 12.0581 27.0307 12.2782 27.2546L16.4452 31.494C17.1973 32.2598 17.2744 33.4811 16.6196 34.2744C16.2322 34.7368 15.6787 34.9999 15.0976 34.9999Z" fill="#00C3B7"/>
<path d="M3.07191 22.4494C3.07136 22.4494 3.07081 22.4494 3.07026 22.4494C2.68729 22.4491 2.32799 22.2968 2.05892 22.0206L0.163903 20.0796C-0.0550919 19.8557 -0.0545417 19.4938 0.165003 19.2704L7.41548 11.8932C7.52113 11.7857 7.66419 11.7252 7.81385 11.7252C7.96352 11.7252 8.10713 11.786 8.21277 11.8937L10.11 13.8294C10.6646 14.3951 10.6646 15.316 10.11 15.8817L4.08269 22.0231C3.81253 22.298 3.45377 22.4494 3.07191 22.4494ZM1.35902 19.6771L2.85786 21.2127C2.91509 21.2707 2.99047 21.3029 3.07136 21.3029C3.15169 21.3029 3.22817 21.271 3.28485 21.213L9.31215 15.0719C9.42935 14.9527 9.42935 14.7584 9.31215 14.6389L7.8133 13.1097L1.35902 19.6771Z" fill="#00C3B7"/>
<path d="M24.9278 22.1785C24.5465 22.1785 24.1878 22.0271 23.9176 21.7522L17.8903 15.6108C17.3351 15.0454 17.3346 14.1245 17.8897 13.5582L19.7875 11.6229C19.8932 11.5151 20.0368 11.4543 20.1859 11.4543C20.3356 11.4543 20.4792 11.5148 20.5848 11.6223L27.8353 18.9992C28.0548 19.2226 28.0554 19.5845 27.8364 19.8088L25.9408 21.7497C25.6718 22.0257 25.3125 22.178 24.93 22.1785C24.9295 22.1785 24.9289 22.1785 24.9278 22.1785ZM20.187 12.8388L18.6876 14.3677C18.5704 14.4872 18.5704 14.6812 18.6876 14.8005L24.7154 20.9421C24.7721 21.0001 24.8475 21.032 24.9284 21.032C25.0093 21.032 25.0847 20.9998 25.1413 20.9416L26.6413 19.406L20.187 12.8388Z" fill="#00C3B7"/>
<path d="M21.9298 26.2055C21.7856 26.2055 21.6414 26.1495 21.5314 26.0378L16.0488 20.4666C16.0279 20.4459 15.9932 20.4465 15.9729 20.4666L14.4234 22.0358C13.756 22.7155 12.8646 23.0906 11.9149 23.0906C11.177 23.085 10.5646 22.6578 10.2895 21.9754C10.0045 21.2672 10.1591 20.4641 10.684 19.93L13.3802 17.1801C14.0911 16.4563 14.9891 15.9966 15.9789 15.8494C16.7141 15.7318 17.4074 15.3727 17.9251 14.8392C18.0308 14.7306 18.1744 14.669 18.3246 14.6687H18.3263C18.4759 14.6687 18.6195 14.7292 18.7252 14.8372L24.7497 20.9811C24.8565 21.09 24.9159 21.2384 24.9142 21.3926C24.9126 21.5465 24.8499 21.6935 24.7404 21.8001L24.5929 21.9437C24.15 22.3757 23.8336 22.9237 23.6784 23.5286L23.5942 23.8573C23.378 24.6547 22.9163 25.4472 22.3254 26.0403C22.2159 26.1503 22.0728 26.2055 21.9298 26.2055ZM16.0114 19.305C16.3135 19.305 16.6156 19.4217 16.8456 19.6554L21.9006 24.7927C22.1763 24.4151 22.392 23.9804 22.5059 23.5605L22.5878 23.2395C22.7645 22.5509 23.0968 21.9177 23.5568 21.3878L18.3026 16.0297C17.683 16.524 16.9352 16.8571 16.1479 16.9828C15.394 17.095 14.715 17.4427 14.1786 17.9891L11.4807 20.7407C11.2348 20.9912 11.243 21.3181 11.3322 21.5407C11.3812 21.661 11.533 21.9412 11.8962 21.944C12.5631 21.944 13.1716 21.6885 13.6278 21.2241L15.1783 19.654C15.4078 19.4214 15.7099 19.305 16.0114 19.305Z" fill="#00C3B7"/>
<path d="M5.01211 28.8671C4.43491 28.8671 3.88798 28.614 3.51161 28.1729C2.83372 27.3771 2.90525 26.1401 3.67503 25.3566L4.25168 24.7699C5.02367 23.9845 6.27986 23.9834 7.05294 24.7699L7.05789 24.7747C7.83043 25.5604 7.83043 26.8394 7.05789 27.6251L6.41522 28.279C6.04271 28.6583 5.54419 28.8671 5.01211 28.8671ZM5.64819 25.3278C5.42974 25.3278 5.2135 25.4126 5.04843 25.5806L4.47178 26.1673C4.12403 26.5211 4.07561 27.084 4.36338 27.4216C4.67647 27.7894 5.28173 27.8095 5.61847 27.4683L6.26115 26.8144C6.59349 26.476 6.59404 25.9257 6.26225 25.5867C6.08948 25.4137 5.86773 25.3278 5.64819 25.3278Z" fill="#00C3B7"/>
<path d="M7.0209 30.9116C6.4437 30.9116 5.89677 30.6585 5.5204 30.2177C4.84251 29.4213 4.91404 28.1844 5.68382 27.4014L6.26047 26.8147C7.0088 26.0539 8.31341 26.0533 9.06173 26.8147C9.83316 27.5996 9.83426 28.8774 9.06393 29.6629L8.41905 30.3224C8.04544 30.7028 7.54968 30.9116 7.0209 30.9116ZM7.66083 27.3712C7.44238 27.3712 7.22394 27.456 7.05722 27.6254L6.48057 28.2121C6.13282 28.5659 6.0844 29.1285 6.37217 29.4667C6.68305 29.8308 7.28281 29.8571 7.62121 29.5131L8.26554 28.8539C8.59788 28.5147 8.59733 27.9638 8.26499 27.6254C8.09827 27.456 7.87982 27.3712 7.66083 27.3712Z" fill="#00C3B7"/>
<path d="M9.0243 32.9554C8.4416 32.9554 7.88861 32.6931 7.5073 32.2355C6.84922 31.4455 6.92295 30.2245 7.67622 29.4556L8.26277 28.856C8.63694 28.4742 9.1349 28.2637 9.66478 28.2634C9.66478 28.2634 9.66533 28.2634 9.66588 28.2634C10.1952 28.2634 10.6926 28.4731 11.0668 28.8538L10.6712 29.2622L11.0695 28.8566C11.4437 29.2373 11.65 29.7436 11.65 30.2819C11.65 30.8205 11.4437 31.3268 11.0695 31.7075L10.4269 32.3611C10.0505 32.7443 9.55198 32.9554 9.0243 32.9554ZM9.66588 29.41C9.43753 29.41 9.22239 29.5007 9.06117 29.6653L8.47462 30.2648C8.13732 30.6091 8.0889 31.1606 8.36677 31.494C8.68426 31.8749 9.28512 31.9015 9.63012 31.5505L10.2728 30.8966C10.4346 30.7323 10.5232 30.5142 10.5232 30.2819C10.5232 30.0499 10.4346 29.8318 10.2728 29.6678C10.2667 29.6613 10.2601 29.6546 10.2541 29.6479L10.2513 29.6448C10.1088 29.5001 9.89423 29.41 9.66588 29.41Z" fill="#00C3B7"/>
<path d="M11.0337 35C10.4505 35 9.89696 34.7369 9.51509 34.2778C8.85646 33.4848 8.93294 32.261 9.68897 31.4912L10.2733 30.8967C11.0459 30.1112 12.3026 30.1107 13.0751 30.8967L13.0784 30.8997C13.4531 31.281 13.6589 31.7879 13.6589 32.327C13.6584 32.8659 13.4515 33.372 13.0762 33.7524L12.4297 34.4065C12.0544 34.7886 11.5581 35 11.0337 35ZM11.6682 31.4554C11.4503 31.4554 11.2346 31.5402 11.0701 31.7076L10.4857 32.3019C10.1462 32.6476 10.0967 33.2018 10.3757 33.5374C10.6904 33.9164 11.2858 33.9492 11.6341 33.5951L12.2811 32.9398C12.4424 32.7763 12.5315 32.558 12.532 32.3259C12.532 32.0933 12.4429 31.8747 12.2817 31.7104C12.1062 31.5396 11.8861 31.4554 11.6682 31.4554Z" fill="#00C3B7"/>
<path d="M12.2226 17.1482C11.9112 17.1482 11.6592 16.8915 11.6592 16.5749V10.0433C11.6592 9.88489 11.7236 9.73374 11.8369 9.62541C11.9508 9.5168 12.1032 9.4597 12.2584 9.47118C13.4128 9.54564 14.5875 9.55515 15.7507 9.49665C15.9054 9.49133 16.055 9.54592 16.1667 9.65424C16.2784 9.76229 16.3417 9.91233 16.3417 10.0694V16.4442C16.3417 16.7608 16.0897 17.0175 15.7783 17.0175C15.4668 17.0175 15.2148 16.7608 15.2148 16.4442V10.6659C14.4054 10.6908 13.5927 10.6852 12.7861 10.6485V16.5749C12.7861 16.8915 12.5341 17.1482 12.2226 17.1482Z" fill="#00C3B7"/>
<path d="M14.2254 10.6927C13.5409 10.6927 12.857 10.6667 12.1791 10.6146C10.6709 10.5074 9.1005 10.2653 7.51361 9.89522C7.25775 9.83559 7.07617 9.60382 7.07617 9.3365V1.46411C7.07617 1.19763 7.25665 0.96642 7.51141 0.905678C11.8819 -0.130855 16.2486 -0.130855 20.4904 0.906798C20.7441 0.968659 20.9223 1.19903 20.9223 1.46411V9.3365C20.9223 9.59822 20.7479 9.82692 20.4987 9.89186C18.9685 10.2907 17.392 10.5443 15.8128 10.646C15.2852 10.677 14.7553 10.6927 14.2254 10.6927ZM8.20306 8.8766C9.5836 9.17779 10.9465 9.37765 12.2605 9.47114C13.4166 9.5596 14.5869 9.56967 15.7446 9.50137C17.1059 9.41404 18.4672 9.20774 19.7955 8.88751V1.91982C16.0032 1.05991 12.1081 1.06047 8.20306 1.92262V8.8766Z" fill="#00C3B7"/>
<path d="M21.7938 10.8157C20.6922 10.8157 19.7959 9.90403 19.7959 8.78324V2.03248C19.7959 0.91169 20.6922 0 21.7938 0C22.8954 0 23.7912 0.91169 23.7912 2.03248V8.78324C23.7912 9.90403 22.8954 10.8157 21.7938 10.8157ZM21.7938 1.14654C21.3135 1.14654 20.9228 1.54402 20.9228 2.03248V8.78324C20.9228 9.2717 21.3135 9.66918 21.7938 9.66918C22.2736 9.66918 22.6643 9.2717 22.6643 8.78324V2.03248C22.6643 1.54402 22.2736 1.14654 21.7938 1.14654Z" fill="#00C3B7"/>
<path d="M6.2069 10.8157C5.10532 10.8157 4.20898 9.90403 4.20898 8.78324V2.03248C4.20898 0.91169 5.10532 0 6.2069 0C7.30847 0 8.20426 0.91169 8.20426 2.03248V8.78324C8.20426 9.90403 7.30847 10.8157 6.2069 10.8157ZM6.2069 1.14654C5.72654 1.14654 5.33587 1.54402 5.33587 2.03248V8.78324C5.33587 9.2717 5.72654 9.66918 6.2069 9.66918C6.6867 9.66918 7.07737 9.2717 7.07737 8.78324V2.03248C7.07737 1.54402 6.6867 1.14654 6.2069 1.14654Z" fill="#00C3B7"/>
</svg>
