<svg width="48" height="49" viewBox="0 0 48 49" fill="none" xmlns="http://www.w3.org/2000/svg">
<g clip-path="url(#clip0_5599_15273)">
<path fill-rule="evenodd" clip-rule="evenodd" d="M14.6225 22.031H33.3771C34.4087 22.031 35.2526 22.8763 35.2526 23.9092V35.1786C35.2526 36.2116 34.4086 37.0569 33.3771 37.0569H14.6225C13.5911 37.0569 12.7471 36.2117 12.7471 35.1786V23.9092C12.7471 22.8761 13.591 22.031 14.6225 22.031Z" fill="#FFF69B"/>
<path d="M47.0682 44.1002L47.0682 41.2828C47.0682 40.7641 46.6482 40.3437 46.1304 40.3437H45.1831L44.7338 18.744H46.1303C46.6481 18.744 47.0681 18.3236 47.0681 17.8049V14.0484C48.3109 14.0022 48.31 12.2159 47.0681 12.1702H46.3209L24.3658 2.8535C24.1319 2.75424 23.8679 2.75424 23.6341 2.8535L1.67889 12.1703H0.9318C-0.311069 12.2165 -0.310131 14.0028 0.9318 14.0485H0.931893V17.805C0.931893 18.3237 1.35181 18.7441 1.86962 18.7441H3.26619L2.81683 40.3438H1.86962C1.35181 40.3438 0.931893 40.7642 0.931893 41.2829V44.1003H0.9318C-0.311069 44.1465 -0.310131 45.9328 0.9318 45.9785H47.0682C48.311 45.9322 48.3101 44.1459 47.0682 44.1002ZM43.3072 40.3438H39.5762L40.0256 18.7441H42.8579L43.3072 40.3438ZM10.2996 40.3438L9.85028 18.7441H38.1497L37.7003 40.3438H10.2996ZM24 4.73812L41.514 12.1703H33.4854L24.3658 8.30038C24.1319 8.20111 23.8679 8.20111 23.6341 8.30038L14.5146 12.1703H6.48598L24 4.73812ZM28.6782 12.1703H19.3217L24 10.1851L28.6782 12.1703ZM2.80736 14.0485H45.1927V16.8659H2.80736V14.0485ZM5.14212 18.744H7.97444L8.4238 40.3437H4.69276L5.14212 18.744ZM2.80736 42.222H45.1927V44.1003H2.80736V42.222Z" fill="#FB8500"/>
<path d="M23.8767 25.7876C22.3255 25.7876 21.0635 27.05 21.0635 28.6016V32.3536C21.1096 33.5968 22.8933 33.5958 22.9389 32.3536V31.4155H24.8144V32.3536C24.8605 33.5968 26.6442 33.5958 26.6899 32.3536V28.6016C26.6899 27.05 25.4279 25.7876 23.8767 25.7876ZM24.8144 29.5395H22.9389V28.6016C22.9862 27.3586 24.7675 27.3596 24.8144 28.6016V29.5395Z" fill="#FB8500"/>
<path d="M31.4682 29.5394L32.8336 27.1981C33.4221 26.1036 31.8756 25.2023 31.2137 26.2529L30.3827 27.678L29.5516 26.2529C29.2909 25.8055 28.717 25.6542 28.2691 25.9153C27.8217 26.1763 27.6707 26.7507 27.9316 27.1981L29.2971 29.5394L27.9316 31.8808C27.6707 32.3283 27.8217 32.9026 28.2691 33.1636C28.7087 33.4222 29.2892 33.2775 29.5516 32.826L30.3827 31.4009L31.2137 32.826C31.4762 33.2776 32.0565 33.4222 32.4962 33.1636C32.9436 32.9025 33.0947 32.3282 32.8337 31.8808L31.4682 29.5394Z" fill="#FB8500"/>
<path d="M19.2587 25.7876H15.9767C14.7339 25.8337 14.7348 27.6179 15.9767 27.6636H16.6799V32.3536C16.7261 33.5968 18.5097 33.5958 18.5554 32.3536V27.6636H19.2587C20.5016 27.6174 20.5006 25.8333 19.2587 25.7876Z" fill="#FB8500"/>
</g>
<defs>
<clipPath id="clip0_5599_15273">
<rect width="48" height="48.0709" fill="white" transform="translate(0 0.343262)"/>
</clipPath>
</defs>
</svg>
