<svg width="32" height="32" viewBox="0 0 32 32" fill="none" xmlns="http://www.w3.org/2000/svg">
<path d="M16.5907 24.6763L16.4745 24.5481C16.3007 24.3563 16.0045 24.3419 15.8126 24.5156C15.6207 24.6894 15.6064 24.9857 15.7801 25.1775L15.8964 25.3057C15.9889 25.4075 16.1164 25.4594 16.2439 25.4594C16.3564 25.4594 16.4689 25.4194 16.5582 25.3382C16.7501 25.1644 16.7645 24.8682 16.5907 24.6763Z" fill="#00C3B7"/>
<path d="M29.3276 23.5806L24.8938 26.7269V26.645C24.8938 25.5112 23.9713 24.5887 22.8376 24.5887H20.8975L18.7038 20.7175C18.1688 19.7737 17.1625 19.1875 16.0782 19.1875H13.7419C12.9469 19.1875 12.1963 19.4944 11.6288 20.0506L10.6219 21.0381H9.06252V20.5294C9.06252 20.2706 8.85252 20.0606 8.59377 20.0606H6.56252V19.2794C6.56252 19.0206 6.35252 18.8106 6.09376 18.8106H0.468751C0.210001 18.8106 0 19.0206 0 19.2794V30.5294C0 30.7881 0.210001 30.9981 0.468751 30.9981H6.09376C6.35252 30.9981 6.56252 30.7881 6.56252 30.5294V29.7481H8.59377C8.85252 29.7481 9.06252 29.5381 9.06252 29.2794V28.7706H10.675L14.7119 31.3738C15.3475 31.7838 16.0832 32 16.8394 32H23.9376C24.9707 32 25.9463 31.6019 26.6844 30.8788L31.4919 26.1706C32.132 25.5438 32.1726 24.5231 31.5832 23.8481C31.0094 23.19 30.0394 23.075 29.3276 23.5806ZM5.62501 30.0606H0.937502V19.7481H5.62501V30.0606ZM8.12502 28.8106H6.56252V20.9981H8.12502V28.8106ZM30.8357 25.5012L26.0282 30.2094C25.4663 30.7594 24.7238 31.0625 23.9376 31.0625H16.8394C16.2638 31.0625 15.7038 30.8975 15.22 30.5856L11.0675 27.9075C10.9919 27.8588 10.9038 27.8325 10.8138 27.8325H9.06315V21.9756H10.8138C10.9363 21.9756 11.0544 21.9275 11.1419 21.8412L12.2857 20.7194C12.6769 20.3356 13.1944 20.1244 13.7425 20.1244H16.0788C16.8269 20.1244 17.52 20.5287 17.8888 21.1794L20.2169 25.2881C20.3001 25.435 20.4557 25.5256 20.625 25.5256H22.8382C23.4551 25.5256 23.9569 26.0275 23.9569 26.6444V27.165H19.4338C19.045 27.165 18.6882 26.9831 18.4232 26.6988C18.4219 26.6975 18.4213 26.6969 18.42 26.6956L17.3382 25.5519C17.16 25.3637 16.8638 25.3556 16.6757 25.5331C16.4875 25.7112 16.4794 26.0075 16.6569 26.1956L17.7357 27.3363C18.1788 27.8231 18.8107 28.1025 19.4688 28.1025H24.4244V28.1013C24.5201 28.1013 24.6151 28.0731 24.6957 28.0156L29.8694 24.3437C30.1876 24.1181 30.6201 24.1694 30.8763 24.4631C31.1394 24.7644 31.1213 25.22 30.8357 25.5V25.5012Z" fill="#00C3B7"/>
<path d="M3.28125 29.1231C3.54 29.1231 3.75 28.9131 3.75 28.6544V28.0294C3.75 27.7706 3.54 27.5606 3.28125 27.5606C3.0225 27.5606 2.8125 27.7706 2.8125 28.0294V28.6544C2.8125 28.9131 3.0225 29.1231 3.28125 29.1231Z" fill="#00C3B7"/>
<path d="M3.28125 26.3106C3.54 26.3106 3.75 26.1006 3.75 25.8419V25.2169C3.75 24.9581 3.54 24.7481 3.28125 24.7481C3.0225 24.7481 2.8125 24.9581 2.8125 25.2169V25.8419C2.8125 26.1006 3.0225 26.3106 3.28125 26.3106Z" fill="#00C3B7"/>
<path d="M25.5938 10.7869C25.335 10.7869 25.125 10.9969 25.125 11.2557V12.2394C25.125 12.4982 25.335 12.7082 25.5938 12.7082C25.8525 12.7082 26.0625 12.4982 26.0625 12.2394V11.2557C26.0625 10.9969 25.8525 10.7869 25.5938 10.7869Z" fill="#00C3B7"/>
<path d="M31.2864 7.74314C31.3614 7.78939 31.4464 7.81252 31.5314 7.81252C31.6102 7.81252 31.6889 7.79252 31.7602 7.75314C31.9083 7.67002 32.0002 7.51377 32.0002 7.34377V5.59939C32.0002 5.11439 31.7433 4.65501 31.3295 4.40126L24.2764 0.0693752C24.1258 -0.0231251 23.9364 -0.0231251 23.7858 0.0693752L16.7326 4.40064C16.3189 4.65439 16.062 5.11376 16.062 5.59876V7.34314C16.062 7.51314 16.1539 7.66939 16.302 7.75252C16.4501 7.83564 16.6314 7.83189 16.7764 7.74314L17.3126 7.41377V15.0088C16.6108 15.0869 16.0626 15.6838 16.0626 16.4063V17.3438C16.0626 17.6025 16.2726 17.8125 16.5314 17.8125H31.5314C31.7902 17.8125 32.0002 17.6025 32.0002 17.3438V16.4063C32.0002 15.6838 31.4521 15.0869 30.7502 15.0088V7.41377L31.2864 7.74314ZM17.0001 5.59939C17.0001 5.43751 17.0858 5.28439 17.2239 5.20001L24.0314 1.01938L30.8389 5.20001C30.9771 5.28439 31.0627 5.43751 31.0627 5.59939V6.50627L24.2764 2.33876C24.2014 2.29251 24.1164 2.26938 24.0314 2.26938C23.9464 2.26938 23.8614 2.29251 23.7864 2.33876L17.0001 6.50627V5.59939ZM31.0627 16.4063V16.875H17.0001V16.4063C17.0001 16.1475 17.2101 15.9375 17.4689 15.9375H30.5939C30.8527 15.9375 31.0627 16.1475 31.0627 16.4063ZM26.3752 15H21.6877V8.90627C21.6877 8.64752 21.8977 8.43752 22.1564 8.43752H25.9064C26.1652 8.43752 26.3752 8.64752 26.3752 8.90627V15ZM29.8127 15H27.3127V8.90627C27.3127 8.13065 26.682 7.50002 25.9064 7.50002H22.1564C21.3808 7.50002 20.7501 8.13065 20.7501 8.90627V15H18.2501V6.83814L24.0314 3.28751L29.8127 6.83814V15Z" fill="#00C3B7"/>
</svg>
