<svg width="32" height="32" viewBox="0 0 32 32" fill="none" xmlns="http://www.w3.org/2000/svg">
<g clip-path="url(#clip0_4956_6535)">
<path d="M31.8098 4.84583V0.30481H0.809814V2.12122H1.71802V1.21301H30.9016V3.93762H1.71802V3.02942H0.809814V4.84583H7.05746V12.7378H4.89158L3.13348 15.3138V23.1975L5.34835 24.5256H7.05746V26.7638H0.809814V31.3048H28.177V30.3966H1.71802V27.672H30.9016V30.3966H29.0852V31.3048H31.8098V26.7638H25.5622V24.5256H27.2713L29.4861 23.1975V15.3138L27.7281 12.7379H25.5622V4.84583H31.8098ZM21.6133 14.5543C20.7382 14.5543 20.0263 15.2662 20.0263 16.1413C20.0263 16.5021 20.1473 16.8449 20.3695 17.1244C19.9735 17.4133 19.7155 17.8805 19.7155 18.4071C19.7155 18.9334 19.9733 19.4006 20.3691 19.6894C20.1548 19.96 20.0263 20.3016 20.0263 20.6728C20.0263 21.3352 20.4344 21.9039 21.0122 22.1413C20.8754 22.3758 20.7965 22.6481 20.7965 22.9386C20.7965 23.8137 21.5084 24.5256 22.3835 24.5256V26.7638H17.8992V11.3914L19.9426 9.34791V4.84583H22.3835V14.5542L21.6133 14.5543ZM10.2362 24.5256C11.1112 24.5256 11.8231 23.8137 11.8231 22.9386C11.8231 22.6481 11.7443 22.3758 11.6074 22.1413C12.1852 21.9039 12.5933 21.3353 12.5933 20.6728C12.5933 20.3016 12.4648 19.96 12.2505 19.6894C12.6463 19.4005 12.9041 18.9334 12.9041 18.4071C12.9041 17.9844 12.7387 17.5862 12.4383 17.2858C12.3792 17.2267 12.3162 17.173 12.2501 17.1246C12.4724 16.8451 12.5934 16.5022 12.5934 16.1413C12.5934 15.2662 11.8815 14.5543 11.0064 14.5543H10.2362V4.84583H12.677V9.34785L14.7205 11.3913V26.7638H10.2362V24.5256ZM17.257 10.7491H15.3627L13.5852 8.97173V4.84583H19.0344V8.97173L17.257 10.7491ZM15.6287 11.6573H16.991V26.7638H15.6287V11.6573ZM9.32797 4.84583V14.5542H7.96567V4.84583H9.32797ZM4.04169 22.6831V15.5942L5.37129 13.6461H7.05746V14.5543H6.14926V15.4625H11.0063C11.3806 15.4625 11.6851 15.767 11.6851 16.1413C11.6851 16.3213 11.6142 16.4915 11.4853 16.6203C11.3565 16.7492 11.1864 16.8201 11.0063 16.8201H8.30709V17.7283H11.3171C11.4971 17.7283 11.6672 17.7992 11.796 17.9281C11.9248 18.0569 11.9958 18.227 11.9958 18.4071C11.9958 18.7814 11.6913 19.0858 11.317 19.0858H8.30709V19.994H11.0063C11.3806 19.994 11.6851 20.2985 11.6851 20.6728C11.6851 21.0471 11.3806 21.3516 11.0063 21.3516H7.88914V22.2598H10.2362C10.6105 22.2599 10.9149 22.5644 10.9149 22.9386C10.9149 23.3129 10.6104 23.6174 10.2361 23.6174H5.59974L4.04169 22.6831ZM7.96567 24.5256H9.32797V26.7638H7.96567V24.5256ZM24.654 26.7638H23.2917V24.5256H24.654V26.7638ZM27.2483 13.6461L28.5779 15.5942V22.6831L27.0199 23.6174H22.3835C22.0092 23.6174 21.7047 23.3129 21.7047 22.9386C21.7047 22.5644 22.0092 22.26 22.3833 22.2598H24.7304V21.3516H21.6133C21.239 21.3516 20.9345 21.0471 20.9345 20.6728C20.9345 20.2985 21.239 19.994 21.6133 19.994H24.3125V19.0858H21.3025C20.9282 19.0858 20.6237 18.7814 20.6237 18.4071C20.6237 18.0328 20.9282 17.7283 21.3025 17.7283H24.3125V16.8201H21.6133C21.4332 16.8201 21.2632 16.7492 21.1343 16.6203C21.0055 16.4915 20.9345 16.3213 20.9345 16.1413C20.9345 15.767 21.239 15.4625 21.6133 15.4625H26.4704V14.5543H25.5622V13.6461H27.2483ZM24.654 14.5542H23.2917V4.84583H24.654V14.5542Z" fill="#FB8500"/>
<path d="M16.3097 5.75391C15.5585 5.75391 14.9474 6.36507 14.9474 7.11621C14.9474 7.70824 15.3271 8.21296 15.8556 8.40041V9.38672H16.7638V8.40041C17.2923 8.21296 17.672 7.70824 17.672 7.11621C17.672 6.36507 17.0608 5.75391 16.3097 5.75391ZM16.3097 7.57031C16.0593 7.57031 15.8556 7.36663 15.8556 7.11621C15.8556 6.86579 16.0593 6.66211 16.3097 6.66211C16.5601 6.66211 16.7638 6.86585 16.7638 7.11621C16.7638 7.36657 16.5601 7.57031 16.3097 7.57031Z" fill="#FB8500"/>
<path d="M29.085 2.12109H29.9932V3.0293H29.085V2.12109Z" fill="#FB8500"/>
<path d="M27.2686 2.12109H28.1768V3.0293H27.2686V2.12109Z" fill="#FB8500"/>
</g>
<defs>
<clipPath id="clip0_4956_6535">
<rect width="31" height="31" fill="white" transform="translate(0.80957 0.304688)"/>
</clipPath>
</defs>
</svg>
