<svg width="32" height="31" viewBox="0 0 32 31" fill="none" xmlns="http://www.w3.org/2000/svg">
<g clip-path="url(#clip0_4956_6570)">
<path d="M17.8738 24.3544C17.8738 23.6032 17.2627 22.9921 16.5115 22.9921H3.79688C3.04573 22.9921 2.43457 23.6032 2.43457 24.3544V25.2626H1.52637V27.9872H15.1492V27.079H2.43457V26.1708H17.8738V27.079H16.0575V27.9872H18.782V25.2626H17.8738V24.3544ZM3.34277 24.3544C3.34277 24.1039 3.54645 23.9003 3.79688 23.9003H16.5115C16.762 23.9003 16.9656 24.1039 16.9656 24.3544V25.2626H3.34277V24.3544Z" fill="#FB8500"/>
<path d="M29.8018 8.23383C29.2098 8.23383 28.705 8.61346 28.5176 9.14203H16.1553C16.0591 8.10165 15.8953 7.12848 15.6629 6.31909L16.5116 5.47035V3.01172H3.79681V5.47029L4.64556 6.31903C4.44594 7.01278 4.293 7.83464 4.19037 8.76761L5.09312 8.86696C5.18509 8.03112 5.32387 7.27113 5.4977 6.64453H14.8104C15.5246 9.21487 15.5246 13.6101 14.8104 16.1805H5.49752C5.04771 14.5564 4.85784 12.0967 5.0126 9.78249L4.10639 9.72189C3.94037 12.2056 4.14684 14.7677 4.64586 16.5057L3.79681 17.3547V19.8133H16.5116V17.3547L15.6629 16.506C15.8953 15.6966 16.0592 14.7234 16.1553 13.683H28.5176C28.705 14.2116 29.2098 14.5912 29.8018 14.5912H31.6182V8.23383H29.8018ZM4.70502 3.91992H15.6034V5.09417L14.9612 5.73633H5.34718L4.70502 5.09417V3.91992ZM15.6034 18.9051H4.70502V17.7308L5.34718 17.0887H14.9612L15.6033 17.7308V18.9051H15.6034ZM16.2211 10.0502H28.4395V12.7748H16.2211C16.2691 11.8758 16.2691 10.9492 16.2211 10.0502ZM30.71 13.683H29.8018C29.5513 13.683 29.3477 13.4792 29.3477 13.2289V9.59613C29.3477 9.34571 29.5513 9.14203 29.8018 9.14203H30.71V13.683Z" fill="#FB8500"/>
<path d="M13.1543 7.55078H14.0625V8.45898H13.1543V7.55078Z" fill="#FB8500"/>
<path d="M13.1543 9.36719H14.0625V10.2754H13.1543V9.36719Z" fill="#FB8500"/>
<path d="M1.3584 20.2891L2.0005 19.647L2.96365 20.6101L2.32155 21.2522L1.3584 20.2891Z" fill="#FB8500"/>
<path d="M0.618164 22.082H1.98047V22.9902H0.618164V22.082Z" fill="#FB8500"/>
<path d="M17.3379 20.6133L18.301 19.6501L18.9431 20.2922L17.98 21.2554L17.3379 20.6133Z" fill="#FB8500"/>
<path d="M18.3281 22.082H19.6904V22.9902H18.3281V22.082Z" fill="#FB8500"/>
</g>
<defs>
<clipPath id="clip0_4956_6570">
<rect width="31" height="31" fill="white" transform="translate(0.618164)"/>
</clipPath>
</defs>
</svg>
