<svg width="48" height="49" viewBox="0 0 48 49" fill="none" xmlns="http://www.w3.org/2000/svg">
<g clip-path="url(#clip0_5599_14737)">
<path fill-rule="evenodd" clip-rule="evenodd" d="M24.0459 33.7373C29.2046 33.7373 33.4121 29.5298 33.4121 24.371C32.933 11.9641 15.1569 11.9676 14.6797 24.3711C14.6797 29.5298 18.8872 33.7373 24.0459 33.7373Z" fill="#B2F0FB"/>
<path d="M40.9902 7.42679C22.5984 -10.3935 -6.79237 8.27144 1.46376 32.4896C2.29323 34.7984 3.46757 36.955 4.95848 38.9092L1.07956 42.5479C0.435444 43.1522 0.0726901 43.9815 0.0582661 44.8831C0.0435612 45.8064 0.407907 46.7089 1.05811 47.359C1.70784 48.009 2.61178 48.3737 3.53398 48.3587C4.43576 48.3443 5.26513 47.9817 5.86935 47.3376L9.50822 43.4585C18.6987 50.6767 32.8612 49.7734 40.9901 41.3361C50.2916 32.4117 50.2922 16.3513 40.9902 7.42679ZM40.455 39.1652C38.4359 37.2658 36.1401 35.7537 33.6089 34.6548C36.151 32.2892 37.8179 28.995 38.0638 25.3181H46.1201C45.8978 30.6295 43.792 35.4626 40.455 39.1652ZM11.87 24.3711C11.87 17.6572 17.3322 12.195 24.0461 12.195C40.1772 12.8072 40.1728 35.9376 24.0459 36.5472C17.3322 36.5472 11.87 31.085 11.87 24.3711ZM10.027 23.4449H1.95071C2.17325 18.1335 4.27896 13.3005 7.61596 9.59788C9.63485 11.4971 11.9304 13.0092 14.4613 14.108C11.9269 16.4765 10.2674 19.7703 10.027 23.4449ZM31.9432 12.7567C30.9782 8.39863 30.0388 5.39704 27.8488 2.60637C32.1729 3.36139 36.0691 5.37728 39.1434 8.26001C37.0499 10.2224 34.6345 11.7345 31.9514 12.7622C31.9486 12.7604 31.9458 12.7585 31.9432 12.7567ZM29.7494 11.5319C26.2971 9.92748 21.7675 9.93198 18.3189 11.5427C21.3533 -0.561937 26.7118 -0.569429 29.7494 11.5319ZM19.0777 4.24715C17.8497 6.34668 16.8316 9.28636 16.1262 12.7646C13.4406 11.737 11.0232 10.2241 8.92779 8.25992C12.0021 5.37728 15.8983 3.36129 20.2223 2.60628C19.8414 3.05633 19.4576 3.5976 19.0777 4.24715ZM24.0461 38.4205C26.0776 38.4205 28.0099 37.987 29.7552 37.2077C26.7173 49.3445 21.3452 49.3284 18.3131 37.1969C20.0647 37.983 22.0053 38.4205 24.0461 38.4205ZM28.9949 44.5132C30.2223 42.4138 31.2398 39.4752 31.9448 35.9984C34.6304 37.0261 37.0478 38.5389 39.1432 40.5031C36.0689 43.3858 32.1727 45.4018 27.8487 46.1568C28.2302 45.7062 28.6145 45.1639 28.9949 44.5132ZM38.0653 23.4449C37.8247 19.767 36.1625 16.4706 33.6242 14.1016C36.1495 13.0032 38.4402 11.4933 40.4551 9.59788C43.792 13.3005 45.8978 18.1334 46.1203 23.4448H38.0653V23.4449ZM1.95118 25.3181H10.0284C10.2402 28.4843 11.5055 31.3666 13.4759 33.6166L12.1401 34.9524L11.3472 34.1595C10.9896 33.802 10.4128 33.7927 10.0441 34.1387L6.3327 37.6201C3.67569 34.0678 2.14113 29.7572 1.95118 25.3181ZM4.5031 46.056C4.24899 46.3269 3.8942 46.4794 3.5041 46.4857C3.08477 46.4928 2.67622 46.328 2.38277 46.0345C2.08924 45.741 1.92467 45.3322 1.93132 44.913C1.9376 44.5231 2.09027 44.1683 2.36123 43.9141L10.6641 36.1255L12.2917 37.7531L4.5031 46.056ZM14.2786 38.3732C14.6245 38.0043 14.6153 37.4275 14.2578 37.07L13.4649 36.2771L14.8007 34.9413C15.2192 35.3078 15.6596 35.6499 16.1196 35.9654C17.0836 40.338 18.0232 43.3506 20.2183 46.1519C16.815 45.5531 13.5748 44.1621 10.7972 42.0845L14.2786 38.3732Z" fill="#FB8500"/>
<path d="M26.8558 19.5043C26.408 19.2457 25.8351 19.3992 25.5764 19.8471L20.8932 27.9585C20.6346 28.4065 20.7881 28.9793 21.2361 29.2379C21.6761 29.4943 22.2554 29.3472 22.5155 28.8951L27.1986 20.7837C27.4573 20.3357 27.3038 19.7629 26.8558 19.5043Z" fill="#FB8500"/>
<path d="M21.705 21.2522C22.9464 21.2061 22.9454 19.4245 21.705 19.3789H21.7043C20.4628 19.4251 20.4646 21.2067 21.705 21.2522Z" fill="#FB8500"/>
<path d="M26.3877 27.49H26.387C25.8697 27.49 25.4507 27.9093 25.4507 28.4266C25.4967 29.6675 27.2785 29.6674 27.3242 28.4266C27.3243 27.9093 26.905 27.49 26.3877 27.49Z" fill="#FB8500"/>
</g>
<defs>
<clipPath id="clip0_5599_14737">
<rect width="48" height="48" fill="white" transform="translate(0 0.359131)"/>
</clipPath>
</defs>
</svg>
