<svg width="32" height="31" viewBox="0 0 32 31" fill="none" xmlns="http://www.w3.org/2000/svg">
<g clip-path="url(#clip0_5572_754)">
<path d="M31.3092 24.5639L25.8615 21.824L25.8619 15.8461H31.5671V12.9426C31.5671 9.55862 28.8141 6.8056 25.4304 6.8056C22.0468 6.8056 19.2934 9.55862 19.2934 12.9426V15.8461H24.999L24.9986 21.3905L17.239 17.487C17.2279 17.3762 17.2076 17.2651 17.1717 17.1567C17.0436 16.7694 16.7727 16.455 16.4082 16.2717C16.2031 16.1685 15.975 16.1136 15.7465 16.1102L16.1483 15.3115L15.1839 14.8265L15.4842 14.229C15.5712 14.2446 15.6592 14.2549 15.7472 14.2549C16.3226 14.2549 16.8407 13.9356 17.0985 13.4224C17.2801 13.0617 17.3104 12.652 17.1838 12.2685C17.0571 11.885 16.7885 11.5737 16.4278 11.3921L13.9192 10.1306C13.7093 10.0249 13.475 9.96937 13.2413 9.96937C12.6659 9.96937 12.1482 10.2883 11.8893 10.8022C11.5338 11.5095 11.7926 12.3607 12.4567 12.7659L12.1803 13.3157L10.9391 12.6917L8.5053 17.5298L9.74617 18.1542L9.4369 18.7686C9.25707 18.6958 9.06447 18.6558 8.87118 18.6558C8.29613 18.6558 7.77839 18.9747 7.51952 19.4883C7.1457 20.2332 7.44703 21.144 8.1912 21.5189L10.7002 22.7805C10.9101 22.8857 11.1444 22.9417 11.3778 22.9417C11.9531 22.9417 12.4712 22.622 12.7294 22.1084C12.911 21.7481 12.941 21.3387 12.8143 20.9549C12.7346 20.7129 12.5927 20.5048 12.4126 20.335L12.7494 19.6654L13.7145 20.1507L14.1187 19.3468C14.2547 19.5252 14.4273 19.6792 14.6406 19.7862C14.856 19.8946 15.0865 19.9494 15.3257 19.9494C15.6105 19.9494 15.8808 19.8707 16.1137 19.7309L24.9986 24.1991V27.5154H20.5298V26.4257H19.3704V24.4863C19.3704 23.9616 18.9437 23.535 18.4191 23.535H5.70119V3.7754H22.1258C22.3384 5.41562 23.7415 6.68755 25.4387 6.68755C27.2826 6.68755 28.7826 5.18781 28.7826 3.34395C28.7826 1.50008 27.2826 0 25.4387 0C23.7415 0 22.3391 1.27227 22.1258 2.91249H4.83828V23.535H4.06304C3.5384 23.535 3.11177 23.9616 3.11177 24.4863V26.4257H2V29.4677H20.5298V28.3783H25.8615V24.633L30.1819 26.8058C30.3618 26.8965 30.554 26.9397 30.7432 26.9397C31.2026 26.9397 31.6458 26.6867 31.8667 26.249C32.177 25.6308 31.9271 24.8749 31.3092 24.5639ZM30.7042 12.9423V14.9829H29.2251V13.0009H28.3622V14.9829H25.8619V13.8825L27.4993 11.9751V10.339H28.4375V8.61529C29.8057 9.56898 30.7042 11.1516 30.7042 12.9423ZM23.2863 9.47613V8.12826C23.4499 8.05543 23.6169 7.98985 23.7888 7.93325L24.999 10.97V12.5578L24.2244 11.6555V9.47613H23.2863ZM27.0706 7.9329C27.2429 7.98951 27.4106 8.05509 27.5746 8.12826V9.47613H26.6364V11.6555L25.8619 12.5578V10.9697L27.0706 7.9329ZM26.2212 7.73409L25.4301 9.7212L24.6383 7.73443C24.8975 7.69508 25.1605 7.66851 25.4304 7.66851C25.6996 7.66816 25.9623 7.69508 26.2212 7.73409ZM22.8572 14.9829V13.0009H21.9943V14.9829H20.1563V12.9423C20.1563 11.1516 21.0551 9.56898 22.4233 8.61529V10.339H23.3615V11.9751L24.999 13.8825V14.9829H22.8572ZM25.4387 0.863255C26.8066 0.863255 27.9197 1.97641 27.9197 3.34429C27.9197 4.71218 26.8066 5.82499 25.4387 5.82499C24.0708 5.82499 22.9577 4.71218 22.9577 3.34429C22.9577 1.97606 24.0708 0.863255 25.4387 0.863255ZM3.97468 25.8435H15.2626V24.9805H3.97468V24.4863C3.97468 24.4376 4.01438 24.3979 4.06304 24.3979H18.4191C18.4678 24.3979 18.5075 24.4376 18.5075 24.4863V26.4257H3.97468V25.8435ZM19.6669 28.6048H2.86291V27.2887H19.6669V28.6048ZM12.6597 11.1895C12.7708 10.9686 12.9935 10.8316 13.241 10.8316C13.3421 10.8316 13.4398 10.8547 13.5312 10.901L16.0395 12.1625C16.1945 12.2405 16.3098 12.3741 16.364 12.5384C16.4182 12.7031 16.4054 12.8788 16.3271 13.0341C16.171 13.3447 15.7707 13.48 15.4566 13.3223L12.9479 12.0604C12.6283 11.8999 12.4988 11.5091 12.6597 11.1895ZM13.2216 13.1642L14.6834 13.8997L14.4124 14.4385L12.9503 13.7034L13.2216 13.1642ZM11.9583 21.7205C11.802 22.0315 11.4016 22.1671 11.0875 22.009L8.57917 20.7478C8.25955 20.5866 8.13011 20.1952 8.29061 19.8759C8.40175 19.6554 8.62404 19.5187 8.87152 19.5187C8.97265 19.5187 9.07068 19.5418 9.1625 19.5884L11.6711 20.85C11.8258 20.9276 11.9411 21.0609 11.9953 21.2259C12.0494 21.3898 12.0363 21.5651 11.9583 21.7205ZM11.6729 19.8845L10.2108 19.1493L10.5166 18.5415L11.9783 19.2767L11.6729 19.8845ZM13.331 18.9913L9.66333 17.1464L11.3218 13.8497L14.9896 15.6939L13.331 18.9913ZM15.0286 19.0154C14.7013 18.8504 14.5691 18.4511 14.7334 18.1239L14.9378 17.7176L15.129 17.3372C15.2426 17.1118 15.47 16.9714 15.7234 16.9714C15.8269 16.9714 15.927 16.9952 16.0202 17.0421C16.1786 17.1219 16.2967 17.2585 16.3523 17.427C16.4078 17.5954 16.3947 17.7752 16.315 17.9337L15.9194 18.7196C15.76 19.0385 15.3509 19.1766 15.0286 19.0154ZM31.0956 25.8611C30.9983 26.0547 30.7628 26.1327 30.5696 26.035L16.7123 19.0651L17.0643 18.3651L30.9216 25.3347C31.1146 25.432 31.1926 25.6681 31.0956 25.8611Z" fill="#FB8500"/>
</g>
<defs>
<clipPath id="clip0_5572_754">
<rect width="31" height="31" fill="white" transform="translate(0.523438)"/>
</clipPath>
</defs>
</svg>
