<svg width="33" height="32" viewBox="0 0 33 32" fill="none" xmlns="http://www.w3.org/2000/svg">
<path d="M17.0907 24.6762L16.9745 24.5481C16.8007 24.3562 16.5045 24.3418 16.3126 24.5156C16.1207 24.6893 16.1064 24.9856 16.2801 25.1775L16.3964 25.3056C16.4889 25.4075 16.6164 25.4593 16.7439 25.4593C16.8564 25.4593 16.9689 25.4193 17.0582 25.3381C17.2501 25.1643 17.2645 24.8681 17.0907 24.6762Z" fill="#FB8500"/>
<path d="M29.8276 23.5806L25.3938 26.7268V26.6449C25.3938 25.5112 24.4713 24.5887 23.3376 24.5887H21.3975L19.2038 20.7174C18.6688 19.7737 17.6625 19.1874 16.5782 19.1874H14.2419C13.4469 19.1874 12.6963 19.4943 12.1288 20.0505L11.1219 21.0381H9.56252V20.5293C9.56252 20.2706 9.35252 20.0605 9.09377 20.0605H7.06252V19.2793C7.06252 19.0205 6.85252 18.8105 6.59376 18.8105H0.968751C0.710001 18.8105 0.5 19.0205 0.5 19.2793V30.5293C0.5 30.7881 0.710001 30.9981 0.968751 30.9981H6.59376C6.85252 30.9981 7.06252 30.7881 7.06252 30.5293V29.7481H9.09377C9.35252 29.7481 9.56252 29.5381 9.56252 29.2793V28.7706H11.175L15.2119 31.3737C15.8475 31.7837 16.5832 32 17.3394 32H24.4376C25.4707 32 26.4463 31.6018 27.1844 30.8787L31.9919 26.1706C32.632 25.5437 32.6726 24.5231 32.0832 23.8481C31.5094 23.1899 30.5394 23.0749 29.8276 23.5806ZM6.12501 30.0606H1.4375V19.748H6.12501V30.0606ZM8.62502 28.8106H7.06252V20.9981H8.62502V28.8106ZM31.3357 25.5012L26.5282 30.2093C25.9663 30.7593 25.2238 31.0625 24.4376 31.0625H17.3394C16.7638 31.0625 16.2038 30.8975 15.72 30.5856L11.5675 27.9074C11.4919 27.8587 11.4038 27.8324 11.3138 27.8324H9.56315V21.9756H11.3138C11.4363 21.9756 11.5544 21.9274 11.6419 21.8412L12.7857 20.7193C13.1769 20.3356 13.6944 20.1243 14.2425 20.1243H16.5788C17.3269 20.1243 18.02 20.5287 18.3888 21.1793L20.7169 25.2881C20.8001 25.4349 20.9557 25.5256 21.125 25.5256H23.3382C23.9551 25.5256 24.4569 26.0274 24.4569 26.6443V27.1649H19.9338C19.545 27.1649 19.1882 26.9831 18.9232 26.6987C18.9219 26.6974 18.9213 26.6968 18.92 26.6956L17.8382 25.5518C17.66 25.3637 17.3638 25.3556 17.1757 25.5331C16.9875 25.7112 16.9794 26.0074 17.1569 26.1956L18.2357 27.3362C18.6788 27.8231 19.3107 28.1024 19.9688 28.1024H24.9244V28.1012C25.0201 28.1012 25.1151 28.0731 25.1957 28.0156L30.3694 24.3437C30.6876 24.1181 31.1201 24.1693 31.3763 24.4631C31.6394 24.7643 31.6213 25.2199 31.3357 25.4999V25.5012Z" fill="#FB8500"/>
<path d="M3.78125 29.1232C4.04 29.1232 4.25 28.9132 4.25 28.6544V28.0294C4.25 27.7707 4.04 27.5607 3.78125 27.5607C3.5225 27.5607 3.3125 27.7707 3.3125 28.0294V28.6544C3.3125 28.9132 3.5225 29.1232 3.78125 29.1232Z" fill="#FB8500"/>
<path d="M3.78125 26.3106C4.04 26.3106 4.25 26.1006 4.25 25.8418V25.2168C4.25 24.958 4.04 24.748 3.78125 24.748C3.5225 24.748 3.3125 24.958 3.3125 25.2168V25.8418C3.3125 26.1006 3.5225 26.3106 3.78125 26.3106Z" fill="#FB8500"/>
<path d="M26.0938 10.787C25.835 10.787 25.625 10.997 25.625 11.2557V12.2395C25.625 12.4982 25.835 12.7082 26.0938 12.7082C26.3525 12.7082 26.5625 12.4982 26.5625 12.2395V11.2557C26.5625 10.997 26.3525 10.787 26.0938 10.787Z" fill="#FB8500"/>
<path d="M31.7864 7.74314C31.8614 7.78939 31.9464 7.81252 32.0314 7.81252C32.1102 7.81252 32.1889 7.79252 32.2602 7.75314C32.4083 7.67002 32.5002 7.51377 32.5002 7.34377V5.59939C32.5002 5.11439 32.2433 4.65501 31.8295 4.40126L24.7764 0.0693752C24.6258 -0.0231251 24.4364 -0.0231251 24.2858 0.0693752L17.2326 4.40064C16.8189 4.65439 16.562 5.11376 16.562 5.59876V7.34314C16.562 7.51314 16.6539 7.66939 16.802 7.75252C16.9501 7.83564 17.1314 7.83189 17.2764 7.74314L17.8126 7.41377V15.0088C17.1108 15.0869 16.5626 15.6838 16.5626 16.4063V17.3438C16.5626 17.6025 16.7726 17.8125 17.0314 17.8125H32.0314C32.2902 17.8125 32.5002 17.6025 32.5002 17.3438V16.4063C32.5002 15.6838 31.9521 15.0869 31.2502 15.0088V7.41377L31.7864 7.74314ZM17.5001 5.59939C17.5001 5.43751 17.5858 5.28439 17.7239 5.20001L24.5314 1.01938L31.3389 5.20001C31.4771 5.28439 31.5627 5.43751 31.5627 5.59939V6.50627L24.7764 2.33876C24.7014 2.29251 24.6164 2.26938 24.5314 2.26938C24.4464 2.26938 24.3614 2.29251 24.2864 2.33876L17.5001 6.50627V5.59939ZM31.5627 16.4063V16.875H17.5001V16.4063C17.5001 16.1475 17.7101 15.9375 17.9689 15.9375H31.0939C31.3527 15.9375 31.5627 16.1475 31.5627 16.4063ZM26.8752 15H22.1877V8.90627C22.1877 8.64752 22.3977 8.43752 22.6564 8.43752H26.4064C26.6652 8.43752 26.8752 8.64752 26.8752 8.90627V15ZM30.3127 15H27.8127V8.90627C27.8127 8.13065 27.182 7.50002 26.4064 7.50002H22.6564C21.8808 7.50002 21.2501 8.13065 21.2501 8.90627V15H18.7501V6.83814L24.5314 3.28751L30.3127 6.83814V15Z" fill="#FB8500"/>
</svg>
