<svg width="28" height="35" viewBox="0 0 28 35" fill="none" xmlns="http://www.w3.org/2000/svg">
<path d="M19.112 30.9111C18.6047 30.9111 18.0968 30.7146 17.71 30.3216L13.4864 26.024C13.2663 25.8001 13.2663 25.4373 13.4864 25.2134C13.7065 24.9895 14.063 24.9895 14.2831 25.2134L18.5067 29.5107C18.8407 29.8508 19.3844 29.8497 19.7172 29.5107C20.0507 29.1711 20.0507 28.6186 19.7172 28.2791L15.4936 23.9818C15.2735 23.7578 15.2735 23.3951 15.4936 23.1711C15.7137 22.9472 16.0703 22.9472 16.2904 23.1711L20.514 27.4684C21.2865 28.255 21.2865 29.5348 20.514 30.3213C20.1277 30.7143 19.6199 30.9111 19.112 30.9111Z" fill="#FB8500"/>
<path d="M17.1052 32.9528C16.5973 32.9528 16.0894 32.7563 15.7031 32.363L11.4795 28.0658C11.2594 27.8418 11.2594 27.479 11.4795 27.2551C11.6996 27.0312 12.0562 27.0312 12.2763 27.2551L16.4999 31.5524C16.8333 31.8914 17.3764 31.8925 17.7099 31.5524C17.8716 31.3878 17.9608 31.1692 17.9608 30.9366C17.9608 30.7043 17.8716 30.4856 17.7099 30.3213L13.4862 26.0238C13.2661 25.7998 13.2661 25.4371 13.4862 25.2131C13.7063 24.9892 14.0629 24.9892 14.283 25.2131L18.5066 29.5104C18.8813 29.8911 19.0877 30.3977 19.0877 30.9366C19.0877 31.4754 18.8813 31.9821 18.5066 32.3633C18.1203 32.7563 17.6125 32.9528 17.1052 32.9528Z" fill="#FB8500"/>
<path d="M21.1203 28.8687C20.5888 28.8687 20.0898 28.6591 19.7156 28.2781L15.4931 23.9819C15.273 23.758 15.273 23.3952 15.4931 23.1713C15.7132 22.9474 16.0697 22.9474 16.2898 23.1713L20.5123 27.4675C20.6714 27.6293 20.8931 27.7222 21.1203 27.7222C21.4235 27.7222 21.6898 27.5702 21.8516 27.3054C22.058 26.9687 21.9765 26.4894 21.6585 26.1661L16.0499 20.467C16.0306 20.4469 15.9932 20.4457 15.9718 20.467L14.4234 22.0351C13.756 22.715 12.8646 23.0901 11.9149 23.0901C11.177 23.0845 10.5646 22.6574 10.2895 21.9749C10.0044 21.2667 10.1591 20.4637 10.684 19.9296L12.9647 17.6057C12.6786 17.4632 12.3776 17.3608 12.0733 17.3031C11.1478 17.1285 10.3616 16.7808 9.73263 16.2685L4.47731 21.6217C4.97473 22.1728 5.33403 22.843 5.52111 23.5674L5.59815 23.8686C5.65537 24.0905 5.73901 24.3134 5.8452 24.5297C5.98496 24.813 5.87217 25.1573 5.5943 25.2992C5.31588 25.4417 4.97748 25.3261 4.83827 25.0437C4.69685 24.7565 4.58571 24.4589 4.50813 24.1594L4.43054 23.8574C4.28308 23.2838 3.99035 22.7551 3.58428 22.3293L3.2833 22.0138C3.06926 21.7894 3.07146 21.4311 3.2888 21.2096L9.3062 15.08C9.51749 14.8656 9.85533 14.8547 10.0793 15.0562L10.3093 15.2639C10.8094 15.7168 11.4725 16.0236 12.2791 16.1759C12.962 16.3052 13.6283 16.6025 14.2061 17.0361C14.3469 17.1419 14.4317 17.3084 14.435 17.4867C14.4383 17.6648 14.3596 17.8347 14.2226 17.9458C14.2061 17.959 14.1934 17.9732 14.1808 17.9867L11.4807 20.7402C11.2348 20.9907 11.243 21.3177 11.3322 21.5402C11.3811 21.6606 11.533 21.9408 11.8962 21.9436C12.5631 21.9436 13.1716 21.688 13.6278 21.2236L15.1772 19.6544C15.6378 19.1884 16.3867 19.1892 16.8461 19.6553L22.4547 25.3549C23.1397 26.0508 23.2888 27.1257 22.809 27.9109C22.442 28.5107 21.8109 28.8687 21.1203 28.8687Z" fill="#FB8500"/>
<path d="M15.0976 34.9999C14.5694 34.9999 14.0709 34.7886 13.6945 34.4051L12.5908 33.2832C12.3707 33.0593 12.3707 32.6962 12.5908 32.4723C12.8109 32.2483 13.1674 32.2486 13.3875 32.472L14.4913 33.5945C14.8363 33.946 15.4355 33.9214 15.7596 33.534C16.0341 33.2009 15.9857 32.6478 15.6484 32.3046L11.4815 28.0653C11.2614 27.8413 11.2614 27.4786 11.4815 27.2546C11.7016 27.0307 12.0581 27.0307 12.2782 27.2546L16.4452 31.494C17.1973 32.2598 17.2744 33.4811 16.6196 34.2744C16.2322 34.7368 15.6787 34.9999 15.0976 34.9999Z" fill="#FB8500"/>
<path d="M3.07191 22.4495C3.07136 22.4495 3.07081 22.4495 3.07026 22.4495C2.68729 22.4492 2.32799 22.297 2.05892 22.0207L0.163903 20.0797C-0.0550919 19.8558 -0.0545417 19.4939 0.165003 19.2705L7.41548 11.8933C7.52113 11.7858 7.66419 11.7253 7.81385 11.7253C7.96352 11.7253 8.10713 11.7861 8.21277 11.8939L10.11 13.8295C10.6646 14.3952 10.6646 15.3161 10.11 15.8818L4.08269 22.0232C3.81253 22.2981 3.45377 22.4495 3.07191 22.4495ZM1.35902 19.6772L2.85786 21.2129C2.91509 21.2708 2.99047 21.303 3.07136 21.303C3.15169 21.303 3.22817 21.2711 3.28485 21.2131L9.31215 15.072C9.42935 14.9528 9.42935 14.7585 9.31215 14.639L7.8133 13.1098L1.35902 19.6772Z" fill="#FB8500"/>
<path d="M24.9278 22.1785C24.5465 22.1785 24.1878 22.0271 23.9176 21.7522L17.8903 15.6108C17.3351 15.0454 17.3346 14.1245 17.8897 13.5582L19.7875 11.6229C19.8932 11.5151 20.0368 11.4543 20.1859 11.4543C20.3356 11.4543 20.4792 11.5148 20.5848 11.6223L27.8353 18.9992C28.0548 19.2226 28.0554 19.5845 27.8364 19.8088L25.9408 21.7497C25.6718 22.0257 25.3125 22.178 24.93 22.1785C24.9295 22.1785 24.9289 22.1785 24.9278 22.1785ZM20.187 12.8388L18.6876 14.3677C18.5704 14.4872 18.5704 14.6812 18.6876 14.8005L24.7154 20.9421C24.7721 21.0001 24.8475 21.032 24.9284 21.032C25.0093 21.032 25.0847 20.9998 25.1413 20.9416L26.6413 19.406L20.187 12.8388Z" fill="#FB8500"/>
<path d="M21.9298 26.2055C21.7856 26.2055 21.6414 26.1495 21.5314 26.0378L16.0488 20.4666C16.0279 20.4459 15.9932 20.4465 15.9729 20.4666L14.4234 22.0358C13.756 22.7155 12.8646 23.0906 11.9149 23.0906C11.177 23.085 10.5646 22.6578 10.2895 21.9754C10.0045 21.2672 10.1591 20.4641 10.684 19.93L13.3802 17.1801C14.0911 16.4563 14.9891 15.9966 15.9789 15.8494C16.7141 15.7318 17.4074 15.3727 17.9251 14.8392C18.0308 14.7306 18.1744 14.669 18.3246 14.6687H18.3263C18.4759 14.6687 18.6195 14.7292 18.7252 14.8372L24.7497 20.9811C24.8565 21.09 24.9159 21.2384 24.9142 21.3926C24.9126 21.5465 24.8499 21.6935 24.7404 21.8001L24.5929 21.9437C24.15 22.3757 23.8336 22.9237 23.6784 23.5286L23.5942 23.8573C23.378 24.6547 22.9163 25.4472 22.3254 26.0403C22.2159 26.1503 22.0728 26.2055 21.9298 26.2055ZM16.0114 19.305C16.3135 19.305 16.6156 19.4217 16.8456 19.6554L21.9006 24.7927C22.1763 24.4151 22.392 23.9804 22.5059 23.5605L22.5878 23.2395C22.7645 22.5509 23.0968 21.9177 23.5568 21.3878L18.3026 16.0297C17.683 16.524 16.9352 16.8571 16.1479 16.9828C15.394 17.095 14.715 17.4427 14.1786 17.9891L11.4807 20.7407C11.2348 20.9912 11.243 21.3181 11.3322 21.5407C11.3812 21.661 11.533 21.9412 11.8962 21.944C12.5631 21.944 13.1716 21.6885 13.6278 21.2241L15.1783 19.654C15.4078 19.4214 15.7099 19.305 16.0114 19.305Z" fill="#FB8500"/>
<path d="M5.01236 28.8671C4.43516 28.8671 3.88822 28.614 3.51186 28.1729C2.83397 27.3771 2.9055 26.1401 3.67528 25.3566L4.25193 24.7699C5.02391 23.9845 6.2801 23.9834 7.05319 24.7699L7.05814 24.7747C7.83067 25.5604 7.83067 26.8394 7.05814 27.6251L6.41546 28.279C6.04295 28.6583 5.54444 28.8671 5.01236 28.8671ZM5.64843 25.3278C5.42999 25.3278 5.21374 25.4126 5.04867 25.5806L4.47202 26.1673C4.12427 26.5211 4.07585 27.084 4.36363 27.4216C4.67671 27.7894 5.28197 27.8095 5.61872 27.4683L6.26139 26.8144C6.59374 26.476 6.59429 25.9257 6.26249 25.5867C6.08972 25.4137 5.86797 25.3278 5.64843 25.3278Z" fill="#FB8500"/>
<path d="M7.02139 30.9116C6.44419 30.9116 5.89725 30.6585 5.52089 30.2177C4.843 29.4213 4.91453 28.1844 5.68431 27.4014L6.26096 26.8147C7.00928 26.0539 8.3139 26.0533 9.06222 26.8147C9.83365 27.5996 9.83475 28.8774 9.06442 29.6629L8.41954 30.3224C8.04593 30.7028 7.55017 30.9116 7.02139 30.9116ZM7.66131 27.3712C7.44287 27.3712 7.22443 27.456 7.0577 27.6254L6.48106 28.2121C6.13331 28.5659 6.08488 29.1285 6.37266 29.4667C6.68354 29.8308 7.2833 29.8571 7.6217 29.5131L8.26603 28.8539C8.59837 28.5147 8.59782 27.9638 8.26548 27.6254C8.09875 27.456 7.88031 27.3712 7.66131 27.3712Z" fill="#FB8500"/>
<path d="M9.0243 32.9554C8.4416 32.9554 7.88861 32.6931 7.5073 32.2355C6.84922 31.4455 6.92295 30.2245 7.67622 29.4556L8.26277 28.856C8.63694 28.4742 9.1349 28.2637 9.66478 28.2634C9.66478 28.2634 9.66533 28.2634 9.66588 28.2634C10.1952 28.2634 10.6926 28.4731 11.0668 28.8538L10.6712 29.2622L11.0695 28.8566C11.4437 29.2373 11.65 29.7436 11.65 30.2819C11.65 30.8205 11.4437 31.3268 11.0695 31.7075L10.4269 32.3611C10.0505 32.7443 9.55198 32.9554 9.0243 32.9554ZM9.66588 29.41C9.43753 29.41 9.22239 29.5007 9.06117 29.6653L8.47462 30.2648C8.13732 30.6091 8.0889 31.1606 8.36677 31.494C8.68426 31.8749 9.28512 31.9015 9.63012 31.5505L10.2728 30.8966C10.4346 30.7323 10.5232 30.5142 10.5232 30.2819C10.5232 30.0499 10.4346 29.8318 10.2728 29.6678C10.2667 29.6613 10.2601 29.6546 10.2541 29.6479L10.2513 29.6448C10.1088 29.5001 9.89423 29.41 9.66588 29.41Z" fill="#FB8500"/>
<path d="M11.034 35C10.4507 35 9.8972 34.7369 9.51534 34.2778C8.8567 33.4848 8.93318 32.261 9.68921 31.4912L10.2736 30.8967C11.0461 30.1112 12.3028 30.1107 13.0754 30.8967L13.0787 30.8997C13.4534 31.281 13.6592 31.7879 13.6592 32.327C13.6586 32.8659 13.4517 33.372 13.0765 33.7524L12.4299 34.4065C12.0547 34.7886 11.5584 35 11.034 35ZM11.6684 31.4554C11.4505 31.4554 11.2348 31.5402 11.0703 31.7076L10.486 32.3019C10.1465 32.6476 10.0969 33.2018 10.3759 33.5374C10.6906 33.9164 11.286 33.9492 11.6343 33.5951L12.2814 32.9398C12.4426 32.7763 12.5317 32.558 12.5323 32.3259C12.5323 32.0933 12.4431 31.8747 12.2819 31.7104C12.1064 31.5396 11.8863 31.4554 11.6684 31.4554Z" fill="#FB8500"/>
<path d="M12.2221 17.1482C11.9107 17.1482 11.6587 16.8915 11.6587 16.5749V10.0433C11.6587 9.88489 11.7231 9.73374 11.8364 9.62541C11.9503 9.5168 12.1027 9.4597 12.2579 9.47118C13.4123 9.54564 14.5871 9.55515 15.7503 9.49665C15.9049 9.49133 16.0545 9.54592 16.1662 9.65424C16.2779 9.76229 16.3412 9.91233 16.3412 10.0694V16.4442C16.3412 16.7608 16.0892 17.0175 15.7778 17.0175C15.4663 17.0175 15.2143 16.7608 15.2143 16.4442V10.6659C14.4049 10.6908 13.5922 10.6852 12.7856 10.6485V16.5749C12.7856 16.8915 12.5336 17.1482 12.2221 17.1482Z" fill="#FB8500"/>
<path d="M14.2254 10.6927C13.5409 10.6927 12.857 10.6667 12.1791 10.6146C10.6709 10.5074 9.1005 10.2653 7.51361 9.89522C7.25775 9.83559 7.07617 9.60382 7.07617 9.3365V1.46411C7.07617 1.19763 7.25665 0.96642 7.51141 0.905678C11.8819 -0.130855 16.2486 -0.130855 20.4904 0.906798C20.7441 0.968659 20.9223 1.19903 20.9223 1.46411V9.3365C20.9223 9.59822 20.7479 9.82692 20.4987 9.89186C18.9685 10.2907 17.392 10.5443 15.8128 10.646C15.2852 10.677 14.7553 10.6927 14.2254 10.6927ZM8.20306 8.8766C9.5836 9.17779 10.9465 9.37765 12.2605 9.47114C13.4166 9.5596 14.5869 9.56967 15.7446 9.50137C17.1059 9.41404 18.4672 9.20774 19.7955 8.88751V1.91982C16.0032 1.05991 12.1081 1.06047 8.20306 1.92262V8.8766Z" fill="#FB8500"/>
<path d="M21.7936 10.8157C20.692 10.8157 19.7957 9.90403 19.7957 8.78324V2.03248C19.7957 0.91169 20.692 0 21.7936 0C22.8951 0 23.7909 0.91169 23.7909 2.03248V8.78324C23.7909 9.90403 22.8951 10.8157 21.7936 10.8157ZM21.7936 1.14654C21.3132 1.14654 20.9225 1.54402 20.9225 2.03248V8.78324C20.9225 9.2717 21.3132 9.66918 21.7936 9.66918C22.2734 9.66918 22.664 9.2717 22.664 8.78324V2.03248C22.664 1.54402 22.2734 1.14654 21.7936 1.14654Z" fill="#FB8500"/>
<path d="M6.20665 10.8157C5.10508 10.8157 4.20874 9.90403 4.20874 8.78324V2.03248C4.20874 0.91169 5.10508 0 6.20665 0C7.30823 0 8.20401 0.91169 8.20401 2.03248V8.78324C8.20401 9.90403 7.30823 10.8157 6.20665 10.8157ZM6.20665 1.14654C5.72629 1.14654 5.33563 1.54402 5.33563 2.03248V8.78324C5.33563 9.2717 5.7263 9.66918 6.20665 9.66918C6.68646 9.66918 7.07713 9.2717 7.07713 8.78324V2.03248C7.07713 1.54402 6.68646 1.14654 6.20665 1.14654Z" fill="#FB8500"/>
</svg>
