<svg width="32" height="32" viewBox="0 0 32 32" fill="none" xmlns="http://www.w3.org/2000/svg">
<path d="M29.7659 12.8C29.1913 12.8332 28.649 13.0768 28.2425 13.4844C27.8361 13.8919 27.5939 14.4349 27.5622 15.0096L26.7217 21.8005C26.4602 21.713 26.1798 21.6994 25.9111 21.7612C25.6424 21.8229 25.396 21.9576 25.199 22.1504L20.5153 25.1701C20.4404 25.2184 20.3787 25.2848 20.3361 25.363C20.2934 25.4413 20.271 25.529 20.271 25.6181V31.4667C20.271 31.6081 20.3272 31.7438 20.4272 31.8438C20.5272 31.9438 20.6629 32 20.8043 32H26.3329C26.4743 32 26.61 31.9438 26.71 31.8438C26.81 31.7438 26.8662 31.6081 26.8662 31.4667V30.7835L30.1793 28.5563C30.7632 28.1233 31.2339 27.5557 31.5512 26.9016C31.8685 26.2476 32.023 25.5266 32.0017 24.8L31.9926 15.376C31.991 13.9557 30.9921 12.8 29.7659 12.8ZM29.5846 27.6709L26.0353 30.0565C25.9627 30.1053 25.9032 30.1712 25.8621 30.2484C25.821 30.3256 25.7995 30.4117 25.7995 30.4992V30.9333H21.335V25.9088L25.8182 23.0192C25.85 22.9987 25.8795 22.9749 25.9062 22.9483C25.9724 22.8691 26.0645 22.8158 26.1661 22.7978C26.2677 22.7797 26.3725 22.7981 26.4619 22.8496C26.5321 22.891 26.5938 22.9453 26.6438 23.0096C26.7835 23.2059 26.8595 23.4403 26.8617 23.6813C26.8639 23.9222 26.7921 24.158 26.6561 24.3568L23.2609 26.7344L23.8731 27.6085L27.3265 25.1893C27.3612 25.1652 27.3929 25.1369 27.4209 25.1051C27.6977 24.7685 27.8704 24.3585 27.9178 23.9253C27.9652 23.4921 27.8851 23.0545 27.6875 22.6661L28.6219 15.1403C28.6295 14.8265 28.749 14.5257 28.9587 14.2922C29.1685 14.0587 29.4547 13.9078 29.7659 13.8667C30.4059 13.8667 30.9249 14.544 30.9259 15.3771L30.935 24.8C30.9569 25.3518 30.8456 25.9007 30.6105 26.4004C30.3755 26.9001 30.0236 27.3359 29.5846 27.6709Z" fill="#00C3B7"/>
<path d="M1.82435 28.5563L5.13742 30.7835V31.4667C5.13742 31.6081 5.19361 31.7438 5.29363 31.8438C5.39365 31.9438 5.5293 32 5.67075 32H11.202C11.3434 32 11.4791 31.9438 11.5791 31.8438C11.6791 31.7438 11.7353 31.6081 11.7353 31.4667V25.6181C11.7353 25.529 11.7129 25.4413 11.6702 25.363C11.6275 25.2848 11.5659 25.2184 11.491 25.1701L6.80728 22.1504C6.61027 21.9576 6.36385 21.8229 6.09519 21.7612C5.82653 21.6994 5.54604 21.713 5.28462 21.8005L4.44142 15.0096C4.40974 14.4349 4.16756 13.8919 3.76109 13.4844C3.35462 13.0768 2.81233 12.8332 2.23768 12.8C1.01102 12.8 0.0126169 13.9557 0.0110169 15.376L0.00195029 24.8C-0.0194218 25.5266 0.135126 26.2476 0.452433 26.9016C0.76974 27.5557 1.24041 28.1233 1.82435 28.5563ZM1.07768 15.3771C1.07875 14.544 1.59875 13.8667 2.23768 13.8667C2.54915 13.9075 2.83575 14.0584 3.04573 14.2921C3.25571 14.5257 3.37524 14.8267 3.38275 15.1408L4.31715 22.6667C4.11954 23.0551 4.03951 23.4927 4.08688 23.9259C4.13424 24.3591 4.30694 24.7691 4.58382 25.1056C4.61176 25.1374 4.64346 25.1657 4.67822 25.1899L8.13155 27.6091L8.74382 26.7349L5.34755 24.3573C5.21154 24.1585 5.13975 23.9228 5.14185 23.6819C5.14394 23.441 5.21983 23.2065 5.35928 23.0101C5.40934 22.9459 5.47103 22.8916 5.54115 22.8501C5.63062 22.7985 5.73541 22.78 5.83714 22.798C5.93886 22.8159 6.03101 22.8691 6.09742 22.9483C6.12416 22.9749 6.15365 22.9987 6.18542 23.0192L10.6686 25.9088V30.9333H6.20408V30.4992C6.2041 30.4117 6.1826 30.3256 6.1415 30.2484C6.10039 30.1712 6.04093 30.1053 5.96835 30.0565L2.41902 27.6709C1.98002 27.3359 1.62812 26.9001 1.39308 26.4004C1.15803 25.9007 1.04674 25.3518 1.06862 24.8L1.07768 15.3771Z" fill="#00C3B7"/>
<path d="M8.00171 9.06669C8.00105 9.82717 8.22865 10.5703 8.65504 11.2C8.22865 11.8297 8.00105 12.5729 8.00171 13.3334C7.99253 14.129 8.23974 14.9065 8.70675 15.5507C9.17376 16.1949 9.83575 16.6717 10.5948 16.9104C10.6727 17.8172 11.0847 18.6627 11.7508 19.2828C12.4169 19.903 13.2896 20.2536 14.1996 20.2667C14.8353 20.2637 15.4583 20.0879 16.0017 19.7579C16.5451 20.0879 17.1681 20.2637 17.8038 20.2667C18.7139 20.2536 19.5866 19.903 20.2527 19.2828C20.9188 18.6627 21.3307 17.8172 21.4086 16.9104C22.1677 16.6717 22.8297 16.1949 23.2967 15.5507C23.7637 14.9065 24.0109 14.129 24.0017 13.3334C24.0024 12.5729 23.7748 11.8297 23.3484 11.2C23.7748 10.5703 24.0024 9.82717 24.0017 9.06669C24.0109 8.27106 23.7637 7.4936 23.2967 6.84938C22.8297 6.20515 22.1677 5.72839 21.4086 5.48963C21.3307 4.58287 20.9188 3.73738 20.2527 3.11721C19.5866 2.49704 18.7139 2.14642 17.8038 2.13336C17.1681 2.13631 16.5451 2.31219 16.0017 2.64216C15.4583 2.31219 14.8353 2.13631 14.1996 2.13336C13.2896 2.14642 12.4169 2.49704 11.7508 3.11721C11.0847 3.73738 10.6727 4.58287 10.5948 5.48963C9.83575 5.72839 9.17376 6.20515 8.70675 6.84938C8.23974 7.4936 7.99253 8.27106 8.00171 9.06669ZM16.535 12.8C16.535 12.5171 16.6474 12.2458 16.8475 12.0458C17.0475 11.8457 17.3188 11.7334 17.6017 11.7334C17.8846 11.7334 18.1559 11.8457 18.356 12.0458C18.556 12.2458 18.6684 12.5171 18.6684 12.8H19.735C19.735 12.2342 19.5103 11.6916 19.1102 11.2915C18.7101 10.8915 18.1675 10.6667 17.6017 10.6667C17.2261 10.6689 16.8579 10.7713 16.535 10.9632V3.5547C16.9177 3.32283 17.3565 3.20017 17.8038 3.20003C18.414 3.21112 19.0006 3.43734 19.4602 3.83878C19.9198 4.24021 20.2228 4.79107 20.3158 5.39416C19.8106 5.51735 19.3677 5.82084 19.0705 6.2476C18.7733 6.67436 18.6422 7.19498 18.7019 7.7116C18.7616 8.22822 19.0079 8.70524 19.3946 9.053C19.7813 9.40075 20.2817 9.59529 20.8017 9.60003V8.53336C20.5337 8.52288 20.2795 8.41183 20.0897 8.22234C19.9 8.03285 19.7885 7.77882 19.7776 7.51085C19.7667 7.24288 19.8572 6.98064 20.0309 6.77636C20.2047 6.57209 20.4491 6.44077 20.7153 6.40856C20.7425 6.4218 20.7709 6.43234 20.8001 6.44003C21.4087 6.55548 21.9569 6.8825 22.3476 7.3632C22.7383 7.84391 22.9464 8.44733 22.935 9.06669C22.9366 9.72158 22.7017 10.355 22.2737 10.8507C22.1897 10.9477 22.1434 11.0717 22.1434 11.2C22.1434 11.3284 22.1897 11.4524 22.2737 11.5494C22.7017 12.045 22.9366 12.6785 22.935 13.3334C22.9437 13.9181 22.757 14.489 22.4045 14.9557C22.0519 15.4223 21.5538 15.7579 20.9889 15.9094C20.7395 15.5225 20.3716 15.2268 19.9401 15.0666C19.5086 14.9063 19.0369 14.8902 18.5954 15.0205C18.154 15.1508 17.7666 15.4206 17.4914 15.7894C17.2161 16.1583 17.0677 16.6064 17.0684 17.0667H18.135C18.135 16.7838 18.2474 16.5125 18.4475 16.3124C18.6475 16.1124 18.9188 16 19.2017 16C19.4846 16 19.7559 16.1124 19.956 16.3124C20.156 16.5125 20.2684 16.7838 20.2684 17.0667H20.3084C20.2026 17.6577 19.8948 18.1937 19.4375 18.5828C18.9803 18.9719 18.4021 19.1901 17.8017 19.2C17.3551 19.1995 16.917 19.0769 16.535 18.8454V12.8ZM11.6433 5.86669C11.6297 5.17439 11.8912 4.50494 12.3703 4.00507C12.8495 3.5052 13.5073 3.21571 14.1996 3.20003C14.647 3.20017 15.0858 3.32283 15.4684 3.5547V6.93336C15.4684 7.21626 15.356 7.48757 15.156 7.68761C14.9559 7.88765 14.6846 8.00003 14.4017 8.00003C14.1188 8.00003 13.8475 7.88765 13.6475 7.68761C13.4474 7.48757 13.335 7.21626 13.335 6.93336H12.2684C12.2684 7.49916 12.4931 8.04178 12.8932 8.44186C13.2933 8.84193 13.8359 9.06669 14.4017 9.06669C14.7773 9.06448 15.1455 8.96212 15.4684 8.77016V18.8454C15.0858 19.0772 14.647 19.1999 14.1996 19.2C13.5895 19.1889 13.0028 18.9627 12.5433 18.5613C12.0837 18.1598 11.7806 17.609 11.6876 17.0059C12.1928 16.8827 12.6357 16.5792 12.9329 16.1525C13.2301 15.7257 13.3612 15.2051 13.3015 14.6885C13.2418 14.1718 12.9955 13.6948 12.6088 13.3471C12.2221 12.9993 11.7217 12.8048 11.2017 12.8V13.8667C11.4697 13.8772 11.7239 13.9882 11.9137 14.1777C12.1035 14.3672 12.2149 14.6212 12.2258 14.8892C12.2367 15.1572 12.1463 15.4194 11.9725 15.6237C11.7987 15.828 11.5544 15.9593 11.2881 15.9915C11.2604 15.9782 11.2315 15.9676 11.2017 15.96C10.5934 15.8442 10.0456 15.5171 9.65521 15.0364C9.26482 14.5557 9.05695 13.9525 9.06838 13.3334C9.06687 12.6785 9.30169 12.045 9.72971 11.5494C9.81377 11.4524 9.86004 11.3284 9.86004 11.2C9.86004 11.0717 9.81377 10.9477 9.72971 10.8507C9.30169 10.355 9.06687 9.72158 9.06838 9.06669C9.05695 8.44756 9.26482 7.84433 9.65521 7.36365C10.0456 6.88297 10.5934 6.55582 11.2017 6.44003C11.3288 6.40759 11.4414 6.33349 11.5214 6.22956C11.6015 6.12563 11.6444 5.99787 11.6433 5.86669Z" fill="#00C3B7"/>
<path d="M9.75277 1.90338C9.14476 2.31324 8.57817 2.78141 8.06104 3.30125L8.8173 4.05325C9.28525 3.58282 9.79809 3.1593 10.3485 2.78871L9.75277 1.90338Z" fill="#00C3B7"/>
<path d="M9.79248 20.5226C10.4026 20.9295 11.0513 21.2755 11.729 21.5557L12.1359 20.5701C11.5231 20.3167 10.9366 20.0037 10.385 19.6357L9.79248 20.5226Z" fill="#00C3B7"/>
<path d="M17.9893 21.1385L18.1973 22.1849C18.9167 22.0411 19.6201 21.8267 20.2975 21.5449L19.8879 20.5599C19.2756 20.8146 18.6396 21.0085 17.9893 21.1385Z" fill="#00C3B7"/>
<path d="M8.84802 18.3771C8.37816 17.9081 7.95501 17.3946 7.58455 16.8438L6.69922 17.44C7.10854 18.0483 7.57598 18.6154 8.09495 19.1333L8.84802 18.3771Z" fill="#00C3B7"/>
<path d="M5.00976 9.0401C4.87126 9.75176 4.80161 10.4751 4.80176 11.2001V11.2225L5.86842 11.2001C5.86842 10.5437 5.93147 9.88875 6.05669 9.24437L5.00976 9.0401Z" fill="#00C3B7"/>
<path d="M6.67307 5.00055C6.26672 5.61095 5.92124 6.25974 5.6416 6.93762L6.62827 7.34402C6.88088 6.73062 7.19332 6.1436 7.56107 5.59148L6.67307 5.00055Z" fill="#00C3B7"/>
<path d="M6.64406 15.0934C6.38921 14.4813 6.19539 13.8455 6.0654 13.1953L5.01953 13.4044C5.16329 14.1236 5.37767 14.827 5.65953 15.5041L6.64406 15.0934Z" fill="#00C3B7"/>
<path d="M14.0359 21.1429L13.8301 22.1893C14.5455 22.3295 15.2728 22.4001 16.0018 22.4H16.013L16.0018 21.3333C15.3419 21.3335 14.6835 21.2697 14.0359 21.1429Z" fill="#00C3B7"/>
<path d="M27.2021 11.2V11.1547L26.1354 11.2C26.1354 11.8635 26.0709 12.5255 25.9429 13.1765L26.9893 13.3829C27.1309 12.6639 27.2022 11.9328 27.2021 11.2Z" fill="#00C3B7"/>
<path d="M25.3511 7.2847C25.6076 7.89627 25.8031 8.53172 25.9345 9.18177L26.9799 8.96843C26.8343 8.24959 26.6183 7.54682 26.3351 6.8703L25.3511 7.2847Z" fill="#00C3B7"/>
<path d="M23.1406 4.00802C23.6116 4.47577 24.036 4.98822 24.4078 5.53816L25.2916 4.94136C24.881 4.33461 24.4123 3.76928 23.8921 3.25336L23.1406 4.00802Z" fill="#00C3B7"/>
<path d="M22.2314 20.5094C22.84 20.1009 23.4075 19.6342 23.9258 19.1158L23.1711 18.3617C22.7021 18.8312 22.1881 19.2537 21.6367 19.623L22.2314 20.5094Z" fill="#00C3B7"/>
<path d="M16.0019 1.06667C16.6545 1.06664 17.3056 1.12897 17.9464 1.2528L18.1501 0.205867C17.4422 0.0688694 16.7229 -6.69935e-05 16.0019 4.88528e-08H15.9683L16.0019 1.06667Z" fill="#00C3B7"/>
<path d="M12.0963 1.84645C12.7081 1.59082 13.3437 1.39628 13.9939 1.26565L13.7837 0.219788C13.0647 0.364295 12.3617 0.579565 11.6851 0.862454L12.0963 1.84645Z" fill="#00C3B7"/>
<path d="M26.353 15.4843L25.3679 15.0763C25.1129 15.6891 24.7983 16.2754 24.4287 16.8267L25.3156 17.4198C25.7237 16.81 26.0711 16.1617 26.353 15.4843Z" fill="#00C3B7"/>
<path d="M19.8477 1.82175C20.4614 2.07409 21.0489 2.38598 21.6018 2.75295L22.1911 1.86655C21.5805 1.46056 20.9313 1.11578 20.253 0.837219L19.8477 1.82175Z" fill="#00C3B7"/>
</svg>
