<svg width="32" height="32" viewBox="0 0 32 32" fill="none" xmlns="http://www.w3.org/2000/svg">
<g clip-path="url(#clip0_4956_6610)">
<path d="M28.2489 14.7157V12.8993H31.4276V10.3964L17.4366 0.304749H14.4187L7.8262 5.05986L8.3575 5.79647L14.7121 1.21295H17.1433L29.5677 10.1746H2.28755L7.62088 6.32771L7.08958 5.5911L0.427612 10.3963V12.8992H3.60632V14.7156H4.51453V24.9473H3.60632V26.7637H2.24402V28.5801H0.427612V31.3047H27.7948V30.3965H1.33582V29.4883H30.5194V30.3965H28.703V31.3047H31.4276V28.5801H29.6112V26.7637H28.2489V24.9473H27.3407V14.7157H28.2489ZM27.3407 13.8075H23.7079V12.8993H27.3407V13.8075ZM22.7997 24.9473V26.7637H18.6522V24.9473H17.744V14.7157H18.6522V12.8993H22.7997V14.7157H23.7079V24.9473H22.7997ZM8.14734 24.9473V14.7157H9.05554V12.8993H13.203V14.7157H14.1112V24.9473H13.203V26.7637H9.05554V24.9473H8.14734ZM15.0194 24.9473V14.7157H16.8358V24.9473H15.0194ZM14.1112 13.8075V12.8993H17.744V13.8075H14.1112ZM14.1112 25.8555H17.744V26.7637H14.1112V25.8555ZM1.33582 11.0828H30.5194V11.991H1.33582V11.0828ZM8.14734 12.8992V13.8074H4.51453V12.8992H8.14734ZM5.42273 14.7157H7.23914V24.9473H5.42273V14.7157ZM4.51453 25.8555H8.14734V26.7637H4.51453V25.8555ZM28.703 28.5801H3.15222V27.6719H28.703V28.5801ZM23.7079 26.7637V25.8555H27.3407V26.7637H23.7079ZM26.4325 24.9473H24.6161V14.7157H26.4325V24.9473Z" fill="#FB8500"/>
<path d="M10.4784 6.08893V6.99713H13.203V7.90533H14.7282C15.0485 8.1876 15.4683 8.35944 15.9277 8.35944C16.3872 8.35944 16.8071 8.1876 17.1272 7.90533H18.6524V6.99713H21.377V6.08893H18.6524V6.99713H17.6866C17.7241 6.85194 17.7441 6.69979 17.7441 6.54303C17.7441 6.38627 17.7241 6.23412 17.6866 6.08893H18.6524V5.18073H17.1272C16.807 4.89846 16.3872 4.72662 15.9277 4.72662C15.4683 4.72662 15.0484 4.89846 14.7282 5.18073H13.203V6.08893H14.1688C14.1313 6.23412 14.1113 6.38627 14.1113 6.54303C14.1113 6.69979 14.1313 6.85194 14.1688 6.99713H13.203V6.08893H10.4784ZM15.9277 5.63483C16.4285 5.63483 16.8359 6.04225 16.8359 6.54303C16.8359 7.04381 16.4285 7.45123 15.9277 7.45123C15.4269 7.45123 15.0195 7.04381 15.0195 6.54303C15.0195 6.04225 15.4269 5.63483 15.9277 5.63483Z" fill="#FB8500"/>
<path d="M14.5653 2.91022H15.4735V3.81842H14.5653V2.91022Z" fill="#FB8500"/>
<path d="M16.3817 2.91022H17.2899V3.81842H16.3817V2.91022Z" fill="#FB8500"/>
</g>
<defs>
<clipPath id="clip0_4956_6610">
<rect width="31" height="31" fill="white" transform="translate(0.427734 0.304688)"/>
</clipPath>
</defs>
</svg>
