<svg width="48" height="49" viewBox="0 0 48 49" fill="none" xmlns="http://www.w3.org/2000/svg">
<path fill-rule="evenodd" clip-rule="evenodd" d="M41.1128 34.3937H13.564V40.1329C13.564 41.1836 14.4262 42.0459 15.477 42.0459H37.4778L44.1737 45.8722V42.0459H46.0868C47.1383 42.0459 47.9998 41.185 47.9998 40.1329V13.3493C47.9998 12.2971 47.1388 11.4363 46.0868 11.4363H43.0258V32.4806C43.0259 33.5317 42.1638 34.3937 41.1128 34.3937Z" fill="#E2C4FF"/>
<path fill-rule="evenodd" clip-rule="evenodd" d="M13.7441 13.9348H20.3079C20.3079 10.3098 17.3692 7.37109 13.7441 7.37109V13.9348Z" fill="#E2C4FF"/>
<path d="M41.1128 2.84668H2.85056C1.27875 2.84668 0 4.12543 0 5.69724V32.4807C0 34.0526 1.27875 35.3313 2.85056 35.3313H3.82622V38.22C3.82622 38.5541 4.00406 38.8631 4.29309 39.0308C4.58212 39.1985 4.93866 39.1996 5.22872 39.0339L11.7084 35.3312H41.1128C42.6847 35.3312 43.9633 34.0524 43.9633 32.4806V5.69724C43.9634 4.12543 42.6847 2.84668 41.1128 2.84668ZM42.0884 32.4807C42.0884 33.0096 41.6416 33.4563 41.1128 33.4563H11.4596C11.2965 33.4563 11.1362 33.4989 10.9945 33.5798L5.70122 36.6046V34.3938C5.70122 33.8761 5.28141 33.4563 4.76372 33.4563H2.85056C2.31262 33.4563 1.875 33.0186 1.875 32.4807V5.69724C1.875 5.1593 2.31262 4.72168 2.85056 4.72168H41.1128C41.6508 4.72168 42.0884 5.1593 42.0884 5.69724V32.4807Z" fill="#FB8500"/>
<path d="M30.8896 23.8909C29.3178 23.8909 28.0391 25.1697 28.0391 26.7414V30.5676C28.0852 31.8101 29.8683 31.8092 29.9141 30.5676V29.5919H31.8653V30.5676C31.9114 31.8101 33.6945 31.8092 33.7403 30.5676V26.7414C33.7403 25.1697 32.4615 23.8909 30.8896 23.8909ZM31.8653 27.717H29.9141V26.7415C29.9632 25.4487 31.8166 25.4497 31.8653 26.7415V27.717Z" fill="#FB8500"/>
<path d="M39.6722 24.0185C39.2249 23.7575 38.6508 23.9087 38.3899 24.3559L37.5258 25.8374L36.6616 24.3559C36.4008 23.9089 35.8271 23.7578 35.3793 24.0185C34.9321 24.2793 34.781 24.8535 35.0419 25.3007L36.4403 27.6979L35.0419 30.0951C34.781 30.5424 34.9321 31.1165 35.3793 31.3773C35.8188 31.636 36.3992 31.4912 36.6616 31.0399L37.5258 29.5585L38.3899 31.0399C38.6523 31.4912 39.2326 31.6358 39.6722 31.3773C40.1194 31.1165 40.2705 30.5424 40.0096 30.0951L38.6112 27.6979L40.0096 25.3007C40.2705 24.8535 40.1193 24.2793 39.6722 24.0185Z" fill="#FB8500"/>
<path d="M26.179 23.8909H22.831C21.5884 23.937 21.5894 25.7201 22.831 25.7659H23.5674V30.5676C23.6135 31.8102 25.3966 31.8093 25.4424 30.5676V25.7659H26.1789C27.4215 25.7197 27.4206 23.9366 26.179 23.8909Z" fill="#FB8500"/>
<path d="M20.0683 26.7605H17.119L14.6187 22.4297C16.1769 21.2063 17.1796 19.306 17.1796 17.1758C17.1796 16.6581 16.7598 16.2383 16.2421 16.2383H11.4403V11.4365C11.4403 10.9188 11.0205 10.499 10.5028 10.499C6.82112 10.499 3.82599 13.4941 3.82599 17.1758C3.75278 21.8251 8.72828 25.1708 12.9963 23.3697L15.7659 28.1667C15.9333 28.4567 16.2429 28.6354 16.5778 28.6354H20.0683C21.3108 28.5893 21.3099 26.8062 20.0683 26.7605ZM5.70099 17.1758C5.70099 14.8489 7.36487 12.9032 9.56527 12.466V16.7875L6.5109 19.842C5.99959 19.0787 5.70099 18.1615 5.70099 17.1758ZM7.83681 21.1678L10.8912 18.1133H15.2128C14.6146 21.3958 10.6114 23.0911 7.83681 21.1678Z" fill="#FB8500"/>
<path d="M26.1786 12.374H38.2431C39.4857 12.3279 39.4848 10.5448 38.2431 10.499H26.1786C24.9361 10.5451 24.937 12.3283 26.1786 12.374Z" fill="#FB8500"/>
<path d="M26.1786 16.6785H38.2431C39.4857 16.6323 39.4848 14.8492 38.2431 14.8035H26.1786C24.9361 14.8496 24.937 16.6327 26.1786 16.6785Z" fill="#FB8500"/>
<path d="M26.1786 20.9829H32.2109C33.4535 20.9368 33.4525 19.1537 32.2109 19.1079H26.1786C24.9361 19.154 24.937 20.9372 26.1786 20.9829Z" fill="#FB8500"/>
</svg>
