<svg width="35" height="28" viewBox="0 0 35 28" fill="none" xmlns="http://www.w3.org/2000/svg">
<path d="M34.1481 16.6853H11.2745C11.1012 16.6853 10.9607 16.5447 10.9607 16.3714C10.9607 16.1982 11.1013 16.0576 11.2745 16.0576H33.8343V13.8785H32.3689C32.1956 13.8785 32.0551 13.738 32.0551 13.5647C32.0551 13.3915 32.1956 13.2509 32.3689 13.2509H34.148C34.3213 13.2509 34.4618 13.3915 34.4618 13.5647V16.3715C34.4618 16.5447 34.3214 16.6853 34.1481 16.6853ZM7.35171 16.6853H0.986708C0.813375 16.6853 0.672852 16.5447 0.672852 16.3714V13.5646C0.672852 13.3913 0.813375 13.2509 0.986708 13.2509H28.4461C28.6194 13.2509 28.76 13.3914 28.76 13.5646C28.76 13.7379 28.6194 13.8784 28.4461 13.8784H1.30056V16.0576H7.35179C7.52512 16.0576 7.66556 16.1981 7.66556 16.3713C7.66556 16.5447 7.52504 16.6853 7.35171 16.6853Z" fill="#0B5D6A"/>
<path d="M5.42329 26.7746H2.61659C2.44326 26.7746 2.30273 26.634 2.30273 26.4608V16.3702C2.30273 16.1969 2.44326 16.0564 2.61659 16.0564H5.42329C5.59663 16.0564 5.73715 16.1969 5.73715 16.3702V26.4608C5.73715 26.634 5.59655 26.7746 5.42329 26.7746ZM2.93045 26.1469H5.10952V16.684H2.93045V26.1469Z" fill="#0B5D6A"/>
<path d="M31.8476 26.7745H29.0429C28.8695 26.7745 28.729 26.6339 28.729 26.4607V16.3701C28.729 16.1968 28.8695 16.0563 29.0429 16.0563H31.8476C32.0209 16.0563 32.1614 16.1968 32.1614 16.3701V26.4607C32.1614 26.6339 32.0209 26.7745 31.8476 26.7745ZM29.3567 26.1468H31.5337V16.6839H29.3567V26.1468Z" fill="#0B5D6A"/>
<path d="M13.2943 19.4682H5.42315C5.24982 19.4682 5.10938 19.3277 5.10938 19.1545V16.3702C5.10938 16.1969 5.2499 16.0564 5.42315 16.0564H13.2943C13.4676 16.0564 13.6082 16.1969 13.6082 16.3702V19.1545C13.6082 19.3277 13.4676 19.4682 13.2943 19.4682ZM5.73701 18.8406H12.9805V16.684H5.73701V18.8406Z" fill="#0B5D6A"/>
<path d="M21.1704 19.4682H13.2952C13.1219 19.4682 12.9814 19.3277 12.9814 19.1545V16.3702C12.9814 16.1969 13.122 16.0564 13.2952 16.0564H21.1704C21.3436 16.0564 21.4841 16.1969 21.4841 16.3702V19.1545C21.4841 19.3277 21.3437 19.4682 21.1704 19.4682ZM13.6092 18.8406H20.8566V16.684H13.6092V18.8406Z" fill="#0B5D6A"/>
<path d="M29.0429 19.4681H21.1698C20.9965 19.4681 20.856 19.3276 20.856 19.1543V16.3701C20.856 16.1968 20.9965 16.0563 21.1698 16.0563H29.0429C29.2162 16.0563 29.3567 16.1968 29.3567 16.3701V19.1543C29.3567 19.3276 29.2162 19.4681 29.0429 19.4681ZM21.4836 18.8405H28.729V16.6839H21.4836V18.8405Z" fill="#0B5D6A"/>
<path d="M9.3603 18.4822C8.96138 18.4822 8.63672 18.1582 8.63672 17.76C8.63672 17.3619 8.96138 17.038 9.3603 17.038C9.7593 17.038 10.0839 17.362 10.0839 17.76C10.084 18.1582 9.7593 18.4822 9.3603 18.4822ZM9.3603 17.6656C9.30741 17.6656 9.26435 17.7079 9.26435 17.76C9.26435 17.8121 9.30741 17.8545 9.3603 17.8545C9.4132 17.8545 9.45625 17.8121 9.45625 17.76C9.45625 17.7079 9.4132 17.6656 9.3603 17.6656Z" fill="#0B5D6A"/>
<path d="M17.2333 18.4822C16.8344 18.4822 16.5098 18.1582 16.5098 17.76C16.5098 17.3619 16.8344 17.038 17.2333 17.038C17.6312 17.038 17.955 17.362 17.955 17.76C17.955 18.1582 17.6312 18.4822 17.2333 18.4822ZM17.2333 17.6656C17.1796 17.6656 17.1374 17.7071 17.1374 17.76C17.1374 17.813 17.1795 17.8545 17.2333 17.8545C17.2852 17.8545 17.3273 17.8121 17.3273 17.76C17.3273 17.7079 17.2852 17.6656 17.2333 17.6656Z" fill="#0B5D6A"/>
<path d="M25.1114 18.4822C24.7102 18.4822 24.3838 18.1582 24.3838 17.76C24.3838 17.3619 24.7102 17.038 25.1114 17.038C25.5071 17.038 25.8291 17.362 25.8291 17.76C25.829 18.1582 25.5071 18.4822 25.1114 18.4822ZM25.1114 17.6656C25.0545 17.6656 25.0115 17.7062 25.0115 17.76C25.0115 17.8139 25.0545 17.8545 25.1114 17.8545C25.1539 17.8545 25.2014 17.8157 25.2014 17.76C25.2014 17.7043 25.1539 17.6656 25.1114 17.6656Z" fill="#0B5D6A"/>
<path d="M17.0309 11.314H4.38577C3.77726 11.314 3.28223 10.8193 3.28223 10.2115V8.22229C3.28223 8.04896 3.42275 7.90851 3.59608 7.90851C3.76942 7.90851 3.90986 8.04904 3.90986 8.22229V10.2115C3.90986 10.4688 4.12785 10.6863 4.38577 10.6863H17.0309C17.2888 10.6863 17.5067 10.4688 17.5067 10.2115V1.10202C17.5067 0.84482 17.2888 0.627553 17.0309 0.627553H4.38577C4.12785 0.627553 3.90986 0.84482 3.90986 1.10202V4.29948C3.90986 4.47282 3.76934 4.61326 3.59608 4.61326C3.42283 4.61326 3.28223 4.47274 3.28223 4.29948V1.10202C3.28223 0.494312 3.77726 0 4.38577 0H17.0309C17.6394 0 18.1344 0.494392 18.1344 1.10202V10.2115C18.1344 10.8193 17.6393 11.314 17.0309 11.314Z" fill="#0B5D6A"/>
<path d="M13.0041 13.8774C13.0035 13.8774 13.0031 13.8774 13.0025 13.8774H8.4134C8.31601 13.8774 8.22415 13.8323 8.16477 13.7551C8.10539 13.6779 8.08514 13.5776 8.11003 13.4834L8.78832 10.9193C8.82473 10.7817 8.94933 10.6858 9.09177 10.6858H12.3281C12.4707 10.6858 12.5953 10.7819 12.6317 10.9198L13.2981 13.4536C13.3109 13.4879 13.318 13.525 13.318 13.5637C13.3179 13.7369 13.1774 13.8774 13.0041 13.8774ZM8.82105 13.2498H12.5955L12.0861 11.3133H9.33329L8.82105 13.2498Z" fill="#0B5D6A"/>
<path d="M10.707 10.5689C10.2652 10.5689 9.90576 10.2104 9.90576 9.76966C9.90576 9.326 10.2652 8.96509 10.707 8.96509C11.1509 8.96509 11.5121 9.326 11.5121 9.76966C11.5121 10.2103 11.1509 10.5689 10.707 10.5689ZM10.707 9.59272C10.6081 9.59272 10.5334 9.66882 10.5334 9.76966C10.5334 9.86585 10.6097 9.94123 10.707 9.94123C10.8048 9.94123 10.8845 9.86424 10.8845 9.76966C10.8845 9.67043 10.8065 9.59272 10.707 9.59272Z" fill="#0B5D6A"/>
<path d="M17.8204 8.68928H4.73761C4.56427 8.68928 4.42383 8.54876 4.42383 8.3755C4.42383 8.20225 4.56435 8.06165 4.73761 8.06165H17.8204C17.9937 8.06165 18.1342 8.20217 18.1342 8.3755C18.1342 8.54884 17.9937 8.68928 17.8204 8.68928Z" fill="#0B5D6A"/>
<path d="M14.3519 4.95226C14.2716 4.95226 14.1913 4.92161 14.13 4.8604C14.0075 4.73788 14.0074 4.53918 14.13 4.41658L15.8666 2.67956C15.9891 2.55705 16.1878 2.55697 16.3104 2.67956C16.433 2.80208 16.433 3.00078 16.3104 3.12338L14.5738 4.8604C14.5125 4.92161 14.4323 4.95226 14.3519 4.95226Z" fill="#0B5D6A"/>
<path d="M12.4774 5.54177C12.397 5.54177 12.3168 5.51112 12.2555 5.44982C12.1329 5.32722 12.1329 5.12852 12.2555 5.006L14.7758 2.48627C14.8984 2.36375 15.0971 2.36383 15.2196 2.48627C15.3421 2.60887 15.3421 2.80749 15.2196 2.93008L12.6993 5.44982C12.638 5.51112 12.5576 5.54177 12.4774 5.54177Z" fill="#0B5D6A"/>
<path d="M11.1737 6.84155C11.0937 6.84155 11.0136 6.81106 10.9523 6.75016C10.8295 6.62789 10.8289 6.42918 10.9512 6.30635L11.544 5.71064C11.6662 5.58773 11.8649 5.58733 11.9878 5.70952C12.1106 5.8318 12.1112 6.0305 11.9889 6.15334L11.3962 6.74904C11.3348 6.81074 11.2542 6.84155 11.1737 6.84155Z" fill="#0B5D6A"/>
<path d="M31.1322 13.8783H26.1137C25.9403 13.8783 25.7998 13.7377 25.7998 13.5645V12.8528C25.7998 12.2847 26.261 11.8225 26.8278 11.8225H30.4142C30.9832 11.8225 31.4461 12.2847 31.4461 12.8528V13.5645C31.4461 13.7377 31.3056 13.8783 31.1322 13.8783ZM26.4274 13.2506H30.8185V12.8528C30.8185 12.6345 30.6334 12.4501 30.4142 12.4501H26.8278C26.6109 12.4501 26.4274 12.6346 26.4274 12.8528V13.2506Z" fill="#0B5D6A"/>
<path d="M30.9845 8.95908C30.3299 8.95908 29.7974 8.42747 29.7974 7.77407C29.7974 7.12059 30.3299 6.58899 30.9845 6.58899C31.638 6.58899 32.1696 7.12059 32.1696 7.77407C32.1696 8.42747 31.638 8.95908 30.9845 8.95908ZM30.9845 7.21662C30.676 7.21662 30.425 7.4667 30.425 7.77399C30.425 8.08129 30.676 8.33136 30.9845 8.33136C31.297 8.33136 31.5419 8.08657 31.5419 7.77399C31.5419 7.4667 31.2918 7.21662 30.9845 7.21662Z" fill="#0B5D6A"/>
<path d="M30.5558 7.3274C30.448 7.3274 30.3431 7.27186 30.2847 7.17207L28.588 4.27318C28.5004 4.12353 28.5508 3.93139 28.7003 3.84376C28.8497 3.7563 29.042 3.80655 29.1296 3.95612L30.8263 6.85501C30.9139 7.00466 30.8636 7.19679 30.714 7.28434C30.6643 7.31355 30.6097 7.3274 30.5558 7.3274Z" fill="#0B5D6A"/>
<path d="M29.0069 12.4501C28.9546 12.4501 28.9015 12.437 28.8526 12.4093C28.7017 12.3239 28.6487 12.1324 28.7342 11.9815L30.7115 8.49086C30.7969 8.34009 30.9883 8.28704 31.1393 8.3725C31.2901 8.45797 31.3431 8.64947 31.2576 8.80023L29.2803 12.2909C29.2225 12.3929 29.1163 12.4501 29.0069 12.4501Z" fill="#0B5D6A"/>
<path d="M22.6128 13.8776H20.2159C20.1036 13.8776 19.9998 13.8175 19.9438 13.7201C19.6333 13.1797 19.4624 12.4738 19.4624 11.7327C19.4624 11.0499 19.6127 10.3838 19.8856 9.85728C19.9395 9.75317 20.047 9.68787 20.1641 9.68787H22.6645C22.7817 9.68787 22.8892 9.75317 22.9431 9.85728C23.2172 10.3863 23.3682 11.0524 23.3682 11.7327C23.3682 12.4755 23.1964 13.1817 22.8843 13.7209C22.8283 13.8179 22.7248 13.8776 22.6128 13.8776ZM20.4053 13.2499H22.4241C22.6292 12.8264 22.7407 12.2951 22.7407 11.7327C22.7407 11.2231 22.644 10.7274 22.466 10.3155H20.3628C20.1861 10.7256 20.09 11.2211 20.09 11.7327C20.09 12.294 20.2011 12.8252 20.4053 13.2499Z" fill="#0B5D6A"/>
<path d="M23.1285 12.6702C23.0826 12.6702 23.0256 12.6702 22.9646 12.6618C22.8819 12.6506 22.8072 12.6068 22.7568 12.5402C22.7064 12.4736 22.6848 12.3898 22.6964 12.3072C22.7251 12.1024 22.7391 11.9146 22.7391 11.7331C22.7391 11.4459 22.7081 11.1611 22.6471 10.8863C22.6276 10.7985 22.6467 10.7065 22.6995 10.6338C22.7525 10.5609 22.834 10.5144 22.9235 10.5058C22.9848 10.5 23.0538 10.4934 23.1285 10.4934C23.8269 10.4934 24.395 10.9828 24.395 11.5845C24.395 12.1831 23.8269 12.6702 23.1285 12.6702ZM23.329 11.1454C23.3542 11.3393 23.3668 11.5359 23.3668 11.7332C23.3668 11.8245 23.3638 11.9166 23.3578 12.0108C23.5949 11.9432 23.7675 11.7752 23.7675 11.5845C23.7674 11.3838 23.5807 11.208 23.329 11.1454Z" fill="#0B5D6A"/>
<path d="M20.4496 7.83504C20.2763 7.83504 20.1357 7.69452 20.1357 7.52118V6.59474C20.1357 6.42141 20.2763 6.28088 20.4496 6.28088C20.6229 6.28088 20.7635 6.42141 20.7635 6.59474V7.52118C20.7635 7.69452 20.6229 7.83504 20.4496 7.83504Z" fill="#0B5D6A"/>
<path d="M21.226 8.99251C21.0526 8.99251 20.9121 8.85199 20.9121 8.67873V7.2619C20.9121 7.08856 21.0526 6.94812 21.226 6.94812C21.3992 6.94812 21.5397 7.08864 21.5397 7.2619V8.67873C21.5397 8.85207 21.3992 8.99251 21.226 8.99251Z" fill="#0B5D6A"/>
<path d="M23.6562 26.7764H1.20058C1.02724 26.7764 0.886719 26.6359 0.886719 26.4627C0.886719 26.2893 1.02724 26.1488 1.20058 26.1488H23.6562C23.8295 26.1488 23.9701 26.2893 23.9701 26.4627C23.9701 26.6359 23.8295 26.7764 23.6562 26.7764Z" fill="#0B5D6A"/>
<path d="M29.8894 27.9997H14.3441C14.1708 27.9997 14.0303 27.8592 14.0303 27.6858C14.0303 27.5126 14.1708 27.3721 14.3441 27.3721H29.8894C30.0627 27.3721 30.2033 27.5126 30.2033 27.6858C30.2033 27.8592 30.0627 27.9997 29.8894 27.9997Z" fill="#0B5D6A"/>
<path d="M33.4256 27.9996H31.4784C31.3051 27.9996 31.1646 27.8591 31.1646 27.6857C31.1646 27.5125 31.3051 27.3719 31.4784 27.3719H33.4256C33.599 27.3719 33.7395 27.5125 33.7395 27.6857C33.7395 27.8591 33.599 27.9996 33.4256 27.9996Z" fill="#0B5D6A"/>
<path d="M7.67772 27.9614H0.313857C0.140523 27.9614 0 27.8208 0 27.6475C0 27.4743 0.140523 27.3337 0.313857 27.3337H7.67772C7.85106 27.3337 7.9915 27.4743 7.9915 27.6475C7.9915 27.8208 7.85098 27.9614 7.67772 27.9614Z" fill="#0B5D6A"/>
<path d="M34.1463 15.5646H9.7293C9.55597 15.5646 9.41553 15.4241 9.41553 15.2509C9.41553 15.0775 9.55605 14.937 9.7293 14.937H34.1463C34.3196 14.937 34.4601 15.0775 34.4601 15.2509C34.46 15.4241 34.3196 15.5646 34.1463 15.5646Z" fill="#0B5D6A"/>
<path d="M26.7554 4.72106C26.44 4.72106 26.1423 4.59718 25.9174 4.37231C25.6923 4.14728 25.5684 3.84879 25.5684 3.53182C25.5684 3.2162 25.6918 2.91899 25.9158 2.69492C25.9432 2.66755 25.9728 2.6409 26.0037 2.61569C26.1285 2.51366 26.3103 2.52271 26.4241 2.63674L27.6516 3.86416C27.7659 3.97843 27.7746 4.16081 27.672 4.28557C27.6466 4.31638 27.6202 4.34559 27.5934 4.37231C27.3683 4.59718 27.0708 4.72106 26.7554 4.72106ZM26.2328 3.33303C26.2086 3.39569 26.196 3.46283 26.196 3.53182C26.196 3.68106 26.2546 3.8219 26.3612 3.9285C26.4676 4.03485 26.6076 4.09343 26.7554 4.09343C26.8248 4.09343 26.8924 4.08054 26.9556 4.0559L26.2328 3.33303Z" fill="#0B5D6A"/>
<path d="M28.2037 5.17411C28.1205 5.17411 28.0407 5.14106 27.9819 5.08216L25.2082 2.30835C25.0856 2.18575 25.0856 1.98705 25.2081 1.86453L25.7628 1.30972C25.8216 1.25082 25.9014 1.21777 25.9847 1.21777C26.068 1.21777 26.1477 1.25082 26.2066 1.30964L28.9804 4.08345C29.103 4.20605 29.103 4.40467 28.9804 4.52727L28.4256 5.08208C28.3667 5.14106 28.287 5.17411 28.2037 5.17411ZM25.8737 2.08644L28.2037 4.41644L28.3147 4.30544L25.9847 1.97545L25.8737 2.08644Z" fill="#0B5D6A"/>
<path d="M28.759 4.61941C28.6758 4.61941 28.596 4.58636 28.5371 4.52754L25.7633 1.75365C25.7045 1.69483 25.6714 1.61496 25.6714 1.53174C25.6714 1.44851 25.7045 1.36873 25.7633 1.30983C26.119 0.954201 26.5918 0.758301 27.0948 0.758301C27.5977 0.758301 28.0704 0.954201 28.4262 1.30983L28.981 1.86464C29.3366 2.22035 29.5326 2.69322 29.5326 3.19609C29.5326 3.69897 29.3367 4.17183 28.981 4.52754C28.922 4.58636 28.8422 4.61941 28.759 4.61941ZM26.4567 1.55959L28.7311 3.83397C28.8444 3.64279 28.9048 3.42408 28.9048 3.19609C28.9048 2.86079 28.7742 2.54557 28.5371 2.30846L27.9823 1.75365C27.7451 1.51653 27.4299 1.38601 27.0946 1.38601C26.8666 1.38601 26.6479 1.44643 26.4567 1.55959Z" fill="#0B5D6A"/>
<path d="M28.7573 2.40004C28.6769 2.40004 28.5966 2.36939 28.5354 2.30817L27.9806 1.75336C27.858 1.63076 27.858 1.43214 27.9806 1.30954L28.5354 0.75473C28.6578 0.632212 28.8567 0.632212 28.9792 0.75473L29.534 1.30954C29.6566 1.43214 29.6566 1.63076 29.534 1.75336L28.9792 2.30817C28.918 2.36939 28.8375 2.40004 28.7573 2.40004ZM28.6463 1.53145L28.7573 1.64244L28.8682 1.53145L28.7573 1.42045L28.6463 1.53145Z" fill="#0B5D6A"/>
</svg>
