<svg width="40" height="40" viewBox="0 0 40 40" fill="none" xmlns="http://www.w3.org/2000/svg">
<path d="M2.80471 24.9792C2.70083 24.2071 2.64845 23.4227 2.64845 22.6489C2.64845 15.257 7.33998 8.66683 14.3225 6.25014C14.6184 6.148 14.941 6.30469 15.0435 6.60062C15.1461 6.89654 14.989 7.21908 14.6935 7.32165C8.16708 9.58034 3.78238 15.7401 3.78238 22.6493C3.78238 23.373 3.8317 24.1062 3.92859 24.8286C3.97006 25.1389 3.7527 25.4239 3.44238 25.4658C3.41662 25.4693 3.39131 25.4711 3.36643 25.4711C3.08622 25.4702 2.84268 25.2637 2.80471 24.9792ZM25.3061 7.32121C31.8325 9.57991 36.2172 15.7397 36.2172 22.6489C36.2172 23.3725 36.1679 24.1058 36.071 24.8281C36.0295 25.1385 36.2469 25.4235 36.5572 25.4654C36.5829 25.4689 36.6083 25.4706 36.6336 25.4706C36.9129 25.4706 37.1565 25.2637 37.1944 24.9792C37.2983 24.2071 37.3507 23.4232 37.3507 22.6489C37.3507 15.257 32.6591 8.66683 25.6766 6.25014C25.3807 6.148 25.0582 6.30469 24.9556 6.60062C24.8535 6.89566 25.0101 7.21865 25.3061 7.32121ZM30.3555 35.1295C27.4543 37.5392 23.7767 38.8665 19.9996 38.8665C16.2224 38.8665 12.5448 37.5392 9.64363 35.1295C9.4027 34.9296 9.04568 34.9624 8.84534 35.2033C8.64544 35.4442 8.67818 35.8012 8.9191 36.0016C12.0232 38.5802 15.9584 40 19.9991 40C24.0399 40 27.975 38.5798 31.0792 36.0016C31.3201 35.8017 31.3528 35.4442 31.1529 35.2033C30.9535 34.9624 30.596 34.9292 30.3555 35.1295ZM31.5139 22.6485C31.5139 28.9977 26.3488 34.1632 19.9996 34.1632C13.6504 34.1632 8.48526 28.9977 8.48526 22.6485C8.48526 16.2992 13.6504 11.1341 19.9996 11.1341C26.3488 11.1341 31.5139 16.2997 31.5139 22.6485ZM16.3294 16.016C17.3188 16.181 18.3611 16.2792 19.4326 16.3045V12.7124C18.2179 13.0074 17.122 14.2335 16.3294 16.016ZM15.9108 17.0927C15.4198 18.5444 15.1116 20.2571 15.0584 22.0819H19.433V17.4384C18.2157 17.4105 17.0312 17.2926 15.9108 17.0927ZM15.0584 23.2154C15.1134 25.0961 15.4394 26.8573 15.9566 28.3369C17.0644 28.1418 18.2332 28.0261 19.4326 27.9986V23.2154H15.0584ZM16.3887 29.4119C17.1761 31.1237 18.248 32.2969 19.4326 32.5845V29.1325C18.3833 29.1578 17.3612 29.253 16.3887 29.4119ZM23.6104 29.4119C22.638 29.2526 21.6158 29.1578 20.5665 29.1325V32.5845C21.7511 32.2973 22.823 31.1237 23.6104 29.4119ZM24.0425 28.3369C24.5597 26.8573 24.8858 25.0961 24.9408 23.2154H20.5665V27.9986C21.7659 28.0261 22.9348 28.1418 24.0425 28.3369ZM24.9408 22.0819C24.8875 20.2571 24.5789 18.5444 24.0883 17.0927C22.9679 17.2926 21.7834 17.4105 20.5665 17.4384V22.0819H24.9408ZM23.6698 16.016C22.8776 14.2335 21.7812 13.0074 20.5665 12.7128V16.3049C21.638 16.2792 22.6803 16.181 23.6698 16.016ZM24.8146 15.7895C25.6291 15.6018 26.3959 15.3656 27.1004 15.0837C25.8722 13.9301 24.3642 13.0716 22.6899 12.622C23.3245 13.1851 23.9037 13.9541 24.4026 14.9109C24.5492 15.1915 24.6863 15.4857 24.8146 15.7895ZM17.3088 12.622C15.6349 13.0716 14.1265 13.9301 12.8983 15.0837C13.6028 15.3656 14.3696 15.6018 15.1841 15.7895C15.3124 15.4852 15.4494 15.1915 15.5957 14.9109C16.0954 13.9546 16.6742 13.1855 17.3088 12.622ZM12.0642 15.964C10.6532 17.6361 9.75973 19.7586 9.63446 22.0819H13.924C13.9742 20.2117 14.2723 18.4257 14.7865 16.8588C13.8079 16.6253 12.8918 16.3263 12.0642 15.964ZM9.63446 23.2154C9.76278 25.5863 10.6898 27.7481 12.1511 29.4354C12.9677 29.085 13.869 28.7951 14.8297 28.5686C14.2889 26.9707 13.9755 25.1376 13.9244 23.2154H9.63446ZM13.004 30.3114C14.2125 31.4157 15.6825 32.2384 17.3092 32.6753C16.6746 32.1123 16.0954 31.3432 15.5965 30.3865C15.4708 30.1451 15.3521 29.8942 15.2395 29.6358C14.4451 29.816 13.6949 30.0421 13.004 30.3114ZM22.6904 32.6753C24.3166 32.2384 25.7866 31.4161 26.9956 30.3114C26.3047 30.0421 25.5544 29.816 24.7601 29.6358C24.6474 29.8942 24.5287 30.1456 24.403 30.3865C23.9037 31.3428 23.325 32.1118 22.6904 32.6753ZM27.8485 29.4354C29.3097 27.7481 30.2368 25.5858 30.3651 23.2154H26.0751C26.0236 25.1376 25.7102 26.9712 25.1695 28.5686C26.1301 28.7951 27.0314 29.085 27.8485 29.4354ZM30.3647 22.0819C30.239 19.7586 29.3455 17.6361 27.9344 15.964C27.1069 16.3263 26.1908 16.6257 25.2127 16.8588C25.7268 18.4257 26.0249 20.2117 26.0751 22.0819H30.3647ZM16.1059 7.85501C16.1059 5.98564 17.4305 4.42005 19.1899 4.04644C18.4305 3.7287 17.8954 2.97798 17.8954 2.10418C17.8954 0.944068 18.8394 0 20 0C21.1606 0 22.1046 0.944068 22.1046 2.10418C22.1046 2.97798 21.5695 3.7287 20.8096 4.04644C22.5695 4.42005 23.8937 5.98564 23.8937 7.85501C23.8937 9.29053 21.796 9.79988 20 9.79988C19.0634 9.79988 18.1813 9.66502 17.517 9.4206C16.2892 8.96842 16.1059 8.24564 16.1059 7.85501ZM19.0289 2.10418C19.0289 2.63972 19.4645 3.07531 19.9996 3.07531C20.5347 3.07531 20.9703 2.63972 20.9703 2.10418C20.9703 1.56908 20.5347 1.13349 19.9996 1.13349C19.4645 1.13349 19.0289 1.56908 19.0289 2.10418ZM17.2394 7.85501C17.2394 8.18585 18.3148 8.66639 19.9996 8.66639C21.6843 8.66639 22.7598 8.18585 22.7598 7.85501C22.7598 6.33306 21.5215 5.09482 19.9996 5.09482C18.4776 5.09482 17.2394 6.33306 17.2394 7.85501ZM39.9996 34.4225C39.9996 35.858 37.9019 36.3673 36.1059 36.3673C35.1692 36.3673 34.2871 36.2325 33.6229 35.988C32.3955 35.5363 32.2122 34.8135 32.2122 34.4225C32.2122 32.5531 33.5369 30.9875 35.2967 30.6139C34.5368 30.2961 34.0017 29.5454 34.0017 28.6716C34.0017 27.5115 34.9458 26.5674 36.1063 26.5674C37.2669 26.5674 38.2109 27.5115 38.2109 28.6716C38.2109 29.5454 37.6758 30.2961 36.916 30.6139C38.6749 30.9875 39.9996 32.5531 39.9996 34.4225ZM35.1348 28.6716C35.1348 29.2072 35.5704 29.6423 36.1055 29.6423C36.641 29.6423 37.0761 29.2067 37.0761 28.6716C37.0761 28.1365 36.6406 27.7009 36.1055 27.7009C35.5704 27.7009 35.1348 28.1365 35.1348 28.6716ZM38.8661 34.4225C38.8661 32.9005 37.6278 31.6623 36.1059 31.6623C34.5839 31.6623 33.3457 32.9005 33.3457 34.4225C33.3457 34.7533 34.4211 35.2338 36.1059 35.2338C37.7906 35.2338 38.8661 34.7533 38.8661 34.4225ZM7.78736 34.4225C7.78736 35.858 5.68972 36.3673 3.89368 36.3673C2.95703 36.3673 2.07494 36.2325 1.41065 35.988C0.183314 35.5363 0 34.8135 0 34.4225C0 32.5531 1.32466 30.9875 3.08448 30.6139C2.3246 30.2961 1.78949 29.5454 1.78949 28.6716C1.78949 27.5115 2.73356 26.5674 3.89411 26.5674C5.05467 26.5674 5.99873 27.5115 5.99873 28.6716C5.99873 29.5454 5.46363 30.2961 4.70375 30.6139C6.46269 30.9875 7.78736 32.5531 7.78736 34.4225ZM2.92255 28.6716C2.92255 29.2072 3.35814 29.6423 3.89324 29.6423C4.42878 29.6423 4.86393 29.2067 4.86393 28.6716C4.86393 28.1365 4.42834 27.7009 3.89324 27.7009C3.35814 27.7009 2.92255 28.1365 2.92255 28.6716ZM6.65386 34.4225C6.65386 32.9005 5.41562 31.6623 3.89368 31.6623C2.37173 31.6623 1.13349 32.9005 1.13349 34.4225C1.13349 34.7533 2.20893 35.2338 3.89368 35.2338C5.57842 35.2338 6.65386 34.7533 6.65386 34.4225Z" fill="#ADC9A6"/>
</svg>
