<svg width="36" height="40" viewBox="0 0 36 40" fill="none" xmlns="http://www.w3.org/2000/svg">
<path d="M10.6638 21.3327C10.6638 23.8322 11.9356 25.2751 14.5229 25.7558C16.2577 27.8644 19.8335 27.8047 21.5266 25.7468C24.0767 25.2496 25.3305 23.8097 25.3305 21.3327C25.3305 17.3249 22.127 12.666 17.9972 12.666C13.8673 12.666 10.6638 17.3249 10.6638 21.3327ZM21.377 22.6393C21.2349 27.0878 14.7981 27.0715 14.6638 22.6392C14.6638 22.6393 14.6638 21.3856 14.6638 21.3856C15.7537 21.4443 16.9188 20.9323 17.5268 20.0498C18.5083 21.1181 20.2022 20.9954 21.377 21.6834V22.6393ZM17.9972 13.9993C21.3207 13.9993 23.9972 18.0111 23.9972 21.3327C23.9972 22.7158 23.538 23.5717 22.4862 24.0694C22.5687 23.812 22.626 23.5441 22.6631 23.2696C23.0486 23.2731 23.3471 22.9749 23.3471 22.6068C23.2622 20.4027 20.7984 20.0448 19.1622 19.5493C18.644 19.3385 18.1196 18.9059 18.1163 18.4147C18.114 18.0628 17.839 17.7734 17.4877 17.7533C17.141 17.7376 16.8305 17.9893 16.7879 18.3385C16.4971 20.1521 14.7167 20.4065 13.5398 19.7002C13.2306 19.4997 12.8175 19.5872 12.6179 19.8975C12.2584 20.4608 12.8268 20.9228 13.3305 21.0875C13.3421 21.9662 13.2473 23.2771 13.5655 24.1003C12.4715 23.6093 11.9972 22.7439 11.9972 21.3327C11.9972 18.0111 14.6736 13.9993 17.9972 13.9993Z" fill="#ADC9A6"/>
<path d="M34.3079 10.5973C34.3524 10.4045 34.381 10.2061 34.381 10V2.66667C34.381 1.19629 33.1848 0 31.7144 0H3.71437C2.24399 0 1.0477 1.19629 1.0477 2.66667V10C1.0477 10.2058 1.07627 10.4042 1.12062 10.5967C0.600314 11.0157 0.250547 11.6205 0.156754 12.3027C-0.762193 19.0094 2.37941 29.001 9.05064 33.6846V37.3333C9.05064 38.8037 10.2469 40 11.7173 40H23.7173C25.1877 40 26.384 38.8037 26.384 37.3333V33.6846C33.0506 28.9994 36.1896 19.0081 35.271 12.3024C35.1773 11.6208 34.8278 11.0163 34.3079 10.5973ZM2.38103 2.66667C2.38103 1.93131 2.97901 1.33333 3.71437 1.33333H31.7144C32.4497 1.33333 33.0477 1.93131 33.0477 2.66667V10C33.0477 10.7354 32.4497 11.3333 31.7144 11.3333H3.71437C2.97901 11.3333 2.38103 10.7354 2.38103 10V2.66667ZM23.9149 26.375C23.0988 26.9932 22.0933 27.3333 21.0838 27.3333H19.7173C19.3491 27.3333 19.0506 27.6318 19.0506 28C19.0044 29.7572 16.4303 29.7589 16.384 28C16.384 27.6318 16.0855 27.3333 15.7173 27.3333C14.2867 27.388 12.6763 27.341 11.5123 26.3742C6.95017 22.946 4.75131 17.7267 5.45119 12.6667H29.9767C30.6809 17.7245 28.4833 22.942 23.9149 26.375ZM25.3469 32.7793C25.1616 32.903 25.0506 33.1107 25.0506 33.3333V37.3333C25.0506 38.0687 24.4527 38.6667 23.7173 38.6667H11.7173C10.9819 38.6667 10.384 38.0687 10.384 37.3333V33.3333C10.384 33.1107 10.2726 32.9027 10.0877 32.779C3.94438 28.6707 -0.0373065 18.1149 1.77649 11.8204C2.34107 12.455 3.23885 12.7339 4.11304 12.6667C3.39913 18.1295 5.82768 23.7687 10.7083 27.4382C11.967 28.4252 13.5747 28.7541 15.1349 28.6667C15.8131 31.3071 19.6224 31.3054 20.2996 28.6667C21.858 28.7531 23.462 28.424 24.7189 27.4387C29.6056 23.7644 32.0333 18.127 31.3151 12.6667C32.1893 12.7338 33.087 12.4553 33.6518 11.8209C35.4646 18.1131 31.485 28.6706 25.3469 32.7793Z" fill="#ADC9A6"/>
<path d="M7.71427 7.99935C8.08244 7.99935 8.38094 7.70085 8.38094 7.33268V3.33268C8.38094 2.96452 8.08244 2.66602 7.71427 2.66602C7.34611 2.66602 7.04761 2.96452 7.04761 3.33268V7.33268C7.04761 7.70085 7.34611 7.99935 7.71427 7.99935Z" fill="#ADC9A6"/>
<path d="M7.71103 8.66797C6.83404 8.68453 6.84214 9.98816 7.71755 10.0013C8.59572 9.98511 8.5945 8.68006 7.71103 8.66797Z" fill="#ADC9A6"/>
<path d="M27.7177 7.99935C28.0859 7.99935 28.3844 7.70085 28.3844 7.33268V3.33268C28.3844 2.96452 28.0859 2.66602 27.7177 2.66602C27.3495 2.66602 27.051 2.96452 27.051 3.33268V7.33268C27.051 7.70085 27.3495 7.99935 27.7177 7.99935Z" fill="#ADC9A6"/>
<path d="M27.7142 8.66797C26.8372 8.68453 26.8453 9.98816 27.7207 10.0013C28.5989 9.98511 28.5977 8.68006 27.7142 8.66797Z" fill="#ADC9A6"/>
<path d="M10.381 3.99935H25.0476C25.9203 3.98556 25.9268 2.68116 25.0476 2.66602C25.0476 2.66602 10.381 2.66602 10.381 2.66602C9.50945 2.67944 9.50091 3.98409 10.381 3.99935Z" fill="#ADC9A6"/>
<path d="M10.381 6.66732H25.0476C25.9203 6.65352 25.9268 5.34912 25.0476 5.33398C25.0476 5.33398 10.381 5.33398 10.381 5.33398C9.50945 5.34741 9.50091 6.65206 10.381 6.66732Z" fill="#ADC9A6"/>
<path d="M10.381 9.33333H25.0476C25.9203 9.31954 25.9268 8.01514 25.0476 8C25.0476 8 10.381 8 10.381 8C9.50945 8.01343 9.50091 9.31807 10.381 9.33333Z" fill="#ADC9A6"/>
<path d="M21.3811 31.332C17.4164 31.4579 17.4174 37.2067 21.3812 37.332C25.3458 37.2061 25.3449 31.4574 21.3811 31.332ZM21.3811 35.9987C19.1834 35.941 19.1839 32.7228 21.3811 32.6654C23.5788 32.7231 23.5783 35.9413 21.3811 35.9987Z" fill="#ADC9A6"/>
</svg>
