<svg width="44" height="40" viewBox="0 0 44 40" fill="none" xmlns="http://www.w3.org/2000/svg">
<path fill-rule="evenodd" clip-rule="evenodd" d="M42.574 27.4358C42.574 27.5875 42.5403 27.7009 42.4573 27.8274L38.7497 33.4963H32.8028V32.1792H37.6547C37.8951 32.1792 38.12 32.0577 38.2508 31.8565L40.9106 27.7916C41.146 27.4312 41.2607 27.0471 41.2607 26.6166V17.8335C41.2607 17.4695 41.5554 17.1751 41.9176 17.1751C42.2803 17.1751 42.574 17.4695 42.574 17.8335V27.4358ZM40.8236 38.5709H39.3684L37.2679 34.9254H38.7231L40.8236 38.5709ZM10.6037 23.7937H33.594C34.1187 23.7937 34.5467 23.3653 34.5467 22.839C34.5467 22.3132 34.1187 21.8848 33.594 21.8848H10.6037C10.078 21.8848 9.65098 22.3132 9.65098 22.839C9.65098 23.3653 10.078 23.7937 10.6037 23.7937ZM31.3768 38.5709H12.8204V25.2228H31.3768V38.5709ZM11.3949 30.7506H6.73111L4.2825 27.0078C4.19953 26.8808 4.16581 26.7673 4.16581 26.6166V17.8335C4.16581 16.9427 3.60598 16.1811 2.82081 15.8817C3.23698 10.8932 9.09875 9.7752 12.0442 12.3803C13.1513 13.3592 13.7358 14.7701 13.7358 16.4603V20.4557H10.6037C9.29185 20.4557 8.22548 21.5259 8.22548 22.839C8.22548 24.1537 9.29185 25.2228 10.6037 25.2228H11.3949V30.7506ZM11.3949 33.4963H5.25077L1.5422 27.8274C1.4597 27.7009 1.4255 27.5875 1.4255 27.4358V17.8335C1.4255 17.4695 1.72075 17.1751 2.08291 17.1751C2.44507 17.1751 2.73983 17.4695 2.73983 17.8335V26.6166C2.73983 27.0471 2.854 27.4312 3.08991 27.7916L5.74925 31.8565C5.88103 32.0577 6.10537 32.1792 6.3453 32.1792H11.3949V33.4963ZM4.63158 38.5709H3.17643L5.27795 34.9254H6.7331L4.63158 38.5709ZM30.2647 16.4603V20.4557H33.594C34.9058 20.4557 35.9722 21.5249 35.9722 22.839C35.9722 24.1537 34.9058 25.2228 33.594 25.2228H32.8028V30.7506H37.2694L39.7185 27.0078C39.801 26.8808 39.8352 26.7673 39.8352 26.6166V17.8335C39.8352 16.9422 40.3945 16.1801 41.1807 15.8817C41.0605 14.448 40.4911 13.2448 39.5133 12.3803C36.464 9.68359 30.2647 10.9705 30.2647 16.4603ZM42.6082 15.864C42.1655 9.57407 34.8336 7.92926 31.0127 11.3091C29.5902 12.5673 28.8392 14.3487 28.8392 16.4603V20.4557H15.1613V16.4603C15.1613 9.69108 7.48482 7.81985 3.5426 11.3091C2.25795 12.4468 1.52159 14.013 1.39281 15.864C0.582491 16.1498 0 16.9251 0 17.8335V27.4358C0 27.8662 0.114707 28.2508 0.350092 28.6108L4.02951 34.2338L1.7107 38.2584C1.26503 39.0328 1.82143 40 2.71417 40H4.78652C5.20551 40 5.58075 39.7828 5.78999 39.4198L8.3784 34.9254H11.3949V39.2857C11.3949 39.6804 11.7137 40 12.1076 40H32.0901C32.4834 40 32.8028 39.6804 32.8028 39.2857V34.9254H35.6211L38.2105 39.4198C38.4198 39.7828 38.795 40 39.214 40H41.2868C42.1776 40 42.7367 39.034 42.2898 38.2584L39.9715 34.2338L43.6504 28.6108C43.8858 28.2508 44 27.8662 44 27.4358V17.8335C44 16.9251 43.418 16.1498 42.6082 15.864ZM8.26524 1.42908C9.78629 1.42908 11.0242 2.66913 11.0242 4.19348C11.0242 5.71781 9.78629 6.95836 8.26524 6.95836C6.74416 6.95836 5.50679 5.71781 5.50679 4.19348C5.50679 2.66913 6.74416 1.42908 8.26524 1.42908ZM8.26524 8.38694C5.9585 8.38694 4.08082 6.50571 4.08082 4.19348C4.08082 1.88176 5.9585 0 8.26524 0C10.5735 0 12.4501 1.88176 12.4501 4.19348C12.4501 6.50571 10.5735 8.38694 8.26524 8.38694ZM35.7353 1.42908C37.2563 1.42908 38.4932 2.66913 38.4932 4.19348C38.4932 5.71781 37.2563 6.95836 35.7353 6.95836C34.2132 6.95836 32.9764 5.71781 32.9764 4.19348C32.9764 2.66913 34.2132 1.42908 35.7353 1.42908ZM35.7353 8.38694C33.4275 8.38694 31.5509 6.50571 31.5509 4.19348C31.5509 1.88176 33.4275 0 35.7353 0C38.042 0 39.9187 1.88176 39.9187 4.19348C39.9187 6.50571 38.042 8.38694 35.7353 8.38694Z" fill="#ADC9A6"/>
</svg>
