<svg width="30" height="30" viewBox="0 0 30 30" fill="none" xmlns="http://www.w3.org/2000/svg">
<path d="M27.5737 21.992H27.1721V20.7981C27.1721 19.5529 26.5594 18.5401 25.8064 18.5401H24.261C24.1429 14.2379 25.7092 13.2204 25.782 13.1757C25.9402 13.0816 26.0236 12.7903 25.9683 12.5238C25.9128 12.2564 25.7388 12.1153 25.5796 12.2084C25.494 12.2585 23.521 13.4742 23.6491 18.5401H23.5361V10.5728C23.5361 10.2897 23.3994 10.0601 23.2308 10.0601C23.0622 10.0601 22.9256 10.2897 22.9256 10.5728V18.5401H22.8636C22.9915 13.4742 21.0185 12.2585 20.933 12.2084C20.7743 12.1158 20.6022 12.2557 20.5459 12.5212C20.4896 12.7867 20.5725 13.0793 20.7302 13.1756C20.7984 13.2171 22.3697 14.2309 22.2516 18.5402H16.426C16.1525 15.2385 16.1899 12.4051 16.542 9.90406C16.9314 9.73273 17.332 9.64598 17.7354 9.64598C18.2054 9.64598 18.6804 9.75744 19.1876 9.9867C19.2792 10.0281 19.3772 9.99552 19.4527 9.89853C19.528 9.80153 19.5722 9.65111 19.5722 9.49167V5.2926C19.5722 5.13305 19.5279 4.98264 19.4525 4.88554C19.3772 4.78854 19.2791 4.75614 19.1874 4.79767C18.7516 4.99525 18.1789 5.22205 17.6139 5.22205C17.2317 5.22205 16.8816 5.12147 16.5485 4.91517C16.3277 3.30744 16.2628 2.02187 16.5721 0.700205C16.609 0.542405 16.5971 0.364098 16.5403 0.223934C16.4834 0.0838726 16.389 0 16.2881 0H13.712C13.611 0 13.5167 0.0838726 13.4598 0.223934C13.4029 0.364098 13.391 0.542302 13.4279 0.700205C13.7372 2.02207 13.6723 3.30764 13.4515 4.91517C13.1185 5.12147 12.7684 5.22205 12.386 5.22205C11.8203 5.22205 11.2477 4.99525 10.8122 4.79767C10.7205 4.75614 10.6224 4.78864 10.547 4.88554C10.4716 4.98253 10.4273 5.13305 10.4273 5.2926V9.49167C10.4273 9.65121 10.4715 9.80153 10.5468 9.89863C10.6222 9.99552 10.7201 10.028 10.8118 9.9867C11.3189 9.75744 11.7939 9.64598 12.2643 9.64598C12.6688 9.64598 13.0703 9.73304 13.4604 9.90509C13.8235 12.35 13.8592 15.1141 13.5739 18.5401H7.72477C7.62813 14.2365 9.19798 13.2197 9.2699 13.1757C9.42806 13.0816 9.51145 12.7904 9.45615 12.5239C9.40072 12.2565 9.22668 12.115 9.06753 12.2083C8.98188 12.2583 7.00797 13.4736 7.11285 18.54H6.99784V10.5727C6.99784 10.2896 6.86116 10.06 6.69261 10.06C6.52406 10.06 6.38738 10.2896 6.38738 10.5727V18.54H6.3253C6.45319 13.4741 4.48026 12.2584 4.39461 12.2083C4.23534 12.1153 4.06142 12.2564 4.00593 12.5237C3.95044 12.7911 4.03456 13.0833 4.19371 13.1765C4.21038 13.1863 5.83181 14.1906 5.7132 18.54H4.19353C3.44029 18.54 2.82745 19.5529 2.82745 20.798V21.9919H2.42656C1.08856 21.9919 0 23.7878 0 25.9952V29.4872C0 29.7704 0.136681 29.9999 0.305228 29.9999H3.66194C3.66219 29.9999 3.66243 30 3.66267 30C3.66298 30 3.66328 29.9999 3.66359 29.9999H20.4018C20.402 29.9999 20.4022 30 20.4025 30C20.4027 30 20.403 29.9999 20.4033 29.9999H25.0725C25.0728 29.9999 25.0732 30 25.0735 30C25.0738 30 25.0741 29.9999 25.0744 29.9999H29.6948C29.8634 29.9999 30 29.7704 30 29.4872V25.9952C29.9999 23.7879 28.9116 21.992 27.5737 21.992ZM14.0067 9.35827C13.9793 9.18715 13.9012 9.0519 13.8001 9.00074C13.302 8.74851 12.7853 8.62054 12.2644 8.62054C11.8678 8.62054 11.4567 8.69488 11.0378 8.84191V5.95138C11.4412 6.11 11.9096 6.24729 12.386 6.24729C12.9067 6.24729 13.3797 6.08918 13.8321 5.76374C13.9205 5.70007 13.986 5.57016 14.0086 5.41308C14.1978 4.09992 14.3709 2.59472 14.1309 1.02534H15.869C15.629 2.59452 15.8021 4.09982 15.9913 5.41308C16.0139 5.57026 16.0793 5.70017 16.1679 5.76384C16.6204 6.08918 17.0934 6.24729 17.6139 6.24729C18.0898 6.24729 18.5583 6.1101 18.9617 5.95138V8.84202C18.5428 8.69488 18.1318 8.62054 17.7354 8.62054C17.2148 8.62054 16.6982 8.7484 16.1999 9.00074C16.0975 9.05252 16.0187 9.19073 15.9923 9.36484C15.5873 12.0309 15.527 15.0378 15.8092 18.5401H14.191C14.4861 14.9066 14.4264 11.9761 14.0067 9.35827ZM3.4379 20.7982C3.4379 20.13 3.78391 19.5655 4.19353 19.5655H13.8387H16.1611H25.8063C26.2157 19.5655 26.5615 20.1301 26.5615 20.7982V21.9921H3.4379V20.7982ZM29.3895 28.9747H25.5931L26.0982 27.451C26.1494 27.2965 26.1497 27.1085 26.0988 26.9537C26.0478 26.7989 25.953 26.6991 25.8479 26.6896L23.9355 26.5171L24.2249 25.1714C24.2822 24.905 24.2001 24.6111 24.0416 24.5151C23.8829 24.4189 23.708 24.5566 23.6508 24.823L23.2217 26.8179C23.1889 26.9704 23.201 27.1401 23.2543 27.2753C23.3077 27.4105 23.396 27.4953 23.4924 27.504L25.3271 27.6694L24.8945 28.9746H20.4584L18.1217 27.4884L17.9258 25.6948C17.9112 25.561 17.8655 25.4425 17.7989 25.3653C17.7322 25.2882 17.6497 25.2587 17.5704 25.283L15.3898 25.9567L15.8707 24.5461C15.9242 24.3892 15.9245 24.1966 15.8715 24.0391C15.8186 23.8817 15.7202 23.7828 15.6125 23.7789L14.4769 23.7374C14.3073 23.7276 14.1688 23.9558 14.1651 24.2389C14.1614 24.522 14.295 24.7564 14.4637 24.7626L15.0858 24.7853L14.5332 26.4061C14.4742 26.5793 14.4804 26.7943 14.5491 26.9572C14.6177 27.12 14.7363 27.2006 14.8533 27.165L17.3805 26.3843L17.5524 27.958C17.5717 28.1347 17.6446 28.2813 17.7445 28.3449L18.7346 28.9747H5.98302L8.36227 27.9046C8.46068 27.8603 8.53942 27.7366 8.57227 27.5747C8.60511 27.4127 8.58765 27.2339 8.52581 27.098L7.66513 25.2072L9.8154 25.0117C9.98376 24.9964 10.1128 24.7548 10.1037 24.472C10.0946 24.1893 9.95068 23.9732 9.78243 23.9877L7.05534 24.2356C6.94235 24.246 6.84199 24.3604 6.79462 24.5329C6.74725 24.7056 6.76062 24.908 6.82929 25.059L7.7639 27.1122L3.62269 28.9747H0.610456V25.9953C0.610456 24.3533 1.42517 23.0173 2.42656 23.0173H3.13268H26.8668H27.5737C28.575 23.0173 29.3895 24.3533 29.3895 25.9953V28.9747Z" fill="#0B5D6A"/>
</svg>
