<svg width="55" height="60" viewBox="0 0 55 60" fill="none" xmlns="http://www.w3.org/2000/svg">
<path fill-rule="evenodd" clip-rule="evenodd" d="M35.7367 48.6653C40.5725 47.0021 45.6788 46.0089 50.6343 45.083C51.7019 44.8873 52.7433 45.5752 52.8809 46.6212C53.0953 47.6636 52.3824 48.6694 51.3916 48.8607C46.5883 49.7539 41.6343 50.699 37.0259 52.2974C36.0441 52.6431 34.934 52.1125 34.5678 51.1105C34.2017 50.1093 34.7549 49.0117 35.7367 48.6653Z" fill="#1E2F85"/>
<path fill-rule="evenodd" clip-rule="evenodd" d="M23.036 36.6903C30.4803 28.1618 38.9832 20.6146 46.2614 11.8784C46.9079 11.0644 48.1344 10.9519 48.9443 11.6301C49.7541 12.3091 49.901 13.521 49.1777 14.3394C41.9008 23.0994 33.3993 30.6697 25.9563 39.222C25.2319 40.022 24.004 40.1037 23.1929 39.4048C22.4587 38.7022 22.3116 37.4903 23.036 36.6903Z" fill="#1E2F85"/>
<path fill-rule="evenodd" clip-rule="evenodd" d="M17.5184 16.0965C16.4039 20.5935 15.2898 25.0906 14.1751 29.5884C13.9717 30.6286 12.9083 31.2546 11.8614 30.9975C10.8145 30.7396 10.2332 29.7067 10.4368 28.6657C11.5528 24.1611 12.6682 19.6572 13.7841 15.1534C14.063 14.128 15.125 13.5072 16.1708 13.7703C17.1411 14.0188 17.7971 15.0718 17.5184 16.0965Z" fill="#1E2F85"/>
</svg>
