<svg width="455" height="454" viewBox="0 0 455 454" fill="none" xmlns="http://www.w3.org/2000/svg">
<path opacity="0.1" d="M447.886 173.843C450.62 185.254 452.489 197.001 453.423 209.011L452.176 209.108C452.631 214.955 452.863 220.865 452.863 226.829C452.863 232.794 452.631 238.704 452.176 244.551L453.423 244.648C452.489 256.658 450.62 268.404 447.886 279.816L446.67 279.525C443.893 291.122 440.219 302.37 435.726 313.194L436.881 313.673C432.3 324.708 426.873 335.304 420.68 345.379L419.614 344.724C413.41 354.817 406.432 364.385 398.764 373.346L399.714 374.159C391.987 383.188 383.563 391.604 374.524 399.323L373.712 398.372C364.745 406.03 355.17 412.999 345.07 419.195L345.724 420.261C335.644 426.444 325.044 431.863 314.005 436.436L313.526 435.28C302.7 439.765 291.449 443.432 279.851 446.204L280.141 447.421C268.729 450.148 256.981 452.015 244.971 452.947L244.874 451.7C239.027 452.154 233.117 452.385 227.152 452.385C221.188 452.385 215.278 452.154 209.431 451.7L209.334 452.947C197.324 452.015 185.576 450.148 174.164 447.421L174.454 446.204C162.856 443.432 151.605 439.765 140.779 435.28L140.3 436.436C129.261 431.863 118.661 426.444 108.581 420.261L109.235 419.195C99.1351 412.998 89.5601 406.03 80.5927 398.372L79.7805 399.323C70.7421 391.604 62.3177 383.188 54.5906 374.159L55.5409 373.346C47.8728 364.385 40.8953 354.817 34.6908 344.724L33.6252 345.379C27.432 335.304 22.0046 324.708 17.4238 313.673L18.579 313.194C14.0861 302.37 10.4123 291.122 7.6349 279.525L6.41854 279.816C3.68541 268.404 1.81547 256.657 0.881529 244.648L2.12853 244.551C1.67381 238.704 1.44218 232.794 1.44218 226.829C1.44218 220.865 1.67381 214.955 2.12853 209.108L0.88153 209.011C1.81547 197.001 3.68541 185.254 6.41853 173.843L7.6349 174.134C10.4123 162.537 14.0861 151.289 18.579 140.465L17.4238 139.986C22.0046 128.951 27.432 118.355 33.6252 108.28L34.6908 108.935C40.8953 98.8419 47.8728 89.2738 55.5409 80.3132L54.5906 79.5C62.3177 70.4704 70.7421 62.0546 79.7805 54.3358L80.5927 55.2869C89.5601 47.6287 99.1351 40.6604 109.235 34.4644L108.581 33.3982C118.661 27.2149 129.261 21.7962 140.3 17.2231L140.779 18.3787C151.605 13.8939 162.856 10.2269 174.454 7.45464L174.164 6.23813C185.576 3.51041 197.324 1.64421 209.334 0.712151L209.431 1.95917C215.278 1.50536 221.188 1.27421 227.152 1.27421C233.117 1.27421 239.027 1.50536 244.874 1.95917L244.971 0.712151C256.981 1.64421 268.729 3.51041 280.141 6.23813L279.851 7.45464C291.449 10.2269 302.7 13.8939 313.526 18.3787L314.005 17.2231C325.044 21.7962 335.644 27.2149 345.724 33.3982L345.07 34.4644C355.17 40.6604 364.745 47.6287 373.712 55.2869L374.524 54.3358C383.563 62.0546 391.987 70.4704 399.714 79.5L398.764 80.3132C406.432 89.2738 413.41 98.842 419.614 108.935L420.68 108.28C426.873 118.355 432.3 128.951 436.881 139.986L435.726 140.465C440.219 151.289 443.893 162.537 446.67 174.134L447.886 173.843Z" stroke="#495057" stroke-width="2.50154" stroke-dasharray="35 35"/>
</svg>
