<svg width="64" height="60" viewBox="0 0 64 60" fill="none" xmlns="http://www.w3.org/2000/svg">
<path fill-rule="evenodd" clip-rule="evenodd" d="M51.9255 25.5217C51.2756 20.4503 51.3367 15.2499 51.4332 10.2106C51.4576 9.12573 52.3421 8.24538 53.3943 8.32252C54.4585 8.32367 55.2992 9.22532 55.286 10.2341C55.1883 15.1177 55.1109 20.1593 55.7433 24.9949C55.8831 26.0262 55.1387 27.0055 54.0834 27.1611C53.0288 27.3169 52.066 26.5531 51.9255 25.5217Z" fill="white"/>
<path fill-rule="evenodd" clip-rule="evenodd" d="M37.6274 35.5318C30.7826 26.5164 25.1129 16.6633 18.0311 7.76859C17.3649 6.97081 17.503 5.74721 18.3311 5.09164C19.1599 4.43618 20.3764 4.53781 21.0315 5.41169C28.1369 14.3099 33.8294 24.1663 40.6978 33.1852C41.3346 34.0564 41.1661 35.2752 40.3174 35.9277C39.4808 36.5043 38.2642 36.403 37.6274 35.5318Z" fill="white"/>
<path fill-rule="evenodd" clip-rule="evenodd" d="M16.3433 36.764C20.5215 38.7658 24.7 40.7672 28.879 42.7693C29.8565 43.1791 30.2542 44.3472 29.7904 45.3204C29.3258 46.2932 28.1965 46.6534 27.2183 46.2433C23.0329 44.2385 18.8481 42.2344 14.6634 40.2299C13.7157 39.7492 13.3228 38.5835 13.7923 37.6127C14.2321 36.7128 15.3962 36.2836 16.3433 36.764Z" fill="white"/>
</svg>
