<svg width="226" height="17" viewBox="0 0 226 17" fill="none" xmlns="http://www.w3.org/2000/svg">
<path fill-rule="evenodd" clip-rule="evenodd" d="M83.6526 11.6565C82.2752 11.4539 80.9057 11.2368 79.544 11.0044C79.0485 10.9199 78.7425 10.535 78.8592 10.1453L78.8654 10.1299C71.5032 10.1812 64.1421 10.1775 56.7839 10.1171C46.1546 10.0296 35.456 9.74583 24.8586 9.18114C14.3859 8.62317 11.4928 8.48376 2.47682 7.37591C2.21898 7.34425 1.72226 7.35676 1.45447 7.30367C1.19983 7.25326 1.01702 7.16004 0.899325 7.06753C0.748582 6.95029 0.66125 6.81352 0.623406 6.66263C0.583323 6.49818 0.592969 6.29604 0.771802 6.0668C1.27634 5.42329 2.09974 5.23255 3.10717 5.34539C3.97398 5.44259 5.02435 5.82843 5.84488 5.85813C19.5044 6.35163 33.1554 6.92958 46.8162 7.40754C67.7294 8.13915 88.5736 8.25883 109.419 8.15853C131.33 7.55872 153.225 6.48847 175.079 4.98457C189.312 4.00559 203.512 2.6941 217.725 1.5101C217.714 1.46126 217.711 1.41009 217.714 1.35779C217.741 0.959293 218.177 0.6471 218.685 0.660911C219.2 0.674954 223.791 0.683362 224.639 0.829529C225.124 0.913282 225.316 1.14394 225.38 1.24308C225.553 1.51499 225.566 1.81404 225.188 2.10732C225.113 2.16365 224.974 2.257 224.717 2.32006C224.497 2.37525 223.952 2.45049 222.96 2.52982C207.042 3.81403 191.145 5.32687 175.206 6.42441C168.091 6.91327 160.97 7.35745 153.844 7.75295C163.52 7.65343 173.2 7.56713 182.897 7.53247C183.314 7.53003 183.517 7.57903 183.555 7.59081C184.088 7.76007 184.128 8.08888 184.12 8.27587C184.118 8.34259 184.052 8.89427 183.271 8.98751C182.814 9.04228 179.513 9.1981 178.243 9.27686C172.141 9.65968 172.283 9.61619 166.04 9.96657C152.312 10.7357 138.602 11.3408 124.855 11.8844C119.374 12.101 113.893 12.2971 108.41 12.4708C124.222 13.202 140.35 12.8292 155.722 12.6447C163.652 12.5494 171.584 12.4154 179.512 12.1731C183.063 12.0645 186.613 11.9093 190.164 11.7868C191.267 11.7488 192.366 11.6907 193.468 11.6476C193.599 11.6426 195.309 11.5966 195.589 11.5957C196.324 11.5932 196.498 12.1023 196.504 12.1227C196.537 12.2185 196.665 12.9057 195.753 13.0308C182.583 14.838 168.758 14.7603 155.443 15.283C132.14 16.1979 108.769 16.5813 85.4574 16.4904C75.1464 16.4503 64.8658 16.137 54.5667 15.8267C49.4229 15.6717 44.2654 15.5015 39.1672 14.9706C38.6557 14.9172 37.4973 14.8753 36.9349 14.8112C36.6488 14.7784 36.4447 14.7216 36.3511 14.682C35.9411 14.5098 35.8573 14.246 35.849 14.06C35.8436 13.9206 35.8769 13.4287 36.7167 13.2614C48.7173 10.8687 62.0698 11.9785 74.2773 11.8102C77.4023 11.7671 80.5263 11.7158 83.6526 11.6565ZM93.8312 11.4357C90.2064 11.0761 86.6165 10.6346 83.0765 10.0942C91.8654 10.0079 100.654 9.84315 109.445 9.60232C123.952 9.53251 138.457 9.35656 152.98 9.20639C143.593 9.66885 134.203 10.0696 124.796 10.4414C114.479 10.8494 104.156 11.1844 93.8312 11.4357ZM144.124 14.2409C124.59 14.865 105.025 15.122 85.5027 15.0459C75.21 15.0057 64.9512 14.6928 54.6721 14.3831C50.6274 14.2612 46.5716 14.131 42.5456 13.8185C52.9284 12.6033 64.0114 13.3962 74.2754 13.2545C80.7576 13.1651 87.2428 13.0405 93.7256 12.8829C110.228 14.5055 127.451 14.4494 144.124 14.2409Z" fill="#F9C067"/>
</svg>
