<svg width="111" height="42" viewBox="0 0 111 42" fill="none" xmlns="http://www.w3.org/2000/svg">
<path d="M37.0743 9.59393C36.651 9.97943 36.1673 10.1388 35.6215 10.2222C31.0676 10.9158 26.7972 12.404 22.7955 14.7016C18.0557 17.4228 13.5999 20.4798 9.93332 24.6078C8.00876 26.7732 6.16844 28.9942 4.56106 31.4049C4.37811 31.679 4.26051 32.1167 3.85795 32.0682C3.34273 32.007 3.43582 31.4797 3.33696 31.1289C3.08506 30.2327 2.91888 29.3103 2.61562 28.4318C2.38711 27.7701 1.62206 27.3404 1.12628 27.473C0.4475 27.653 0.468772 28.2429 0.420538 28.7774C0.397489 29.0207 0.379481 29.2671 0.379122 29.5113C0.371985 32.2559 0.379573 35.0007 0.358896 37.7467C0.352405 38.7739 0.708504 39.5799 1.64937 40.034C2.571 40.4795 3.34883 40.1136 4.07619 39.5158C6.61547 37.4349 9.16548 35.3671 11.7074 33.2865C12.0476 33.008 12.3755 32.7055 12.6582 32.3716C12.9532 32.0229 13.1366 31.5972 12.8565 31.1558C12.5695 30.7029 12.1115 30.7266 11.6742 30.8773C11.2592 31.0194 10.8701 31.2379 10.457 31.3883C10.0172 31.5507 9.645 31.9212 9.09808 31.8689C9.04732 31.3325 9.42586 31.0592 9.67915 30.725C13.126 26.1819 17.3191 22.4571 22.1478 19.4509C25.1482 17.5828 28.2307 15.8718 31.6782 14.9449C31.9784 14.865 32.3095 14.5964 32.6405 15.0376C31.8455 16.5907 31.136 18.2007 30.543 19.864C27.1447 29.4036 33.3374 38.7384 41.8529 40.4919C43.6361 40.8589 45.4307 41.1923 47.2421 41.1315C51.9678 40.9704 56.0809 39.2328 59.1767 35.6379C65.0473 28.8157 61.7458 19.224 57.1932 15.2925C53.7583 12.324 49.6435 10.8169 45.1948 10.1538C44.4845 10.0475 43.7432 10.1152 42.9853 9.82838C43.155 9.39191 43.3809 9.27774 43.5852 9.15201C46.6584 7.26567 49.9316 5.8449 53.4601 5.08581C61.3908 3.38171 69.3384 3.54174 77.2381 5.22128C82.4399 6.32642 87.3441 8.36776 92.0585 10.806C98.193 13.984 103.516 18.1607 107.522 23.8756C108.49 25.2543 109.341 26.6817 109.219 28.4647C109.195 28.8058 109.099 29.2188 109.556 29.3051C110.048 29.3975 110.217 28.9837 110.347 28.6022C110.493 28.1754 110.481 27.7341 110.453 27.2912C110.386 26.2459 110.082 25.2654 109.608 24.3415C107.421 20.0829 104.374 16.5093 100.611 13.6045C92.2317 7.1401 82.8435 2.86215 72.3598 1.26374C64.882 0.121736 57.4071 0.206453 50.0842 2.42518C45.248 3.8888 40.8348 6.15976 37.0743 9.59393ZM39.2873 13.6942C43.9588 13.5263 48.4418 14.154 52.6543 16.3714C57.1952 18.7613 59.899 24.45 58.7041 29.4033C58.0346 32.178 56.3801 34.2566 53.9747 35.684C51.3457 37.2433 48.498 38.0158 45.3986 37.5822C42.9562 37.2402 40.5791 36.7275 38.4946 35.3023C37.5953 34.6873 36.836 33.9334 36.2915 33.2011C33.4071 29.7284 32.5715 25.9785 33.7916 21.7899C34.5251 19.2726 35.6182 16.939 37.1935 14.835C37.7244 14.1248 38.3631 13.7288 39.2873 13.6942Z" fill="#1E2F85"/>
</svg>
