<svg width="225" height="16" viewBox="0 0 225 16" fill="none" xmlns="http://www.w3.org/2000/svg">
<path fill-rule="evenodd" clip-rule="evenodd" d="M83.4788 10.6225C82.1058 10.4234 80.7408 10.2104 79.3835 9.98236C78.8895 9.89948 78.5841 9.52474 78.6999 9.14586L78.706 9.13092C71.3693 9.17034 64.0336 9.15617 56.7007 9.08696C46.1079 8.98668 35.4458 8.69545 24.8843 8.13113C14.4469 7.57352 11.5635 7.43382 2.57716 6.3435C2.32017 6.31234 1.82518 6.3238 1.55824 6.27178C1.30441 6.22239 1.1221 6.13147 1.00469 6.04133C0.854301 5.92709 0.767082 5.79395 0.72916 5.64714C0.688989 5.48715 0.698323 5.29057 0.876223 5.06788C1.37813 4.44275 2.19844 4.25841 3.20254 4.36959C4.06649 4.46536 5.11377 4.84211 5.93152 4.87217C19.5446 5.37162 33.1493 5.95319 46.7636 6.43753C67.6056 7.1789 88.3781 7.32504 109.151 7.25724C130.986 6.70515 152.804 5.69551 174.581 4.26406C188.763 3.33225 202.912 2.077 217.074 0.945775C217.063 0.898256 217.061 0.848487 217.063 0.797628C217.09 0.410102 217.524 0.107095 218.03 0.121253C218.543 0.135646 223.119 0.150373 223.964 0.29374C224.448 0.375886 224.639 0.600487 224.703 0.697C224.876 0.961702 224.889 1.25256 224.513 1.53725C224.438 1.59193 224.3 1.68253 224.043 1.74348C223.824 1.79684 223.281 1.86925 222.293 1.94498C206.431 3.17124 190.591 4.61989 174.709 5.66457C167.619 6.12987 160.524 6.5517 153.423 6.92618C163.065 6.84319 172.712 6.77308 182.375 6.75321C182.791 6.75142 182.993 6.79937 183.031 6.81089C183.563 6.97626 183.603 7.29611 183.595 7.47795C183.593 7.54284 183.528 8.07929 182.75 8.16885C182.295 8.22147 179.005 8.36831 177.74 8.4431C171.659 8.8067 171.801 8.7646 165.58 9.09647C151.9 9.82489 138.238 10.3938 124.539 10.9029C119.077 11.1057 113.615 11.2886 108.152 11.4497C123.91 12.1834 139.983 11.8438 155.301 11.6864C163.204 11.605 171.108 11.486 179.009 11.2617C182.547 11.1612 186.084 11.0152 189.622 10.9012C190.722 10.8658 191.818 10.8109 192.916 10.7705C193.046 10.7658 194.749 10.7235 195.029 10.723C195.761 10.7216 195.935 11.217 195.942 11.2369C195.974 11.3301 196.103 11.9986 195.194 12.119C182.072 13.8579 168.295 13.7626 155.027 14.2519C131.805 15.1084 108.516 15.448 85.2841 15.3263C75.0085 15.2726 64.763 14.9532 54.499 14.6368C49.3728 14.4787 44.2328 14.3057 39.1514 13.7822C38.6416 13.7295 37.4871 13.6871 36.9266 13.6239C36.6415 13.5916 36.438 13.5361 36.3447 13.4974C35.9358 13.3294 35.852 13.0727 35.8435 12.8918C35.8379 12.7562 35.8703 12.2778 36.707 12.1164C48.6629 9.80647 61.9709 10.9048 74.1361 10.7585C77.2502 10.7211 80.3633 10.6756 83.4788 10.6225ZM93.622 10.4222C90.0092 10.0674 86.4311 9.63284 82.9025 9.10225C91.661 9.03079 100.419 8.88314 109.18 8.66145C123.636 8.61426 138.091 8.46384 152.564 8.33851C143.21 8.77488 133.852 9.15127 124.479 9.49946C114.198 9.88151 103.911 10.1925 93.622 10.4222ZM143.745 13.2222C124.279 13.8013 104.782 14.0234 85.3272 13.9215C75.07 13.8678 64.8461 13.5488 54.602 13.2329C50.5711 13.1086 46.5291 12.9762 42.5166 12.6664C52.8619 11.4994 63.9077 12.2864 74.1361 12.1633C80.5959 12.0856 87.0586 11.9736 93.5188 11.8296C109.967 13.4312 127.13 13.4013 143.745 13.2222Z" fill="#ADC9A6"/>
</svg>
