<svg width="67" height="78" viewBox="0 0 67 78" fill="none" xmlns="http://www.w3.org/2000/svg">
<g clip-path="url(#clip0_4956_7317)">
<path d="M48.4086 36.4939L52.9464 8.6429L13.7495 2.25652L12.7915 8.13609L14.7514 8.45542L15.39 4.5357L17.3497 4.855L10.9208 44.3128L9.16204 42.7603L14.432 10.4153L12.4722 10.096L9.21167 30.1075L-1.59238 34.6777L-6.94933 67.5564L42.047 75.5394L42.3663 73.5796L-3.31707 66.1363L16.3055 51.7148L24.6148 59.0499L34.8228 54.7319L48.8525 74.6364L44.3262 73.8989L44.0069 75.8588L51.8462 77.136L57.2031 44.2572L48.4086 36.4939ZM54.2953 44.3389L46.6 47.594L48.0313 38.8094L54.2953 44.3389ZM44.4392 48.5081L42.2784 49.4222L47.7494 15.8437L46.7694 15.684C45.1485 15.4199 44.0445 13.8862 44.3086 12.2653L44.4683 11.2853L28.7896 8.73078L28.6299 9.71071C28.3658 11.3318 26.8321 12.4356 25.2111 12.1715L24.2312 12.0119L17.9563 50.5235L16.1975 48.9709L23.2293 5.81296L50.6672 10.2834L44.4392 48.5081ZM43.4732 29.7411C41.8817 26.2258 38.6179 23.5435 34.5321 22.8778C30.4463 22.2121 26.4998 23.7198 23.8747 26.548L25.8878 14.1927C27.8683 14.1142 29.6286 12.8471 30.3317 10.9939L42.2875 12.9419C42.366 14.9224 43.633 16.6827 45.4862 17.3858L43.4732 29.7411ZM34.2128 24.8377C39.616 25.718 43.2957 30.8302 42.4154 36.2335C41.535 41.6369 36.4228 45.3166 31.0196 44.4363C25.6163 43.5559 21.9365 38.4437 22.8169 33.0404C23.6973 27.637 28.8095 23.9573 34.2128 24.8377ZM19.3096 5.17432L21.2694 5.49364L14.4386 47.4183L12.6797 45.8656L19.3096 5.17432ZM7.40312 41.2077L1.13918 35.6782L8.8344 32.4231L7.40312 41.2077ZM-4.4389 64.4965L-0.00980789 37.3127L14.7821 50.3702L-4.4389 64.4965ZM19.7152 52.0762L21.759 39.5326C23.3506 43.0479 26.6144 45.7303 30.7003 46.396C34.7861 47.0617 38.7325 45.5541 41.3575 42.7259L40.1176 50.336L24.9921 56.7342L19.7152 52.0762ZM54.866 46.2536L50.4369 73.4375L36.6942 53.9403L54.866 46.2536Z" fill="#1E2F85"/>
<path d="M30.0028 38.2172C31.6237 38.4813 33.1574 37.3775 33.4215 35.7564L33.7409 33.7964C33.8289 33.2562 34.3401 32.8881 34.8805 32.9761C35.4207 33.0642 35.7887 33.5753 35.7006 34.1157L35.3813 36.0756C35.3259 36.4153 35.0902 36.7074 34.7658 36.8377L35.5067 38.6801C36.4718 38.2921 37.1747 37.4164 37.3412 36.3949L39.301 36.7142L39.6203 34.7544L37.6605 34.435C37.9246 32.8141 36.8207 31.2804 35.1998 31.0163C33.5789 30.7522 32.0451 31.856 31.781 33.4771L31.4617 35.4371C31.3736 35.9775 30.8625 36.3454 30.3221 36.2574C29.7817 36.1693 29.4138 35.6582 29.5018 35.1178L29.8211 33.1579C29.8765 32.8182 30.1123 32.5261 30.4366 32.3958L29.696 30.5533C28.7307 30.9413 28.0277 31.817 27.8613 32.8386L25.9014 32.5193L25.5821 34.4791L27.542 34.7984C27.2779 36.4194 28.3818 37.9531 30.0028 38.2172Z" fill="#1E2F85"/>
<path d="M33.0505 13.4487L35.0103 13.7681L34.691 15.7279L32.7312 15.4086L33.0505 13.4487Z" fill="#1E2F85"/>
<path d="M36.9702 14.0874L38.9301 14.4067L38.6108 16.3666L36.6509 16.0473L36.9702 14.0874Z" fill="#1E2F85"/>
</g>
<defs>
<clipPath id="clip0_4956_7317">
<rect width="67.7786" height="67.7786" fill="white" transform="translate(-0.100525) rotate(9.25393)"/>
</clipPath>
</defs>
</svg>
