<svg width="69" height="42" viewBox="0 0 69 42" fill="none" xmlns="http://www.w3.org/2000/svg">
<path fill-rule="evenodd" clip-rule="evenodd" d="M49.667 39.8334C55.8172 39.9816 62.1023 39.6851 67.9829 41.7876C68.3334 41.9116 68.7189 41.731 68.8457 41.3806C68.9697 41.0302 68.789 40.6447 68.4385 40.518C62.4204 38.367 55.9924 38.6366 49.6993 38.4856C49.3272 38.4749 49.0172 38.7714 49.0091 39.1433C48.9983 39.5153 49.2949 39.8226 49.667 39.8334Z" fill="#1A1E25"/>
<path fill-rule="evenodd" clip-rule="evenodd" d="M49.1143 30.9063C51.0313 29.1429 53.1236 27.8218 55.6528 27.1671C56.0141 27.0738 56.2298 26.7059 56.1381 26.3458C56.0437 25.9857 55.6743 25.7692 55.3157 25.8625C52.5655 26.5741 50.2871 27.9978 48.2029 29.9141C47.9279 30.1658 47.909 30.5925 48.1625 30.8664C48.4132 31.14 48.8419 31.158 49.1143 30.9063Z" fill="#1A1E25"/>
<path fill-rule="evenodd" clip-rule="evenodd" d="M43.7811 11.6539C44.66 8.64171 46.3911 6.28533 49.0442 4.58368C49.357 4.38287 49.4487 3.96561 49.2464 3.65267C49.0469 3.33972 48.629 3.24861 48.3162 3.44942C45.3799 5.33356 43.4602 7.94116 42.4868 11.2763C42.3817 11.6332 42.5893 12.0078 42.9452 12.1119C43.3038 12.2162 43.6786 12.0108 43.7811 11.6539Z" fill="#1A1E25"/>
<path fill-rule="evenodd" clip-rule="evenodd" d="M13.4882 7.56675C12.9651 8.18213 12.4959 8.84521 12.0969 9.55116C11.9189 9.86545 11.6061 10.5334 11.5576 11.1062C11.5037 11.7164 11.7113 12.2313 12.2451 12.5024C12.9543 12.862 13.5205 12.8246 13.9573 12.607C14.3779 12.3981 14.7069 11.9876 14.9145 11.4372C15.3108 10.3851 15.2515 8.7773 15.0439 7.85976C15.602 7.284 16.2141 6.76188 16.8693 6.29772C21.7496 2.84077 28.9082 4.11546 34.4168 9.28431C36.3446 11.0941 37.2721 14.8947 37.7548 18.9953C38.507 25.3801 38.0783 32.5112 38.019 34.6005C38.0055 35.1164 38.0541 35.4226 38.081 35.4838C38.2077 35.7846 38.4315 35.8628 38.5879 35.8924C38.8144 35.9329 38.995 35.8897 39.1406 35.8143C39.3375 35.7108 39.4993 35.5285 39.5748 35.2474C39.6152 35.0921 39.626 34.876 39.6206 34.6455C39.6152 34.4857 39.5828 34.311 39.6152 34.1964C39.8255 33.4627 40.079 32.7463 40.327 32.0247C41.1548 29.599 42.2252 27.3259 43.4143 25.0555C47.1918 17.8414 50.8452 10.2188 57.0386 4.72248C57.3163 4.47585 57.3433 4.04942 57.0953 3.77125C56.8499 3.49308 56.4239 3.46773 56.1435 3.71464C49.8261 9.31961 46.0728 17.0734 42.2198 24.4305C41.2087 26.3618 40.2812 28.2958 39.51 30.3187C39.5882 26.7402 39.5586 21.7867 38.9034 17.4039C38.321 13.506 37.2128 10.0611 35.3389 8.3018C29.3046 2.63942 21.4341 1.41109 16.0901 5.19824C15.5184 5.60364 14.9738 6.04948 14.4669 6.53304C11.6709 1.48576 5.68508 -0.537203 0.394962 1.87687C0.0552297 2.03132 -0.0930636 2.43133 0.0606249 2.76961C0.21701 3.10789 0.616046 3.25723 0.955779 3.10278C5.72282 0.927528 11.1289 2.8688 13.4882 7.56675ZM13.8791 9.25654C13.6607 9.5649 13.4585 9.88459 13.2697 10.2151C13.17 10.3924 12.9974 10.7334 12.9246 11.0671C12.9084 11.1453 12.9058 11.2676 12.9058 11.3242C13.0918 11.4159 13.2374 11.4601 13.356 11.4005C13.5043 11.3272 13.5798 11.1547 13.6526 10.962C13.836 10.4784 13.8953 9.83741 13.8791 9.25654Z" fill="#1A1E25"/>
</svg>
