<svg width="136" height="136" viewBox="0 0 136 136" fill="none" xmlns="http://www.w3.org/2000/svg">
<g clip-path="url(#clip0_4961_24098)">
<path fill-rule="evenodd" clip-rule="evenodd" d="M5.1778 66.812C41.7366 39.6285 85.8079 52.7887 119.161 79.158C119.735 79.6098 120.569 79.5138 121.021 78.9401C121.473 78.3664 121.377 77.5323 120.803 77.0804C86.5172 49.9707 41.1794 36.7432 3.59681 64.6888C3.01044 65.123 2.88917 65.9522 3.32571 66.5409C3.75989 67.1273 4.58906 67.2485 5.1778 66.812Z" fill="#1A1E25"/>
<path fill-rule="evenodd" clip-rule="evenodd" d="M119.356 77.6238C117.058 77.2649 114.178 76.7825 113.85 76.7373C104.95 75.5119 96.3379 75.7328 87.4597 77.2199C86.7389 77.3397 86.2516 78.0244 86.3714 78.7452C86.4912 79.4659 87.1759 79.9532 87.8967 79.8334C96.5055 78.3886 104.858 78.1722 113.49 79.3618C113.993 79.4308 120.466 80.5192 121.792 80.641C122.335 80.6935 122.659 80.5544 122.732 80.5143C123.129 80.3162 123.304 80.0234 123.394 79.773C123.494 79.4896 123.544 78.9817 123.242 78.3955C122.924 77.7832 121.956 76.6812 121.734 76.3833C118.4 71.8791 114.286 67.1426 111.378 61.9961C108.604 57.0885 106.925 51.8015 108.303 45.9598C108.472 45.2488 108.028 44.5349 107.317 44.3664C106.606 44.198 105.892 44.6414 105.724 45.3524C104.184 51.8839 105.972 57.8138 109.071 63.2983C111.963 68.414 116.008 73.1385 119.356 77.6238Z" fill="#1A1E25"/>
</g>
<defs>
<clipPath id="clip0_4961_24098">
<rect width="95.873" height="95.873" fill="white" transform="matrix(-0.70643 -0.707783 0.707789 -0.706424 67.7271 135.584)"/>
</clipPath>
</defs>
</svg>
