<svg width="96" height="39" viewBox="0 0 96 39" fill="none" xmlns="http://www.w3.org/2000/svg">
<path d="M38.148 3.65626C37.6948 3.87722 37.2463 3.89222 36.7642 3.82765C32.7414 3.28735 28.7621 3.48845 24.8102 4.43962C20.1294 5.56612 15.6058 7.04652 11.4851 9.62676C9.32255 10.9801 7.21752 12.401 5.26261 14.0399C5.04016 14.2263 4.83259 14.5669 4.50411 14.4264C4.08349 14.2473 4.29248 13.8248 4.29551 13.5041C4.30383 12.6847 4.39114 11.8644 4.35166 11.0473C4.32184 10.4319 3.78096 9.87964 3.32889 9.86909C2.71035 9.85329 2.58264 10.3568 2.4098 10.7965C2.33023 10.9962 2.25413 11.1999 2.19351 11.4061C1.50951 13.7228 0.837937 16.0433 0.142163 18.3578C-0.117053 19.2239 -0.014975 19.9928 0.668569 20.6092C1.33798 21.2134 2.08623 21.0967 2.84906 20.7715C5.51064 19.6417 8.17805 18.5257 10.8418 17.3967C11.1983 17.2456 11.5503 17.0712 11.8719 16.8591C12.2075 16.6374 12.4678 16.3232 12.34 15.881C12.2091 15.4275 11.8159 15.3343 11.4088 15.3534C11.0228 15.3708 10.6397 15.4591 10.2532 15.484C9.84109 15.5124 9.43478 15.7334 8.98514 15.5539C9.07473 15.0882 9.46237 14.951 9.75913 14.7314C13.7965 11.7461 18.2629 9.63657 23.0892 8.29136C26.0883 7.45527 29.1179 6.77228 32.2625 6.84188C32.5361 6.84866 32.8826 6.70364 33.0536 7.15819C31.9976 8.27353 30.9998 9.45806 30.0874 10.7165C24.8569 17.9345 27.7885 27.3514 34.5573 30.9386C35.9748 31.6896 37.4102 32.415 38.9572 32.8116C42.9937 33.8443 46.9015 33.3937 50.4078 31.1226C57.058 26.8115 56.635 17.8926 53.7558 13.4456C51.5841 10.0886 48.4763 7.79782 44.8776 6.13745C44.3031 5.87199 43.6594 5.74589 43.0893 5.31614C43.3406 4.98942 43.5599 4.94884 43.7637 4.89314C46.8288 4.05973 49.9481 3.66904 53.1198 3.90044C60.2481 4.42226 66.9301 6.52293 73.1964 9.89535C77.3228 12.1154 80.9663 15.0526 84.3511 18.2781C88.7543 22.4799 92.2243 27.3244 94.2011 33.1428C94.6788 34.5467 95.0462 35.963 94.5022 37.4389C94.3981 37.7212 94.2146 38.0463 94.5804 38.2323C94.9736 38.432 95.2186 38.1243 95.4223 37.834C95.6512 37.5096 95.75 37.1338 95.8358 36.7527C96.0375 35.8533 96.0228 34.9498 95.8499 34.0521C95.0527 29.914 93.3582 26.1417 90.8933 22.7573C85.4031 15.2243 78.5198 9.28879 70.0481 5.34584C64.0059 2.53183 57.6632 0.754811 50.9218 0.818023C46.4701 0.85837 42.1767 1.68532 38.148 3.65626ZM39.0069 7.6672C42.9991 8.68066 46.6356 10.3196 49.6506 13.2344C52.9007 16.3763 53.7822 21.8504 51.5481 25.7391C50.2965 27.9174 48.3838 29.2641 45.9968 29.875C43.3882 30.5421 40.789 30.4904 38.2748 29.3576C36.2936 28.4646 34.4099 27.4437 32.9989 25.7243C32.3903 24.9823 31.9343 24.1577 31.6548 23.4044C30.0731 19.7576 30.2926 16.3833 32.3591 13.1468C33.6013 11.2017 35.1022 9.50074 36.9542 8.11302C37.5786 7.64443 38.2167 7.46786 39.0069 7.6672Z" fill="#FB8500"/>
</svg>
