<svg width="175" height="175" viewBox="0 0 175 175" fill="none" xmlns="http://www.w3.org/2000/svg">
<g filter="url(#filter0_b_4956_6409)">
<circle cx="87.5" cy="87.5" r="87.5" fill="url(#paint0_linear_4956_6409)" fill-opacity="0.9"/>
<circle cx="87.5" cy="87.5" r="87" stroke="white" stroke-opacity="0.2"/>
</g>
<path d="M80.6025 148.215L80.3702 149.89L77.0048 149.423C76.4132 149.341 75.93 149.461 75.5552 149.785C75.1804 150.108 74.9597 150.51 74.8931 150.99C74.8482 151.314 74.8789 151.625 74.9853 151.924C75.0917 152.223 75.2728 152.476 75.5286 152.682C75.7844 152.888 76.1077 153.018 76.4984 153.073L79.8638 153.54L79.6314 155.214L76.5507 154.787C76.0484 154.717 75.6287 154.789 75.2917 155.004C74.9547 155.219 74.7514 155.578 74.6817 156.08C74.612 156.582 74.71 156.983 74.9758 157.281C75.2415 157.58 75.6256 157.764 76.1279 157.834L79.2086 158.261L78.9763 159.936L75.8453 159.501C75.0528 159.391 74.4144 159.155 73.93 158.792C73.4457 158.429 73.1069 158.001 72.9137 157.507C72.7204 157.014 72.6602 156.505 72.733 155.98C72.8182 155.366 73.0663 154.849 73.4774 154.428C73.8773 154.006 74.4267 153.695 75.1255 153.497L74.8912 154.078C74.1963 153.675 73.6803 153.171 73.3432 152.567C73.0061 151.962 72.8886 151.292 72.9909 150.555C73.0745 149.952 73.3018 149.421 73.6729 148.96C74.0328 148.498 74.5247 148.151 75.1485 147.919C75.7596 147.697 76.4837 147.644 77.3209 147.76L80.6025 148.215ZM81.9253 148.399L80.299 160.119L78.3736 159.852L79.9998 148.132L81.9253 148.399Z" fill="#1A1E25"/>
<path d="M65.8908 144.563C66.73 144.86 67.4166 145.318 67.9504 145.937C68.4843 146.557 68.8312 147.265 68.9911 148.063C69.1366 148.868 69.0608 149.69 68.7638 150.529L66.3156 157.444L64.4832 156.796L66.9256 149.896C67.1174 149.354 67.1732 148.842 67.093 148.359C66.9985 147.884 66.7941 147.465 66.4801 147.102C66.1622 146.751 65.759 146.488 65.2703 146.315C64.771 146.139 64.2925 146.089 63.8349 146.166C63.3735 146.254 62.9617 146.455 62.5994 146.769C62.2335 147.093 61.9565 147.521 61.7684 148.052L59.3203 154.968L57.4878 154.319L59.9416 147.388C60.2387 146.549 60.695 145.867 61.3106 145.344C61.9262 144.821 62.631 144.485 63.425 144.335C64.219 144.186 65.0409 144.262 65.8908 144.563Z" fill="#1A1E25"/>
<path d="M58.1245 141.241L52.3915 151.592L50.691 150.65L56.424 140.299L58.1245 141.241Z" fill="#1A1E25"/>
<path d="M51.8552 137.438L44.6089 146.792L43.0722 145.602L50.3185 136.248L51.8552 137.438ZM50.7996 136.62L49.7126 138.023L44.8217 134.235L45.9087 132.831L50.7996 136.62Z" fill="#1A1E25"/>
<path d="M42.4163 129.219L41.0767 130.383L39.0364 128.035C38.5042 127.423 37.9066 127.002 37.2438 126.771C36.5735 126.533 35.8936 126.489 35.204 126.64C34.4986 126.791 33.8354 127.136 33.2144 127.675C32.602 128.208 32.1765 128.809 31.9378 129.479C31.6992 130.149 31.6513 130.833 31.7942 131.53C31.9297 132.218 32.2599 132.865 32.7847 133.469L34.825 135.816L33.4853 136.98L31.4118 134.595C30.85 133.948 30.4437 133.249 30.1928 132.496C29.9335 131.751 29.8305 130.997 29.884 130.234C29.9215 129.47 30.1127 128.736 30.4575 128.033C30.7937 127.338 31.2808 126.713 31.9188 126.159C32.5482 125.612 33.2349 125.217 33.9788 124.973C34.7228 124.73 35.4763 124.635 36.2394 124.688C36.994 124.749 37.7264 124.956 38.4366 125.309C39.1382 125.67 39.7662 126.169 40.3207 126.807L42.4163 129.219ZM43.2923 130.226L34.3613 137.988L33.0861 136.521L42.0172 128.759L43.2923 130.226Z" fill="#1A1E25"/>
<path d="M32.0403 114.465L19.2456 114.388L18.7386 113.135L27.8953 104.216L28.6812 106.159L21.2157 113.263L20.9495 112.605L31.2671 112.553L32.0403 114.465ZM29.0248 113.095L27.4577 113.729L25.1064 107.915L26.6734 107.281L29.0248 113.095Z" fill="#1A1E25"/>
<path d="M26.1406 90.8621C26.1961 91.7958 26.0744 92.5989 25.7757 93.2714C25.477 93.9439 25.0168 94.5583 24.3951 95.1145L23.0007 93.8765C23.4538 93.5222 23.802 93.1121 24.0452 92.6461C24.2772 92.1807 24.3725 91.5993 24.3311 90.9019C24.2923 90.2494 24.1266 89.74 23.8339 89.3735C23.5405 88.9958 23.1576 88.821 22.6851 88.8491C22.2914 88.8725 21.9768 88.9928 21.7413 89.21C21.5059 89.4272 21.3194 89.7092 21.182 90.056C21.0326 90.3923 20.9081 90.7666 20.8084 91.1789C20.6968 91.5806 20.5743 91.9887 20.4409 92.403C20.2955 92.8067 20.1091 93.1847 19.8817 93.5369C19.6536 93.8778 19.3487 94.1612 18.967 94.3871C18.5853 94.613 18.0907 94.744 17.4833 94.78C16.7858 94.8215 16.1852 94.6878 15.6814 94.3791C15.1658 94.0598 14.7612 93.6153 14.4677 93.0457C14.1742 92.4761 14.0061 91.8314 13.9633 91.1114C13.9172 90.3352 14.028 89.6343 14.2956 89.0088C14.5626 88.3721 14.9209 87.8484 15.3707 87.4379L16.765 88.6759C16.4026 89.0361 16.1424 89.4071 15.9845 89.789C15.8146 90.1604 15.7438 90.5823 15.7718 91.0548C15.8066 91.6397 15.9521 92.0939 16.2084 92.4174C16.464 92.7296 16.8055 92.873 17.233 92.8476C17.593 92.8262 17.8795 92.7076 18.0924 92.4917C18.2941 92.2765 18.464 92.0011 18.6021 91.6656C18.7283 91.3194 18.8472 90.9454 18.9588 90.5437C19.0698 90.1307 19.1979 89.7223 19.3432 89.3186C19.4879 88.9036 19.6856 88.5249 19.9362 88.1827C20.1748 87.8298 20.4963 87.5398 20.9005 87.3126C21.3047 87.0854 21.8217 86.953 22.4517 86.9156C23.5091 86.8528 24.3696 87.1799 25.0331 87.8968C25.6959 88.6025 26.0651 89.5909 26.1406 90.8621Z" fill="#1A1E25"/>
<path d="M26.7864 77.6816C26.6595 78.5628 26.3446 79.3258 25.8419 79.9707C25.3392 80.6156 24.7123 81.0946 23.9613 81.4077C23.2008 81.7081 22.38 81.7948 21.4988 81.6679L14.2375 80.6223L14.5146 78.6982L21.7591 79.7414C22.328 79.8233 22.8412 79.7777 23.2988 79.6045C23.7468 79.4185 24.1177 79.1361 24.4113 78.7571C24.6938 78.3765 24.872 77.9297 24.9459 77.4166C25.0214 76.8924 24.9765 76.4134 24.8113 75.9797C24.6349 75.5445 24.3572 75.18 23.9782 74.8863C23.5881 74.5911 23.1142 74.4033 22.5565 74.323L15.2952 73.2773L15.5723 71.3532L22.8503 72.4013C23.7314 72.5282 24.4889 72.8422 25.1226 73.3433C25.7564 73.8445 26.2242 74.4697 26.5262 75.2191C26.8281 75.9685 26.9148 76.7893 26.7864 77.6816Z" fill="#1A1E25"/>
<path d="M30.3587 64.6353C30.0638 65.4394 29.6474 66.1329 29.1095 66.7159C28.565 67.2843 27.9403 67.7274 27.2357 68.0452C26.5204 68.359 25.7685 68.5273 24.9799 68.5502C24.1807 68.5692 23.3844 68.4332 22.5909 68.1422C21.7974 67.8512 21.1072 67.442 20.5204 66.9147C19.923 66.3836 19.4582 65.769 19.1261 65.071C18.7939 64.3731 18.6038 63.6312 18.5559 62.8454C18.5119 62.0491 18.6373 61.2489 18.9322 60.4448C19.262 59.5455 19.6953 58.8222 20.2321 58.2749C20.769 57.7275 21.3844 57.2931 22.0785 56.9715L22.8624 58.6633C22.3824 58.8594 21.9546 59.1586 21.5789 59.561C21.2072 59.9528 20.9069 60.4608 20.6779 61.085C20.4762 61.6352 20.3871 62.1726 20.4107 62.6974C20.4343 63.2222 20.5638 63.7198 20.7994 64.1903C21.0283 64.6464 21.353 65.0535 21.7738 65.4119C22.1945 65.7702 22.6958 66.0561 23.2777 66.2695C23.8596 66.4829 24.4269 66.5889 24.9795 66.5876C25.5322 66.5862 26.0485 66.4875 26.5285 66.2914C27.0018 66.0809 27.4171 65.7831 27.7744 65.398C28.1317 65.0129 28.4112 64.5453 28.613 63.9951C28.8613 63.318 28.9703 62.7098 28.94 62.1706C28.903 61.6168 28.7648 61.11 28.5254 60.6501L30.2172 59.8662C30.5494 60.5642 30.7375 61.3114 30.7815 62.1077C30.8255 62.9041 30.6846 63.7466 30.3587 64.6353Z" fill="#1A1E25"/>
<path d="M36.2747 53.3796C35.8198 54.1052 35.2689 54.6975 34.622 55.1565C33.9715 55.5999 33.2687 55.9042 32.5136 56.0691C31.7488 56.2281 30.9784 56.2372 30.2021 56.0964C29.4163 55.9495 28.6654 55.6516 27.9493 55.2027C27.2332 54.7537 26.6427 54.2106 26.1777 53.5733C25.7032 52.9299 25.3757 52.2325 25.1952 51.4809C25.0147 50.7293 24.9823 49.9641 25.098 49.1855C25.2198 48.3972 25.5081 47.6403 25.9631 46.9147C26.4719 46.1031 27.0455 45.4852 27.684 45.0608C28.3225 44.6364 29.0145 44.3388 29.7601 44.1678L30.1769 45.9853C29.6667 46.0777 29.1862 46.2819 28.7354 46.5978C28.2906 46.9042 27.8916 47.339 27.5385 47.9024C27.2272 48.3989 27.0288 48.9063 26.9433 49.4246C26.8577 49.9429 26.8815 50.4565 27.0146 50.9656C27.1441 51.4591 27.3775 51.9247 27.715 52.3624C28.0524 52.8 28.4837 53.1835 29.0088 53.5127C29.534 53.8419 30.067 54.0631 30.608 54.1761C31.1489 54.2892 31.6745 54.2995 32.1847 54.207C32.6913 54.099 33.1593 53.8936 33.5885 53.5908C34.0178 53.288 34.388 52.8884 34.6993 52.3919C35.0824 51.7808 35.315 51.2084 35.3969 50.6745C35.4753 50.1252 35.445 49.6007 35.306 49.1012L37.1234 48.6845C37.3039 49.4361 37.3333 50.206 37.2116 50.9942C37.0898 51.7824 36.7775 52.5775 36.2747 53.3796Z" fill="#1A1E25"/>
<path d="M40.614 47.3126L32.0067 39.1933L33.3406 37.7793L41.9479 45.8985L40.614 47.3126ZM41.5304 46.3412L40.2393 45.1233L44.7861 40.3032L46.0772 41.5211L41.5304 46.3412ZM37.7554 42.7803L36.5135 41.6088L40.6659 37.2068L41.9079 38.3783L37.7554 42.7803ZM34.2141 39.4398L32.923 38.2219L37.4118 33.4633L38.7029 34.6812L34.2141 39.4398Z" fill="#1A1E25"/>
<path d="M51.4411 37.6996C50.6823 38.2465 49.9389 38.5739 49.211 38.6817C48.4831 38.7896 47.7178 38.73 46.9151 38.5028L47.2139 36.6623C47.7557 36.8552 48.2886 36.9296 48.8124 36.8854C49.3296 36.8321 49.8717 36.6013 50.4385 36.1928C50.9687 35.8106 51.3102 35.3978 51.4629 34.9544C51.6248 34.5044 51.5673 34.0874 51.2906 33.7034C51.06 33.3834 50.7899 33.1822 50.4804 33.0996C50.1709 33.0171 49.8329 33.0107 49.4664 33.0803C49.1024 33.1343 48.7197 33.2296 48.3181 33.3662C47.919 33.4871 47.5088 33.6021 47.0874 33.7113C46.6686 33.8048 46.2496 33.8498 45.8304 33.8463C45.4203 33.8363 45.0177 33.7306 44.6225 33.5292C44.2274 33.3278 43.8519 32.9803 43.4961 32.4866C43.0876 31.9198 42.8788 31.341 42.8698 30.7502C42.8633 30.1437 43.022 29.564 43.3458 29.0111C43.6697 28.4582 44.1242 27.9709 44.7093 27.5492C45.3401 27.0946 45.9913 26.8128 46.6629 26.7039C47.3436 26.5883 47.9777 26.6105 48.5653 26.7705L48.2665 28.611C47.7682 28.4979 47.3155 28.4768 46.9084 28.548C46.5039 28.6034 46.1096 28.7695 45.7256 29.0462C45.2502 29.3888 44.9446 29.755 44.8087 30.1446C44.6819 30.5277 44.7437 30.8929 44.9941 31.2403C45.2049 31.5329 45.4585 31.7113 45.7548 31.7755C46.0446 31.8306 46.3681 31.8266 46.7255 31.7636C47.0854 31.6847 47.4649 31.5849 47.864 31.464C48.2721 31.3365 48.6856 31.226 49.1045 31.1326C49.5324 31.0325 49.958 30.9966 50.3813 31.025C50.8071 31.0376 51.2242 31.1537 51.6325 31.3734C52.0408 31.5931 52.4295 31.9589 52.7985 32.4708C53.4178 33.3302 53.6024 34.232 53.3522 35.1763C53.1112 36.114 52.4742 36.9551 51.4411 37.6996Z" fill="#1A1E25"/>
<path d="M61.7923 31.6967C60.9414 32.0851 60.1485 32.2613 59.4135 32.2252C58.6785 32.1891 57.9395 31.9813 57.1965 31.602L57.8484 29.8551C58.3422 30.1499 58.8504 30.3268 59.3727 30.3856C59.8904 30.4342 60.4671 30.3134 61.1027 30.0233C61.6972 29.7518 62.1126 29.4135 62.3489 29.0084C62.5954 28.5986 62.6203 28.1784 62.4238 27.7478C62.26 27.389 62.0343 27.139 61.7469 26.9977C61.4594 26.8564 61.1291 26.7842 60.7561 26.781C60.3886 26.763 59.9946 26.7818 59.574 26.8375C59.1591 26.8783 58.7343 26.9112 58.2997 26.9361C57.8707 26.9461 57.451 26.9086 57.0405 26.8234C56.6402 26.7336 56.266 26.5514 55.9176 26.2769C55.5693 26.0023 55.2688 25.5882 55.0161 25.0347C54.7259 24.3991 54.634 23.7907 54.7403 23.2095C54.8522 22.6133 55.1209 22.0757 55.5463 21.5966C55.9718 21.1174 56.5125 20.7281 57.1686 20.4286C57.876 20.1057 58.5696 19.9563 59.2495 19.9803C59.9397 19.9997 60.5574 20.1452 61.1025 20.4166L60.4506 22.1636C59.9839 21.9554 59.544 21.8465 59.1308 21.837C58.7232 21.8124 58.3042 21.8985 57.8736 22.095C57.3405 22.3384 56.9693 22.6379 56.7601 22.9935C56.5611 23.3445 56.5505 23.7148 56.7283 24.1044C56.8781 24.4324 57.092 24.6568 57.3701 24.7776C57.6436 24.8882 57.9617 24.9473 58.3245 24.9551C58.6929 24.948 59.0846 24.9241 59.4995 24.8833C59.9247 24.8378 60.3518 24.8101 60.7808 24.8001C61.2201 24.7854 61.6445 24.8332 62.0541 24.9435C62.4693 25.0389 62.8557 25.2341 63.2134 25.5292C63.5711 25.8243 63.8809 26.2588 64.143 26.8329C64.5829 27.7965 64.5881 28.717 64.1587 29.5944C63.7395 30.4671 62.9507 31.1679 61.7923 31.6967Z" fill="#1A1E25"/>
<path d="M78.5276 26.5968L78.343 24.9165L81.7204 24.5456C82.3141 24.4804 82.753 24.2451 83.0373 23.8398C83.3215 23.4345 83.4372 22.991 83.3843 22.5093C83.3487 22.1844 83.2426 21.89 83.0662 21.6259C82.8899 21.3619 82.6524 21.1612 82.3539 21.024C82.0554 20.8867 81.7102 20.8396 81.3181 20.8826L77.9408 21.2535L77.7562 19.5733L80.8479 19.2337C81.352 19.1784 81.7411 19.0053 82.0153 18.7144C82.2894 18.4236 82.3988 18.0261 82.3435 17.522C82.2881 17.0179 82.0951 16.6537 81.7643 16.4293C81.4336 16.2048 81.0162 16.1203 80.5121 16.1757L77.4204 16.5152L77.2359 14.8349L80.378 14.4899C81.1733 14.4025 81.8502 14.4756 82.4087 14.709C82.9671 14.9424 83.4004 15.2746 83.7085 15.7056C84.0166 16.1366 84.1995 16.6153 84.2573 17.1418C84.325 17.7579 84.211 18.3202 83.9154 18.8288C83.631 19.3362 83.1744 19.7718 82.5455 20.1357L82.6303 19.5141C83.4028 19.7354 84.0264 20.0977 84.5012 20.6011C84.9759 21.1045 85.2539 21.7258 85.3351 22.4651C85.4015 23.07 85.3112 23.6411 85.0641 24.1784C84.8282 24.7145 84.4362 25.1713 83.8882 25.5489C83.3501 25.9141 82.661 26.1428 81.8209 26.2351L78.5276 26.5968ZM77.2002 26.7425L75.9085 14.9807L77.8408 14.7685L79.1325 26.5303L77.2002 26.7425Z" fill="#1A1E25"/>
<path d="M90.9598 21.0875L91.0991 19.4877L94.0797 19.7472C94.6748 19.799 95.1482 19.6875 95.5002 19.4128C95.8644 19.1277 96.0704 18.7102 96.1183 18.1601C96.1613 17.6661 96.0347 17.2365 95.7384 16.8714C95.4422 16.5063 94.9966 16.2978 94.4016 16.246L91.404 15.985L91.5507 14.301L94.6324 14.5693C95.3733 14.6338 96.0113 14.8421 96.5462 15.1941C97.0821 15.5348 97.4792 15.9766 97.7373 16.5194C98.0077 17.052 98.1145 17.6439 98.0578 18.295C97.9982 18.9798 97.7892 19.5612 97.4309 20.039C97.0838 20.5178 96.6174 20.8731 96.0316 21.1049C95.4458 21.3367 94.7825 21.4203 94.0415 21.3558L90.9598 21.0875ZM89.194 25.9731L90.2203 14.1852L92.1569 14.3538L91.1306 26.1418L89.194 25.9731ZM95.6605 26.5361L91.9805 21.0576L93.8395 20.5577L98.1023 26.7487L95.6605 26.5361Z" fill="#1A1E25"/>
<path d="M100.236 27.2691L108.277 17.3163L109.573 17.7019L110.832 30.4219L108.823 29.8241L107.927 19.5579L108.607 19.7604L102.213 27.8572L100.236 27.2691ZM103.187 25.7664L103.669 24.1462L109.68 25.9347L109.198 27.5549L103.187 25.7664Z" fill="#1A1E25"/>
<path d="M113.144 31.7072L118.793 21.3101L119.981 21.9557L119.436 24.1987L114.852 32.6352L113.144 31.7072ZM120.348 35.6211L118.538 24.1152L119.981 21.9557L121.79 33.4615L120.348 35.6211ZM120.348 35.6211L120.82 33.5117L125.477 24.9415L127.185 25.8696L121.536 36.2667L120.348 35.6211Z" fill="#1A1E25"/>
<path d="M125.098 39.158L126.25 37.8076L128.616 39.826C129.234 40.3525 129.887 40.6803 130.577 40.8094C131.275 40.9459 131.954 40.888 132.614 40.6358C133.289 40.3823 133.893 39.9427 134.427 39.3168C134.954 38.6994 135.285 38.0416 135.422 37.3434C135.558 36.6451 135.504 35.962 135.259 35.2939C135.023 34.6333 134.6 34.0433 133.991 33.5241L131.625 31.5057L132.777 30.1553L135.182 32.2066C135.833 32.7624 136.339 33.3937 136.699 34.1005C137.066 34.7988 137.28 35.5292 137.341 36.2918C137.417 37.0531 137.337 37.8068 137.1 38.553C136.871 39.2906 136.482 39.981 135.934 40.624C135.393 41.2585 134.772 41.7514 134.073 42.1027C133.373 42.454 132.642 42.6599 131.88 42.7204C131.125 42.7724 130.37 42.6764 129.615 42.4326C128.867 42.1802 128.172 41.7797 127.529 41.2312L125.098 39.158ZM124.082 38.2914L131.761 29.2887L133.24 30.5502L125.561 39.5529L124.082 38.2914Z" fill="#1A1E25"/>
<path d="M139.505 55.4451L147.944 46.2845L148.875 47.9525L142.343 54.9457L142.096 54.5028L151.444 52.558L152.103 53.7389L145.539 60.673L145.292 60.2302L154.673 58.3444L155.604 60.0124L143.377 62.3829L142.718 61.202L149.259 54.2614L149.506 54.7042L140.164 56.626L139.505 55.4451Z" fill="#1A1E25"/>
<path d="M145.046 67.3382L156.282 63.6289L156.891 65.4748L145.655 69.1841L145.046 67.3382Z" fill="#1A1E25"/>
<path d="M147.556 77.2755L158.905 75.4508L159.213 77.3701L147.864 79.1948L147.556 77.2755ZM156.874 71.8737L158.627 71.592L160.159 81.1215L158.406 81.4033L156.874 71.8737Z" fill="#1A1E25"/>
<path d="M148.479 86.2452L160.301 86.7531L160.217 88.6952L148.396 88.1873L148.479 86.2452ZM148.156 93.7604L159.978 94.2683L159.894 96.2104L148.073 95.7025L148.156 93.7604ZM153.657 87.8043L155.43 87.8805L155.147 94.4837L153.373 94.4075L153.657 87.8043Z" fill="#1A1E25"/>
<path d="M144.993 107.493L146.645 108.141L145.508 111.036C145.212 111.792 145.115 112.516 145.218 113.21C145.316 113.915 145.593 114.538 146.046 115.079C146.506 115.635 147.118 116.063 147.884 116.364C148.639 116.66 149.369 116.759 150.074 116.66C150.779 116.562 151.407 116.288 151.958 115.838C152.506 115.4 152.926 114.808 153.218 114.063L154.355 111.168L156.007 111.816L154.852 114.759C154.539 115.556 154.107 116.24 153.556 116.811C153.016 117.385 152.395 117.826 151.694 118.131C150.999 118.452 150.26 118.622 149.478 118.642C148.706 118.666 147.926 118.523 147.14 118.214C146.363 117.909 145.695 117.484 145.135 116.937C144.575 116.39 144.142 115.766 143.836 115.065C143.541 114.368 143.385 113.623 143.37 112.83C143.364 112.041 143.516 111.253 143.825 110.466L144.993 107.493ZM145.481 106.25L156.495 110.573L155.785 112.383L144.77 108.059L145.481 106.25Z" fill="#1A1E25"/>
<path d="M140.218 117.958L150.177 124.346L149.128 125.983L139.168 119.594L140.218 117.958ZM139.497 119.082L140.991 120.04L137.413 125.618L135.919 124.66L139.497 119.082ZM143.865 121.884L145.302 122.806L142.035 127.899L140.598 126.978L143.865 121.884ZM147.963 124.512L149.457 125.47L145.925 130.977L144.431 130.019L147.963 124.512Z" fill="#1A1E25"/>
<path d="M133.923 127.105L142.294 135.468L141.338 136.424L132.133 134.182L132.755 133.56L135.006 142.762L134.05 143.719L125.679 135.356L127.053 133.981L133.009 139.93L132.614 140.158L130.95 133.334L131.905 132.377L138.731 134.035L138.504 134.43L132.549 128.48L133.923 127.105Z" fill="#1A1E25"/>
<path d="M118.038 139.98C118.757 139.536 119.511 139.256 120.301 139.14C121.09 139.024 121.864 139.056 122.624 139.236C123.39 139.426 124.099 139.749 124.752 140.207C125.402 140.68 125.949 141.276 126.392 141.996C126.836 142.715 127.121 143.466 127.247 144.249C127.363 145.038 127.336 145.81 127.165 146.564C126.991 147.333 126.677 148.037 126.223 148.674C125.766 149.328 125.177 149.876 124.458 150.32C123.739 150.764 122.989 151.041 122.21 151.151C121.427 151.277 120.652 151.245 119.886 151.055C119.126 150.875 118.422 150.549 117.772 150.075C117.119 149.618 116.571 149.029 116.127 148.31C115.683 147.591 115.4 146.832 115.278 146.033C115.152 145.25 115.179 144.479 115.359 143.719C115.53 142.965 115.844 142.261 116.301 141.608C116.749 140.961 117.328 140.418 118.038 139.98ZM119.043 141.545C118.362 141.965 117.862 142.485 117.543 143.106C117.215 143.732 117.073 144.403 117.116 145.117C117.156 145.847 117.395 146.567 117.833 147.277C118.159 147.804 118.541 148.231 118.98 148.556C119.415 148.896 119.884 149.13 120.386 149.257C120.894 149.394 121.412 149.418 121.941 149.331C122.46 149.249 122.973 149.051 123.481 148.738C124.153 148.323 124.653 147.803 124.981 147.176C125.306 146.566 125.451 145.9 125.417 145.179C125.374 144.465 125.133 143.753 124.695 143.043C124.369 142.515 123.986 142.077 123.545 141.727C123.1 141.392 122.631 141.158 122.139 141.025C121.637 140.898 121.118 140.873 120.584 140.952C120.056 141.039 119.542 141.237 119.043 141.545Z" fill="#1A1E25"/>
<path d="M106.546 145.202C107.386 144.906 108.208 144.832 109.013 144.979C109.817 145.126 110.532 145.46 111.157 145.981C111.775 146.516 112.232 147.203 112.527 148.043L114.962 154.964L113.128 155.609L110.699 148.704C110.509 148.162 110.231 147.728 109.865 147.403C109.493 147.092 109.071 146.894 108.599 146.809C108.131 146.735 107.652 146.784 107.163 146.956C106.664 147.131 106.26 147.393 105.952 147.74C105.648 148.098 105.453 148.513 105.368 148.985C105.287 149.467 105.34 149.974 105.527 150.506L107.961 157.426L106.128 158.071L103.688 151.135C103.392 150.295 103.32 149.478 103.471 148.684C103.622 147.891 103.959 147.187 104.484 146.572C105.008 145.958 105.696 145.501 106.546 145.202Z" fill="#1A1E25"/>
<path d="M98.4122 147.485L100.445 159.142L98.5302 159.476L96.4972 147.819L98.4122 147.485Z" fill="#1A1E25"/>
<defs>
<filter id="filter0_b_4956_6409" x="-5" y="-5" width="185" height="185" filterUnits="userSpaceOnUse" color-interpolation-filters="sRGB">
<feFlood flood-opacity="0" result="BackgroundImageFix"/>
<feGaussianBlur in="BackgroundImageFix" stdDeviation="2.5"/>
<feComposite in2="SourceAlpha" operator="in" result="effect1_backgroundBlur_4956_6409"/>
<feBlend mode="normal" in="SourceGraphic" in2="effect1_backgroundBlur_4956_6409" result="shape"/>
</filter>
<linearGradient id="paint0_linear_4956_6409" x1="-53" y1="2.48466e-07" x2="237" y2="214" gradientUnits="userSpaceOnUse">
<stop stop-color="white"/>
<stop offset="1" stop-color="white" stop-opacity="0"/>
</linearGradient>
</defs>
</svg>
