<svg width="72" height="81" viewBox="0 0 72 81" fill="none" xmlns="http://www.w3.org/2000/svg">
<path fill-rule="evenodd" clip-rule="evenodd" d="M4.32033 16.7287C5.98746 16.134 7.74182 15.3435 9.09469 14.1991C10.7015 12.8398 11.3549 11.0892 11.7937 9.24641C12.3571 6.87894 12.5822 4.35699 13.2654 1.98568C13.5183 1.10507 14.0051 0.772195 14.214 0.624468C14.7419 0.251312 15.2755 0.151568 15.7776 0.188979C16.3726 0.232147 17.1899 0.457559 17.7274 1.45616C17.804 1.59909 17.9037 1.81685 17.9707 2.11519C18.0196 2.3339 18.0512 3.01785 18.1029 3.29987C18.2323 3.99438 18.3406 4.68892 18.4421 5.38726C18.7803 7.71157 18.9749 9.68572 20.0432 11.8211C21.4928 14.72 22.9453 16.4937 24.9152 17.2793C26.82 18.039 29.0974 17.8961 32.0073 17.3004C32.2842 17.2333 32.5582 17.1757 32.8293 17.1287C34.1122 16.9042 35.3386 17.7474 35.5906 19.0271C35.8426 20.3058 35.0273 21.5519 33.7558 21.833C33.4904 21.8915 33.2289 21.9471 32.9702 21.9979C29.038 22.9726 24.486 26.4509 21.8406 29.4966C21.0252 30.4357 19.8314 33.0612 18.6136 34.7361C17.7149 35.9716 16.705 36.786 15.8571 37.0738C15.2889 37.2676 14.8099 37.2379 14.4142 37.14C13.8393 36.9981 13.3622 36.6863 12.9962 36.1903C12.7969 35.9188 12.6119 35.5553 12.5238 35.091C12.4816 34.8675 12.4769 34.2996 12.4778 34.0426C12.2297 33.1879 11.9259 32.3533 11.7046 31.4909C11.1767 29.4332 10.1409 28.1306 8.91071 26.4096C7.76001 24.799 6.52407 23.787 4.71225 22.9793C4.47656 22.9217 2.57467 22.4555 1.90303 22.1879C0.921911 21.7955 0.454321 21.1384 0.284734 20.7845C-0.00366172 20.184 -0.0333374 19.6593 0.0241501 19.2218C0.109423 18.5763 0.398778 18.0237 0.912333 17.5777C1.23043 17.3004 1.70566 17.0309 2.34186 16.8994C2.83337 16.7968 4.13732 16.7373 4.32033 16.7287ZM15.4777 13.3751C15.5658 13.5717 15.6597 13.7693 15.7594 13.9689C17.8826 18.2146 20.2568 20.585 23.1427 21.7351L23.2395 21.7725C21.3088 23.2076 19.5612 24.8115 18.2256 26.3492C17.6756 26.9823 16.9475 28.2975 16.1609 29.6462C15.4461 27.32 14.2772 25.6758 12.8074 23.6182C11.6845 22.0479 10.5079 20.866 9.06211 19.9029C10.1841 19.3264 11.2543 18.6511 12.1865 17.8626C13.7387 16.5493 14.7649 15.0279 15.4777 13.3751Z" fill="#192533"/>
<path fill-rule="evenodd" clip-rule="evenodd" d="M4.32033 59.7802C5.98746 59.1855 7.74182 58.395 9.09469 57.2506C10.7015 55.8913 11.3549 54.1407 11.7937 52.2979C12.3571 49.9305 12.5822 47.4085 13.2654 45.0372C13.5183 44.1566 14.0051 43.8237 14.214 43.676C14.7419 43.3028 15.2755 43.2031 15.7776 43.2405C16.3726 43.2837 17.1899 43.5091 17.7274 44.5077C17.804 44.6506 17.9037 44.8684 17.9707 45.1667C18.0196 45.3854 18.0512 46.0694 18.1029 46.3514C18.2323 47.0459 18.3406 47.7404 18.4421 48.4388C18.7803 50.7631 18.9749 52.7372 20.0432 54.8726C21.4928 57.7715 22.9453 59.5452 24.9152 60.3308C26.82 61.0906 29.0974 60.9477 32.0073 60.3519C32.2842 60.2848 32.5582 60.2272 32.8293 60.1802C34.1122 59.9558 35.3386 60.799 35.5906 62.0786C35.8426 63.3573 35.0273 64.6034 33.7558 64.8845C33.4904 64.943 33.2289 64.9986 32.9702 65.0495C29.038 66.0241 24.486 69.5024 21.8406 72.5481C21.0252 73.4872 19.8314 76.1127 18.6136 77.7876C17.7149 79.0231 16.705 79.8376 15.8571 80.1253C15.2889 80.3191 14.8099 80.2894 14.4142 80.1916C13.8393 80.0496 13.3622 79.7378 12.9962 79.2418C12.7969 78.9704 12.6119 78.6068 12.5238 78.1425C12.4816 77.919 12.4769 77.3512 12.4778 77.0941C12.2297 76.2394 11.9259 75.4048 11.7046 74.5424C11.1767 72.4848 10.1409 71.1821 8.91071 69.4611C7.76001 67.8505 6.52407 66.8385 4.71225 66.0308C4.47656 65.9732 2.57467 65.507 1.90303 65.2394C0.921911 64.8471 0.454321 64.1899 0.284734 63.836C-0.00366172 63.2355 -0.0333374 62.7108 0.0241501 62.2734C0.109423 61.6278 0.398778 61.0752 0.912333 60.6292C1.23043 60.3519 1.70566 60.0824 2.34186 59.9509C2.83337 59.8483 4.13732 59.7888 4.32033 59.7802ZM15.4777 56.4266C15.5658 56.6232 15.6597 56.8209 15.7594 57.0204C17.8826 61.2661 20.2568 63.6365 23.1427 64.7866L23.2395 64.824C21.3088 66.2591 19.5612 67.863 18.2256 69.4007C17.6756 70.0338 16.9475 71.349 16.1609 72.6977C15.4461 70.3715 14.2772 68.7273 12.8074 66.6697C11.6845 65.0994 10.5079 63.9176 9.06211 62.9545C10.1841 62.3779 11.2543 61.7026 12.1865 60.9141C13.7387 59.6008 14.7649 58.0794 15.4777 56.4266Z" fill="#192533"/>
<path fill-rule="evenodd" clip-rule="evenodd" d="M40.3203 40.7575C41.9875 40.1628 43.7418 39.3723 45.0947 38.2279C46.7015 36.8686 47.3549 35.118 47.7937 33.2752C48.3571 30.9077 48.5822 28.3858 49.2654 26.0145C49.5183 25.1339 50.0051 24.801 50.214 24.6533C50.7419 24.2801 51.2755 24.1804 51.7776 24.2178C52.3726 24.261 53.1899 24.4864 53.7274 25.485C53.804 25.6279 53.9037 25.8457 53.9707 26.144C54.0196 26.3627 54.0512 27.0467 54.1029 27.3287C54.2323 28.0232 54.3406 28.7177 54.4421 29.4161C54.7803 31.7404 54.9749 33.7145 56.0432 35.8499C57.4928 38.7488 58.9453 40.5225 60.9152 41.3081C62.82 42.0678 65.0974 41.9249 68.0073 41.3292C68.2842 41.2621 68.5582 41.2045 68.8293 41.1575C70.1122 40.933 71.3386 41.7763 71.5906 43.0559C71.8426 44.3346 71.0273 45.5807 69.7558 45.8618C69.4904 45.9203 69.2289 45.9759 68.9702 46.0268C65.038 47.0014 60.486 50.4797 57.8406 53.5254C57.0252 54.4645 55.8314 57.09 54.6136 58.7649C53.7149 60.0004 52.705 60.8149 51.8571 61.1026C51.2889 61.2964 50.8099 61.2667 50.4142 61.1689C49.8393 61.0269 49.3622 60.7151 48.9962 60.2191C48.7969 59.9477 48.6119 59.5841 48.5238 59.1198C48.4816 58.8963 48.4769 58.3285 48.4778 58.0714C48.2297 57.2167 47.9259 56.3821 47.7046 55.5197C47.1767 53.462 46.1409 52.1594 44.9107 50.4384C43.76 48.8278 42.5241 47.8158 40.7123 47.0081C40.4766 46.9505 38.5747 46.4843 37.903 46.2167C36.9219 45.8244 36.4543 45.1672 36.2847 44.8133C35.9963 44.2128 35.9667 43.6881 36.0242 43.2507C36.1094 42.6051 36.3988 42.0525 36.9123 41.6065C37.2304 41.3292 37.7057 41.0597 38.3419 40.9282C38.8334 40.8256 40.1373 40.7661 40.3203 40.7575ZM51.4777 37.4039C51.5658 37.6005 51.6597 37.7982 51.7594 37.9977C53.8826 42.2434 56.2568 44.6138 59.1427 45.7639L59.2395 45.8013C57.3088 47.2364 55.5612 48.8403 54.2256 50.378C53.6756 51.0111 52.9475 52.3263 52.1609 53.675C51.4461 51.3488 50.2772 49.7046 48.8074 47.647C47.6845 46.0767 46.5079 44.8949 45.0621 43.9318C46.1841 43.3552 47.2543 42.6799 48.1865 41.8914C49.7387 40.5781 50.7649 39.0567 51.4777 37.4039Z" fill="#192533"/>
</svg>
