<svg width="321" height="50" viewBox="0 0 321 50" fill="none" xmlns="http://www.w3.org/2000/svg">
<path fill-rule="evenodd" clip-rule="evenodd" d="M119.509 31.2652C117.59 30.9681 115.682 30.65 113.785 30.3095C113.095 30.1858 112.668 29.6263 112.83 29.0606L112.838 29.0383C102.584 29.0972 92.3314 29.076 82.0827 28.9727C67.2777 28.823 52.3759 28.3881 37.6146 27.5456C23.0269 26.7131 18.9969 26.5045 6.43715 24.8766C6.07797 24.8301 5.38614 24.8472 5.01306 24.7696C4.65829 24.6958 4.40349 24.5601 4.23938 24.4255C4.0292 24.2549 3.9073 24.0562 3.8543 23.837C3.79815 23.5981 3.8112 23.3046 4.05984 22.9721C4.76133 22.0388 5.90782 21.7636 7.3112 21.9296C8.5187 22.0726 9.98243 22.6351 11.1253 22.6799C30.1516 23.4256 49.1662 24.2939 68.1942 25.017C97.3239 26.1239 126.356 26.3421 155.39 26.2409C185.907 25.4166 216.401 23.9092 246.837 21.772C266.659 20.3808 286.435 18.5067 306.228 16.8178C306.213 16.7468 306.209 16.6725 306.213 16.5966C306.25 16.018 306.856 15.5656 307.564 15.5867C308.281 15.6082 314.676 15.6302 315.857 15.8443C316.534 15.9669 316.801 16.3022 316.89 16.4463C317.132 16.8415 317.15 17.2758 316.624 17.7008C316.52 17.7825 316.326 17.9177 315.968 18.0087C315.662 18.0884 314.903 18.1965 313.522 18.3096C291.353 20.1404 269.214 22.3033 247.017 23.863C237.107 24.5577 227.19 25.1875 217.265 25.7466C230.743 25.6227 244.225 25.518 257.73 25.4883C258.312 25.4857 258.595 25.5573 258.647 25.5745C259.391 25.8214 259.447 26.2989 259.436 26.5704C259.433 26.6673 259.342 27.4682 258.255 27.6019C257.619 27.6805 253.021 27.8997 251.252 28.0114C242.754 28.5542 242.952 28.4914 234.257 28.9869C215.137 30.0744 196.043 30.9239 176.897 31.6839C169.263 31.9867 161.629 32.2598 153.993 32.5003C176.018 33.5957 198.481 33.0888 219.891 32.8537C230.936 32.7322 241.983 32.5545 253.026 32.2196C257.971 32.0695 262.915 31.8516 267.86 31.6813C269.396 31.6285 270.928 31.5465 272.463 31.4862C272.645 31.4792 275.026 31.4161 275.417 31.4153C276.44 31.4133 276.683 32.1529 276.693 32.1825C276.738 32.3217 276.917 33.3199 275.648 33.4995C257.308 36.0957 238.052 35.9535 219.508 36.684C187.052 37.9628 154.502 38.4698 122.032 38.2882C107.67 38.208 93.3509 37.7311 79.0054 37.2587C71.8408 37.0226 64.657 36.7644 57.555 35.9827C56.8425 35.9041 55.2289 35.8408 54.4455 35.7465C54.047 35.6982 53.7626 35.6154 53.6322 35.5576C53.0607 35.3068 52.9435 34.9235 52.9316 34.6534C52.9239 34.451 52.9692 33.7367 54.1386 33.4956C70.8487 30.0469 89.4485 31.6867 106.451 31.4684C110.804 31.4125 115.155 31.3446 119.509 31.2652ZM133.686 30.9663C128.636 30.4364 123.635 29.7877 118.703 28.9955C130.945 28.8888 143.185 28.6684 155.43 28.3374C175.635 28.2669 195.837 28.0423 216.065 27.8552C202.991 28.5067 189.913 29.0687 176.812 29.5885C162.443 30.159 148.065 30.6233 133.686 30.9663ZM203.739 35.1467C176.533 36.0113 149.284 36.3428 122.092 36.1907C107.756 36.1105 93.4671 35.6343 79.1494 35.1626C73.5156 34.9771 67.8663 34.7793 62.2583 34.3169C76.7173 32.5745 92.1555 33.7494 106.451 33.5657C115.48 33.4497 124.512 33.2825 133.541 33.0674C156.529 35.4587 180.518 35.414 203.739 35.1467Z" fill="#ADC9A6"/>
</svg>
