<svg width="183" height="230" viewBox="0 0 183 230" fill="none" xmlns="http://www.w3.org/2000/svg">
<path d="M82.668 50.9657L96.3296 69.0981L75.1683 61.5448L82.668 50.9657ZM98.4451 71.1357C98.5746 71.0923 98.6902 71.0095 98.7743 70.8929C98.9526 70.6548 98.9522 70.3269 98.7724 70.0862L83.1947 49.411C83.0644 49.2387 82.8593 49.139 82.6423 49.1419C82.426 49.1446 82.2255 49.2524 82.0993 49.4289L73.5461 61.4925C73.4238 61.6643 73.3902 61.8846 73.4535 62.0861C73.5159 62.2862 73.6703 62.4471 73.8699 62.518L98.0005 71.1314C98.1476 71.1825 98.3043 71.1828 98.4451 71.1357Z" fill="#ADC9A6"/>
<path d="M104.398 18.0077L13.3026 36.2284L66.6828 72.3476L82.654 49.8189L98.2321 70.4957L88.4864 42.0734L104.398 18.0077Z" fill="#ADC9A6"/>
<path d="M102.939 18.9887L87.9223 41.7047C87.8061 41.8795 87.7785 42.0978 87.8457 42.2946L96.2082 66.6819L83.1973 49.4128C83.067 49.2405 82.8619 49.1409 82.6449 49.1438C82.4286 49.1464 82.2281 49.2543 82.1019 49.4308L66.5147 71.4181L15.023 36.576L102.939 18.9887ZM98.4478 71.1375C98.4826 71.1259 98.5164 71.1095 98.5503 71.0931C98.8438 70.9371 98.9827 70.5914 98.8739 70.276L89.2365 42.1694L104.964 18.3795C105.115 18.1519 105.114 17.8567 104.96 17.6309C104.808 17.4048 104.535 17.2923 104.266 17.3464L13.1721 35.5667C12.9072 35.6213 12.6938 35.8304 12.6398 36.0966C12.5856 36.3629 12.6977 36.6364 12.9226 36.789L66.3023 72.9084C66.6068 73.1176 67.024 73.0359 67.2371 72.7385L82.6706 50.9676L97.6904 70.903C97.8682 71.1376 98.1752 71.2287 98.4478 71.1375Z" fill="#ADC9A6"/>
<path d="M37.4782 38.5767L88.4881 42.0729L98.2339 70.4951L82.6558 49.8183L37.4782 38.5767Z" fill="#F1EDF2"/>
<path d="M97.7221 60.4703C97.9181 60.4047 98.081 60.2499 98.1517 60.0393C98.2688 59.684 98.0743 59.302 97.7196 59.1861C96.2286 58.6989 95.1929 58.3994 94.7344 58.2638L94.5387 58.2086C94.1812 58.1004 93.8016 58.3022 93.6922 58.6583C93.5844 59.0173 93.7852 59.3921 94.1442 59.5015L94.352 59.5629C94.8037 59.694 95.8253 59.993 97.2951 60.4703C97.4393 60.5189 97.5878 60.5152 97.7221 60.4703Z" fill="#ADC9A6"/>
<path d="M110.06 65.2467C110.233 65.1887 110.382 65.0639 110.464 64.8854C110.617 64.5434 110.466 64.1437 110.125 63.9926C108.117 63.0917 106.05 62.2312 103.981 61.4278C103.632 61.2927 103.238 61.4621 103.103 61.8132C102.966 62.1598 103.138 62.5511 103.485 62.6864C105.536 63.4826 107.583 64.3363 109.568 65.2243C109.729 65.2978 109.904 65.2988 110.06 65.2467ZM121.846 71.2785C121.996 71.2282 122.129 71.1259 122.216 70.9796C122.405 70.6563 122.298 70.2434 121.975 70.0541C120.088 68.9547 118.122 67.8805 116.131 66.862C115.799 66.6941 115.39 66.8241 115.218 67.1569C115.047 67.4879 115.178 67.8963 115.511 68.0669C117.48 69.0723 119.423 70.1343 121.288 71.2221C121.463 71.3216 121.667 71.3383 121.846 71.2785ZM132.822 78.6591C132.945 78.618 133.057 78.5415 133.142 78.4331C133.372 78.1385 133.32 77.7139 133.025 77.4829C131.315 76.1545 129.498 74.845 127.621 73.5878C127.31 73.3792 126.889 73.4621 126.68 73.7717C126.471 74.0812 126.553 74.5009 126.863 74.71C128.714 75.9502 130.506 77.2425 132.189 78.551C132.377 78.6958 132.615 78.7284 132.822 78.6591ZM142.565 87.5704C142.653 87.541 142.735 87.4933 142.807 87.4264C143.084 87.176 143.104 86.7476 142.852 86.4734C141.389 84.8786 139.801 83.2971 138.126 81.7718C137.85 81.519 137.421 81.54 137.169 81.8164C136.916 82.0914 136.935 82.5186 137.212 82.7694C138.856 84.2694 140.416 85.8197 141.85 87.3864C142.036 87.5892 142.319 87.6528 142.565 87.5704ZM150.428 98.151C150.472 98.1364 150.514 98.1187 150.555 98.0933C150.879 97.9065 150.989 97.4924 150.8 97.1714C149.699 95.2824 148.459 93.4095 147.11 91.6049C146.888 91.3035 146.463 91.2435 146.163 91.4664C145.863 91.6891 145.799 92.1131 146.024 92.412C147.34 94.178 148.553 96.0076 149.629 97.8505C149.793 98.1323 150.13 98.2506 150.428 98.151ZM93.5529 122.147C93.8531 122.047 94.0515 121.748 94.0104 121.423C93.9632 121.053 93.6242 120.791 93.2537 120.838C91.1873 121.103 89.1321 121.574 87.1468 122.239L86.6773 122.401C86.3239 122.526 86.1378 122.911 86.2624 123.264C86.3856 123.61 86.7661 123.795 87.116 123.678L87.1262 123.675L87.5759 123.521C89.4785 122.885 91.4448 122.433 93.4223 122.179C93.4681 122.172 93.5116 122.161 93.5529 122.147ZM75.8715 130.511C75.9614 130.481 76.0474 130.434 76.1218 130.363C77.69 128.89 79.4223 127.571 81.2731 126.445C81.5934 126.251 81.6941 125.835 81.4995 125.516C81.3052 125.199 80.8884 125.092 80.5689 125.292C78.6383 126.466 76.8294 127.842 75.1931 129.382C74.9203 129.638 74.908 130.065 75.1629 130.335C75.3508 130.534 75.6288 130.592 75.8715 130.511ZM106.664 123.237C106.867 123.169 107.034 123.004 107.1 122.783C107.205 122.425 106.998 122.051 106.64 121.946C104.768 121.405 102.885 121.02 101.042 120.802C100.7 120.76 100.353 120.722 100.011 120.694C99.6341 120.662 99.3078 120.94 99.2754 121.311C99.2436 121.682 99.5191 122.01 99.8916 122.041C100.221 122.069 100.548 122.102 100.878 122.143C102.648 122.353 104.459 122.723 106.258 123.245C106.397 123.285 106.537 123.279 106.664 123.237ZM155.599 110.266C155.941 110.152 156.135 109.789 156.037 109.441C155.816 108.653 155.575 107.875 155.319 107.108C154.866 105.764 154.356 104.428 153.804 103.137C153.659 102.795 153.252 102.642 152.917 102.783C152.573 102.931 152.412 103.328 152.559 103.67C153.097 104.928 153.592 106.229 154.033 107.538C154.282 108.284 154.517 109.042 154.732 109.808C154.833 110.167 155.206 110.375 155.566 110.274L155.599 110.266ZM68.4044 141.326C68.5855 141.265 68.7396 141.13 68.8176 140.939C68.9954 140.503 69.1877 140.068 69.395 139.628C70.1047 138.112 70.9491 136.645 71.903 135.264C72.1153 134.955 72.0378 134.535 71.7299 134.322C71.4207 134.113 70.9971 134.193 70.7878 134.499C69.7908 135.941 68.9077 137.472 68.1669 139.056C67.9509 139.518 67.7497 139.976 67.5636 140.429C67.4209 140.778 67.5883 141.17 67.9335 141.31C68.0893 141.373 68.257 141.375 68.4044 141.326ZM118.52 128.978C118.653 128.934 118.774 128.849 118.86 128.725C119.076 128.42 119.002 127.998 118.695 127.784C116.836 126.487 114.891 125.339 112.912 124.374C112.579 124.209 112.173 124.348 112.005 124.683C111.841 125.02 111.979 125.424 112.316 125.587C114.23 126.522 116.115 127.634 117.916 128.893C118.099 129.019 118.324 129.044 118.52 128.978ZM157.52 123.3C157.795 123.208 157.989 122.946 157.983 122.643C157.937 120.402 157.751 118.161 157.433 115.981C157.379 115.611 157.034 115.356 156.664 115.412C156.302 115.462 156.037 115.807 156.091 116.178C156.403 118.302 156.584 120.489 156.629 122.675C156.635 123.047 156.946 123.344 157.32 123.335C157.39 123.333 157.457 123.321 157.52 123.3ZM66.6653 154.27C66.9674 154.169 67.1666 153.866 67.1214 153.538C66.8312 151.41 66.8318 149.254 67.1238 147.136C67.1744 146.767 66.9155 146.425 66.5457 146.375C66.1747 146.328 65.8329 146.585 65.7828 146.955C65.4728 149.196 65.4716 151.47 65.7782 153.724C65.829 154.094 66.1706 154.35 66.5407 154.3C66.5852 154.295 66.6259 154.283 66.6653 154.27ZM128.168 137.959C128.244 137.933 128.318 137.894 128.385 137.839C128.674 137.601 128.714 137.175 128.476 136.885C127.031 135.142 125.491 133.502 123.897 132.009C123.624 131.755 123.19 131.769 122.939 132.042C122.683 132.315 122.696 132.742 122.968 132.998C124.52 134.449 126.021 136.046 127.43 137.749C127.613 137.971 127.909 138.045 128.168 137.959ZM156.315 136.438C156.539 136.363 156.716 136.172 156.766 135.925C156.974 134.863 157.159 133.793 157.319 132.719C157.49 131.595 157.629 130.448 157.736 129.32C157.77 128.948 157.496 128.62 157.123 128.586C156.75 128.553 156.421 128.825 156.385 129.197C156.282 130.301 156.146 131.42 155.979 132.521C155.821 133.577 155.64 134.625 155.435 135.668C155.364 136.035 155.603 136.388 155.97 136.459C156.09 136.482 156.207 136.474 156.315 136.438ZM71.5166 166.431C71.5765 166.411 71.6345 166.381 71.6902 166.342C71.9978 166.13 72.0729 165.708 71.8581 165.402C70.8142 163.907 69.9138 162.313 69.1847 160.663C69.0493 160.36 68.9187 160.052 68.7922 159.739C68.653 159.395 68.2541 159.222 67.9116 159.365C67.5634 159.507 67.3967 159.901 67.5357 160.248C67.667 160.573 67.8033 160.894 67.9427 161.21C68.7078 162.941 69.6522 164.61 70.7461 166.177C70.9218 166.427 71.2392 166.524 71.5166 166.431ZM135.208 149.082C135.224 149.076 135.239 149.071 135.254 149.066C135.6 148.923 135.765 148.528 135.622 148.183C134.915 146.484 134.044 144.805 133.033 143.199C132.836 142.884 132.635 142.572 132.432 142.264C132.229 141.953 131.805 141.867 131.496 142.071C131.181 142.276 131.094 142.693 131.299 143.007C131.495 143.307 131.691 143.61 131.883 143.917C132.854 145.461 133.692 147.073 134.369 148.703C134.505 149.031 134.874 149.193 135.208 149.082ZM152.532 149.088C152.711 149.028 152.866 148.893 152.944 148.706C153.781 146.68 154.531 144.561 155.171 142.404C155.279 142.048 155.074 141.672 154.716 141.567C154.357 141.463 153.979 141.664 153.874 142.024C153.245 144.134 152.511 146.209 151.691 148.191C151.548 148.537 151.712 148.932 152.059 149.075C152.216 149.138 152.382 149.138 152.532 149.088ZM81.1627 175.327C81.3114 175.277 81.443 175.177 81.5304 175.034C81.7229 174.713 81.6179 174.298 81.2982 174.107C79.4281 172.992 77.6832 171.692 76.1102 170.248C75.8366 169.997 75.405 170.017 75.1531 170.29C74.8994 170.565 74.9171 170.991 75.1925 171.244C76.8318 172.752 78.6522 174.105 80.6002 175.267C80.7763 175.371 80.9817 175.388 81.1627 175.327ZM137.575 161.961C137.839 161.873 138.031 161.628 138.039 161.335C138.094 159.058 137.921 156.804 137.525 154.633C137.458 154.266 137.105 154.022 136.737 154.091C136.374 154.158 136.125 154.508 136.192 154.877C136.572 156.958 136.737 159.121 136.683 161.306C136.674 161.679 136.97 161.987 137.344 161.996C137.426 161.998 137.503 161.985 137.575 161.961ZM146.182 160.671C146.314 160.627 146.434 160.543 146.521 160.42C147.793 158.63 148.984 156.719 150.065 154.741C150.244 154.412 150.122 154.002 149.794 153.825C149.466 153.648 149.054 153.768 148.875 154.097C147.82 156.027 146.656 157.894 145.414 159.642C145.197 159.945 145.271 160.368 145.576 160.584C145.759 160.713 145.985 160.737 146.182 160.671ZM93.5207 179.905C93.7382 179.832 93.9129 179.649 93.9673 179.412C94.0495 179.048 93.8211 178.686 93.4563 178.605C91.9792 178.277 90.4667 177.887 88.9617 177.445C88.3546 177.266 87.7531 177.071 87.16 176.86C86.8083 176.734 86.4196 176.917 86.2933 177.269C86.1671 177.62 86.3494 178.008 86.7013 178.133C87.3192 178.353 87.9451 178.555 88.5759 178.742C90.1114 179.191 91.6522 179.59 93.1574 179.924C93.2825 179.952 93.4067 179.943 93.5207 179.905ZM106.659 181.36C106.929 181.27 107.124 181.014 107.121 180.713C107.122 180.342 106.816 180.042 106.442 180.044C104.309 180.058 102.112 179.941 99.9106 179.693C99.5409 179.652 99.2034 179.916 99.1598 180.288C99.1169 180.659 99.3827 180.992 99.7563 181.035C102.01 181.289 104.262 181.411 106.447 181.394C106.521 181.395 106.593 181.383 106.659 181.36ZM125.984 177.307C126.004 177.3 126.023 177.294 126.042 177.284C126.497 177.086 126.947 176.881 127.391 176.671C128.966 175.925 130.515 175.086 131.994 174.174C132.312 173.978 132.411 173.559 132.214 173.242C132.019 172.925 131.605 172.828 131.283 173.025C129.846 173.91 128.342 174.727 126.812 175.451C126.38 175.654 125.943 175.853 125.5 176.048C125.157 176.195 125 176.596 125.149 176.935C125.29 177.258 125.655 177.417 125.984 177.307ZM119.749 179.537C120.09 179.423 120.285 179.06 120.187 178.714C120.086 178.353 119.712 178.144 119.352 178.245C117.27 178.831 115.12 179.28 112.96 179.579C112.598 179.629 112.329 179.971 112.38 180.339C112.431 180.71 112.772 180.968 113.143 180.917C115.365 180.611 117.576 180.148 119.718 179.547L119.749 179.537ZM134.978 174.854C135.166 174.791 135.325 174.646 135.399 174.446C135.906 173.075 136.341 171.701 136.704 170.338C136.939 170.459 137.237 170.436 137.447 170.256C139.148 168.848 140.783 167.291 142.309 165.633C142.561 165.359 142.544 164.931 142.268 164.678C141.992 164.427 141.565 164.446 141.311 164.721C139.978 166.17 138.56 167.537 137.087 168.794C137.147 168.53 137.204 168.267 137.259 168.004C137.335 167.639 137.098 167.283 136.733 167.208C136.37 167.132 136.008 167.365 135.931 167.734C135.508 169.783 134.902 171.885 134.127 173.981C133.999 174.332 134.177 174.719 134.529 174.848C134.679 174.903 134.837 174.901 134.978 174.854ZM128.957 186.61C129.097 186.563 129.223 186.471 129.309 186.337C130.56 184.426 131.698 182.484 132.687 180.567C132.86 180.235 132.729 179.827 132.397 179.657C132.062 179.487 131.654 179.619 131.484 179.949C130.515 181.825 129.401 183.728 128.174 185.6C127.969 185.913 128.058 186.331 128.371 186.535C128.552 186.653 128.767 186.673 128.957 186.61ZM120.786 197.02C120.892 196.985 120.99 196.923 121.071 196.835C122.601 195.174 124.059 193.464 125.405 191.757C125.636 191.463 125.585 191.038 125.291 190.809C124.995 190.578 124.57 190.63 124.338 190.923C123.016 192.603 121.581 194.287 120.073 195.923C119.82 196.198 119.838 196.625 120.113 196.877C120.301 197.049 120.56 197.096 120.786 197.02ZM111.169 206.127C111.247 206.101 111.322 206.062 111.389 206.006C113.106 204.578 114.786 203.09 116.381 201.582C116.653 201.327 116.666 200.897 116.408 200.627C116.15 200.356 115.723 200.346 115.451 200.603C113.875 202.093 112.217 203.558 110.522 204.969C110.235 205.207 110.195 205.634 110.434 205.921C110.618 206.14 110.912 206.213 111.169 206.127ZM100.472 213.953C100.523 213.936 100.575 213.912 100.623 213.88C102.491 212.681 104.342 211.412 106.127 210.107C106.429 209.887 106.495 209.463 106.274 209.162C106.053 208.862 105.629 208.798 105.327 209.016C103.564 210.306 101.736 211.56 99.8909 212.743C99.5766 212.947 99.4846 213.365 99.6873 213.678C99.8582 213.944 100.184 214.049 100.472 213.953ZM88.8901 220.402C88.9165 220.393 88.9417 220.383 88.9683 220.371C90.9464 219.431 92.9409 218.401 94.8985 217.31C95.2266 217.127 95.3447 216.715 95.1603 216.389C94.9801 216.064 94.5611 215.952 94.2393 216.128C92.3077 217.207 90.338 218.223 88.3863 219.151C88.0476 219.312 87.9048 219.715 88.065 220.051C88.2123 220.364 88.5694 220.51 88.8901 220.402ZM70.1303 226.869C70.451 226.762 70.6499 226.429 70.5786 226.092C70.5031 225.725 70.1455 225.493 69.7788 225.568C67.5831 226.025 65.404 226.361 63.3024 226.568C62.9147 226.602 62.6557 226.936 62.691 227.306C62.7277 227.676 63.059 227.948 63.4308 227.912C65.5815 227.703 67.8087 227.359 70.0526 226.892C70.08 226.886 70.1046 226.878 70.1303 226.869ZM78.6665 224.544C80.0472 224.083 81.4522 223.572 82.8394 223.028C83.1881 222.891 83.3623 222.499 83.2233 222.15C83.0893 221.805 82.7416 221.612 82.3472 221.77C80.2749 222.58 78.1955 223.31 76.1374 223.934C75.766 224.065 75.5766 224.42 75.6862 224.778C75.7931 225.133 76.1728 225.336 76.5305 225.227C77.2413 225.011 77.9527 224.783 78.6665 224.544Z" fill="#ADC9A6"/>
</svg>
