<svg width="175" height="175" viewBox="0 0 175 175" fill="none" xmlns="http://www.w3.org/2000/svg">
<g filter="url(#filter0_b_4961_24164)">
<circle cx="87.5" cy="87.5" r="87.5" fill="url(#paint0_linear_4961_24164)" fill-opacity="0.9"/>
<circle cx="87.5" cy="87.5" r="87" stroke="white" stroke-opacity="0.2"/>
</g>
<path d="M80.6025 148.211L80.3702 149.886L77.0048 149.419C76.4132 149.337 75.93 149.457 75.5552 149.781C75.1804 150.104 74.9597 150.506 74.8931 150.986C74.8482 151.31 74.8789 151.621 74.9853 151.92C75.0917 152.219 75.2728 152.472 75.5286 152.678C75.7844 152.884 76.1077 153.015 76.4984 153.069L79.8638 153.536L79.6314 155.21L76.5507 154.783C76.0484 154.713 75.6287 154.786 75.2917 155C74.9547 155.215 74.7514 155.574 74.6817 156.076C74.612 156.579 74.71 156.979 74.9758 157.278C75.2415 157.576 75.6256 157.76 76.1279 157.83L79.2086 158.257L78.9763 159.932L75.8453 159.497C75.0528 159.387 74.4144 159.151 73.93 158.788C73.4457 158.425 73.1069 157.997 72.9137 157.503C72.7204 157.01 72.6602 156.501 72.733 155.977C72.8182 155.363 73.0663 154.845 73.4774 154.424C73.8773 154.002 74.4267 153.691 75.1255 153.493L74.8912 154.075C74.1963 153.671 73.6803 153.167 73.3432 152.563C73.0061 151.958 72.8886 151.288 72.9909 150.551C73.0745 149.949 73.3018 149.417 73.6729 148.956C74.0328 148.494 74.5247 148.147 75.1485 147.915C75.7596 147.693 76.4837 147.64 77.3209 147.756L80.6025 148.211ZM81.9253 148.395L80.299 160.115L78.3736 159.848L79.9998 148.128L81.9253 148.395Z" fill="#1A1E25"/>
<path d="M65.8905 144.561C66.7298 144.858 67.4163 145.316 67.9502 145.935C68.4841 146.555 68.831 147.263 68.9909 148.061C69.1364 148.866 69.0606 149.688 68.7635 150.527L66.3154 157.442L64.4829 156.794L66.9254 149.894C67.1172 149.352 67.173 148.84 67.0928 148.357C66.9982 147.882 66.7939 147.463 66.4798 147.1C66.162 146.749 65.7587 146.486 65.27 146.313C64.7708 146.137 64.2923 146.087 63.8347 146.164C63.3732 146.252 62.9614 146.453 62.5992 146.767C62.2332 147.091 61.9562 147.519 61.7682 148.05L59.3201 154.966L57.4876 154.317L59.9413 147.386C60.2384 146.547 60.6948 145.865 61.3103 145.342C61.9259 144.819 62.6307 144.483 63.4247 144.333C64.2188 144.184 65.0407 144.26 65.8905 144.561Z" fill="#1A1E25"/>
<path d="M58.1245 141.238L52.3915 151.589L50.691 150.647L56.424 140.296L58.1245 141.238Z" fill="#1A1E25"/>
<path d="M51.8552 137.435L44.6089 146.789L43.0722 145.599L50.3185 136.245L51.8552 137.435ZM50.7996 136.617L49.7126 138.02L44.8217 134.232L45.9087 132.829L50.7996 136.617Z" fill="#1A1E25"/>
<path d="M42.4164 129.215L41.0767 130.38L39.0364 128.032C38.5042 127.42 37.9067 126.998 37.2438 126.768C36.5735 126.53 35.8936 126.486 35.204 126.637C34.4986 126.788 33.8354 127.133 33.2144 127.672C32.602 128.204 32.1765 128.806 31.9378 129.476C31.6992 130.146 31.6513 130.83 31.7942 131.527C31.9297 132.215 32.2599 132.861 32.7847 133.465L34.825 135.813L33.4853 136.977L31.4118 134.591C30.85 133.945 30.4437 133.245 30.1928 132.493C29.9335 131.748 29.8305 130.994 29.884 130.231C29.9215 129.467 30.1127 128.733 30.4575 128.03C30.7937 127.335 31.2808 126.71 31.9188 126.156C32.5482 125.609 33.2349 125.213 33.9788 124.97C34.7228 124.726 35.4763 124.631 36.2394 124.685C36.994 124.746 37.7264 124.953 38.4366 125.306C39.1382 125.667 39.7662 126.166 40.3207 126.804L42.4164 129.215ZM43.2923 130.223L34.3613 137.985L33.0861 136.518L42.0172 128.756L43.2923 130.223Z" fill="#1A1E25"/>
<path d="M32.0403 114.462L19.2456 114.385L18.7386 113.132L27.8953 104.213L28.6812 106.156L21.2157 113.26L20.9495 112.602L31.2671 112.55L32.0403 114.462ZM29.0248 113.092L27.4577 113.726L25.1064 107.912L26.6734 107.278L29.0248 113.092Z" fill="#1A1E25"/>
<path d="M26.1406 90.8592C26.1961 91.7929 26.0744 92.596 25.7757 93.2685C25.477 93.941 25.0168 94.5553 24.3951 95.1116L23.0007 93.8736C23.4538 93.5193 23.802 93.1091 24.0452 92.6431C24.2772 92.1778 24.3725 91.5964 24.3311 90.8989C24.2923 90.2465 24.1266 89.737 23.8339 89.3706C23.5405 88.9929 23.1576 88.8181 22.6851 88.8462C22.2914 88.8696 21.9768 88.9899 21.7413 89.207C21.5059 89.4242 21.3194 89.7062 21.182 90.0531C21.0326 90.3893 20.9081 90.7636 20.8084 91.1759C20.6968 91.5777 20.5743 91.9857 20.4409 92.4001C20.2955 92.8038 20.1091 93.1818 19.8817 93.534C19.6536 93.8749 19.3487 94.1583 18.967 94.3842C18.5853 94.61 18.0907 94.741 17.4833 94.7771C16.7858 94.8186 16.1852 94.6849 15.6814 94.3762C15.1658 94.0568 14.7612 93.6124 14.4677 93.0428C14.1742 92.4732 14.0061 91.8284 13.9633 91.1085C13.9172 90.3323 14.028 89.6314 14.2956 89.0059C14.5626 88.3692 14.9209 87.8455 15.3707 87.435L16.765 88.6729C16.4026 89.0331 16.1424 89.4042 15.9845 89.7861C15.8146 90.1575 15.7438 90.5794 15.7718 91.0518C15.8066 91.6368 15.9521 92.091 16.2084 92.4144C16.464 92.7266 16.8055 92.87 17.233 92.8446C17.593 92.8233 17.8795 92.7046 18.0924 92.4888C18.2941 92.2736 18.464 91.9982 18.6021 91.6626C18.7283 91.3165 18.8472 90.9425 18.9588 90.5408C19.0698 90.1278 19.1979 89.7194 19.3432 89.3156C19.4879 88.9006 19.6856 88.522 19.9362 88.1797C20.1748 87.8269 20.4963 87.5369 20.9005 87.3096C21.3047 87.0824 21.8217 86.9501 22.4517 86.9127C23.5091 86.8499 24.3696 87.1769 25.0331 87.8939C25.6959 88.5996 26.0651 89.588 26.1406 90.8592Z" fill="#1A1E25"/>
<path d="M26.7864 77.6777C26.6595 78.5589 26.3446 79.3219 25.8419 79.9668C25.3392 80.6117 24.7123 81.0907 23.9613 81.4038C23.2008 81.7041 22.38 81.7909 21.4988 81.664L14.2375 80.6183L14.5146 78.6943L21.7591 79.7375C22.328 79.8194 22.8412 79.7738 23.2988 79.6006C23.7468 79.4146 24.1177 79.1322 24.4113 78.7532C24.6938 78.3726 24.872 77.9258 24.9459 77.4127C25.0214 76.8885 24.9765 76.4095 24.8113 75.9758C24.6349 75.5406 24.3572 75.1761 23.9782 74.8824C23.5881 74.5871 23.1142 74.3994 22.5565 74.319L15.2952 73.2734L15.5723 71.3493L22.8503 72.3974C23.7314 72.5243 24.4889 72.8383 25.1226 73.3394C25.7564 73.8405 26.2242 74.4658 26.5262 75.2152C26.8281 75.9645 26.9148 76.7854 26.7864 77.6777Z" fill="#1A1E25"/>
<path d="M30.3587 64.6314C30.0638 65.4355 29.6474 66.129 29.1095 66.712C28.565 67.2804 27.9403 67.7235 27.2357 68.0412C26.5204 68.3551 25.7685 68.5234 24.9799 68.5463C24.1807 68.5653 23.3844 68.4293 22.5909 68.1383C21.7974 67.8473 21.1072 67.4381 20.5204 66.9108C19.923 66.3797 19.4582 65.7651 19.1261 65.0671C18.7939 64.3692 18.6038 63.6273 18.5559 62.8415C18.5119 62.0452 18.6373 61.245 18.9322 60.4409C19.262 59.5416 19.6953 58.8183 20.2321 58.2709C20.769 57.7236 21.3844 57.2892 22.0785 56.9676L22.8624 58.6594C22.3824 58.8555 21.9546 59.1547 21.5789 59.5571C21.2072 59.9489 20.9069 60.4569 20.6779 61.0811C20.4762 61.6313 20.3871 62.1687 20.4107 62.6935C20.4343 63.2183 20.5638 63.7159 20.7994 64.1864C21.0283 64.6425 21.353 65.0496 21.7738 65.408C22.1945 65.7663 22.6958 66.0522 23.2777 66.2656C23.8596 66.479 24.4269 66.585 24.9795 66.5837C25.5322 66.5823 26.0485 66.4836 26.5285 66.2875C27.0018 66.077 27.4171 65.7792 27.7744 65.3941C28.1317 65.009 28.4112 64.5414 28.613 63.9912C28.8613 63.3141 28.9703 62.7059 28.94 62.1666C28.903 61.6129 28.7648 61.1061 28.5254 60.6462L30.2172 59.8623C30.5494 60.5603 30.7375 61.3075 30.7815 62.1038C30.8255 62.9002 30.6846 63.7427 30.3587 64.6314Z" fill="#1A1E25"/>
<path d="M36.2747 53.3774C35.8198 54.103 35.2689 54.6953 34.622 55.1543C33.9715 55.5977 33.2687 55.902 32.5136 56.0669C31.7488 56.2259 30.9784 56.235 30.2021 56.0942C29.4163 55.9473 28.6654 55.6494 27.9493 55.2005C27.2332 54.7515 26.6427 54.2084 26.1777 53.5711C25.7032 52.9277 25.3757 52.2303 25.1952 51.4787C25.0147 50.7271 24.9823 49.9619 25.098 49.1833C25.2198 48.395 25.5081 47.6381 25.9631 46.9125C26.4719 46.1009 27.0455 45.483 27.684 45.0586C28.3225 44.6342 29.0145 44.3366 29.7601 44.1656L30.1769 45.9831C29.6667 46.0755 29.1862 46.2797 28.7354 46.5956C28.2906 46.902 27.8916 47.3369 27.5385 47.9002C27.2272 48.3967 27.0288 48.9041 26.9433 49.4224C26.8577 49.9407 26.8815 50.4543 27.0146 50.9634C27.1441 51.4569 27.3775 51.9225 27.715 52.3602C28.0524 52.7978 28.4837 53.1813 29.0088 53.5105C29.534 53.8397 30.067 54.0609 30.608 54.1739C31.1489 54.287 31.6745 54.2973 32.1847 54.2048C32.6913 54.0968 33.1593 53.8914 33.5885 53.5886C34.0178 53.2858 34.388 52.8862 34.6993 52.3897C35.0824 51.7786 35.315 51.2062 35.3969 50.6723C35.4753 50.123 35.445 49.5985 35.306 49.099L37.1234 48.6823C37.3039 49.4339 37.3333 50.2038 37.2116 50.992C37.0898 51.7802 36.7775 52.5753 36.2747 53.3774Z" fill="#1A1E25"/>
<path d="M40.614 47.3107L32.0067 39.1914L33.3406 37.7773L41.9479 45.8966L40.614 47.3107ZM41.5304 46.3393L40.2393 45.1214L44.7861 40.3012L46.0772 41.5191L41.5304 46.3393ZM37.7554 42.7784L36.5135 41.6069L40.6659 37.2048L41.9079 38.3763L37.7554 42.7784ZM34.2141 39.4379L32.923 38.22L37.4118 33.4613L38.7029 34.6792L34.2141 39.4379Z" fill="#1A1E25"/>
<path d="M51.4411 37.696C50.6823 38.2428 49.9389 38.5702 49.211 38.6781C48.4831 38.786 47.7178 38.7263 46.9151 38.4991L47.2139 36.6586C47.7557 36.8515 48.2886 36.9259 48.8124 36.8818C49.3296 36.8285 49.8717 36.5976 50.4385 36.1891C50.9687 35.807 51.3102 35.3942 51.4629 34.9507C51.6248 34.5007 51.5673 34.0837 51.2906 33.6997C51.06 33.3798 50.7899 33.1785 50.4804 33.096C50.1709 33.0134 49.8329 33.007 49.4664 33.0767C49.1024 33.1306 48.7197 33.2259 48.3181 33.3625C47.919 33.4834 47.5088 33.5985 47.0874 33.7077C46.6686 33.8011 46.2496 33.8461 45.8304 33.8427C45.4203 33.8326 45.0177 33.7269 44.6225 33.5255C44.2274 33.3241 43.8519 32.9766 43.4961 32.4829C43.0876 31.9161 42.8788 31.3373 42.8698 30.7465C42.8633 30.14 43.022 29.5603 43.3458 29.0074C43.6697 28.4545 44.1242 27.9672 44.7093 27.5456C45.3401 27.0909 45.9913 26.8092 46.6629 26.7002C47.3436 26.5847 47.9777 26.6069 48.5653 26.7668L48.2665 28.6074C47.7682 28.4942 47.3155 28.4732 46.9084 28.5443C46.5039 28.5998 46.1096 28.7658 45.7256 29.0426C45.2502 29.3852 44.9446 29.7513 44.8087 30.1409C44.6819 30.524 44.7437 30.8892 44.9941 31.2367C45.2049 31.5292 45.4585 31.7076 45.7548 31.7719C46.0446 31.827 46.3681 31.823 46.7255 31.7599C47.0854 31.6811 47.4649 31.5812 47.864 31.4603C48.2721 31.3328 48.6856 31.2224 49.1045 31.1289C49.5324 31.0288 49.958 30.993 50.3813 31.0213C50.8071 31.0339 51.2242 31.1501 51.6325 31.3697C52.0408 31.5894 52.4295 31.9552 52.7985 32.4672C53.4178 33.3266 53.6024 34.2284 53.3523 35.1727C53.1112 36.1103 52.4742 36.9514 51.4411 37.696Z" fill="#1A1E25"/>
<path d="M61.792 31.6945C60.9411 32.083 60.1482 32.2592 59.4132 32.223C58.6783 32.1869 57.9393 31.9792 57.1963 31.5999L57.8482 29.8529C58.342 30.1478 58.8501 30.3246 59.3725 30.3835C59.8902 30.432 60.4668 30.3113 61.1024 30.0211C61.697 29.7497 62.1124 29.4114 62.3486 29.0062C62.5951 28.5964 62.6201 28.1762 62.4235 27.7456C62.2598 27.3868 62.0341 27.1368 61.7466 26.9955C61.4592 26.8542 61.1289 26.782 60.7558 26.7788C60.3884 26.7608 59.9944 26.7796 59.5738 26.8353C59.1589 26.8761 58.7341 26.909 58.2996 26.9339C57.8706 26.944 57.4508 26.9064 57.0403 26.8213C56.6401 26.7315 56.2658 26.5493 55.9175 26.2747C55.5692 26.0001 55.2687 25.5861 55.016 25.0325C54.7258 24.3969 54.6339 23.7885 54.7402 23.2073C54.8521 22.6111 55.1208 22.0735 55.5462 21.5943C55.9717 21.1152 56.5124 20.7259 57.1685 20.4264C57.8759 20.1034 58.5695 19.954 59.2494 19.9781C59.9396 19.9975 60.5572 20.1429 61.1023 20.4143L60.4504 22.1613C59.9838 21.9532 59.5439 21.8443 59.1307 21.8347C58.7231 21.8102 58.304 21.8962 57.8735 22.0928C57.3404 22.3361 56.9692 22.6357 56.76 22.9913C56.5609 23.3423 56.5503 23.7126 56.7282 24.1022C56.8779 24.4302 57.0919 24.6546 57.37 24.7754C57.6434 24.886 57.9615 24.9451 58.3243 24.9529C58.6927 24.9458 59.0844 24.9219 59.4993 24.8811C59.9245 24.8356 60.3516 24.8079 60.7806 24.7979C61.2199 24.7831 61.6443 24.831 62.0539 24.9413C62.4691 25.0367 62.8555 25.2319 63.2132 25.5269C63.5708 25.822 63.8807 26.2566 64.1428 26.8307C64.5827 27.7943 64.5879 28.7148 64.1584 29.5922C63.7392 30.4649 62.9504 31.1657 61.792 31.6945Z" fill="#1A1E25"/>
<path d="M78.5271 26.5936L78.3427 24.9133L81.72 24.5423C82.3137 24.4771 82.7527 24.2418 83.0369 23.8365C83.3212 23.4312 83.4369 22.9876 83.384 22.506C83.3483 22.1811 83.2423 21.8867 83.0659 21.6226C82.8896 21.3586 82.6521 21.1579 82.3536 21.0206C82.0551 20.8834 81.7099 20.8363 81.3178 20.8793L77.9405 21.2503L77.756 19.5701L80.8477 19.2305C81.3518 19.1751 81.7409 19.002 82.015 18.7111C82.2892 18.4202 82.3986 18.0228 82.3433 17.5187C82.2879 17.0146 82.0949 16.6504 81.7641 16.4259C81.4334 16.2015 81.016 16.117 80.5119 16.1724L77.4202 16.512L77.2358 14.8317L80.3778 14.4866C81.1732 14.3992 81.8501 14.4722 82.4085 14.7056C82.967 14.9391 83.4002 15.2713 83.7083 15.7022C84.0164 16.1332 84.1993 16.6119 84.2571 17.1384C84.3248 17.7545 84.2108 18.3169 83.9152 18.8255C83.6308 19.3329 83.1741 19.7685 82.5452 20.1323L82.63 19.5108C83.4025 19.7321 84.0262 20.0944 84.5009 20.5977C84.9756 21.1011 85.2536 21.7224 85.3347 22.4617C85.4011 23.0666 85.3108 23.6377 85.0637 24.175C84.8278 24.7111 84.4358 25.168 83.8878 25.5456C83.3497 25.9108 82.6606 26.1395 81.8205 26.2318L78.5271 26.5936ZM77.1997 26.7394L75.9083 14.9775L77.8406 14.7652L79.132 26.5271L77.1997 26.7394Z" fill="#1A1E25"/>
<path d="M90.9602 21.084L91.0994 19.4842L94.0801 19.7438C94.6751 19.7956 95.1486 19.6842 95.5006 19.4094C95.8647 19.1244 96.0707 18.7068 96.1186 18.1567C96.1616 17.6627 96.0349 17.2332 95.7387 16.868C95.4424 16.5029 94.9968 16.2944 94.4018 16.2425L91.4043 15.9815L91.5508 14.2975L94.6325 14.5659C95.3735 14.6304 96.0114 14.8387 96.5464 15.1907C97.0823 15.5315 97.4794 15.9733 97.7375 16.5161C98.0079 17.0487 98.1148 17.6406 98.0581 18.2917C97.9985 18.9765 97.7896 19.5579 97.4312 20.0357C97.0842 20.5145 96.6177 20.8698 96.032 21.1015C95.4462 21.3333 94.7829 21.4169 94.0419 21.3524L90.9602 21.084ZM89.1946 25.9696L90.2205 14.1816L92.1571 14.3503L91.1312 26.1383L89.1946 25.9696ZM95.6611 26.5328L91.9809 21.0541L93.8399 20.5543L98.1029 26.7455L95.6611 26.5328Z" fill="#1A1E25"/>
<path d="M100.236 27.2662L108.277 17.3134L109.573 17.6991L110.832 30.4191L108.823 29.8213L107.927 19.555L108.608 19.7575L102.213 27.8544L100.236 27.2662ZM103.188 25.7636L103.67 24.1434L109.68 25.932L109.198 27.5521L103.188 25.7636Z" fill="#1A1E25"/>
<path d="M113.144 31.7043L118.793 21.3072L119.981 21.9528L119.436 24.1958L114.852 32.6323L113.144 31.7043ZM120.348 35.6181L118.538 24.1123L119.981 21.9528L121.79 33.4586L120.348 35.6181ZM120.348 35.6181L120.82 33.5088L125.477 24.9386L127.185 25.8666L121.536 36.2637L120.348 35.6181Z" fill="#1A1E25"/>
<path d="M125.098 39.1552L126.25 37.8048L128.617 39.8232C129.234 40.3497 129.887 40.6775 130.577 40.8066C131.275 40.943 131.954 40.8852 132.614 40.633C133.289 40.3795 133.894 39.9399 134.427 39.314C134.954 38.6966 135.285 38.0388 135.422 37.3405C135.558 36.6423 135.504 35.9591 135.259 35.2911C135.023 34.6304 134.6 34.0404 133.991 33.5212L131.625 31.5028L132.777 30.1524L135.182 32.2037C135.833 32.7595 136.339 33.3908 136.699 34.0977C137.066 34.7959 137.28 35.5264 137.341 36.2889C137.417 37.0503 137.337 37.804 137.1 38.5502C136.871 39.2878 136.482 39.9782 135.934 40.6212C135.393 41.2557 134.772 41.7486 134.073 42.0999C133.373 42.4512 132.642 42.6571 131.88 42.7176C131.125 42.7696 130.37 42.6736 129.615 42.4298C128.867 42.1774 128.172 41.7769 127.529 41.2284L125.098 39.1552ZM124.082 38.2886L131.761 29.2858L133.24 30.5473L125.561 39.5501L124.082 38.2886Z" fill="#1A1E25"/>
<path d="M139.505 55.4429L147.944 46.2823L148.875 47.9503L142.343 54.9435L142.096 54.5006L151.444 52.5558L152.103 53.7367L145.539 60.6708L145.292 60.228L154.673 58.3422L155.604 60.0102L143.377 62.3807L142.718 61.1998L149.259 54.2592L149.506 54.702L140.164 56.6238L139.505 55.4429Z" fill="#1A1E25"/>
<path d="M145.046 67.3352L156.282 63.6259L156.891 65.4719L145.655 69.1812L145.046 67.3352Z" fill="#1A1E25"/>
<path d="M147.556 77.2726L158.905 75.4479L159.213 77.3671L147.864 79.1919L147.556 77.2726ZM156.874 71.8708L158.627 71.589L160.159 81.1186L158.406 81.4004L156.874 71.8708Z" fill="#1A1E25"/>
<path d="M148.479 86.2423L160.3 86.7502L160.217 88.6923L148.395 88.1844L148.479 86.2423ZM148.156 93.7575L159.978 94.2654L159.894 96.2075L148.073 95.6996L148.156 93.7575ZM153.657 87.8014L155.43 87.8775L155.146 94.4808L153.373 94.4046L153.657 87.8014Z" fill="#1A1E25"/>
<path d="M144.993 107.49L146.645 108.138L145.508 111.033C145.212 111.789 145.115 112.513 145.218 113.207C145.316 113.912 145.593 114.535 146.046 115.076C146.506 115.632 147.118 116.06 147.884 116.361C148.639 116.657 149.369 116.756 150.074 116.657C150.779 116.559 151.407 116.285 151.958 115.835C152.506 115.397 152.926 114.805 153.218 114.06L154.355 111.165L156.007 111.813L154.852 114.756C154.539 115.553 154.107 116.237 153.556 116.808C153.016 117.382 152.395 117.823 151.694 118.129C150.999 118.449 150.26 118.619 149.478 118.639C148.706 118.663 147.926 118.52 147.14 118.211C146.363 117.907 145.695 117.481 145.135 116.934C144.575 116.387 144.142 115.763 143.836 115.062C143.541 114.365 143.385 113.62 143.37 112.827C143.364 112.038 143.516 111.25 143.825 110.464L144.993 107.49ZM145.481 106.247L156.495 110.57L155.785 112.38L144.77 108.056L145.481 106.247Z" fill="#1A1E25"/>
<path d="M140.218 117.955L150.177 124.343L149.128 125.98L139.168 119.591L140.218 117.955ZM139.497 119.079L140.991 120.037L137.413 125.615L135.919 124.657L139.497 119.079ZM143.865 121.881L145.302 122.803L142.035 127.896L140.598 126.975L143.865 121.881ZM147.963 124.509L149.457 125.467L145.925 130.974L144.431 130.016L147.963 124.509Z" fill="#1A1E25"/>
<path d="M133.923 127.102L142.294 135.465L141.338 136.422L132.133 134.179L132.755 133.557L135.006 142.76L134.05 143.716L125.679 135.353L127.053 133.978L133.009 139.928L132.614 140.155L130.95 133.331L131.905 132.374L138.731 134.032L138.504 134.427L132.549 128.477L133.923 127.102Z" fill="#1A1E25"/>
<path d="M118.038 139.977C118.757 139.533 119.511 139.253 120.3 139.137C121.089 139.021 121.864 139.053 122.624 139.233C123.39 139.423 124.099 139.746 124.752 140.204C125.402 140.677 125.948 141.273 126.392 141.993C126.836 142.712 127.121 143.463 127.246 144.246C127.363 145.035 127.335 145.807 127.165 146.561C126.991 147.33 126.677 148.034 126.223 148.671C125.765 149.325 125.177 149.873 124.458 150.317C123.738 150.761 122.989 151.038 122.21 151.148C121.426 151.274 120.652 151.242 119.886 151.052C119.126 150.872 118.421 150.546 117.772 150.073C117.119 149.615 116.57 149.026 116.126 148.307C115.683 147.588 115.4 146.829 115.278 146.03C115.152 145.247 115.179 144.476 115.359 143.716C115.529 142.962 115.843 142.258 116.301 141.605C116.749 140.958 117.328 140.415 118.038 139.977ZM119.043 141.542C118.362 141.962 117.862 142.482 117.543 143.103C117.215 143.729 117.072 144.4 117.116 145.114C117.156 145.845 117.395 146.564 117.833 147.274C118.158 147.802 118.541 148.228 118.979 148.553C119.415 148.893 119.883 149.127 120.386 149.254C120.894 149.391 121.412 149.416 121.94 149.328C122.459 149.246 122.973 149.048 123.481 148.735C124.153 148.32 124.652 147.8 124.981 147.174C125.306 146.563 125.451 145.897 125.417 145.176C125.373 144.462 125.133 143.75 124.695 143.04C124.369 142.513 123.986 142.074 123.545 141.724C123.1 141.389 122.631 141.155 122.139 141.022C121.636 140.895 121.118 140.87 120.584 140.949C120.055 141.036 119.542 141.234 119.043 141.542Z" fill="#1A1E25"/>
<path d="M106.546 145.2C107.386 144.904 108.208 144.83 109.013 144.977C109.817 145.124 110.532 145.458 111.157 145.979C111.775 146.514 112.232 147.201 112.527 148.041L114.962 154.962L113.128 155.607L110.699 148.702C110.509 148.16 110.231 147.726 109.865 147.401C109.493 147.09 109.071 146.892 108.599 146.807C108.131 146.733 107.652 146.782 107.163 146.954C106.664 147.129 106.26 147.391 105.952 147.738C105.648 148.096 105.453 148.511 105.368 148.983C105.287 149.465 105.34 149.972 105.527 150.504L107.961 157.424L106.128 158.069L103.688 151.133C103.392 150.293 103.32 149.476 103.471 148.682C103.622 147.889 103.959 147.185 104.484 146.57C105.008 145.956 105.696 145.499 106.546 145.2Z" fill="#1A1E25"/>
<path d="M98.412 147.482L100.445 159.139L98.53 159.473L96.497 147.816L98.412 147.482Z" fill="#1A1E25"/>
<defs>
<filter id="filter0_b_4961_24164" x="-5" y="-5" width="185" height="185" filterUnits="userSpaceOnUse" color-interpolation-filters="sRGB">
<feFlood flood-opacity="0" result="BackgroundImageFix"/>
<feGaussianBlur in="BackgroundImageFix" stdDeviation="2.5"/>
<feComposite in2="SourceAlpha" operator="in" result="effect1_backgroundBlur_4961_24164"/>
<feBlend mode="normal" in="SourceGraphic" in2="effect1_backgroundBlur_4961_24164" result="shape"/>
</filter>
<linearGradient id="paint0_linear_4961_24164" x1="-53" y1="2.48466e-07" x2="237" y2="214" gradientUnits="userSpaceOnUse">
<stop stop-color="#EEA635" stop-opacity="0.56"/>
<stop offset="1" stop-color="#EEA635" stop-opacity="0"/>
</linearGradient>
</defs>
</svg>
