<svg width="62" height="57" viewBox="0 0 62 57" fill="none" xmlns="http://www.w3.org/2000/svg">
<path fill-rule="evenodd" clip-rule="evenodd" d="M50.6139 23.3139C49.7163 18.2804 49.5224 13.0832 49.3718 8.04529C49.343 6.96055 50.1832 6.0379 51.238 6.06337C52.3009 6.01236 53.1847 6.87172 53.221 7.87991C53.3628 12.7624 53.5327 17.8018 54.4014 22.6006C54.5915 23.6238 53.8961 24.6384 52.8496 24.8456C51.8039 25.0528 50.8048 24.3371 50.6139 23.3139Z" fill="#1E2F85"/>
<path fill-rule="evenodd" clip-rule="evenodd" d="M36.8237 34.0126C29.5452 25.3436 23.3994 15.7803 15.8901 7.24336C15.1855 6.4792 15.2635 5.2503 16.0585 4.55493C16.8542 3.85963 18.0743 3.90151 18.7714 4.74223C26.3044 13.2815 32.4731 22.847 39.7754 31.5184C40.4541 32.3573 40.3455 33.5829 39.5299 34.2763C38.7225 34.8931 37.5024 34.8516 36.8237 34.0126Z" fill="#1E2F85"/>
<path fill-rule="evenodd" clip-rule="evenodd" d="M15.6256 36.2866C19.897 38.0812 24.1685 39.8754 28.4406 41.6703C29.437 42.0317 29.8916 43.1788 29.476 44.1736C29.0596 45.1681 27.9494 45.5831 26.9522 45.2215C22.6736 43.4242 18.3956 41.6277 14.1177 39.8307C13.1475 39.397 12.6979 38.252 13.1193 37.2593C13.5145 36.339 14.6561 35.8532 15.6256 36.2866Z" fill="#1E2F85"/>
</svg>
