<svg width="83" height="125" viewBox="0 0 83 125" fill="none" xmlns="http://www.w3.org/2000/svg">
<g clip-path="url(#clip0_4956_6273)">
<path d="M28.1952 39.8552L31.0052 40.6842L30.1762 43.4941L27.3662 42.6652L28.1952 39.8552Z" fill="#FB8500"/>
<path d="M22.5752 38.1973L25.3852 39.0262L24.5562 41.8362L21.7462 41.0072L22.5752 38.1973Z" fill="#FB8500"/>
<path d="M31.6434 82.106L55.7525 89.2184L65.4766 79.8869L58.0836 45.6181L62.7416 46.9922L63.5705 44.1824L38.9577 36.9214L35.8709 29.3663L38.8593 19.2363L34.2518 14.1477L27.62 15.9206L24.6315 26.0506L17.9383 30.7206L-6.67455 23.4596L-7.50347 26.2694L-2.84552 27.6435L-13.051 37.8322L-10.9813 39.9054L-0.929991 29.8708L5.72417 60.715L-23.2602 52.1644L-13.0549 41.9756L-15.1246 39.9024L-27.6551 52.4123L-24.5529 65.5277L-0.443785 72.64L9.28056 63.3086L2.40706 31.4478L13.9689 42.9043L16.5012 53.6098L4.48126 94.3542L0.968969 93.3181L-4.90362 97.6944L-15.4405 94.5859L-17.9273 103.015L18.6002 113.791L19.4291 110.981L-14.2881 101.035L-13.4592 98.2248L28.6879 110.658L27.859 113.468L22.2393 111.81L21.4104 114.62L29.8399 117.107L32.3266 108.678L21.7898 105.569L19.2329 98.7061L15.7206 97.6699L27.7405 56.9255L35.678 49.3086L51.6066 45.9623L28.5404 68.9906L31.6434 82.106ZM54.9508 85.9275L34.1029 79.7772L32.1613 71.5685L61.037 80.087L54.9508 85.9275ZM32.9359 68.7426L55.2661 46.4491L61.9202 77.2932L32.9359 68.7426ZM27.1506 27.8653L29.9647 18.3263L33.2806 17.4397L35.5843 19.9841L32.7703 29.5229L35.3595 35.8597L21.5366 31.7819L27.1506 27.8653ZM-1.24532 69.3492L-22.0931 63.1989L-24.0348 54.9902L4.84093 63.5088L-1.24532 69.3492ZM18.2777 104.533L-1.39115 98.7306L1.54515 96.5424L16.9992 101.101L18.2777 104.533ZM7.29133 95.183L19.0068 55.4705L24.6265 57.1284L12.911 96.8409L7.29133 95.183ZM34.2552 46.6142L26.0451 54.4925L19.2462 52.4868L16.6269 41.4137L5.09375 29.9857L50.1447 43.2761L34.2552 46.6142Z" fill="#FB8500"/>
</g>
<defs>
<clipPath id="clip0_4956_6273">
<rect width="100" height="100" fill="white" transform="translate(-13.7048) rotate(16.4365)"/>
</clipPath>
</defs>
</svg>
