<svg width="88" height="167" viewBox="0 0 88 167" fill="none" xmlns="http://www.w3.org/2000/svg">
<path d="M8.45601 1.85521C8.57814 1.71946 8.64664 1.53716 8.6295 1.34151C8.59431 0.968097 8.26523 0.694598 7.89398 0.73093C5.70322 0.934543 3.48032 1.2028 1.28304 1.52223C0.913372 1.57608 0.65364 1.91787 0.709363 2.29019C0.76137 2.65937 1.10375 2.91569 1.47299 2.86231C3.65007 2.54603 5.8519 2.28186 8.01692 2.07792C8.19348 2.06258 8.34611 1.97737 8.45601 1.85521ZM21.686 1.30571C21.7921 1.18775 21.8574 1.03322 21.8608 0.862892C21.8658 0.488231 21.5688 0.181525 21.1942 0.175699C19.0106 0.146996 16.7697 0.179635 14.5349 0.272907C14.1637 0.2899 13.8721 0.60445 13.8867 0.978961C13.901 1.35156 14.2161 1.64296 14.5905 1.6273C16.7995 1.53356 19.0133 1.50218 21.1727 1.53126C21.3742 1.53164 21.5601 1.44566 21.686 1.30571ZM34.8763 2.32981C34.9629 2.2335 35.0224 2.11188 35.043 1.97564C35.0982 1.6055 34.8436 1.26127 34.4727 1.20546C32.3299 0.890232 30.1029 0.644411 27.8495 0.47369C27.4759 0.445153 27.1508 0.724436 27.1216 1.09707C27.0925 1.46959 27.3707 1.79481 27.7434 1.82443C29.9661 1.99303 32.163 2.23611 34.2727 2.54717C34.5069 2.58114 34.7301 2.49225 34.8763 2.32981ZM47.7489 5.29441C47.811 5.2254 47.8583 5.14377 47.8887 5.04968C48.0055 4.69556 47.812 4.31237 47.4572 4.19769C45.3983 3.52862 43.2361 2.93331 41.0264 2.42945C40.6618 2.34505 40.299 2.5745 40.216 2.93939C40.1315 3.30356 40.3586 3.66631 40.7229 3.74867C42.8931 4.24572 45.0151 4.82788 47.0358 5.4863C47.298 5.57118 47.5753 5.48739 47.7489 5.29441ZM59.8087 10.6388C59.8395 10.6046 59.8679 10.5681 59.8904 10.5263C60.0808 10.2037 59.9722 9.78883 59.6497 9.60216C57.76 8.49892 55.7566 7.47855 53.6936 6.57045C53.3517 6.41732 52.9521 6.57441 52.8006 6.91655C52.6494 7.25822 52.8035 7.65876 53.1462 7.80853C55.1626 8.69854 57.12 9.69515 58.9654 10.7705C59.2467 10.9354 59.5986 10.8723 59.8087 10.6388ZM22.1575 59.5457C22.3692 59.3104 22.3943 58.952 22.1984 58.6897C21.9748 58.3906 21.5505 58.329 21.2515 58.5528C19.5841 59.8007 18.0285 61.2235 16.6286 62.7795L16.3001 63.1518C16.0543 63.4347 16.0823 63.862 16.3647 64.1078C16.6427 64.3488 17.0652 64.323 17.312 64.0487L17.3191 64.0408L17.6345 63.6854C18.9761 62.1942 20.464 60.8322 22.0596 59.6377C22.0961 59.6092 22.1284 59.578 22.1575 59.5457ZM10.8982 75.537C10.9616 75.4666 11.013 75.3829 11.0428 75.2846C11.6808 73.2294 12.5376 71.2277 13.5928 69.3359C13.7759 69.0093 13.6582 68.5973 13.3315 68.4152C13.006 68.2343 12.5905 68.3463 12.4113 68.6782C11.3107 70.6517 10.4151 72.7401 9.75088 74.8873C9.6398 75.2447 9.83989 75.623 10.1949 75.7327C10.4564 75.8134 10.7271 75.7273 10.8982 75.537ZM34.1024 54.039C34.246 53.8793 34.31 53.6538 34.258 53.4293C34.1731 53.0654 33.8086 52.8409 33.445 52.9266C31.5493 53.3764 29.7213 53.968 28.0099 54.6858C27.6914 54.818 27.3718 54.9561 27.0597 55.1003C26.7163 55.2577 26.5692 55.66 26.7241 55.9993C26.8794 56.3381 27.2807 56.4879 27.6205 56.3321C27.9204 56.1941 28.2218 56.0618 28.5289 55.9352C30.173 55.2463 31.9307 54.6773 33.7538 54.2455C33.894 54.2127 34.0132 54.1381 34.1024 54.039ZM70.2831 18.6453C70.524 18.3775 70.5141 17.9663 70.2573 17.7114C69.677 17.1334 69.0837 16.5746 68.4818 16.0325C67.4251 15.0842 66.3227 14.1721 65.2059 13.3196C64.9108 13.0927 64.4813 13.16 64.2591 13.4479C64.0321 13.7461 64.0884 14.1709 64.3845 14.3966C65.4731 15.2275 66.5459 16.117 67.575 17.0405C68.1601 17.5674 68.7378 18.1122 69.3031 18.6731C69.5678 18.9361 69.9951 18.9341 70.2584 18.668L70.2831 18.6453ZM9.73512 88.6339C9.86277 88.492 9.93037 88.2986 9.90407 88.0939C9.84332 87.6258 9.79612 87.1524 9.75953 86.6671C9.62951 84.9975 9.64061 83.3037 9.78921 81.6308C9.82159 81.257 9.54728 80.9299 9.17424 80.8959C8.80198 80.8658 8.47312 81.1445 8.44204 81.5143C8.28568 83.261 8.27247 85.0295 8.40907 86.7738C8.44868 87.2823 8.49964 87.7804 8.56122 88.2669C8.60901 88.6407 8.94838 88.9004 9.31753 88.852C9.4844 88.8305 9.63117 88.7494 9.73512 88.6339ZM47.2502 53.202C47.344 53.0978 47.4075 52.9645 47.421 52.8143C47.4589 52.4418 47.1857 52.1109 46.814 52.0754C44.5566 51.861 42.298 51.8192 40.1005 51.953C39.7289 51.9729 39.4444 52.2939 39.4632 52.6687C39.4868 53.0429 39.8062 53.3271 40.1796 53.3029C42.3064 53.1752 44.495 53.2153 46.683 53.4249C46.904 53.4446 47.1121 53.3556 47.2502 53.202ZM78.3831 29.0522C78.577 28.8367 78.6166 28.5128 78.4625 28.2523C77.3165 26.3224 76.0493 24.4621 74.6974 22.7201C74.4681 22.425 74.0423 22.3724 73.748 22.603C73.4576 22.8244 73.397 23.2561 73.6271 23.5527C74.9459 25.2495 76.1819 27.0649 77.2994 28.9469C77.4883 29.2677 77.9053 29.3735 78.2258 29.1812C78.2866 29.145 78.3386 29.1017 78.3831 29.0522ZM14.6061 100.765C14.8191 100.528 14.8431 100.166 14.6419 99.9027C13.3398 98.1921 12.2772 96.3143 11.4863 94.325C11.3485 93.9789 10.9546 93.8087 10.6084 93.9475C10.2621 94.0888 10.0915 94.481 10.2306 94.8283C11.0658 96.9323 12.1867 98.9142 13.5648 100.726C13.7917 101.024 14.2154 101.079 14.5124 100.852C14.5488 100.826 14.5783 100.796 14.6061 100.765ZM60.0739 56.2741C60.128 56.2139 60.1722 56.1431 60.2035 56.0625C60.3376 55.7132 60.1621 55.322 59.8127 55.1869C57.6958 54.3797 55.5467 53.7095 53.4233 53.1941C53.0608 53.1073 52.69 53.3338 52.6064 53.6945C52.5176 54.0585 52.7402 54.4238 53.1031 54.5127C55.1692 55.0121 57.2625 55.6646 59.328 56.4542C59.5976 56.5575 59.8919 56.4764 60.0739 56.2741ZM83.8146 41.0888C83.9722 40.9136 84.0328 40.6605 83.9538 40.4202C83.6107 39.3927 83.244 38.3697 82.8538 37.356C82.4478 36.2923 82.0034 35.2254 81.5397 34.1897C81.3864 33.8486 80.9859 33.698 80.645 33.8526C80.304 34.0072 80.1517 34.4057 80.3041 34.7477C80.7586 35.7599 81.1927 36.8021 81.5907 37.8433C81.974 38.8406 82.3334 39.8427 82.6689 40.8521C82.7881 41.207 83.1707 41.3968 83.525 41.278C83.6403 41.239 83.7381 41.1738 83.8146 41.0888ZM24.825 108.969C24.8673 108.922 24.9031 108.867 24.9323 108.806C25.0955 108.47 24.9524 108.065 24.6148 107.905C22.9691 107.116 21.3994 106.171 19.9514 105.093C19.6841 104.896 19.4185 104.692 19.1541 104.481C18.8631 104.25 18.4309 104.296 18.2037 104.59C17.9707 104.885 18.02 105.31 18.3117 105.543C18.5862 105.762 18.8634 105.975 19.1403 106.181C20.6597 107.312 22.3048 108.301 24.0293 109.127C24.3058 109.259 24.6294 109.186 24.825 108.969ZM71.6852 62.4959C71.6966 62.4831 71.7072 62.4713 71.7177 62.4597C71.9483 62.1648 71.8974 61.7389 71.6027 61.5092C70.1491 60.3771 68.5631 59.344 66.8915 58.4422C66.5645 58.2653 66.2359 58.0926 65.908 57.9239C65.5777 57.7531 65.1665 57.8869 64.9977 58.2169C64.8254 58.5507 64.9547 58.957 65.2882 59.1291C65.6069 59.2936 65.9266 59.4617 66.2446 59.6342C67.852 60.5011 69.3758 61.4924 70.7683 62.5789C71.049 62.7977 71.4499 62.7574 71.6852 62.4959ZM86.7618 53.9712C86.8881 53.8308 86.9562 53.637 86.9318 53.4348C86.661 51.2584 86.2687 49.0431 85.7616 46.8495C85.6802 46.4863 85.3159 46.2592 84.9531 46.344C84.5894 46.4298 84.3595 46.7915 84.4453 47.157C84.9394 49.3049 85.3235 51.4737 85.5882 53.6039C85.6342 53.975 85.9721 54.2386 86.3441 54.1919C86.5114 54.1699 86.6562 54.0886 86.7618 53.9712ZM37.6057 111.968C37.7105 111.851 37.7757 111.699 37.7811 111.532C37.7902 111.157 37.494 110.847 37.122 110.839C34.9448 110.788 32.7856 110.515 30.7048 110.032C30.3425 109.948 29.977 110.178 29.8924 110.54C29.8075 110.904 30.0329 111.266 30.3972 111.351C32.5675 111.858 34.8186 112.14 37.0867 112.193C37.2913 112.197 37.478 112.11 37.6057 111.968ZM80.0976 72.5482C80.2834 72.3417 80.33 72.0341 80.1922 71.7748C79.1168 69.764 77.8547 67.8861 76.4397 66.19C76.2006 65.9033 75.7728 65.865 75.4864 66.1061C75.2038 66.3431 75.1601 66.7704 75.3995 67.0591C76.7566 68.6844 77.9672 70.487 78.9981 72.417C79.1745 72.7467 79.5832 72.869 79.9138 72.6922C79.9852 72.6538 80.0464 72.6051 80.0976 72.5482ZM86.95 67.1871C87.0429 67.0838 87.1056 66.9514 87.1212 66.8015C87.3449 64.6156 87.4387 62.3643 87.4033 60.1094C87.3974 59.7349 87.0894 59.4379 86.7164 59.4448C86.3431 59.4521 86.0442 59.7602 86.0503 60.1346C86.0845 62.3352 85.9924 64.5341 85.774 66.6681C85.7351 67.0394 86.0074 67.3712 86.379 67.4093C86.602 67.4316 86.811 67.3416 86.95 67.1871ZM50.616 109.87C50.7693 109.7 50.8313 109.455 50.7615 109.221C50.6535 108.864 50.2762 108.661 49.9192 108.77C48.4719 109.211 46.9636 109.617 45.4363 109.973C44.8196 110.116 44.2002 110.242 43.5799 110.35C43.212 110.414 42.9639 110.765 43.0274 111.133C43.0911 111.501 43.4409 111.749 43.8089 111.685C44.455 111.573 45.0992 111.44 45.7402 111.292C47.2974 110.927 48.8349 110.516 50.3095 110.066C50.4321 110.029 50.5356 109.96 50.616 109.87ZM62.7657 104.669C62.9558 104.458 62.9999 104.138 62.8481 103.878C62.6658 103.554 62.2514 103.443 61.9277 103.63C60.0782 104.691 58.1088 105.672 56.0714 106.54C55.7295 106.686 55.5661 107.082 55.7114 107.427C55.8572 107.772 56.2525 107.931 56.5989 107.784C58.6849 106.896 60.7048 105.893 62.5977 104.803C62.6626 104.767 62.7188 104.721 62.7657 104.669ZM77.5805 91.6227C77.5949 91.6067 77.6079 91.5921 77.6198 91.5741C77.9183 91.1771 78.2087 90.7772 78.4914 90.3761C79.494 88.9504 80.4274 87.4571 81.2652 85.9347C81.4451 85.607 81.3241 85.1938 80.9969 85.0147C80.6705 84.8347 80.2622 84.9533 80.0794 85.2843C79.2661 86.7625 78.3594 88.2142 77.3857 89.5981C77.1107 89.9881 76.8284 90.3767 76.5385 90.7641C76.3123 91.0613 76.3739 91.4874 76.6708 91.7098C76.9533 91.9217 77.3484 91.8806 77.5805 91.6227ZM73.2553 96.6353C73.4962 96.3675 73.4866 95.956 73.2307 95.7025C72.9648 95.4384 72.5359 95.4398 72.273 95.7056C70.7507 97.2408 69.1011 98.6909 67.3697 100.015C67.0793 100.236 67.0133 100.666 67.2395 100.963C67.4668 101.26 67.8908 101.317 68.1882 101.09C69.9706 99.7291 71.6661 98.2377 73.2334 96.6597L73.2553 96.6353ZM84.1962 85.0579C84.329 84.9103 84.396 84.7056 84.3621 84.4948C84.1263 83.0513 83.827 81.6398 83.4714 80.274C83.7347 80.2636 83.9826 80.0966 84.0769 79.8373C84.8622 77.7727 85.5174 75.6115 86.0273 73.4164C86.1115 73.0526 85.8856 72.6885 85.5209 72.6041C85.1566 72.5218 84.7944 72.7482 84.7094 73.1129C84.2637 75.0317 83.704 76.9203 83.0432 78.7405C82.9643 78.4807 82.885 78.2239 82.8028 77.9679C82.6885 77.6125 82.3071 77.4188 81.9521 77.5335C81.5989 77.6463 81.3991 78.0276 81.5145 78.3866C82.1566 80.3796 82.6655 82.5086 83.0257 84.7161C83.0867 85.0849 83.4329 85.3346 83.8029 85.2732C83.9608 85.2472 84.0969 85.1682 84.1962 85.0579ZM84.7554 98.262C84.8542 98.1521 84.9188 98.0104 84.9277 97.8508C85.0738 95.5704 85.1053 93.3183 85.021 91.1612C85.0076 90.7878 84.6924 90.4964 84.3201 90.5122C83.9449 90.5288 83.6544 90.8444 83.6695 91.2161C83.7513 93.3277 83.7207 95.5328 83.5768 97.7675C83.553 98.1414 83.8357 98.4615 84.2094 98.4853C84.4249 98.4991 84.6214 98.4108 84.7554 98.262ZM82.7811 111.353C82.8554 111.271 82.9108 111.168 82.9373 111.052C83.4498 108.851 83.8748 106.644 84.2032 104.494C84.2602 104.125 84.0059 103.78 83.6372 103.724C83.2656 103.669 82.9215 103.924 82.8645 104.293C82.5424 106.408 82.124 108.581 81.6195 110.748C81.5348 111.113 81.7611 111.476 82.1246 111.56C82.3725 111.617 82.6218 111.53 82.7811 111.353ZM78.905 124.021C78.9598 123.96 79.006 123.889 79.0362 123.807C79.8261 121.718 80.5541 119.594 81.1985 117.496C81.3087 117.139 81.1082 116.759 80.7504 116.65C80.3921 116.542 80.0159 116.743 79.906 117.101C79.2697 119.174 78.5496 121.268 77.7702 123.331C77.6381 123.68 77.8137 124.071 78.1634 124.203C78.4315 124.303 78.7232 124.223 78.905 124.021ZM73.4569 136.105C73.4932 136.065 73.5265 136.018 73.5528 135.967C74.5864 134.003 75.5718 131.986 76.4803 129.97C76.6347 129.63 76.4835 129.229 76.1424 129.074C75.8018 128.922 75.4015 129.075 75.2464 129.414C74.3492 131.405 73.3768 133.398 72.355 135.337C72.182 135.669 72.3083 136.079 72.639 136.252C72.9188 136.399 73.2541 136.331 73.4569 136.105ZM66.5608 147.425C66.5794 147.405 66.5963 147.383 66.6134 147.359C67.8707 145.566 69.0985 143.688 70.2633 141.773C70.4586 141.452 70.3583 141.035 70.0372 140.842C69.7198 140.647 69.3002 140.757 69.1069 141.068C67.9587 142.96 66.7459 144.814 65.5055 146.584C65.2902 146.891 65.3647 147.312 65.6696 147.526C65.9521 147.726 66.3347 147.677 66.5608 147.425ZM53.4278 162.296C53.6538 162.044 53.6625 161.656 53.4345 161.398C53.1876 161.115 52.7619 161.089 52.4798 161.335C50.795 162.814 49.0648 164.18 47.3381 165.395C47.0179 165.616 46.9568 166.034 47.1703 166.339C47.3848 166.644 47.8071 166.717 48.1128 166.503C49.8808 165.261 51.6491 163.865 53.3713 162.354C53.3923 162.335 53.4096 162.316 53.4278 162.296ZM59.7083 156.067C60.6818 154.985 61.6524 153.848 62.5911 152.692C62.8269 152.401 62.7854 151.974 62.4921 151.738C62.2057 151.504 61.8079 151.507 61.5424 151.838C60.139 153.564 58.6896 155.224 57.2065 156.781C56.948 157.078 56.9586 157.481 57.2304 157.738C57.4986 157.995 57.9289 157.985 58.1862 157.713C58.6983 157.175 59.205 156.627 59.7083 156.067Z" fill="#6A26DD"/>
</svg>
