<svg width="113" height="159" viewBox="0 0 113 159" fill="none" xmlns="http://www.w3.org/2000/svg">
<path d="M39.1466 153.908C38.9663 153.937 38.7983 154.035 38.6886 154.198C38.481 154.51 38.5647 154.93 38.876 155.136C40.7065 156.357 42.6025 157.549 44.5109 158.684C44.832 158.875 45.2489 158.773 45.4398 158.449C45.6316 158.129 45.5268 157.714 45.2063 157.523C43.3156 156.398 41.4385 155.217 39.6279 154.012C39.481 153.912 39.3088 153.882 39.1466 153.908ZM28.5204 146.003C28.3638 146.028 28.2158 146.107 28.106 146.237C27.8664 146.525 27.9043 146.951 28.1917 147.191C29.8704 148.589 31.6323 149.974 33.4275 151.309C33.7266 151.53 34.1511 151.469 34.3753 151.169C34.5987 150.87 34.5371 150.446 34.2364 150.222C32.4608 148.904 30.7208 147.534 29.0611 146.151C28.9048 146.024 28.7063 145.974 28.5204 146.003ZM18.915 136.901C18.7871 136.921 18.6644 136.978 18.5627 137.071C18.2869 137.324 18.2683 137.751 18.5213 138.028C19.9881 139.623 21.564 141.216 23.2076 142.768C23.48 143.026 23.9082 143.013 24.1654 142.742C24.4223 142.471 24.4107 142.043 24.1398 141.785C22.5187 140.255 20.9645 138.682 19.5208 137.112C19.3602 136.938 19.1308 136.866 18.915 136.901ZM10.7773 126.49C10.6856 126.505 10.5974 126.538 10.5146 126.592C10.2012 126.794 10.1104 127.213 10.314 127.526C11.493 129.343 12.7986 131.167 14.1987 132.95C14.429 133.245 14.8552 133.295 15.1492 133.064C15.444 132.834 15.4958 132.409 15.2645 132.116C13.8907 130.363 12.6081 128.574 11.4521 126.79C11.3017 126.559 11.0336 126.449 10.7773 126.49ZM4.76819 114.742C4.72267 114.749 4.67767 114.76 4.63392 114.778C4.28302 114.909 4.10637 115.3 4.23959 115.648C5.01396 117.695 5.92877 119.75 6.96064 121.755C7.12997 122.089 7.53928 122.219 7.87227 122.048C8.20463 121.878 8.33692 121.47 8.16482 121.137C7.15784 119.176 6.26379 117.169 5.50629 115.171C5.39147 114.866 5.07832 114.693 4.76819 114.742ZM64.7918 100.45C64.4793 100.5 64.2344 100.763 64.2216 101.09C64.2072 101.463 64.4982 101.778 64.8713 101.793C66.9521 101.873 69.0559 101.747 71.1225 101.42L71.612 101.337C71.981 101.272 72.228 100.922 72.1632 100.554C72.0988 100.191 71.7542 99.9452 71.3899 100.003L71.3794 100.005L70.9107 100.082C68.9302 100.396 66.9171 100.517 64.9258 100.441C64.8795 100.44 64.8348 100.444 64.7918 100.45ZM83.6009 95.1151C83.5073 95.1299 83.4148 95.1625 83.3298 95.2201C81.5412 96.4154 79.6161 97.4313 77.606 98.2368C77.2583 98.3752 77.0905 98.7695 77.2298 99.1167C77.369 99.4623 77.7624 99.6369 78.1104 99.4919C80.2071 98.6514 82.2169 97.5927 84.0837 96.3425C84.3949 96.1347 84.4774 95.7148 84.2705 95.406C84.1181 95.1785 83.8536 95.075 83.6009 95.1151ZM52.0459 97.2069C51.8338 97.2406 51.6422 97.3755 51.5414 97.5827C51.3784 97.919 51.5204 98.3229 51.8569 98.4853C53.6129 99.3297 55.4055 100.021 57.187 100.541C57.5176 100.639 57.8528 100.733 58.1861 100.818C58.552 100.912 58.9193 100.692 59.0124 100.33C59.1049 99.9693 58.8873 99.6001 58.5252 99.5072C58.2053 99.4255 57.8879 99.3385 57.5697 99.2435C55.8587 98.7434 54.1349 98.0786 52.4466 97.266C52.317 97.2032 52.1775 97.1861 52.0459 97.2069ZM1.66565 101.924C1.31001 101.981 1.05906 102.306 1.0982 102.666C1.18561 103.481 1.29502 104.289 1.42173 105.089C1.64625 106.491 1.92914 107.894 2.26065 109.26C2.34729 109.622 2.72333 109.84 3.07708 109.757C3.44102 109.668 3.66455 109.302 3.57648 108.94C3.25323 107.609 2.97918 106.242 2.76047 104.877C2.63729 104.099 2.53115 103.312 2.44472 102.52C2.40446 102.149 2.0712 101.881 1.69921 101.922L1.66565 101.924ZM92.7437 85.6706C92.5553 85.7004 92.3811 85.8081 92.2727 85.9838C92.0255 86.3857 91.7643 86.7834 91.4875 87.1835C90.5382 88.5627 89.464 89.8719 88.2962 91.0783C88.0359 91.3483 88.0433 91.7753 88.3117 92.0367C88.582 92.2945 89.0129 92.2851 89.2697 92.0172C90.49 90.7584 91.6129 89.3925 92.604 87.951C92.8931 87.531 93.1669 87.1118 93.425 86.6951C93.6231 86.3744 93.5228 85.9589 93.2054 85.7641C93.0623 85.6757 92.8972 85.6463 92.7437 85.6706ZM41.3027 89.5771C41.1642 89.5991 41.0311 89.6627 40.9261 89.7708C40.6623 90.0365 40.6664 90.4656 40.933 90.7273C42.5522 92.3156 44.2809 93.7705 46.0727 95.0504C46.374 95.269 46.797 95.1987 47.0181 94.8956C47.2352 94.59 47.1658 94.168 46.8604 93.9516C45.1274 92.7115 43.452 91.302 41.8837 89.7612C41.7243 89.6067 41.5066 89.5448 41.3027 89.5771ZM1.91841 88.7363C1.63207 88.7816 1.39753 89.0084 1.35345 89.3078C1.0299 91.5292 0.84428 93.7728 0.798905 95.9778C0.791458 96.3516 1.08922 96.6606 1.46294 96.6668C1.82791 96.6775 2.14656 96.3803 2.1544 96.0049C2.19701 93.8558 2.37866 91.6668 2.69425 89.5006C2.74923 89.1324 2.49179 88.7875 2.1217 88.7351C2.05167 88.7249 1.98404 88.7259 1.91841 88.7363ZM96.5902 73.1763C96.2758 73.2261 96.0295 73.4923 96.02 73.8239C95.9556 75.9731 95.6 78.1015 94.9632 80.1453C94.8525 80.5011 95.0515 80.8814 95.4079 80.9916C95.7658 81.0999 96.1452 80.9025 96.2555 80.5452C96.9301 78.3842 97.3059 76.1382 97.3748 73.8625C97.3858 73.4882 97.0912 73.1786 96.718 73.1675C96.6734 73.1647 96.6313 73.1698 96.5902 73.1763ZM33.2705 79.114C33.1907 79.1266 33.1118 79.1538 33.0368 79.1968C32.7128 79.3837 32.6031 79.7982 32.7896 80.1232C33.9267 82.0837 35.1751 83.9579 36.5009 85.6956C36.7279 85.9914 37.1586 86.0489 37.4504 85.8213C37.7485 85.5943 37.8052 85.1703 37.5792 84.8727C36.2879 83.1834 35.0717 81.3581 33.9635 79.4437C33.8189 79.1937 33.5393 79.0714 33.2705 79.114ZM5.26985 75.9625C5.03717 75.9994 4.8308 76.158 4.74104 76.3944C4.36129 77.4089 4.00266 78.4347 3.66815 79.4682C3.31452 80.5504 2.98868 81.6594 2.69744 82.7562C2.60196 83.1178 2.81841 83.4871 3.1806 83.5817C3.54279 83.6762 3.91182 83.4625 4.00858 83.1007C4.29217 82.028 4.61046 80.9448 4.95619 79.885C5.28572 78.8687 5.63684 77.8636 6.01122 76.868C6.14181 76.5172 5.9639 76.1287 5.61382 75.9979C5.49972 75.9555 5.38275 75.9446 5.26985 75.9625ZM93.8104 60.366C93.748 60.3759 93.6859 60.3955 93.6246 60.4248C93.2866 60.583 93.1428 60.9881 93.3042 61.3253C94.0872 62.9742 94.7123 64.6972 95.1594 66.4467C95.243 66.7685 95.3209 67.0944 95.3941 67.4243C95.4747 67.7873 95.8395 68.0237 96.2008 67.9387C96.5675 67.856 96.7967 67.4945 96.7167 67.1297C96.6407 66.7872 96.5593 66.4471 96.4738 66.1126C96.0047 64.2767 95.3486 62.472 94.5282 60.7441C94.3962 60.4676 94.0992 60.3202 93.8104 60.366ZM28.1619 66.9668C28.145 66.9695 28.1294 66.972 28.1139 66.9744C27.7492 67.0584 27.5208 67.4214 27.6053 67.7855C28.0226 69.5806 28.6052 71.3822 29.3368 73.1356C29.4796 73.479 29.6262 73.8202 29.775 74.1578C29.9242 74.4985 30.3279 74.6535 30.6667 74.5034C31.0105 74.3525 31.1657 73.9553 31.0148 73.6116C30.8706 73.2831 30.7279 72.9511 30.5893 72.6169C29.8856 70.9309 29.3252 69.2009 28.9266 67.4797C28.8462 67.1329 28.5093 66.9118 28.1619 66.9668ZM11.0838 64.0961C10.8973 64.1256 10.7225 64.2334 10.6142 64.4058C9.45551 66.2676 8.36671 68.236 7.38084 70.26C7.21558 70.5934 7.35581 70.9993 7.69112 71.1619C8.0277 71.3243 8.43387 71.188 8.5971 70.85C9.56437 68.8698 10.6302 66.9426 11.7646 65.1206C11.9624 64.8033 11.8656 64.3856 11.5472 64.1877C11.4034 64.0994 11.2397 64.0714 11.0838 64.0961ZM85.7658 49.9865C85.6111 50.011 85.4648 50.0881 85.3551 50.215C85.1124 50.5002 85.1476 50.9276 85.4313 51.1686C87.0914 52.5789 88.5975 54.1508 89.9105 55.8366C90.1388 56.1305 90.5676 56.1818 90.8609 55.954C91.1563 55.7241 91.209 55.3008 90.9792 55.0055C89.6115 53.245 88.0396 51.6083 86.3105 50.1387C86.154 50.0066 85.9542 49.9566 85.7658 49.9865ZM27.9488 53.8576C27.6745 53.9011 27.4447 54.1107 27.3887 54.399C26.9594 56.6388 26.7588 58.8929 26.7913 61.102C26.7967 61.4753 27.105 61.7745 27.4793 61.7675C27.848 61.7614 28.1507 61.4568 28.1463 61.0817C28.1142 58.9641 28.3075 56.801 28.7206 54.652C28.7909 54.2847 28.5503 53.9322 28.1822 53.8615C28.1025 53.8463 28.0243 53.8457 27.9488 53.8576ZM19.2515 53.708C19.1143 53.7298 18.9822 53.7932 18.8759 53.8999C17.3269 55.4575 15.8378 57.1479 14.4467 58.9223C14.2157 59.2171 14.2683 59.6418 14.5624 59.8714C14.8571 60.1008 15.2831 60.0497 15.5139 59.7549C16.8717 58.0233 18.3266 56.3727 19.8388 54.8519C20.1026 54.5879 20.0998 54.1586 19.8349 53.895C19.6757 53.7372 19.4567 53.6755 19.2515 53.708ZM74.3364 43.423C74.11 43.4589 73.9077 43.6102 73.8149 43.8357C73.6739 44.1816 73.8395 44.577 74.1859 44.7165C75.588 45.2853 77.0149 45.9203 78.4259 46.6052C78.9949 46.8827 79.5558 47.1746 80.1057 47.4813C80.4318 47.6633 80.8451 47.5471 81.0276 47.2208C81.2098 46.8945 81.094 46.4815 80.7677 46.2995C80.1948 45.9801 79.611 45.6772 79.0199 45.3885C77.5799 44.6918 76.1266 44.0429 74.6978 43.4638C74.579 43.4156 74.4551 43.4042 74.3364 43.423ZM61.6233 39.8131C61.3427 39.8576 61.1076 40.0779 61.0615 40.376C60.9998 40.742 61.2519 41.0894 61.6206 41.1486C63.7258 41.4882 65.8729 41.9667 68.002 42.5754C68.3596 42.6772 68.7359 42.4722 68.84 42.1125C68.9435 41.7529 68.7362 41.3805 68.3751 41.276C66.1955 40.6524 63.9951 40.1595 61.8379 39.815C61.765 39.8021 61.6926 39.8021 61.6233 39.8131ZM41.9042 40.6209C41.8829 40.6242 41.8636 40.6273 41.843 40.6339C41.3613 40.7543 40.8841 40.8822 40.4122 41.0158C38.7361 41.4922 37.0714 42.0649 35.4627 42.7202C35.1167 42.8616 34.9508 43.2588 35.0924 43.6041C35.2329 43.9495 35.6247 44.1145 35.9749 43.9724C37.5369 43.336 39.1547 42.7789 40.7819 42.3168C41.2409 42.1869 41.7047 42.0627 42.1738 41.9442C42.5364 41.8557 42.7567 41.4859 42.6658 41.126C42.5796 40.7835 42.2467 40.5666 41.9042 40.6209ZM48.4184 39.4497C48.0628 39.506 47.8114 39.8318 47.8507 40.19C47.8912 40.5627 48.2254 40.8317 48.5969 40.7908C50.7456 40.5565 52.9397 40.4686 55.1179 40.5303C55.4828 40.5411 55.8048 40.2482 55.8154 39.8756C55.8258 39.5014 55.5323 39.19 55.1584 39.179C52.9171 39.1142 50.6614 39.2053 48.4508 39.4445L48.4184 39.4497ZM32.6335 41.5557C32.4376 41.5867 32.2567 41.7036 32.1504 41.8888C31.4255 43.1589 30.7702 44.4442 30.1873 45.7295C29.9762 45.5718 29.6785 45.5454 29.442 45.6875C27.533 46.7972 25.6644 48.064 23.8872 49.4486C23.5929 49.6783 23.5394 50.1035 23.7697 50.3987C24.001 50.6921 24.4249 50.7443 24.7203 50.5144C26.2737 49.3041 27.8968 48.189 29.5553 47.1909C29.4532 47.4423 29.3533 47.6919 29.2561 47.9426C29.1213 48.2907 29.2958 48.6814 29.6439 48.8158C29.9893 48.9506 30.3844 48.7802 30.5205 48.4285C31.2754 46.4754 32.2192 44.5006 33.3281 42.5584C33.5127 42.2334 33.4008 41.8213 33.0747 41.6361C32.9356 41.5568 32.7801 41.5324 32.6335 41.5557ZM40.5055 30.9432C40.3596 30.9664 40.2203 31.0358 40.113 31.1541C38.5648 32.8342 37.1237 34.5643 35.8321 36.2936C35.6077 36.5922 35.6692 37.0171 35.9685 37.2393C36.2705 37.4627 36.6948 37.4004 36.9169 37.1021C38.1816 35.4098 39.5926 33.7155 41.1103 32.0697C41.364 31.7942 41.3457 31.3673 41.0703 31.1135C40.9115 30.9671 40.7032 30.9119 40.5055 30.9432ZM50.2752 22.0138C50.1655 22.0312 50.058 22.076 49.9642 22.1497C48.1816 23.5368 46.463 24.9841 44.8551 26.4481C44.5783 26.6995 44.5592 27.1274 44.8105 27.403C45.0647 27.6797 45.4923 27.6985 45.7691 27.4472C47.3496 26.0071 49.0417 24.582 50.7973 23.2155C51.0922 22.9857 51.1451 22.5607 50.9151 22.267C50.7586 22.0663 50.5104 21.9765 50.2752 22.0138ZM61.2561 14.6115C61.1751 14.6244 61.0947 14.6502 61.0199 14.6947C59.0918 15.8206 57.1901 17.0125 55.3692 18.2374C55.0593 18.445 54.9758 18.8668 55.1853 19.1767C55.3956 19.4866 55.8143 19.5673 56.1253 19.3579C57.9237 18.148 59.8002 16.9747 61.7037 15.8626C62.0261 15.6742 62.1357 15.2598 61.9472 14.9367C61.8019 14.6901 61.5244 14.569 61.2561 14.6115ZM73.0917 8.65233C73.038 8.66084 72.9828 8.67614 72.9303 8.69917C70.8915 9.57458 68.8569 10.5212 66.883 11.5154C66.5488 11.6828 66.4139 12.0898 66.5819 12.4243C66.751 12.757 67.1583 12.8902 67.492 12.7246C69.4417 11.7424 71.4509 10.8063 73.4648 9.94299C73.8082 9.79379 73.9679 9.39592 73.8195 9.0534C73.6949 8.76267 73.3911 8.60488 73.0917 8.65233ZM85.5717 4.19897C85.5442 4.20332 85.5176 4.20918 85.4894 4.21693C83.3843 4.81851 81.2485 5.50504 79.1388 6.25933C78.7852 6.38563 78.6009 6.7727 78.7291 7.12497C78.8531 7.47625 79.2479 7.65553 79.5941 7.53531C81.6762 6.78866 83.7853 6.11125 85.8623 5.51738C86.2227 5.41452 86.4299 5.04016 86.3272 4.68222C86.2335 4.34901 85.9054 4.14608 85.5717 4.19897ZM105.131 0.914675C104.798 0.967568 104.547 1.26391 104.562 1.60798C104.575 1.98325 104.89 2.27169 105.264 2.25819C107.504 2.16957 109.707 2.19783 111.813 2.34124C112.201 2.37129 112.511 2.08518 112.538 1.71335C112.562 1.34174 112.281 1.01877 111.908 0.992817C109.753 0.844064 107.501 0.815338 105.212 0.905197C105.184 0.906362 105.158 0.910424 105.131 0.914675ZM96.333 1.79913C94.8957 2.02689 93.4265 2.29896 91.9693 2.60669C91.603 2.68435 91.3668 3.04206 91.4462 3.41022C91.5215 3.77248 91.8326 4.02059 92.2473 3.93035C94.4238 3.47269 96.594 3.0961 98.7258 2.82037C99.1135 2.75239 99.3588 2.43244 99.3097 2.06112C99.2628 1.69271 98.9219 1.42972 98.5512 1.47866C97.8149 1.5741 97.0761 1.68137 96.333 1.79913Z" fill="#6A26DD"/>
</svg>
