<svg width="55" height="60" viewBox="0 0 55 60" fill="none" xmlns="http://www.w3.org/2000/svg">
<path fill-rule="evenodd" clip-rule="evenodd" d="M35.7325 48.6653C40.5694 47.0021 45.6768 46.0089 50.6334 45.083C51.7012 44.8873 52.7428 45.5752 52.8804 46.6212C53.0948 47.6636 52.3818 48.6694 51.3908 48.8607C46.5865 49.7539 41.6314 50.699 37.022 52.2974C36.0399 52.6431 34.9297 52.1125 34.5634 51.1105C34.1972 50.1093 34.7505 49.0117 35.7325 48.6653Z" fill="#1E2F85"/>
<path fill-rule="evenodd" clip-rule="evenodd" d="M23.029 36.6903C30.475 28.1618 38.9797 20.6146 46.2595 11.8784C46.9061 11.0644 48.1329 10.9519 48.9429 11.6301C49.753 12.3091 49.8998 13.521 49.1764 14.3394C41.898 23.0994 33.3946 30.6697 25.95 39.222C25.2255 40.022 23.9972 40.1037 23.186 39.4048C22.4517 38.7022 22.3045 37.4903 23.029 36.6903Z" fill="#1E2F85"/>
<path fill-rule="evenodd" clip-rule="evenodd" d="M17.5102 16.0965C16.3955 20.5934 15.2813 25.0905 14.1664 29.5882C13.963 30.6284 12.8995 31.2545 11.8526 30.9973C10.8058 30.7395 10.2245 29.7066 10.4281 28.6657C11.5443 24.1611 12.6599 19.6573 13.7759 15.1535C14.0548 14.1281 15.1169 13.5073 16.1627 13.7704C17.133 14.0188 17.789 15.0718 17.5102 16.0965Z" fill="#1E2F85"/>
</svg>
