<svg width="157" height="154" viewBox="0 0 157 154" fill="none" xmlns="http://www.w3.org/2000/svg">
<g filter="url(#filter0_d_4956_7794)">
<rect x="40.1416" y="36" width="76.0164" height="74" rx="37" fill="#1E2F85" shape-rendering="crispEdges"/>
<g clip-path="url(#clip0_4956_7794)">
<path d="M66.1236 69.4126C68.0888 69.4126 70.01 69.9953 71.644 71.0872C73.2781 72.179 74.5517 73.7309 75.3037 75.5465C76.0558 77.3622 76.2526 79.3601 75.8692 81.2876C75.4858 83.2151 74.5394 84.9856 73.1498 86.3753C71.7601 87.7649 69.9896 88.7113 68.0621 89.0947C66.1346 89.4781 64.1367 89.2813 62.321 88.5293C60.5054 87.7772 58.9535 86.5036 57.8616 84.8695C56.7698 83.2355 56.187 81.3144 56.187 79.3491L56.1416 77.9296C56.1416 72.6589 58.2354 67.6041 61.9623 63.8772C65.6892 60.1503 70.744 58.0565 76.0147 58.0565V63.7345C74.1497 63.7295 72.3023 64.0943 70.5792 64.8077C68.8561 65.5211 67.2915 66.569 65.9759 67.8909C65.4646 68.4012 64.9929 68.9498 64.5649 69.5318C65.0731 69.4523 65.5927 69.4097 66.1207 69.4097L66.1236 69.4126ZM91.6747 69.4126C93.6399 69.4126 95.561 69.9953 97.1951 71.0872C98.8292 72.179 100.103 73.7309 100.855 75.5465C101.607 77.3622 101.804 79.3601 101.42 81.2876C101.037 83.2151 100.09 84.9856 98.7008 86.3753C97.3112 87.7649 95.5407 88.7113 93.6132 89.0947C91.6857 89.4781 89.6878 89.2813 87.8721 88.5293C86.0564 87.7772 84.5046 86.5036 83.4127 84.8695C82.3209 83.2355 81.7381 81.3144 81.7381 79.3491L81.6927 77.9296C81.6927 72.6589 83.7865 67.6041 87.5134 63.8772C91.2403 60.1503 96.2951 58.0565 101.566 58.0565V63.7345C99.7008 63.7295 97.8534 64.0943 96.1303 64.8077C94.4072 65.5211 92.8426 66.569 91.527 67.8909C91.0157 68.4012 90.544 68.9498 90.116 69.5318C90.6242 69.4523 91.1438 69.4126 91.6747 69.4126Z" fill="white"/>
</g>
</g>
<defs>
<filter id="filter0_d_4956_7794" x="0.141602" y="0" width="156.016" height="154" filterUnits="userSpaceOnUse" color-interpolation-filters="sRGB">
<feFlood flood-opacity="0" result="BackgroundImageFix"/>
<feColorMatrix in="SourceAlpha" type="matrix" values="0 0 0 0 0 0 0 0 0 0 0 0 0 0 0 0 0 0 127 0" result="hardAlpha"/>
<feOffset dy="4"/>
<feGaussianBlur stdDeviation="20"/>
<feComposite in2="hardAlpha" operator="out"/>
<feColorMatrix type="matrix" values="0 0 0 0 1 0 0 0 0 1 0 0 0 0 1 0 0 0 0.2 0"/>
<feBlend mode="normal" in2="BackgroundImageFix" result="effect1_dropShadow_4956_7794"/>
<feBlend mode="normal" in="SourceGraphic" in2="effect1_dropShadow_4956_7794" result="shape"/>
</filter>
<clipPath id="clip0_4956_7794">
<rect width="45.4696" height="43.3422" fill="white" transform="translate(56.1416 52)"/>
</clipPath>
</defs>
</svg>
