<svg width="48" height="50" viewBox="0 0 48 50" fill="none" xmlns="http://www.w3.org/2000/svg">
<path d="M7.47177 38.9225H7.19786C6.9356 38.9225 6.71997 38.7098 6.71997 38.4511V27.4409C6.71997 27.1822 6.9356 26.9695 7.19786 26.9695H7.46594C7.7282 26.9695 7.94383 27.1822 7.94383 27.4409V38.4453C7.94966 38.7098 7.73402 38.9225 7.47177 38.9225Z" fill="#1A1E25"/>
<path d="M10.2806 38.9225H10.0126C9.7503 38.9225 9.53467 38.7098 9.53467 38.4511V27.4409C9.53467 27.1822 9.7503 26.9695 10.0126 26.9695H10.2806C10.5429 26.9695 10.7585 27.1822 10.7585 27.4409V38.4453C10.7585 38.7098 10.5429 38.9225 10.2806 38.9225Z" fill="#1A1E25"/>
<path d="M10.6651 26.553H6.8129C6.63224 26.553 6.48071 26.4036 6.48071 26.2253V26.0413C6.48071 25.8631 6.63224 25.7136 6.8129 25.7136H10.6651C10.8458 25.7136 10.9973 25.8631 10.9973 26.0413V26.2253C10.9973 26.4093 10.8458 26.553 10.6651 26.553Z" fill="#1A1E25"/>
<path d="M10.6651 23.9966H6.8129C6.63224 23.9966 6.48071 23.8472 6.48071 23.6689V23.4849C6.48071 23.3067 6.63224 23.1572 6.8129 23.1572H10.6651C10.8458 23.1572 10.9973 23.3067 10.9973 23.4849V23.6689C10.9973 23.8529 10.8458 23.9966 10.6651 23.9966Z" fill="#1A1E25"/>
<path d="M12.3493 25.2711H5.12858C4.94791 25.2711 4.79639 25.1216 4.79639 24.9433V24.7594C4.79639 24.5811 4.94791 24.4316 5.12858 24.4316H12.3435C12.5242 24.4316 12.6757 24.5811 12.6757 24.7594V24.9433C12.6757 25.1273 12.53 25.2711 12.3493 25.2711Z" fill="#1A1E25"/>
<path d="M6.8129 39.3274H10.6651C10.8458 39.3274 10.9973 39.4769 10.9973 39.6551V39.8391C10.9973 40.0173 10.8458 40.1668 10.6651 40.1668H6.8129C6.63224 40.1668 6.48071 40.0173 6.48071 39.8391V39.6551C6.48071 39.4711 6.63224 39.3274 6.8129 39.3274Z" fill="#1A1E25"/>
<path d="M5.74064 40.6016H11.7375C11.9182 40.6016 12.0697 40.751 12.0697 40.9293V41.1133C12.0697 41.2915 11.9182 41.441 11.7375 41.441H5.74064C5.55997 41.441 5.40845 41.2915 5.40845 41.1133V40.9293C5.40845 40.751 5.55997 40.6016 5.74064 40.6016Z" fill="#1A1E25"/>
<path d="M17.5533 38.9225H17.2853C17.023 38.9225 16.8074 38.7098 16.8074 38.4511V27.4409C16.8074 27.1822 17.023 26.9695 17.2853 26.9695H17.5533C17.8156 26.9695 18.0312 27.1822 18.0312 27.4409V38.4453C18.0312 38.7098 17.8156 38.9225 17.5533 38.9225Z" fill="#1A1E25"/>
<path d="M20.3622 38.9225H20.0941C19.8318 38.9225 19.6162 38.7098 19.6162 38.4511V27.4409C19.6162 27.1822 19.8318 26.9695 20.0941 26.9695H20.3622C20.6244 26.9695 20.8401 27.1822 20.8401 27.4409V38.4453C20.8401 38.7098 20.6244 38.9225 20.3622 38.9225Z" fill="#1A1E25"/>
<path d="M20.7472 26.553H16.8949C16.7143 26.553 16.5627 26.4036 16.5627 26.2253V26.0413C16.5627 25.8631 16.7143 25.7136 16.8949 25.7136H20.7472C20.9278 25.7136 21.0794 25.8631 21.0794 26.0413V26.2253C21.0794 26.4093 20.9337 26.553 20.7472 26.553Z" fill="#1A1E25"/>
<path d="M20.7472 23.9966H16.8949C16.7143 23.9966 16.5627 23.8472 16.5627 23.6689V23.4849C16.5627 23.3067 16.7143 23.1572 16.8949 23.1572H20.7472C20.9278 23.1572 21.0794 23.3067 21.0794 23.4849V23.6689C21.0794 23.8529 20.9337 23.9966 20.7472 23.9966Z" fill="#1A1E25"/>
<path d="M22.4314 25.2711H15.2165C15.0358 25.2711 14.8843 25.1216 14.8843 24.9433V24.7594C14.8843 24.5811 15.0358 24.4316 15.2165 24.4316H22.4314C22.6121 24.4316 22.7636 24.5811 22.7636 24.7594V24.9433C22.7636 25.1273 22.6121 25.2711 22.4314 25.2711Z" fill="#1A1E25"/>
<path d="M16.8949 39.3274H20.7472C20.9278 39.3274 21.0794 39.4769 21.0794 39.6551V39.8391C21.0794 40.0173 20.9278 40.1668 20.7472 40.1668H16.8949C16.7143 40.1668 16.5627 40.0173 16.5627 39.8391V39.6551C16.5686 39.4711 16.7143 39.3274 16.8949 39.3274Z" fill="#1A1E25"/>
<path d="M15.8224 40.6016H21.8252C22.0058 40.6016 22.1573 40.751 22.1573 40.9293V41.1133C22.1573 41.2915 22.0058 41.441 21.8252 41.441H15.8224C15.6418 41.441 15.4902 41.2915 15.4902 41.1133V40.9293C15.4902 40.751 15.6418 40.6016 15.8224 40.6016Z" fill="#1A1E25"/>
<path d="M27.6359 38.9225H27.3678C27.1055 38.9225 26.8899 38.7098 26.8899 38.4511V27.4409C26.8899 27.1822 27.1055 26.9695 27.3678 26.9695H27.6359C27.8981 26.9695 28.1138 27.1822 28.1138 27.4409V38.4453C28.1196 38.7098 27.9039 38.9225 27.6359 38.9225Z" fill="#1A1E25"/>
<path d="M30.4449 38.9225H30.1769C29.9146 38.9225 29.699 38.7098 29.699 38.4511V27.4409C29.699 27.1822 29.9146 26.9695 30.1769 26.9695H30.4449C30.7072 26.9695 30.9228 27.1822 30.9228 27.4409V38.4453C30.9287 38.7098 30.713 38.9225 30.4449 38.9225Z" fill="#1A1E25"/>
<path d="M30.8356 26.553H26.9833C26.8026 26.553 26.6511 26.4036 26.6511 26.2253V26.0413C26.6511 25.8631 26.8026 25.7136 26.9833 25.7136H30.8356C31.0162 25.7136 31.1677 25.8631 31.1677 26.0413V26.2253C31.1619 26.4093 31.0162 26.553 30.8356 26.553Z" fill="#1A1E25"/>
<path d="M30.8356 23.9966H26.9833C26.8026 23.9966 26.6511 23.8472 26.6511 23.6689V23.4849C26.6511 23.3067 26.8026 23.1572 26.9833 23.1572H30.8356C31.0162 23.1572 31.1677 23.3067 31.1677 23.4849V23.6689C31.1619 23.8529 31.0162 23.9966 30.8356 23.9966Z" fill="#1A1E25"/>
<path d="M32.5139 25.2711H25.299C25.1183 25.2711 24.9668 25.1216 24.9668 24.9433V24.7594C24.9668 24.5811 25.1183 24.4316 25.299 24.4316H32.5139C32.6946 24.4316 32.8461 24.5811 32.8461 24.7594V24.9433C32.8461 25.1273 32.6946 25.2711 32.5139 25.2711Z" fill="#1A1E25"/>
<path d="M26.9833 39.3274H30.8356C31.0162 39.3274 31.1677 39.4769 31.1677 39.6551V39.8391C31.1677 40.0173 31.0162 40.1668 30.8356 40.1668H26.9833C26.8026 40.1668 26.6511 40.0173 26.6511 39.8391V39.6551C26.6511 39.4711 26.7968 39.3274 26.9833 39.3274Z" fill="#1A1E25"/>
<path d="M25.9049 40.6016H31.9077C32.0883 40.6016 32.2399 40.751 32.2399 40.9293V41.1133C32.2399 41.2915 32.0883 41.441 31.9077 41.441H25.9049C25.7243 41.441 25.5728 41.2915 25.5728 41.1133V40.9293C25.5786 40.751 25.7243 40.6016 25.9049 40.6016Z" fill="#1A1E25"/>
<path d="M37.7242 38.9225H37.4562C37.1939 38.9225 36.9783 38.7098 36.9783 38.4511V27.4409C36.9783 27.1822 37.1939 26.9695 37.4562 26.9695H37.7242C37.9865 26.9695 38.2021 27.1822 38.2021 27.4409V38.4453C38.2021 38.7098 37.9865 38.9225 37.7242 38.9225Z" fill="#1A1E25"/>
<path d="M40.5333 38.9225H40.2652C40.003 38.9225 39.7874 38.7098 39.7874 38.4511V27.4409C39.7874 27.1822 40.003 26.9695 40.2652 26.9695H40.5333C40.7956 26.9695 41.0112 27.1822 41.0112 27.4409V38.4453C41.0112 38.7098 40.7956 38.9225 40.5333 38.9225Z" fill="#1A1E25"/>
<path d="M40.9178 26.553H37.0656C36.8849 26.553 36.7334 26.4036 36.7334 26.2253V26.0413C36.7334 25.8631 36.8849 25.7136 37.0656 25.7136H40.9178C41.0985 25.7136 41.25 25.8631 41.25 26.0413V26.2253C41.25 26.4093 41.0985 26.553 40.9178 26.553Z" fill="#1A1E25"/>
<path d="M40.9178 23.9966H37.0656C36.8849 23.9966 36.7334 23.8472 36.7334 23.6689V23.4849C36.7334 23.3067 36.8849 23.1572 37.0656 23.1572H40.9178C41.0985 23.1572 41.25 23.3067 41.25 23.4849V23.6689C41.25 23.8529 41.0985 23.9966 40.9178 23.9966Z" fill="#1A1E25"/>
<path d="M42.6023 25.2711H35.3815C35.2008 25.2711 35.0493 25.1216 35.0493 24.9433V24.7594C35.0493 24.5811 35.2008 24.4316 35.3815 24.4316H42.5964C42.7771 24.4316 42.9286 24.5811 42.9286 24.7594V24.9433C42.9286 25.1273 42.7829 25.2711 42.6023 25.2711Z" fill="#1A1E25"/>
<path d="M37.0656 39.3274H40.9178C41.0985 39.3274 41.25 39.4769 41.25 39.6551V39.8391C41.25 40.0173 41.0985 40.1668 40.9178 40.1668H37.0656C36.8849 40.1668 36.7334 40.0173 36.7334 39.8391V39.6551C36.7334 39.4711 36.8849 39.3274 37.0656 39.3274Z" fill="#1A1E25"/>
<path d="M35.9933 40.6016H41.9902C42.1709 40.6016 42.3224 40.751 42.3224 40.9293V41.1133C42.3224 41.2915 42.1709 41.441 41.9902 41.441H35.9933C35.8127 41.441 35.6611 41.2915 35.6611 41.1133V40.9293C35.6611 40.751 35.8127 40.6016 35.9933 40.6016Z" fill="#1A1E25"/>
<path d="M44.9796 22.3066H2.75069C2.52341 22.3066 2.33691 22.1227 2.33691 21.8984V21.6685C2.33691 21.4442 2.52341 21.2603 2.75069 21.2603H44.9855C45.2127 21.2603 45.3992 21.4442 45.3992 21.6685V21.8984C45.3934 22.1284 45.2069 22.3066 44.9796 22.3066Z" fill="#1A1E25"/>
<path d="M41.2731 20.5085H6.45723C6.10756 20.5085 5.81616 20.2268 5.81616 19.8761V18.8297C5.81616 18.4847 6.10173 18.1973 6.45723 18.1973H41.2731C41.6228 18.1973 41.9142 18.479 41.9142 18.8297V19.8761C41.9142 20.2211 41.6228 20.5085 41.2731 20.5085Z" fill="#1A1E25"/>
<path d="M44.9796 46.0752H2.75069C2.52341 46.0752 2.33691 45.8912 2.33691 45.667V45.437C2.33691 45.2128 2.52341 45.0288 2.75069 45.0288H44.9855C45.2127 45.0288 45.3992 45.2128 45.3992 45.437V45.667C45.3934 45.8912 45.2069 46.0752 44.9796 46.0752Z" fill="#1A1E25"/>
<path d="M46.1745 47.9668H1.55611C1.32883 47.9668 1.14233 47.7828 1.14233 47.5586V47.3286C1.14233 47.1044 1.32883 46.9204 1.55611 46.9204H46.1745C46.4018 46.9204 46.5883 47.1044 46.5883 47.3286V47.5586C46.5883 47.7828 46.4018 47.9668 46.1745 47.9668Z" fill="#1A1E25"/>
<path d="M47.3167 50.001H0.413781C0.186493 50.001 0 49.817 0 49.5928V49.3628C0 49.1386 0.186493 48.9546 0.413781 48.9546H47.3225C47.5498 48.9546 47.7363 49.1386 47.7363 49.3628V49.5928C47.7305 49.817 47.544 50.001 47.3167 50.001Z" fill="#1A1E25"/>
<path d="M41.6694 44.364H6.06099C5.70549 44.364 5.41992 44.0765 5.41992 43.7316V42.6852C5.41992 42.3345 5.70549 42.0527 6.06099 42.0527H41.6694C42.0191 42.0527 42.3105 42.3345 42.3105 42.6852V43.7316C42.3105 44.0823 42.0249 44.364 41.6694 44.364Z" fill="#1A1E25"/>
<path d="M23.8304 3.03937C15.1818 3.05662 8.1825 9.62244 8.19998 17.7004L39.5249 17.6256C39.5074 9.55345 32.479 3.01637 23.8304 3.03937ZM23.947 4.79869C31.4183 4.78144 37.491 10.0019 37.5085 16.4642L10.4437 16.5275C10.4262 10.0651 16.4756 4.81594 23.947 4.79869Z" fill="#1A1E25"/>
<path d="M12.2502 15.6539C12.2502 15.6539 12.2561 15.4814 12.2619 15.4584C12.2677 15.4296 12.2736 15.3894 12.2852 15.3434C12.3085 15.2456 12.3377 15.1077 12.3843 14.9294C12.4309 14.7569 12.495 14.5442 12.5708 14.3085C12.6465 14.0728 12.7398 13.8025 12.8563 13.5208C12.9671 13.2333 13.1011 12.9344 13.2526 12.6182C13.3342 12.4629 13.41 12.2962 13.4974 12.141C13.544 12.0605 13.5848 11.98 13.6315 11.8937C13.6781 11.8132 13.7247 11.7328 13.7772 11.6465C13.8704 11.4798 13.9811 11.3188 14.086 11.1521C14.1385 11.0716 14.1968 10.9911 14.255 10.9106C14.3133 10.8301 14.3658 10.7439 14.4299 10.6691C14.5523 10.5081 14.6746 10.3471 14.8029 10.1919C14.867 10.1172 14.9311 10.0367 15.001 9.96193L15.205 9.73771L15.3099 9.62272L15.4206 9.51348L15.6363 9.30075C15.7819 9.16276 15.9393 9.03053 16.085 8.89829C16.1608 8.83505 16.2424 8.77181 16.3181 8.71431C16.3939 8.65107 16.4696 8.58782 16.5512 8.53608C16.6328 8.47858 16.7086 8.42109 16.7902 8.36935C16.831 8.3406 16.8718 8.31185 16.9067 8.28885C16.9475 8.26011 16.9883 8.23711 17.0291 8.21411C17.3497 8.00713 17.6702 7.83465 17.9849 7.67942C18.1422 7.61042 18.2938 7.53568 18.4453 7.47244C18.5968 7.41494 18.7425 7.35745 18.8882 7.30571C18.9582 7.27696 19.0281 7.25396 19.098 7.23671C19.168 7.21371 19.2321 7.19647 19.302 7.17347C19.436 7.13322 19.5584 7.08723 19.675 7.06423C19.7915 7.03548 19.9023 7.00674 20.0072 6.98374C20.1121 6.96074 20.2053 6.93774 20.2927 6.92049C20.6366 6.85725 20.8347 6.82275 20.8347 6.82275C20.8347 6.82275 20.6424 6.8745 20.3044 6.96649C20.217 6.98949 20.1296 7.01823 20.0305 7.05273C19.9314 7.08723 19.8265 7.12172 19.71 7.16197C19.5934 7.19647 19.4768 7.25396 19.3486 7.29996C19.2845 7.32295 19.2204 7.3517 19.1563 7.38045C19.0922 7.40919 19.0223 7.43219 18.9582 7.46669C18.8241 7.52993 18.6842 7.59893 18.5444 7.66792C18.4045 7.74266 18.2646 7.8289 18.1131 7.90939C17.8217 8.08188 17.5303 8.27736 17.2389 8.50158C17.204 8.53033 17.1632 8.55333 17.1282 8.58207C17.0932 8.61082 17.0583 8.63957 17.0233 8.67407C16.9534 8.73156 16.8834 8.7948 16.8077 8.8523C16.7319 8.90979 16.6678 8.97878 16.5979 9.04203C16.5279 9.10527 16.458 9.17426 16.3939 9.23751C16.2598 9.37549 16.1258 9.51348 15.9976 9.65721L15.8111 9.87569L15.7178 9.98493L15.6304 10.0999L15.4556 10.3299C15.3973 10.4046 15.3449 10.4851 15.2924 10.5656C15.1817 10.7209 15.0826 10.8818 14.9777 11.0428C14.9252 11.1233 14.8786 11.2038 14.832 11.2843C14.7854 11.3648 14.7388 11.4453 14.6921 11.5258C14.6105 11.6925 14.5173 11.8477 14.4415 12.0145C14.4007 12.095 14.3658 12.1755 14.325 12.2559C14.29 12.3364 14.255 12.4169 14.2201 12.4974C14.1501 12.6527 14.0919 12.8136 14.0278 12.9631C13.9112 13.2736 13.8121 13.5611 13.7305 13.837C13.6489 14.113 13.5848 14.366 13.5324 14.5902C13.4799 14.8144 13.4391 15.0099 13.4158 15.1709C13.3867 15.3319 13.3692 15.4584 13.3575 15.5446C13.3517 15.5906 13.3517 15.6194 13.3459 15.6366C13.3459 15.6596 13.3401 15.6711 13.3401 15.6711L12.2502 15.6539Z" fill="#1A1E25"/>
<path d="M24.9375 2.44925H22.787C22.4257 2.44925 22.1343 2.15603 22.1343 1.80532V0.643934C22.1343 0.287471 22.4315 0 22.787 0H24.9375C25.2988 0 25.5902 0.29322 25.5902 0.643934V1.80532C25.596 2.15603 25.2988 2.44925 24.9375 2.44925Z" fill="#1A1E25"/>
</svg>
